ISO-10303-21;
HEADER;
FILE_DESCRIPTION (( 'STEP AP203' ),
    '1' );
FILE_NAME ('5909K44_0.032 Thick Washer for 1-2 Shaft Diameter Needle-Roller Thrust Bearing.STEP',
    '2026-01-19T03:00:11',
    ( 'McMaster Carr Supply' ),
    ( 'McMaster Carr Supply' ),
    'SwSTEP 2.0',
    'SolidWorks 2024',
    '' );
FILE_SCHEMA (( 'CONFIG_CONTROL_DESIGN' ));
ENDSEC;

DATA;
#1 = DATE_AND_TIME ( #232, #62 ) ;
#2 = DATE_AND_TIME ( #189, #131 ) ;
#3 = AXIS2_PLACEMENT_3D ( 'NONE', #91, #173, #66 ) ;
#4 = APPROVAL ( #168, 'UNSPECIFIED' ) ;
#5 = PLANE ( 'NONE',  #3 ) ;
#6 = ORIENTED_EDGE ( 'NONE', *, *, #164, .T. ) ;
#7 = CC_DESIGN_APPROVAL ( #150, ( #100 ) ) ;
#8 = ORIENTED_EDGE ( 'NONE', *, *, #217, .F. ) ;
#9 = ORIENTED_EDGE ( 'NONE', *, *, #116, .T. ) ;
#10 = ORIENTED_EDGE ( 'NONE', *, *, #112, .T. ) ;
#11 = DIRECTION ( 'NONE',  ( 0.000000000000000000, 0.000000000000000000, 1.000000000000000000 ) ) ;
#12 = DIRECTION ( 'NONE',  ( 0.000000000000000000, 0.000000000000000000, 1.000000000000000000 ) ) ;
#13 = AXIS2_PLACEMENT_3D ( 'NONE', #81, #11, #78 ) ;
#14 = LINE ( 'NONE', #98, #23 ) ;
#15 = AXIS2_PLACEMENT_3D ( 'NONE', #92, #70, #134 ) ;
#16 = CARTESIAN_POINT ( 'NONE',  ( 0.000000000000000000, 0.000000000000000000, -0.01599999999999982686 ) ) ;
#17 = COORDINATED_UNIVERSAL_TIME_OFFSET ( 6, 0, .BEHIND. ) ;
#18 = CALENDAR_DATE ( 2026, 18, 1 ) ;
#19 = APPROVAL ( #82, 'UNSPECIFIED' ) ;
#20 = APPROVAL_DATE_TIME ( #2, #4 ) ;
#21 = APPROVAL_DATE_TIME ( #121, #19 ) ;
#22 = SHAPE_DEFINITION_REPRESENTATION ( #64, #229 ) ;
#23 = VECTOR ( 'NONE', #180, 39.37007874015748143 ) ;
#24 = ADVANCED_FACE ( 'NONE', ( #242 ), #209, .F. ) ;
#25 = VERTEX_POINT ( 'NONE', #174 ) ;
#26 = ORIENTED_EDGE ( 'NONE', *, *, #169, .F. ) ;
#27 = EDGE_LOOP ( 'NONE', ( #155, #26 ) ) ;
#28 = PRODUCT_DEFINITION_FORMATION_WITH_SPECIFIED_SOURCE ( 'ANY', '', #233, .NOT_KNOWN. ) ;
#29 = VERTEX_POINT ( 'NONE', #207 ) ;
#30 = UNCERTAINTY_MEASURE_WITH_UNIT (LENGTH_MEASURE( 1.000000000000000082E-05 ), #123, 'distance_accuracy_value', 'NONE');
#31 = CARTESIAN_POINT ( 'NONE',  ( 0.000000000000000000, 0.000000000000000000, -0.01599999999999982686 ) ) ;
#32 = APPROVAL_PERSON_ORGANIZATION ( #200, #4, #59 ) ;
#33 = DIRECTION ( 'NONE',  ( 1.000000000000000000, 0.000000000000000000, 0.000000000000000000 ) ) ;
#34 = DIRECTION ( 'NONE',  ( 0.000000000000000000, 0.000000000000000000, 1.000000000000000000 ) ) ;
#35 = CARTESIAN_POINT ( 'NONE',  ( 0.2510000000000000564, 0.000000000000000000, 0.01600000000000017381 ) ) ;
#36 = VECTOR ( 'NONE', #145, 39.37007874015748143 ) ;
#37 = DIRECTION ( 'NONE',  ( 1.000000000000000000, 0.000000000000000000, 0.000000000000000000 ) ) ;
#38 = PERSON_AND_ORGANIZATION_ROLE ( 'design_owner' ) ;
#39 = CALENDAR_DATE ( 2026, 18, 1 ) ;
#40 = PERSON_AND_ORGANIZATION_ROLE ( 'creator' ) ;
#41 = APPROVAL_ROLE ( '' ) ;
#42 = CALENDAR_DATE ( 2026, 18, 1 ) ;
#43 = MANIFOLD_SOLID_BREP ( 'Boss-Extrude1', #55 ) ;
#44 = FACE_BOUND ( 'NONE', #222, .T. ) ;
#45 = APPROVAL_PERSON_ORGANIZATION ( #230, #150, #41 ) ;
#46 = ORIENTED_EDGE ( 'NONE', *, *, #175, .F. ) ;
#47 = EDGE_LOOP ( 'NONE', ( #139, #111 ) ) ;
#48 = ADVANCED_FACE ( 'NONE', ( #140, #108 ), #223, .T. ) ;
#49 = ORIENTED_EDGE ( 'NONE', *, *, #133, .F. ) ;
#50 = VECTOR ( 'NONE', #249, 39.37007874015748143 ) ;
#51 = CC_DESIGN_APPROVAL ( #19, ( #201 ) ) ;
#52 = ORIENTED_EDGE ( 'NONE', *, *, #188, .F. ) ;
#53 = DIRECTION ( 'NONE',  ( 0.000000000000000000, 0.000000000000000000, 1.000000000000000000 ) ) ;
#54 = CARTESIAN_POINT ( 'NONE',  ( -0.4687500000000000000, 5.740531871003218698E-17, 0.01600000000000017381 ) ) ;
#55 = CLOSED_SHELL ( 'NONE', ( #24, #143, #237, #57, #215, #48 ) ) ;
#56 =( LENGTH_UNIT ( ) NAMED_UNIT ( * ) SI_UNIT ( $, .METRE. ) );
#57 = ADVANCED_FACE ( 'NONE', ( #44, #106 ), #5, .F. ) ;
#58 = DIRECTION ( 'NONE',  ( 0.000000000000000000, 0.000000000000000000, 1.000000000000000000 ) ) ;
#59 = APPROVAL_ROLE ( '' ) ;
#60 = CIRCLE ( 'NONE', #13, 0.4687500000000000000 ) ;
#61 = MECHANICAL_CONTEXT ( 'NONE', #69, 'mechanical' ) ;
#62 = LOCAL_TIME ( 21, 0, 11.00000000000000000, #186 ) ;
#63 = DATE_AND_TIME ( #39, #156 ) ;
#64 = PRODUCT_DEFINITION_SHAPE ( 'NONE', 'NONE',  #201 ) ;
#65 = ORIENTED_EDGE ( 'NONE', *, *, #169, .T. ) ;
#66 = DIRECTION ( 'NONE',  ( 1.000000000000000000, 0.000000000000000000, -0.000000000000000000 ) ) ;
#67 = CC_DESIGN_PERSON_AND_ORGANIZATION_ASSIGNMENT ( #128, #38, ( #233 ) ) ;
#68 = VERTEX_POINT ( 'NONE', #96 ) ;
#69 = APPLICATION_CONTEXT ( 'configuration controlled 3d designs of mechanical parts and assemblies' ) ;
#70 = DIRECTION ( 'NONE',  ( 0.000000000000000000, 0.000000000000000000, 1.000000000000000000 ) ) ;
#71 = CIRCLE ( 'NONE', #167, 0.2510000000000000564 ) ;
#72 = APPLICATION_CONTEXT ( 'configuration controlled 3d designs of mechanical parts and assemblies' ) ;
#73 = DIRECTION ( 'NONE',  ( 0.000000000000000000, 0.000000000000000000, 1.000000000000000000 ) ) ;
#74 = DIRECTION ( 'NONE',  ( 1.000000000000000000, 0.000000000000000000, 0.000000000000000000 ) ) ;
#75 = DESIGN_CONTEXT ( 'detailed design', #72, 'design' ) ;
#76 = CARTESIAN_POINT ( 'NONE',  ( 0.000000000000000000, 0.000000000000000000, 0.01600000000000017381 ) ) ;
#77 = CC_DESIGN_APPROVAL ( #4, ( #28 ) ) ;
#78 = DIRECTION ( 'NONE',  ( 1.000000000000000000, 0.000000000000000000, 0.000000000000000000 ) ) ;
#79 = PRODUCT_RELATED_PRODUCT_CATEGORY ( 'detail', '', ( #233 ) ) ;
#80 = AXIS2_PLACEMENT_3D ( 'NONE', #16, #226, #74 ) ;
#81 = CARTESIAN_POINT ( 'NONE',  ( 0.000000000000000000, 0.000000000000000000, 0.01600000000000017381 ) ) ;
#82 = APPROVAL_STATUS ( 'not_yet_approved' ) ;
#83 = PERSON_AND_ORGANIZATION ( #171, #181 ) ;
#84 =( NAMED_UNIT ( * ) SI_UNIT ( $, .STERADIAN. ) SOLID_ANGLE_UNIT ( ) );
#85 = CIRCLE ( 'NONE', #80, 0.2510000000000000564 ) ;
#86 = DATE_TIME_ROLE ( 'classification_date' ) ;
#87 = PERSON_AND_ORGANIZATION_ROLE ( 'design_supplier' ) ;
#88 = CIRCLE ( 'NONE', #129, 0.4687500000000000000 ) ;
#89 = VERTEX_POINT ( 'NONE', #54 ) ;
#90 = VECTOR ( 'NONE', #34, 39.37007874015748143 ) ;
#91 = CARTESIAN_POINT ( 'NONE',  ( 0.000000000000000000, 0.000000000000000000, -0.01599999999999982686 ) ) ;
#92 = CARTESIAN_POINT ( 'NONE',  ( 0.000000000000000000, 0.000000000000000000, -0.01599999999999982686 ) ) ;
#93 = EDGE_LOOP ( 'NONE', ( #8, #52, #238, #9 ) ) ;
#94 = CC_DESIGN_DATE_AND_TIME_ASSIGNMENT ( #1, #86, ( #100 ) ) ;
#95 = ORIENTED_EDGE ( 'NONE', *, *, #112, .F. ) ;
#96 = CARTESIAN_POINT ( 'NONE',  ( -0.4687500000000000000, 5.740531871003218698E-17, -0.01599999999999982686 ) ) ;
#97 = CARTESIAN_POINT ( 'NONE',  ( -0.2510000000000000564, 3.073863465859857139E-17, -0.01599999999999982686 ) ) ;
#98 = CARTESIAN_POINT ( 'NONE',  ( 0.2510000000000000564, 0.000000000000000000, -0.01599999999999982686 ) ) ;
#99 = EDGE_CURVE ( 'NONE', #193, #190, #195, .T. ) ;
#100 = SECURITY_CLASSIFICATION ( '', '', #220 ) ;
#101 = DIRECTION ( 'NONE',  ( 1.000000000000000000, 0.000000000000000000, 0.000000000000000000 ) ) ;
#102 = CIRCLE ( 'NONE', #199, 0.4687500000000000000 ) ;
#103 = CARTESIAN_POINT ( 'NONE',  ( 0.000000000000000000, 0.000000000000000000, 0.000000000000000000 ) ) ;
#104 = PERSON_AND_ORGANIZATION ( #171, #181 ) ;
#105 = PERSON_AND_ORGANIZATION ( #171, #181 ) ;
#106 = FACE_OUTER_BOUND ( 'NONE', #47, .T. ) ;
#107 = EDGE_CURVE ( 'NONE', #193, #68, #102, .T. ) ;
#108 = FACE_BOUND ( 'NONE', #27, .T. ) ;
#109 = ORIENTED_EDGE ( 'NONE', *, *, #99, .T. ) ;
#110 = CIRCLE ( 'NONE', #126, 0.2510000000000000564 ) ;
#111 = ORIENTED_EDGE ( 'NONE', *, *, #154, .F. ) ;
#112 = EDGE_CURVE ( 'NONE', #68, #89, #212, .T. ) ;
#113 = VERTEX_POINT ( 'NONE', #35 ) ;
#114 = CYLINDRICAL_SURFACE ( 'NONE', #122, 0.4687500000000000000 ) ;
#115 = DIRECTION ( 'NONE',  ( 1.000000000000000000, 0.000000000000000000, 0.000000000000000000 ) ) ;
#116 = EDGE_CURVE ( 'NONE', #113, #206, #71, .T. ) ;
#117 = CARTESIAN_POINT ( 'NONE',  ( 0.000000000000000000, 0.000000000000000000, -0.01599999999999982686 ) ) ;
#118 = CARTESIAN_POINT ( 'NONE',  ( 0.000000000000000000, 0.000000000000000000, 0.01600000000000017381 ) ) ;
#119 = CARTESIAN_POINT ( 'NONE',  ( 0.000000000000000000, 0.000000000000000000, 0.01600000000000017381 ) ) ;
#120 = CC_DESIGN_PERSON_AND_ORGANIZATION_ASSIGNMENT ( #104, #87, ( #28 ) ) ;
#121 = DATE_AND_TIME ( #18, #251 ) ;
#122 = AXIS2_PLACEMENT_3D ( 'NONE', #117, #178, #196 ) ;
#123 =( CONVERSION_BASED_UNIT ( 'INCH', #184 ) LENGTH_UNIT ( ) NAMED_UNIT ( #159 ) );
#124 =( GEOMETRIC_REPRESENTATION_CONTEXT ( 3 ) GLOBAL_UNCERTAINTY_ASSIGNED_CONTEXT ( ( #30 ) ) GLOBAL_UNIT_ASSIGNED_CONTEXT ( ( #123, #218, #84 ) ) REPRESENTATION_CONTEXT ( 'NONE', 'WORKASPACE' ) );
#125 = COORDINATED_UNIVERSAL_TIME_OFFSET ( 6, 0, .BEHIND. ) ;
#126 = AXIS2_PLACEMENT_3D ( 'NONE', #245, #53, #197 ) ;
#127 = CC_DESIGN_PERSON_AND_ORGANIZATION_ASSIGNMENT ( #219, #40, ( #201 ) ) ;
#128 = PERSON_AND_ORGANIZATION ( #171, #181 ) ;
#129 = AXIS2_PLACEMENT_3D ( 'NONE', #119, #228, #147 ) ;
#130 = DATE_AND_TIME ( #42, #162 ) ;
#131 = LOCAL_TIME ( 21, 0, 11.00000000000000000, #17 ) ;
#132 = ORIENTED_EDGE ( 'NONE', *, *, #175, .T. ) ;
#133 = EDGE_CURVE ( 'NONE', #89, #190, #88, .T. ) ;
#134 = DIRECTION ( 'NONE',  ( 1.000000000000000000, 0.000000000000000000, 0.000000000000000000 ) ) ;
#135 = AXIS2_PLACEMENT_3D ( 'NONE', #118, #58, #115 ) ;
#136 = EDGE_LOOP ( 'NONE', ( #95, #153, #109, #49 ) ) ;
#137 = CC_DESIGN_DATE_AND_TIME_ASSIGNMENT ( #63, #148, ( #201 ) ) ;
#138 = AXIS2_PLACEMENT_3D ( 'NONE', #211, #73, #221 ) ;
#139 = ORIENTED_EDGE ( 'NONE', *, *, #107, .F. ) ;
#140 = FACE_OUTER_BOUND ( 'NONE', #240, .T. ) ;
#141 = DIRECTION ( 'NONE',  ( 0.000000000000000000, 0.000000000000000000, 1.000000000000000000 ) ) ;
#142 = CARTESIAN_POINT ( 'NONE',  ( 0.000000000000000000, 0.000000000000000000, -0.01599999999999982686 ) ) ;
#143 = ADVANCED_FACE ( 'NONE', ( #158 ), #114, .T. ) ;
#144 = DIRECTION ( 'NONE',  ( 1.000000000000000000, 0.000000000000000000, 0.000000000000000000 ) ) ;
#145 = DIRECTION ( 'NONE',  ( 0.000000000000000000, 0.000000000000000000, 1.000000000000000000 ) ) ;
#146 = CC_DESIGN_PERSON_AND_ORGANIZATION_ASSIGNMENT ( #185, #166, ( #28 ) ) ;
#147 = DIRECTION ( 'NONE',  ( 1.000000000000000000, 0.000000000000000000, 0.000000000000000000 ) ) ;
#148 = DATE_TIME_ROLE ( 'creation_date' ) ;
#149 = APPLICATION_PROTOCOL_DEFINITION ( 'international standard', 'config_control_design', 1994, #72 ) ;
#150 = APPROVAL ( #170, 'UNSPECIFIED' ) ;
#151 = AXIS2_PLACEMENT_3D ( 'NONE', #216, #12, #33 ) ;
#152 = EDGE_LOOP ( 'NONE', ( #244, #241, #65, #177 ) ) ;
#153 = ORIENTED_EDGE ( 'NONE', *, *, #154, .T. ) ;
#154 = EDGE_CURVE ( 'NONE', #68, #193, #236, .T. ) ;
#155 = ORIENTED_EDGE ( 'NONE', *, *, #116, .F. ) ;
#156 = LOCAL_TIME ( 21, 0, 11.00000000000000000, #125 ) ;
#157 = EDGE_LOOP ( 'NONE', ( #176, #10, #46, #191 ) ) ;
#158 = FACE_OUTER_BOUND ( 'NONE', #157, .T. ) ;
#159 = DIMENSIONAL_EXPONENTS ( 1.000000000000000000, 0.000000000000000000, 0.000000000000000000, 0.000000000000000000, 0.000000000000000000, 0.000000000000000000, 0.000000000000000000 ) ;
#160 = CARTESIAN_POINT ( 'NONE',  ( 0.4687500000000000000, 0.000000000000000000, 0.01600000000000017381 ) ) ;
#161 = DIRECTION ( 'NONE',  ( 0.000000000000000000, 0.000000000000000000, 1.000000000000000000 ) ) ;
#162 = LOCAL_TIME ( 21, 0, 11.00000000000000000, #203 ) ;
#163 = DIRECTION ( 'NONE',  ( 0.000000000000000000, 0.000000000000000000, 1.000000000000000000 ) ) ;
#164 = EDGE_CURVE ( 'NONE', #29, #25, #110, .T. ) ;
#165 = CARTESIAN_POINT ( 'NONE',  ( 0.4687500000000000000, 0.000000000000000000, -0.01599999999999982686 ) ) ;
#166 = PERSON_AND_ORGANIZATION_ROLE ( 'creator' ) ;
#167 = AXIS2_PLACEMENT_3D ( 'NONE', #76, #198, #101 ) ;
#168 = APPROVAL_STATUS ( 'not_yet_approved' ) ;
#169 = EDGE_CURVE ( 'NONE', #206, #113, #239, .T. ) ;
#170 = APPROVAL_STATUS ( 'not_yet_approved' ) ;
#171 = PERSON ( 'UNSPECIFIED', 'UNSPECIFIED', 'UNSPECIFIED', ('UNSPECIFIED'), ('UNSPECIFIED'), ('UNSPECIFIED') ) ;
#172 = ORIENTED_EDGE ( 'NONE', *, *, #133, .T. ) ;
#173 = DIRECTION ( 'NONE',  ( 0.000000000000000000, 0.000000000000000000, 1.000000000000000000 ) ) ;
#174 = CARTESIAN_POINT ( 'NONE',  ( 0.2510000000000000564, 0.000000000000000000, -0.01599999999999982686 ) ) ;
#175 = EDGE_CURVE ( 'NONE', #190, #89, #60, .T. ) ;
#176 = ORIENTED_EDGE ( 'NONE', *, *, #107, .T. ) ;
#177 = ORIENTED_EDGE ( 'NONE', *, *, #208, .F. ) ;
#178 = DIRECTION ( 'NONE',  ( 0.000000000000000000, 0.000000000000000000, 1.000000000000000000 ) ) ;
#179 = CARTESIAN_POINT ( 'NONE',  ( 0.000000000000000000, 0.000000000000000000, -0.01599999999999982686 ) ) ;
#180 = DIRECTION ( 'NONE',  ( 0.000000000000000000, 0.000000000000000000, 1.000000000000000000 ) ) ;
#181 = ORGANIZATION ( 'UNSPECIFIED', 'UNSPECIFIED', '' ) ;
#182 = CC_DESIGN_PERSON_AND_ORGANIZATION_ASSIGNMENT ( #83, #234, ( #100 ) ) ;
#183 = CARTESIAN_POINT ( 'NONE',  ( -0.2510000000000000564, 3.073863465859857139E-17, 0.01600000000000017381 ) ) ;
#184 = LENGTH_MEASURE_WITH_UNIT ( LENGTH_MEASURE( 0.02539999999999999897 ), #56 );
#185 = PERSON_AND_ORGANIZATION ( #171, #181 ) ;
#186 = COORDINATED_UNIVERSAL_TIME_OFFSET ( 6, 0, .BEHIND. ) ;
#187 = APPROVAL_ROLE ( '' ) ;
#188 = EDGE_CURVE ( 'NONE', #25, #29, #85, .T. ) ;
#189 = CALENDAR_DATE ( 2026, 18, 1 ) ;
#190 = VERTEX_POINT ( 'NONE', #160 ) ;
#191 = ORIENTED_EDGE ( 'NONE', *, *, #99, .F. ) ;
#192 = AXIS2_PLACEMENT_3D ( 'NONE', #142, #141, #224 ) ;
#193 = VERTEX_POINT ( 'NONE', #225 ) ;
#194 = APPROVAL_PERSON_ORGANIZATION ( #105, #19, #187 ) ;
#195 = LINE ( 'NONE', #165, #50 ) ;
#196 = DIRECTION ( 'NONE',  ( 1.000000000000000000, 0.000000000000000000, 0.000000000000000000 ) ) ;
#197 = DIRECTION ( 'NONE',  ( 1.000000000000000000, 0.000000000000000000, 0.000000000000000000 ) ) ;
#198 = DIRECTION ( 'NONE',  ( 0.000000000000000000, 0.000000000000000000, 1.000000000000000000 ) ) ;
#199 = AXIS2_PLACEMENT_3D ( 'NONE', #31, #161, #144 ) ;
#200 = PERSON_AND_ORGANIZATION ( #171, #181 ) ;
#201 = PRODUCT_DEFINITION ( 'UNKNOWN', '', #28, #75 ) ;
#202 = DIRECTION ( 'NONE',  ( 0.000000000000000000, 0.000000000000000000, 1.000000000000000000 ) ) ;
#203 = COORDINATED_UNIVERSAL_TIME_OFFSET ( 6, 0, .BEHIND. ) ;
#204 = APPROVAL_DATE_TIME ( #130, #150 ) ;
#205 = AXIS2_PLACEMENT_3D ( 'NONE', #103, #202, #250 ) ;
#206 = VERTEX_POINT ( 'NONE', #183 ) ;
#207 = CARTESIAN_POINT ( 'NONE',  ( -0.2510000000000000564, 3.073863465859857139E-17, -0.01599999999999982686 ) ) ;
#208 = EDGE_CURVE ( 'NONE', #25, #113, #14, .T. ) ;
#209 = CYLINDRICAL_SURFACE ( 'NONE', #15, 0.2510000000000000564 ) ;
#210 = ORIENTED_EDGE ( 'NONE', *, *, #188, .T. ) ;
#211 = CARTESIAN_POINT ( 'NONE',  ( 0.000000000000000000, 0.000000000000000000, 0.01600000000000017381 ) ) ;
#212 = LINE ( 'NONE', #214, #90 ) ;
#213 = CYLINDRICAL_SURFACE ( 'NONE', #151, 0.2510000000000000564 ) ;
#214 = CARTESIAN_POINT ( 'NONE',  ( -0.4687500000000000000, 5.740531871003218698E-17, -0.01599999999999982686 ) ) ;
#215 = ADVANCED_FACE ( 'NONE', ( #248 ), #213, .F. ) ;
#216 = CARTESIAN_POINT ( 'NONE',  ( 0.000000000000000000, 0.000000000000000000, -0.01599999999999982686 ) ) ;
#217 = EDGE_CURVE ( 'NONE', #29, #206, #227, .T. ) ;
#218 =( NAMED_UNIT ( * ) PLANE_ANGLE_UNIT ( ) SI_UNIT ( $, .RADIAN. ) );
#219 = PERSON_AND_ORGANIZATION ( #171, #181 ) ;
#220 = SECURITY_CLASSIFICATION_LEVEL ( 'unclassified' ) ;
#221 = DIRECTION ( 'NONE',  ( 1.000000000000000000, 0.000000000000000000, -0.000000000000000000 ) ) ;
#222 = EDGE_LOOP ( 'NONE', ( #210, #6 ) ) ;
#223 = PLANE ( 'NONE',  #138 ) ;
#224 = DIRECTION ( 'NONE',  ( 1.000000000000000000, 0.000000000000000000, 0.000000000000000000 ) ) ;
#225 = CARTESIAN_POINT ( 'NONE',  ( 0.4687500000000000000, 0.000000000000000000, -0.01599999999999982686 ) ) ;
#226 = DIRECTION ( 'NONE',  ( 0.000000000000000000, 0.000000000000000000, 1.000000000000000000 ) ) ;
#227 = LINE ( 'NONE', #97, #36 ) ;
#228 = DIRECTION ( 'NONE',  ( 0.000000000000000000, 0.000000000000000000, 1.000000000000000000 ) ) ;
#229 = ADVANCED_BREP_SHAPE_REPRESENTATION ( '5909K44_0.032 Thick Washer for 1-2 Shaft Diameter Needle-Roller Thrust Bearing', ( #43, #205 ), #124 ) ;
#230 = PERSON_AND_ORGANIZATION ( #171, #181 ) ;
#231 = AXIS2_PLACEMENT_3D ( 'NONE', #179, #163, #37 ) ;
#232 = CALENDAR_DATE ( 2026, 18, 1 ) ;
#233 = PRODUCT ( '5909K44_0.032 Thick Washer for 1-2 Shaft Diameter Needle-Roller Thrust Bearing', '5909K44_0.032 Thick Washer for 1-2 Shaft Diameter Needle-Roller Thrust Bearing', '', ( #61 ) ) ;
#234 = PERSON_AND_ORGANIZATION_ROLE ( 'classification_officer' ) ;
#235 = APPLICATION_PROTOCOL_DEFINITION ( 'international standard', 'config_control_design', 1994, #69 ) ;
#236 = CIRCLE ( 'NONE', #192, 0.4687500000000000000 ) ;
#237 = ADVANCED_FACE ( 'NONE', ( #247 ), #246, .T. ) ;
#238 = ORIENTED_EDGE ( 'NONE', *, *, #208, .T. ) ;
#239 = CIRCLE ( 'NONE', #135, 0.2510000000000000564 ) ;
#240 = EDGE_LOOP ( 'NONE', ( #132, #172 ) ) ;
#241 = ORIENTED_EDGE ( 'NONE', *, *, #217, .T. ) ;
#242 = FACE_OUTER_BOUND ( 'NONE', #152, .T. ) ;
#243 = CC_DESIGN_SECURITY_CLASSIFICATION ( #100, ( #28 ) ) ;
#244 = ORIENTED_EDGE ( 'NONE', *, *, #164, .F. ) ;
#245 = CARTESIAN_POINT ( 'NONE',  ( 0.000000000000000000, 0.000000000000000000, -0.01599999999999982686 ) ) ;
#246 = CYLINDRICAL_SURFACE ( 'NONE', #231, 0.4687500000000000000 ) ;
#247 = FACE_OUTER_BOUND ( 'NONE', #136, .T. ) ;
#248 = FACE_OUTER_BOUND ( 'NONE', #93, .T. ) ;
#249 = DIRECTION ( 'NONE',  ( 0.000000000000000000, 0.000000000000000000, 1.000000000000000000 ) ) ;
#250 = DIRECTION ( 'NONE',  ( 1.000000000000000000, 0.000000000000000000, 0.000000000000000000 ) ) ;
#251 = LOCAL_TIME ( 21, 0, 11.00000000000000000, #252 ) ;
#252 = COORDINATED_UNIVERSAL_TIME_OFFSET ( 6, 0, .BEHIND. ) ;
ENDSEC;
END-ISO-10303-21;
