ISO-10303-21;
HEADER;
FILE_DESCRIPTION (( 'STEP AP203' ),
    '1' );
FILE_NAME ('92095A181_NO THREADS_18-8 Stainless Steel Button Head Hex-Drive Screw.STEP',
    '2026-03-27T17:38:43',
    ( 'McMaster Carr Supply' ),
    ( 'McMaster Carr Supply' ),
    'SwSTEP 2.0',
    'SolidWorks 2024',
    '' );
FILE_SCHEMA (( 'CONFIG_CONTROL_DESIGN' ));
ENDSEC;

DATA;
#1 = CC_DESIGN_PERSON_AND_ORGANIZATION_ASSIGNMENT ( #632, #308, ( #569 ) ) ;
#2 = ORIENTED_EDGE ( 'NONE', *, *, #653, .F. ) ;
#3 = CARTESIAN_POINT ( 'NONE',  ( -0.8419752161881555175, -0.6685859206620280437, 5.566536875587615896 ) ) ;
#4 = VERTEX_POINT ( 'NONE', #597 ) ;
#5 = CARTESIAN_POINT ( 'NONE',  ( 0.9999999999999997780, 0.5773502691896238437, 4.495000000000000995 ) ) ;
#6 = EDGE_CURVE ( 'NONE', #616, #527, #319, .T. ) ;
#7 = VERTEX_POINT ( 'NONE', #34 ) ;
#8 = DIRECTION ( 'NONE',  ( 1.000000000000000000, 0.000000000000000000, 0.000000000000000000 ) ) ;
#9 = AXIS2_PLACEMENT_3D ( 'NONE', #599, #648, #429 ) ;
#10 = ORIENTED_EDGE ( 'NONE', *, *, #395, .T. ) ;
#11 = CC_DESIGN_DATE_AND_TIME_ASSIGNMENT ( #262, #409, ( #407 ) ) ;
#12 = CARTESIAN_POINT ( 'NONE',  ( 0.9999999999999997780, 0.5773502691896240657, 5.650000000000000355 ) ) ;
#13 = EDGE_CURVE ( 'NONE', #259, #690, #427, .T. ) ;
#14 = EDGE_LOOP ( 'NONE', ( #583, #177, #490, #24, #292, #346, #625 ) ) ;
#15 = DIRECTION ( 'NONE',  ( 0.8660254037844387076, 0.4999999999999998890, 0.000000000000000000 ) ) ;
#16 = CARTESIAN_POINT ( 'NONE',  ( -0.6727527331043335890, 0.7662865668234056793, 5.494872772280238848 ) ) ;
#17 = VERTEX_POINT ( 'NONE', #261 ) ;
#18 = CARTESIAN_POINT ( 'NONE',  ( 0.000000000000000000, -7.444752043045827215E-16, -3.624999999999999556 ) ) ;
#19 = CIRCLE ( 'NONE', #234, 1.154700538379251018 ) ;
#20 = FACE_OUTER_BOUND ( 'NONE', #530, .T. ) ;
#21 = VECTOR ( 'NONE', #361, 1000.000000000000114 ) ;
#22 = EDGE_LOOP ( 'NONE', ( #559, #574, #64, #717 ) ) ;
#23 = APPROVAL_STATUS ( 'not_yet_approved' ) ;
#24 = ORIENTED_EDGE ( 'NONE', *, *, #534, .F. ) ;
#25 = CARTESIAN_POINT ( 'NONE',  ( 0.000000000000000000, -1.959434878635764737E-15, 3.999999999999998224 ) ) ;
#26 =( NAMED_UNIT ( * ) SI_UNIT ( $, .STERADIAN. ) SOLID_ANGLE_UNIT ( ) );
#27 = EDGE_CURVE ( 'NONE', #480, #649, #100, .T. ) ;
#28 = EDGE_LOOP ( 'NONE', ( #607, #2 ) ) ;
#29 = DIRECTION ( 'NONE',  ( 1.000000000000000000, 6.982962677686266711E-15, 1.112658106327673267E-30 ) ) ;
#30 = CARTESIAN_POINT ( 'NONE',  ( -0.9999999999999995559, 0.5773502691896238437, 4.495000000000000995 ) ) ;
#31 = PERSON_AND_ORGANIZATION ( #274, #291 ) ;
#32 = LOCAL_TIME ( 12, 38, 43.00000000000000000, #132 ) ;
#33 = ORIENTED_EDGE ( 'NONE', *, *, #411, .F. ) ;
#34 = CARTESIAN_POINT ( 'NONE',  ( -1.000000000000000000, 0.5773502691896238437, 5.650000000000000355 ) ) ;
#35 = CARTESIAN_POINT ( 'NONE',  ( 0.000000000000000000, 0.000000000000000000, 0.000000000000000000 ) ) ;
#36 = FACE_OUTER_BOUND ( 'NONE', #589, .T. ) ;
#37 = ORIENTED_EDGE ( 'NONE', *, *, #140, .F. ) ;
#38 = ADVANCED_FACE ( 'NONE', ( #495, #661 ), #658, .F. ) ;
#39 = CARTESIAN_POINT ( 'NONE',  ( 0.000000000000000000, -1.998871274622252619E-15, 4.247499999999999609 ) ) ;
#40 = DIRECTION ( 'NONE',  ( -0.000000000000000000, -1.593389736827780109E-16, 1.000000000000000000 ) ) ;
#41 = DIRECTION ( 'NONE',  ( -0.000000000000000000, -0.000000000000000000, 1.000000000000000000 ) ) ;
#42 = COORDINATED_UNIVERSAL_TIME_OFFSET ( 6, 0, .BEHIND. ) ;
#43 = DIRECTION ( 'NONE',  ( 1.000000000000000000, 0.000000000000000000, 0.000000000000000000 ) ) ;
#44 = AXIS2_PLACEMENT_3D ( 'NONE', #106, #230, #330 ) ;
#45 = CARTESIAN_POINT ( 'NONE',  ( 0.000000000000000000, -2.849999999999998757, 5.649999999999999467 ) ) ;
#46 = PLANE ( 'NONE',  #692 ) ;
#47 = CARTESIAN_POINT ( 'NONE',  ( -0.9999999999999995559, 0.3987098407370210928, 5.560679785773699813 ) ) ;
#48 = CARTESIAN_POINT ( 'NONE',  ( -0.9999999999999995559, 0.5773502691896238437, 4.495000000000000995 ) ) ;
#49 = CARTESIAN_POINT ( 'NONE',  ( 1.154700538379251018, -9.002652013076957183E-16, 5.650000000000000355 ) ) ;
#50 = FACE_OUTER_BOUND ( 'NONE', #142, .T. ) ;
#51 = EDGE_CURVE ( 'NONE', #233, #579, #256, .T. ) ;
#52 = EDGE_LOOP ( 'NONE', ( #442, #516 ) ) ;
#53 = CARTESIAN_POINT ( 'NONE',  ( 0.9999999999999997780, -0.5773502691896270633, 4.495000000000000995 ) ) ;
#54 = DIRECTION ( 'NONE',  ( 0.000000000000000000, 0.000000000000000000, 1.000000000000000000 ) ) ;
#55 = ORIENTED_EDGE ( 'NONE', *, *, #350, .F. ) ;
#56 = CC_DESIGN_APPROVAL ( #152, ( #407 ) ) ;
#57 = VECTOR ( 'NONE', #199, 1000.000000000000000 ) ;
#58 = DIRECTION ( 'NONE',  ( 0.8660254037844385966, -0.4999999999999998890, 0.000000000000000000 ) ) ;
#59 = DIRECTION ( 'NONE',  ( 0.000000000000000000, -1.000000000000000000, -3.043374519257559480E-16 ) ) ;
#60 = VERTEX_POINT ( 'NONE', #485 ) ;
#61 = EDGE_CURVE ( 'NONE', #690, #129, #138, .T. ) ;
#62 = DIRECTION ( 'NONE',  ( 0.000000000000000000, -1.000000000000000000, -1.593389736827780109E-16 ) ) ;
#63 = VECTOR ( 'NONE', #552, 1000.000000000000000 ) ;
#64 = ORIENTED_EDGE ( 'NONE', *, *, #562, .F. ) ;
#65 = EDGE_LOOP ( 'NONE', ( #174, #74, #540, #682 ) ) ;
#66 = APPROVAL_PERSON_ORGANIZATION ( #695, #152, #483 ) ;
#67 = ORIENTED_EDGE ( 'NONE', *, *, #482, .T. ) ;
#68 = APPLICATION_CONTEXT ( 'configuration controlled 3d designs of mechanical parts and assemblies' ) ;
#69 = B_SPLINE_CURVE_WITH_KNOTS ( 'NONE', 3,
 ( #318, #263, #157, #287 ),
 .UNSPECIFIED., .F., .F.,
 ( 4, 4 ),
 ( 0.001281143171721438930, 0.001879577262376466154 ),
 .UNSPECIFIED. ) ;
#70 = CARTESIAN_POINT ( 'NONE',  ( -0.1580247838118447046, 1.063464886906848150, 5.566536875587614119 ) ) ;
#71 = EDGE_CURVE ( 'NONE', #451, #259, #124, .T. ) ;
#72 = ORIENTED_EDGE ( 'NONE', *, *, #51, .F. ) ;
#73 = DIRECTION ( 'NONE',  ( -0.000000000000000000, -1.593389736827780109E-16, 1.000000000000000000 ) ) ;
#74 = ORIENTED_EDGE ( 'NONE', *, *, #423, .T. ) ;
#75 = DIRECTION ( 'NONE',  ( 0.000000000000000000, 0.000000000000000000, 1.000000000000000000 ) ) ;
#76 = CIRCLE ( 'NONE', #621, 1.154700538379251018 ) ;
#77 = CIRCLE ( 'NONE', #573, 1.154700538379251018 ) ;
#78 = FACE_OUTER_BOUND ( 'NONE', #498, .T. ) ;
#79 = ADVANCED_FACE ( 'NONE', ( #270 ), #362, .F. ) ;
#80 = LINE ( 'NONE', #691, #98 ) ;
#81 = ORIENTED_EDGE ( 'NONE', *, *, #515, .F. ) ;
#82 = CARTESIAN_POINT ( 'NONE',  ( -1.492158314515306348E-14, 1.499999999999995337, 5.649999999999999467 ) ) ;
#83 = ORIENTED_EDGE ( 'NONE', *, *, #582, .F. ) ;
#84 = DIRECTION ( 'NONE',  ( 0.000000000000000000, 1.000000000000000000, 1.593389736827780109E-16 ) ) ;
#85 = PERSON_AND_ORGANIZATION ( #274, #291 ) ;
#86 = DIRECTION ( 'NONE',  ( -0.000000000000000000, -0.000000000000000000, 1.000000000000000000 ) ) ;
#87 = EDGE_CURVE ( 'NONE', #417, #88, #421, .T. ) ;
#88 = VERTEX_POINT ( 'NONE', #215 ) ;
#89 = CARTESIAN_POINT ( 'NONE',  ( 0.000000000000000000, -1.959434878635765131E-15, 4.000000000000000888 ) ) ;
#90 = EDGE_LOOP ( 'NONE', ( #631, #446, #231, #185 ) ) ;
#91 = DIRECTION ( 'NONE',  ( 0.000000000000000000, -1.000000000000000000, 0.000000000000000000 ) ) ;
#92 = CALENDAR_DATE ( 2026, 27, 3 ) ;
#93 = CARTESIAN_POINT ( 'NONE',  ( -0.9999999999999995559, -0.5773502691896272854, 4.495000000000000995 ) ) ;
#94 = CIRCLE ( 'NONE', #595, 2.849999999999996980 ) ;
#95 = DIRECTION ( 'NONE',  ( 1.000000000000000000, 0.000000000000000000, 0.000000000000000000 ) ) ;
#96 = CARTESIAN_POINT ( 'NONE',  ( -5.908307134218999458E-30, 3.911638122493692108E-16, 2.855167112299467291 ) ) ;
#97 = CARTESIAN_POINT ( 'NONE',  ( 0.9999999999999997780, -0.5773502691896270633, 4.495000000000000995 ) ) ;
#98 = VECTOR ( 'NONE', #590, 1000.000000000000114 ) ;
#99 = AXIS2_PLACEMENT_3D ( 'NONE', #299, #397, #8 ) ;
#100 = LINE ( 'NONE', #48, #153 ) ;
#101 = DIRECTION ( 'NONE',  ( 0.000000000000000000, 0.000000000000000000, 1.000000000000000000 ) ) ;
#102 = EDGE_CURVE ( 'NONE', #579, #245, #229, .T. ) ;
#103 = DIRECTION ( 'NONE',  ( -0.000000000000000000, -1.593389736827780109E-16, 1.000000000000000000 ) ) ;
#104 = ORIENTED_EDGE ( 'NONE', *, *, #140, .T. ) ;
#105 = CARTESIAN_POINT ( 'NONE',  ( 0.3235293953625336671, -0.9679107548759372515, 5.511735735160803173 ) ) ;
#106 = CARTESIAN_POINT ( 'NONE',  ( 0.000000000000000000, -2.222344185212348905E-15, 5.649999999999999467 ) ) ;
#107 = ORIENTED_EDGE ( 'NONE', *, *, #476, .T. ) ;
#108 = LINE ( 'NONE', #265, #523 ) ;
#109 = DIRECTION ( 'NONE',  ( -0.000000000000000000, -0.000000000000000000, 1.000000000000000000 ) ) ;
#110 = EDGE_CURVE ( 'NONE', #88, #535, #94, .T. ) ;
#111 = ORIENTED_EDGE ( 'NONE', *, *, #482, .F. ) ;
#112 = DIRECTION ( 'NONE',  ( 1.000000000000000000, 0.000000000000000000, 0.000000000000000000 ) ) ;
#113 = EDGE_LOOP ( 'NONE', ( #10, #285, #331, #336, #111 ) ) ;
#114 = VERTEX_POINT ( 'NONE', #168 ) ;
#115 = AXIS2_PLACEMENT_3D ( 'NONE', #340, #679, #391 ) ;
#116 = B_SPLINE_CURVE_WITH_KNOTS ( 'NONE', 3,
 ( #654, #156, #712, #169, #216, #380, #667, #594 ),
 .UNSPECIFIED., .F., .F.,
 ( 4, 2, 2, 4 ),
 ( 2.544396950731399179E-07, 0.0002984430161323458003, 0.0005966315925696184016, 0.001193008745444163387 ),
 .UNSPECIFIED. ) ;
#117 = ORIENTED_EDGE ( 'NONE', *, *, #224, .T. ) ;
#118 = LOCAL_TIME ( 12, 38, 43.00000000000000000, #200 ) ;
#119 = EDGE_CURVE ( 'NONE', #535, #328, #566, .T. ) ;
#120 = EDGE_LOOP ( 'NONE', ( #33, #351 ) ) ;
#121 = PLANE ( 'NONE',  #356 ) ;
#122 = VERTEX_POINT ( 'NONE', #457 ) ;
#123 = CARTESIAN_POINT ( 'NONE',  ( 0.9999999999999997780, -9.002652014439412657E-16, 5.495299461620749781 ) ) ;
#124 = B_SPLINE_CURVE_WITH_KNOTS ( 'NONE', 3,
 ( #211, #707, #431, #593 ),
 .UNSPECIFIED., .F., .F.,
 ( 4, 4 ),
 ( 0.0006828325726426484393, 0.001281143171721438930 ),
 .UNSPECIFIED. ) ;
#125 = APPROVAL_ROLE ( '' ) ;
#126 = DIRECTION ( 'NONE',  ( -0.8660254037844387076, 0.4999999999999997780, 0.000000000000000000 ) ) ;
#127 = UNCERTAINTY_MEASURE_WITH_UNIT (LENGTH_MEASURE( 1.000000000000000082E-05 ), #247, 'distance_accuracy_value', 'NONE');
#128 = ADVANCED_FACE ( 'NONE', ( #284 ), #502, .F. ) ;
#129 = VERTEX_POINT ( 'NONE', #12 ) ;
#130 = PLANE ( 'NONE',  #675 ) ;
#131 = CARTESIAN_POINT ( 'NONE',  ( 0.000000000000000000, -9.002652013076957183E-16, 5.650000000000000355 ) ) ;
#132 = COORDINATED_UNIVERSAL_TIME_OFFSET ( 6, 0, .BEHIND. ) ;
#133 = CONICAL_SURFACE ( 'NONE', #487, 1.154700538379251018, 0.7853981633974500554 ) ;
#134 = DIRECTION ( 'NONE',  ( 0.4999999999999998335, 0.8660254037844388186, 0.000000000000000000 ) ) ;
#135 = CONICAL_SURFACE ( 'NONE', #550, 1.154700538379251018, 0.7853981633974500554 ) ;
#136 = ORIENTED_EDGE ( 'NONE', *, *, #171, .F. ) ;
#137 = ORIENTED_EDGE ( 'NONE', *, *, #653, .T. ) ;
#138 = CIRCLE ( 'NONE', #494, 1.154700538379251018 ) ;
#139 = PERSON_AND_ORGANIZATION ( #274, #291 ) ;
#140 = EDGE_CURVE ( 'NONE', #122, #60, #606, .T. ) ;
#141 = DIRECTION ( 'NONE',  ( -0.000000000000000000, -1.593389736827780109E-16, 1.000000000000000000 ) ) ;
#142 = EDGE_LOOP ( 'NONE', ( #288, #197, #503, #255 ) ) ;
#143 = DIRECTION ( 'NONE',  ( -0.000000000000000000, -1.593389736827780109E-16, 1.000000000000000000 ) ) ;
#144 = CARTESIAN_POINT ( 'NONE',  ( -5.908307134218999458E-30, 3.911638122493692108E-16, 2.855167112299467291 ) ) ;
#145 = CARTESIAN_POINT ( 'NONE',  ( 0.000000000000000000, -2.222344185212348905E-15, 5.650000000000000355 ) ) ;
#146 = CC_DESIGN_APPROVAL ( #425, ( #369 ) ) ;
#147 = AXIS2_PLACEMENT_3D ( 'NONE', #627, #75, #633 ) ;
#148 = ORIENTED_EDGE ( 'NONE', *, *, #339, .T. ) ;
#149 = CARTESIAN_POINT ( 'NONE',  ( 1.047444401652939060E-14, -1.499999999999999556, 5.650000000000000355 ) ) ;
#150 = DIRECTION ( 'NONE',  ( 0.000000000000000000, 0.000000000000000000, 1.000000000000000000 ) ) ;
#151 = CARTESIAN_POINT ( 'NONE',  ( -0.9999999999999995559, -0.5773502691896261751, 5.650000000000000355 ) ) ;
#152 = APPROVAL ( #198, 'UNSPECIFIED' ) ;
#153 = VECTOR ( 'NONE', #91, 1000.000000000000000 ) ;
#154 = VECTOR ( 'NONE', #711, 1000.000000000000000 ) ;
#155 = ORIENTED_EDGE ( 'NONE', *, *, #87, .T. ) ;
#156 = CARTESIAN_POINT ( 'NONE',  ( 0.9218689959748742613, 0.6224592253955857357, 5.604891043794038907 ) ) ;
#157 = CARTESIAN_POINT ( 'NONE',  ( 0.9999999999999997780, 0.3986914069070841560, 5.560670568858729901 ) ) ;
#158 = DIRECTION ( 'NONE',  ( -0.000000000000000000, -0.000000000000000000, 1.000000000000000000 ) ) ;
#159 = EDGE_CURVE ( 'NONE', #245, #408, #681, .T. ) ;
#160 = CARTESIAN_POINT ( 'NONE',  ( 0.8428154764883218908, -0.6681007961515373905, 5.559249473037194633 ) ) ;
#161 = DIRECTION ( 'NONE',  ( -0.000000000000000000, -1.593389736827780109E-16, 1.000000000000000000 ) ) ;
#162 = LOCAL_TIME ( 12, 38, 43.00000000000000000, #580 ) ;
#163 = DIRECTION ( 'NONE',  ( 0.000000000000000000, 1.593389736827780109E-16, -1.000000000000000000 ) ) ;
#164 = DIRECTION ( 'NONE',  ( 1.000000000000000000, 0.000000000000000000, 0.000000000000000000 ) ) ;
#165 = CARTESIAN_POINT ( 'NONE',  ( -0.9218689959748745943, -0.6224592253955890664, 5.604891043794042460 ) ) ;
#166 = VECTOR ( 'NONE', #689, 1000.000000000000000 ) ;
#167 = PRODUCT_DEFINITION_SHAPE ( 'NONE', 'NONE',  #407 ) ;
#168 = CARTESIAN_POINT ( 'NONE',  ( 3.490243377569953103E-16, 2.849999999999994760, 3.999999999999999112 ) ) ;
#169 = CARTESIAN_POINT ( 'NONE',  ( 0.6764706046374658888, 0.7641400526929397197, 5.511735735160802285 ) ) ;
#170 = DIRECTION ( 'NONE',  ( 0.000000000000000000, -1.000000000000000000, -3.043374519257558987E-16 ) ) ;
#171 = EDGE_CURVE ( 'NONE', #527, #7, #244, .T. ) ;
#172 = DIRECTION ( 'NONE',  ( 0.000000000000000000, -1.000000000000000000, 0.000000000000000000 ) ) ;
#173 = ADVANCED_FACE ( 'NONE', ( #624 ), #121, .F. ) ;
#174 = ORIENTED_EDGE ( 'NONE', *, *, #385, .T. ) ;
#175 = AXIS2_PLACEMENT_3D ( 'NONE', #89, #141, #533 ) ;
#176 = CONICAL_SURFACE ( 'NONE', #235, 1.154700538379251018, 0.7853981633974500554 ) ;
#177 = ORIENTED_EDGE ( 'NONE', *, *, #448, .F. ) ;
#178 = DIRECTION ( 'NONE',  ( -0.000000000000000000, -1.593389736827780109E-16, 1.000000000000000000 ) ) ;
#179 = ADVANCED_FACE ( 'NONE', ( #20 ), #243, .T. ) ;
#180 = FACE_OUTER_BOUND ( 'NONE', #412, .T. ) ;
#181 = CARTESIAN_POINT ( 'NONE',  ( 6.322682138062729176E-18, 1.154700538379249242, 5.650000000000000355 ) ) ;
#182 = DIRECTION ( 'NONE',  ( 0.000000000000000000, -1.000000000000000000, 0.000000000000000000 ) ) ;
#183 = LOCAL_TIME ( 12, 38, 43.00000000000000000, #42 ) ;
#184 = CARTESIAN_POINT ( 'NONE',  ( -0.8428154764883220018, 0.6681007961515339488, 5.559249473037191080 ) ) ;
#185 = ORIENTED_EDGE ( 'NONE', *, *, #401, .F. ) ;
#186 = EDGE_CURVE ( 'NONE', #88, #342, #302, .T. ) ;
#187 = APPROVAL_DATE_TIME ( #253, #425 ) ;
#188 = FACE_OUTER_BOUND ( 'NONE', #666, .T. ) ;
#189 = CALENDAR_DATE ( 2026, 27, 3 ) ;
#190 = DIRECTION ( 'NONE',  ( 1.000000000000000000, 0.000000000000000000, 0.000000000000000000 ) ) ;
#191 = CARTESIAN_POINT ( 'NONE',  ( -0.3235293953625338892, 0.9679107548759335877, 5.511735735160800509 ) ) ;
#192 = ORIENTED_EDGE ( 'NONE', *, *, #266, .T. ) ;
#193 = DIRECTION ( 'NONE',  ( -0.000000000000000000, -1.593389736827780109E-16, 1.000000000000000000 ) ) ;
#194 = CALENDAR_DATE ( 2026, 27, 3 ) ;
#195 =( GEOMETRIC_REPRESENTATION_CONTEXT ( 3 ) GLOBAL_UNCERTAINTY_ASSIGNED_CONTEXT ( ( #127 ) ) GLOBAL_UNIT_ASSIGNED_CONTEXT ( ( #247, #422, #26 ) ) REPRESENTATION_CONTEXT ( 'NONE', 'WORKASPACE' ) );
#196 = CIRCLE ( 'NONE', #489, 1.124999999999998002 ) ;
#197 = ORIENTED_EDGE ( 'NONE', *, *, #237, .T. ) ;
#198 = APPROVAL_STATUS ( 'not_yet_approved' ) ;
#199 = DIRECTION ( 'NONE',  ( -0.000000000000000000, -0.000000000000000000, 1.000000000000000000 ) ) ;
#200 = COORDINATED_UNIVERSAL_TIME_OFFSET ( 6, 0, .BEHIND. ) ;
#201 = ORIENTED_EDGE ( 'NONE', *, *, #6, .F. ) ;
#202 = CARTESIAN_POINT ( 'NONE',  ( 0.000000000000000000, -9.002652013076957183E-16, 5.650000000000000355 ) ) ;
#203 = DIRECTION ( 'NONE',  ( 1.000000000000000000, 0.000000000000000000, 0.000000000000000000 ) ) ;
#204 = EDGE_LOOP ( 'NONE', ( #72, #338, #672, #205 ) ) ;
#205 = ORIENTED_EDGE ( 'NONE', *, *, #102, .F. ) ;
#206 = FACE_OUTER_BOUND ( 'NONE', #22, .T. ) ;
#207 = DIRECTION ( 'NONE',  ( 0.000000000000000000, -1.000000000000000000, 0.000000000000000000 ) ) ;
#208 = AXIS2_PLACEMENT_3D ( 'NONE', #39, #264, #591 ) ;
#209 = AXIS2_PLACEMENT_3D ( 'NONE', #435, #588, #217 ) ;
#210 = PRODUCT ( '92095A181_NO THREADS_18-8 Stainless Steel Button Head Hex-Drive Screw', '92095A181_NO THREADS_18-8 Stainless Steel Button Head Hex-Drive Screw', '', ( #368 ) ) ;
#211 = CARTESIAN_POINT ( 'NONE',  ( 0.9999999999999997780, -0.5773502691896258421, 5.650000000000000355 ) ) ;
#212 = DIRECTION ( 'NONE',  ( 1.000000000000000000, 0.000000000000000000, 0.000000000000000000 ) ) ;
#213 = LINE ( 'NONE', #492, #511 ) ;
#214 = EDGE_CURVE ( 'NONE', #245, #579, #242, .T. ) ;
#215 = CARTESIAN_POINT ( 'NONE',  ( 1.990144363140584750E-14, -2.849999999999999201, 4.247499999999999609 ) ) ;
#216 = CARTESIAN_POINT ( 'NONE',  ( 0.5891403177412684045, 0.8145602173408664770, 5.495516201587641980 ) ) ;
#217 = DIRECTION ( 'NONE',  ( 0.000000000000000000, -1.000000000000000000, 0.000000000000000000 ) ) ;
#218 = DIRECTION ( 'NONE',  ( -0.000000000000000000, -0.000000000000000000, 1.000000000000000000 ) ) ;
#219 = DIRECTION ( 'NONE',  ( 0.000000000000000000, -1.593389736827780109E-16, 1.000000000000000000 ) ) ;
#220 = PLANE ( 'NONE',  #472 ) ;
#221 = CONICAL_SURFACE ( 'NONE', #537, 1.124999999999998002, 0.7853981633974463916 ) ;
#222 = B_SPLINE_CURVE_WITH_KNOTS ( 'NONE', 3,
 ( #555, #165, #3, #611, #452, #604, #557, #673 ),
 .UNSPECIFIED., .F., .F.,
 ( 4, 2, 2, 4 ),
 ( 2.544396950724781735E-07, 0.0002984430161323444451, 0.0005966315925696163416, 0.001193008745444160568 ),
 .UNSPECIFIED. ) ;
#223 = EDGE_LOOP ( 'NONE', ( #471, #392 ) ) ;
#224 = EDGE_CURVE ( 'NONE', #114, #417, #327, .T. ) ;
#225 = FACE_OUTER_BOUND ( 'NONE', #65, .T. ) ;
#226 = APPLICATION_CONTEXT ( 'configuration controlled 3d designs of mechanical parts and assemblies' ) ;
#227 = DIRECTION ( 'NONE',  ( 1.000000000000000000, 0.000000000000000000, 0.000000000000000000 ) ) ;
#228 = EDGE_LOOP ( 'NONE', ( #307, #620, #290, #694 ) ) ;
#229 = CIRCLE ( 'NONE', #450, 1.499999999999996669 ) ;
#230 = DIRECTION ( 'NONE',  ( -0.000000000000000000, -1.593389736827780109E-16, 1.000000000000000000 ) ) ;
#231 = ORIENTED_EDGE ( 'NONE', *, *, #186, .T. ) ;
#232 = CARTESIAN_POINT ( 'NONE',  ( 0.000000000000000000, -2.222344185212348905E-15, 5.650000000000000355 ) ) ;
#233 = VERTEX_POINT ( 'NONE', #295 ) ;
#234 = AXIS2_PLACEMENT_3D ( 'NONE', #564, #54, #112 ) ;
#235 = AXIS2_PLACEMENT_3D ( 'NONE', #406, #466, #190 ) ;
#236 = CC_DESIGN_PERSON_AND_ORGANIZATION_ASSIGNMENT ( #257, #478, ( #569 ) ) ;
#237 = EDGE_CURVE ( 'NONE', #114, #535, #413, .T. ) ;
#238 = ORIENTED_EDGE ( 'NONE', *, *, #359, .F. ) ;
#239 = CARTESIAN_POINT ( 'NONE',  ( 0.000000000000000000, -1.499999999999997335, -3.624999999999999556 ) ) ;
#240 = CC_DESIGN_SECURITY_CLASSIFICATION ( #369, ( #569 ) ) ;
#241 = ADVANCED_FACE ( 'NONE', ( #78 ), #130, .F. ) ;
#242 = CIRCLE ( 'NONE', #335, 1.499999999999996669 ) ;
#243 = PLANE ( 'NONE',  #613 ) ;
#244 = B_SPLINE_CURVE_WITH_KNOTS ( 'NONE', 3,
 ( #181, #296, #70, #191, #520, #16, #184, #403 ),
 .UNSPECIFIED., .F., .F.,
 ( 4, 2, 2, 4 ),
 ( 2.544396950725372011E-07, 0.0002984430161323453124, 0.0005966315925696180763, 0.001193008745444163604 ),
 .UNSPECIFIED. ) ;
#245 = VERTEX_POINT ( 'NONE', #239 ) ;
#246 = DIRECTION ( 'NONE',  ( 1.000000000000000000, 0.000000000000000000, 0.000000000000000000 ) ) ;
#247 =( LENGTH_UNIT ( ) NAMED_UNIT ( * ) SI_UNIT ( .MILLI., .METRE. ) );
#248 = ORIENTED_EDGE ( 'NONE', *, *, #716, .F. ) ;
#249 = LINE ( 'NONE', #303, #650 ) ;
#250 = LINE ( 'NONE', #309, #310 ) ;
#251 = LOCAL_TIME ( 12, 38, 43.00000000000000000, #529 ) ;
#252 = DIRECTION ( 'NONE',  ( 0.8660254037844387076, 0.4999999999999998890, 0.000000000000000000 ) ) ;
#253 = DATE_AND_TIME ( #644, #118 ) ;
#254 = EDGE_CURVE ( 'NONE', #233, #17, #196, .T. ) ;
#255 = ORIENTED_EDGE ( 'NONE', *, *, #87, .F. ) ;
#256 = LINE ( 'NONE', #586, #456 ) ;
#257 = PERSON_AND_ORGANIZATION ( #274, #291 ) ;
#258 = DIRECTION ( 'NONE',  ( -0.000000000000000000, -0.000000000000000000, 1.000000000000000000 ) ) ;
#259 = VERTEX_POINT ( 'NONE', #123 ) ;
#260 = CARTESIAN_POINT ( 'NONE',  ( 0.000000000000000000, -9.002652013076957183E-16, 5.650000000000000355 ) ) ;
#261 = CARTESIAN_POINT ( 'NONE',  ( 0.000000000000000000, -1.124999999999998668, -4.000000000000000000 ) ) ;
#262 = DATE_AND_TIME ( #189, #162 ) ;
#263 = CARTESIAN_POINT ( 'NONE',  ( 0.9999999999999997780, 0.2033615549488311525, 5.495299461620749781 ) ) ;
#264 = DIRECTION ( 'NONE',  ( -0.000000000000000000, -1.593389736827780109E-16, 1.000000000000000000 ) ) ;
#265 = CARTESIAN_POINT ( 'NONE',  ( 6.322682138062729176E-18, 1.154700538379249242, 4.495000000000000995 ) ) ;
#266 = EDGE_CURVE ( 'NONE', #527, #7, #561, .T. ) ;
#267 = DIRECTION ( 'NONE',  ( 0.000000000000000000, 0.000000000000000000, 1.000000000000000000 ) ) ;
#268 = CIRCLE ( 'NONE', #175, 1.499999999999999334 ) ;
#269 = AXIS2_PLACEMENT_3D ( 'NONE', #352, #528, #246 ) ;
#270 = FACE_OUTER_BOUND ( 'NONE', #641, .T. ) ;
#271 = PLANE ( 'NONE',  #333 ) ;
#272 = AXIS2_PLACEMENT_3D ( 'NONE', #25, #73, #469 ) ;
#273 = EDGE_LOOP ( 'NONE', ( #509, #297, #37, #602 ) ) ;
#274 = PERSON ( 'UNSPECIFIED', 'UNSPECIFIED', 'UNSPECIFIED', ('UNSPECIFIED'), ('UNSPECIFIED'), ('UNSPECIFIED') ) ;
#275 = FACE_BOUND ( 'NONE', #398, .T. ) ;
#276 = FACE_OUTER_BOUND ( 'NONE', #475, .T. ) ;
#277 = ADVANCED_FACE ( 'NONE', ( #180 ), #678, .T. ) ;
#278 = ORIENTED_EDGE ( 'NONE', *, *, #476, .F. ) ;
#279 = DIRECTION ( 'NONE',  ( 0.000000000000000000, -1.000000000000000000, -1.593389736827780109E-16 ) ) ;
#280 = CARTESIAN_POINT ( 'NONE',  ( 0.000000000000000000, -9.797174393178827630E-16, -4.000000000000000000 ) ) ;
#281 = CIRCLE ( 'NONE', #322, 2.849999999999997424 ) ;
#282 = ORIENTED_EDGE ( 'NONE', *, *, #13, .F. ) ;
#283 = CARTESIAN_POINT ( 'NONE',  ( 1.836970198721025990E-16, 1.499999999999996447, -3.624999999999999556 ) ) ;
#284 = FACE_OUTER_BOUND ( 'NONE', #228, .T. ) ;
#285 = ORIENTED_EDGE ( 'NONE', *, *, #71, .T. ) ;
#286 = PLANE ( 'NONE',  #674 ) ;
#287 = CARTESIAN_POINT ( 'NONE',  ( 0.9999999999999997780, 0.5773502691896240657, 5.650000000000000355 ) ) ;
#288 = ORIENTED_EDGE ( 'NONE', *, *, #617, .T. ) ;
#289 = ADVANCED_FACE ( 'NONE', ( #188 ), #323, .F. ) ;
#290 = ORIENTED_EDGE ( 'NONE', *, *, #385, .F. ) ;
#291 = ORGANIZATION ( 'UNSPECIFIED', 'UNSPECIFIED', '' ) ;
#292 = ORIENTED_EDGE ( 'NONE', *, *, #677, .F. ) ;
#293 = EDGE_CURVE ( 'NONE', #7, #396, #706, .T. ) ;
#294 = ORIENTED_EDGE ( 'NONE', *, *, #401, .T. ) ;
#295 = CARTESIAN_POINT ( 'NONE',  ( 1.607348923880897587E-16, 1.124999999999997335, -4.000000000000000000 ) ) ;
#296 = CARTESIAN_POINT ( 'NONE',  ( -0.07813100402512521137, 1.109591582173287350, 5.604891043794038907 ) ) ;
#297 = ORIENTED_EDGE ( 'NONE', *, *, #548, .T. ) ;
#298 = ADVANCED_FACE ( 'NONE', ( #470 ), #176, .F. ) ;
#299 = CARTESIAN_POINT ( 'NONE',  ( 0.000000000000000000, -9.002652013076957183E-16, 5.650000000000000355 ) ) ;
#300 = DIRECTION ( 'NONE',  ( 1.000000000000000000, 0.000000000000000000, 0.000000000000000000 ) ) ;
#301 = AXIS2_PLACEMENT_3D ( 'NONE', #652, #161, #207 ) ;
#302 = CIRCLE ( 'NONE', #372, 3.171922267359731151 ) ;
#303 = CARTESIAN_POINT ( 'NONE',  ( -2.327680899126968450E-16, -1.154700538379252572, 4.495000000000000995 ) ) ;
#304 = CARTESIAN_POINT ( 'NONE',  ( 0.000000000000000000, -1.500000000000001332, 4.000000000000000888 ) ) ;
#305 = EDGE_CURVE ( 'NONE', #396, #60, #453, .T. ) ;
#306 = ORIENTED_EDGE ( 'NONE', *, *, #339, .F. ) ;
#307 = ORIENTED_EDGE ( 'NONE', *, *, #6, .T. ) ;
#308 = PERSON_AND_ORGANIZATION_ROLE ( 'creator' ) ;
#309 = CARTESIAN_POINT ( 'NONE',  ( 0.000000000000000000, -1.124999999999998668, -4.000000000000000000 ) ) ;
#310 = VECTOR ( 'NONE', #539, 999.9999999999998863 ) ;
#311 = ORIENTED_EDGE ( 'NONE', *, *, #293, .T. ) ;
#312 = PERSON_AND_ORGANIZATION ( #274, #291 ) ;
#313 = DIRECTION ( 'NONE',  ( -0.000000000000000000, -1.593389736827780109E-16, 1.000000000000000000 ) ) ;
#314 = ORIENTED_EDGE ( 'NONE', *, *, #27, .T. ) ;
#315 = EDGE_CURVE ( 'NONE', #649, #122, #577, .T. ) ;
#316 = APPROVAL_DATE_TIME ( #364, #152 ) ;
#317 = CARTESIAN_POINT ( 'NONE',  ( 0.9999999999999997780, -0.5773502691896270633, 4.495000000000000995 ) ) ;
#318 = CARTESIAN_POINT ( 'NONE',  ( 0.9999999999999997780, -9.002652014439412657E-16, 5.495299461620749781 ) ) ;
#319 = LINE ( 'NONE', #367, #656 ) ;
#320 = CARTESIAN_POINT ( 'NONE',  ( -0.9999999999999995559, -0.5773502691896272854, 4.495000000000000995 ) ) ;
#321 = CARTESIAN_POINT ( 'NONE',  ( -0.9999999999999995559, 0.5773502691896238437, 4.495000000000000995 ) ) ;
#322 = AXIS2_PLACEMENT_3D ( 'NONE', #665, #386, #170 ) ;
#323 = CONICAL_SURFACE ( 'NONE', #355, 1.154700538379251018, 0.7853981633974500554 ) ;
#324 = ORIENTED_EDGE ( 'NONE', *, *, #534, .T. ) ;
#325 = FACE_OUTER_BOUND ( 'NONE', #636, .T. ) ;
#326 = DIRECTION ( 'NONE',  ( 0.000000000000000000, -1.000000000000000000, -3.043374519257559973E-16 ) ) ;
#327 = CIRCLE ( 'NONE', #272, 2.849999999999997424 ) ;
#328 = VERTEX_POINT ( 'NONE', #82 ) ;
#329 = SPHERICAL_SURFACE ( 'NONE', #585, 3.171922267359731151 ) ;
#330 = DIRECTION ( 'NONE',  ( 0.000000000000000000, -1.000000000000000000, 0.000000000000000000 ) ) ;
#331 = ORIENTED_EDGE ( 'NONE', *, *, #350, .T. ) ;
#332 = CARTESIAN_POINT ( 'NONE',  ( 0.07813100402512465625, -1.109591582173291124, 5.604891043794038907 ) ) ;
#333 = AXIS2_PLACEMENT_3D ( 'NONE', #317, #424, #488 ) ;
#334 = AXIS2_PLACEMENT_3D ( 'NONE', #676, #40, #700 ) ;
#335 = AXIS2_PLACEMENT_3D ( 'NONE', #18, #193, #405 ) ;
#336 = ORIENTED_EDGE ( 'NONE', *, *, #467, .F. ) ;
#337 = DIRECTION ( 'NONE',  ( 0.000000000000000000, -1.593389736827780109E-16, 1.000000000000000000 ) ) ;
#338 = ORIENTED_EDGE ( 'NONE', *, *, #254, .T. ) ;
#339 = EDGE_CURVE ( 'NONE', #122, #645, #249, .T. ) ;
#340 = CARTESIAN_POINT ( 'NONE',  ( -5.908307134218999458E-30, 3.911638122493692108E-16, 2.855167112299467291 ) ) ;
#341 = ORIENTED_EDGE ( 'NONE', *, *, #703, .T. ) ;
#342 = VERTEX_POINT ( 'NONE', #551 ) ;
#343 = AXIS2_PLACEMENT_3D ( 'NONE', #714, #219, #279 ) ;
#344 = ADVANCED_FACE ( 'NONE', ( #601 ), #416, .F. ) ;
#345 = DIRECTION ( 'NONE',  ( -0.000000000000000000, -1.593389736827780109E-16, 1.000000000000000000 ) ) ;
#346 = ORIENTED_EDGE ( 'NONE', *, *, #305, .F. ) ;
#347 = DIRECTION ( 'NONE',  ( -1.000000000000000000, -6.982962677686266711E-15, -1.112658106327673092E-30 ) ) ;
#348 = CLOSED_SHELL ( 'NONE', ( #683, #576, #710, #504, #592, #558, #373, #642, #693, #630, #38, #277, #437, #298, #79, #344, #289, #572, #179, #458, #173, #128, #662, #568, #241 ) ) ;
#349 = CARTESIAN_POINT ( 'NONE',  ( 0.9999999999999997780, 0.5773502691896238437, 4.495000000000000995 ) ) ;
#350 = EDGE_CURVE ( 'NONE', #259, #129, #69, .T. ) ;
#351 = ORIENTED_EDGE ( 'NONE', *, *, #254, .F. ) ;
#352 = CARTESIAN_POINT ( 'NONE',  ( 0.000000000000000000, -9.002652013076957183E-16, 5.650000000000000355 ) ) ;
#353 = CIRCLE ( 'NONE', #44, 1.499999999999997335 ) ;
#354 = CALENDAR_DATE ( 2026, 27, 3 ) ;
#355 = AXIS2_PLACEMENT_3D ( 'NONE', #131, #638, #300 ) ;
#356 = AXIS2_PLACEMENT_3D ( 'NONE', #349, #134, #126 ) ;
#357 = DIRECTION ( 'NONE',  ( 0.000000000000000000, 0.000000000000000000, 1.000000000000000000 ) ) ;
#358 = ORIENTED_EDGE ( 'NONE', *, *, #237, .F. ) ;
#359 = EDGE_CURVE ( 'NONE', #408, #4, #575, .T. ) ;
#360 = APPLICATION_PROTOCOL_DEFINITION ( 'international standard', 'config_control_design', 1994, #226 ) ;
#361 = DIRECTION ( 'NONE',  ( 0.8660254037844385966, -0.4999999999999999445, 0.000000000000000000 ) ) ;
#362 = CONICAL_SURFACE ( 'NONE', #506, 1.154700538379251018, 0.7853981633974500554 ) ;
#363 = ORIENTED_EDGE ( 'NONE', *, *, #395, .F. ) ;
#364 = DATE_AND_TIME ( #92, #183 ) ;
#365 = DIRECTION ( 'NONE',  ( 0.000000000000000000, 1.000000000000000000, 0.000000000000000000 ) ) ;
#366 = EDGE_LOOP ( 'NONE', ( #311, #680 ) ) ;
#367 = CARTESIAN_POINT ( 'NONE',  ( 6.322682138062729176E-18, 1.154700538379249242, 4.495000000000000995 ) ) ;
#368 = MECHANICAL_CONTEXT ( 'NONE', #68, 'mechanical' ) ;
#369 = SECURITY_CLASSIFICATION ( '', '', #578 ) ;
#370 = CARTESIAN_POINT ( 'NONE',  ( 0.000000000000000000, -9.002652013076957183E-16, 5.650000000000000355 ) ) ;
#371 = AXIS2_PLACEMENT_3D ( 'NONE', #399, #388, #618 ) ;
#372 = AXIS2_PLACEMENT_3D ( 'NONE', #629, #347, #464 ) ;
#373 = ADVANCED_FACE ( 'NONE', ( #655 ), #512, .T. ) ;
#374 = ORIENTED_EDGE ( 'NONE', *, *, #102, .T. ) ;
#375 = SPHERICAL_SURFACE ( 'NONE', #414, 3.171922267359731151 ) ;
#376 = CARTESIAN_POINT ( 'NONE',  ( -0.9999999999999993339, -0.2032753359766529822, 5.495286663959756623 ) ) ;
#377 = DIRECTION ( 'NONE',  ( 1.000000000000000000, 0.000000000000000000, 0.000000000000000000 ) ) ;
#378 = CARTESIAN_POINT ( 'NONE',  ( 0.9999999999999997780, -0.5773502691896258421, 5.650000000000000355 ) ) ;
#379 = CYLINDRICAL_SURFACE ( 'NONE', #612, 1.499999999999998002 ) ;
#380 = CARTESIAN_POINT ( 'NONE',  ( 0.3272472668956660780, 0.9657642407454670730, 5.494872772280240625 ) ) ;
#381 = FACE_OUTER_BOUND ( 'NONE', #454, .T. ) ;
#382 = CONICAL_SURFACE ( 'NONE', #428, 1.154700538379251018, 0.7853981633974500554 ) ;
#383 = EDGE_LOOP ( 'NONE', ( #387, #294 ) ) ;
#384 = CYLINDRICAL_SURFACE ( 'NONE', #402, 1.499999999999998002 ) ;
#385 = EDGE_CURVE ( 'NONE', #480, #7, #544, .T. ) ;
#386 = DIRECTION ( 'NONE',  ( -0.000000000000000000, -1.593389736827780109E-16, 1.000000000000000000 ) ) ;
#387 = ORIENTED_EDGE ( 'NONE', *, *, #562, .T. ) ;
#388 = DIRECTION ( 'NONE',  ( -0.000000000000000000, -1.593389736827780109E-16, 1.000000000000000000 ) ) ;
#389 = DIRECTION ( 'NONE',  ( -0.000000000000000000, 0.000000000000000000, 1.000000000000000000 ) ) ;
#390 = DIRECTION ( 'NONE',  ( -0.000000000000000000, -1.593389736827780109E-16, 1.000000000000000000 ) ) ;
#391 = DIRECTION ( 'NONE',  ( -6.860497997771531562E-15, 1.000000000000000000, 0.000000000000000000 ) ) ;
#392 = ORIENTED_EDGE ( 'NONE', *, *, #224, .F. ) ;
#393 = CARTESIAN_POINT ( 'NONE',  ( -1.955241929364884854E-14, 2.849999999999997424, 4.247500000000000497 ) ) ;
#394 = VECTOR ( 'NONE', #560, 1000.000000000000000 ) ;
#395 = EDGE_CURVE ( 'NONE', #645, #451, #660, .T. ) ;
#396 = VERTEX_POINT ( 'NONE', #704 ) ;
#397 = DIRECTION ( 'NONE',  ( 0.000000000000000000, 0.000000000000000000, 1.000000000000000000 ) ) ;
#398 = EDGE_LOOP ( 'NONE', ( #514, #107 ) ) ;
#399 = CARTESIAN_POINT ( 'NONE',  ( 0.000000000000000000, -2.222344185212348905E-15, 5.650000000000000355 ) ) ;
#400 = ORIENTED_EDGE ( 'NONE', *, *, #305, .T. ) ;
#401 = EDGE_CURVE ( 'NONE', #328, #342, #525, .T. ) ;
#402 = AXIS2_PLACEMENT_3D ( 'NONE', #659, #434, #491 ) ;
#403 = CARTESIAN_POINT ( 'NONE',  ( -1.000000000000000000, 0.5773502691896238437, 5.650000000000000355 ) ) ;
#404 = ORIENTED_EDGE ( 'NONE', *, *, #13, .T. ) ;
#405 = DIRECTION ( 'NONE',  ( 0.000000000000000000, -1.000000000000000000, -2.891205793294684736E-16 ) ) ;
#406 = CARTESIAN_POINT ( 'NONE',  ( 0.000000000000000000, -9.002652013076957183E-16, 5.650000000000000355 ) ) ;
#407 = PRODUCT_DEFINITION ( 'UNKNOWN', '', #569, #545 ) ;
#408 = VERTEX_POINT ( 'NONE', #304 ) ;
#409 = DATE_TIME_ROLE ( 'creation_date' ) ;
#410 = CARTESIAN_POINT ( 'NONE',  ( 0.9999999999999997780, -0.5773502691896270633, 4.495000000000000995 ) ) ;
#411 = EDGE_CURVE ( 'NONE', #17, #233, #461, .T. ) ;
#412 = EDGE_LOOP ( 'NONE', ( #358, #117, #155, #81 ) ) ;
#413 = LINE ( 'NONE', #517, #553 ) ;
#414 = AXIS2_PLACEMENT_3D ( 'NONE', #144, #29, #531 ) ;
#415 = DATE_AND_TIME ( #194, #251 ) ;
#416 = CONICAL_SURFACE ( 'NONE', #685, 1.154700538379251018, 0.7853981633974500554 ) ;
#417 = VERTEX_POINT ( 'NONE', #713 ) ;
#418 = FACE_OUTER_BOUND ( 'NONE', #113, .T. ) ;
#419 = SHAPE_DEFINITION_REPRESENTATION ( #167, #436 ) ;
#420 = ORIENTED_EDGE ( 'NONE', *, *, #548, .F. ) ;
#421 = LINE ( 'NONE', #45, #154 ) ;
#422 =( NAMED_UNIT ( * ) PLANE_ANGLE_UNIT ( ) SI_UNIT ( $, .RADIAN. ) );
#423 = EDGE_CURVE ( 'NONE', #7, #396, #610, .T. ) ;
#424 = DIRECTION ( 'NONE',  ( 1.000000000000000000, -0.000000000000000000, 0.000000000000000000 ) ) ;
#425 = APPROVAL ( #23, 'UNSPECIFIED' ) ;
#426 = EDGE_LOOP ( 'NONE', ( #83, #374, #563, #278 ) ) ;
#427 = LINE ( 'NONE', #651, #63 ) ;
#428 = AXIS2_PLACEMENT_3D ( 'NONE', #554, #663, #164 ) ;
#429 = DIRECTION ( 'NONE',  ( 0.000000000000000000, -1.000000000000000000, 0.000000000000000000 ) ) ;
#430 = VECTOR ( 'NONE', #474, 1000.000000000000000 ) ;
#431 = CARTESIAN_POINT ( 'NONE',  ( 0.9999999999999997780, -0.2033195896942484593, 5.495299461620749781 ) ) ;
#432 = DIRECTION ( 'NONE',  ( -0.8660254037844387076, -0.4999999999999998890, 0.000000000000000000 ) ) ;
#433 = LINE ( 'NONE', #97, #547 ) ;
#434 = DIRECTION ( 'NONE',  ( -0.000000000000000000, -1.593389736827780109E-16, 1.000000000000000000 ) ) ;
#435 = CARTESIAN_POINT ( 'NONE',  ( 0.000000000000000000, -2.222344185212348905E-15, 5.649999999999999467 ) ) ;
#436 = ADVANCED_BREP_SHAPE_REPRESENTATION ( '92095A181_NO THREADS_18-8 Stainless Steel Button Head Hex-Drive Screw', ( #518, #501 ), #195 ) ;
#437 = ADVANCED_FACE ( 'NONE', ( #381 ), #135, .F. ) ;
#438 = CARTESIAN_POINT ( 'NONE',  ( 0.000000000000000000, -9.002652013076957183E-16, 5.650000000000000355 ) ) ;
#439 = CARTESIAN_POINT ( 'NONE',  ( 6.322682138062729176E-18, 1.154700538379249242, 4.495000000000000995 ) ) ;
#440 = APPROVAL_PERSON_ORGANIZATION ( #85, #519, #587 ) ;
#441 = VECTOR ( 'NONE', #345, 1000.000000000000000 ) ;
#442 = ORIENTED_EDGE ( 'NONE', *, *, #677, .T. ) ;
#443 = CARTESIAN_POINT ( 'NONE',  ( -0.9999999999999995559, 0.5773502691896238437, 4.495000000000000995 ) ) ;
#444 = CYLINDRICAL_SURFACE ( 'NONE', #635, 2.849999999999996536 ) ;
#445 = B_SPLINE_CURVE_WITH_KNOTS ( 'NONE', 3,
 ( #609, #332, #486, #105, #499, #603, #160, #378 ),
 .UNSPECIFIED., .F., .F.,
 ( 4, 2, 2, 4 ),
 ( 2.544396950720117230E-07, 0.0002984430161323448787, 0.0005966315925696178595, 0.001193008745444164038 ),
 .UNSPECIFIED. ) ;
#446 = ORIENTED_EDGE ( 'NONE', *, *, #515, .T. ) ;
#447 = FACE_OUTER_BOUND ( 'NONE', #52, .T. ) ;
#448 = EDGE_CURVE ( 'NONE', #129, #527, #77, .T. ) ;
#449 = DIRECTION ( 'NONE',  ( 0.000000000000000000, -1.000000000000000000, -2.891205793294684736E-16 ) ) ;
#450 = AXIS2_PLACEMENT_3D ( 'NONE', #646, #143, #449 ) ;
#451 = VERTEX_POINT ( 'NONE', #549 ) ;
#452 = CARTESIAN_POINT ( 'NONE',  ( -0.5891403177412695147, -0.8145602173408693636, 5.495516201587642868 ) ) ;
#453 = CIRCLE ( 'NONE', #147, 1.154700538379251018 ) ;
#454 = EDGE_LOOP ( 'NONE', ( #282, #571, #324 ) ) ;
#455 = ORIENTED_EDGE ( 'NONE', *, *, #315, .T. ) ;
#456 = VECTOR ( 'NONE', #543, 1000.000000000000114 ) ;
#457 = CARTESIAN_POINT ( 'NONE',  ( -2.327680899126968450E-16, -1.154700538379252572, 4.495000000000000995 ) ) ;
#458 = ADVANCED_FACE ( 'NONE', ( #418 ), #271, .F. ) ;
#459 = DATE_TIME_ROLE ( 'classification_date' ) ;
#460 = ORIENTED_EDGE ( 'NONE', *, *, #582, .T. ) ;
#461 = CIRCLE ( 'NONE', #301, 1.124999999999998002 ) ;
#462 = DIRECTION ( 'NONE',  ( 1.000000000000000000, 0.000000000000000000, -0.000000000000000000 ) ) ;
#463 = ORIENTED_EDGE ( 'NONE', *, *, #493, .F. ) ;
#464 = DIRECTION ( 'NONE',  ( 6.982962677686267499E-15, -1.000000000000000000, 0.000000000000000000 ) ) ;
#465 = PERSON_AND_ORGANIZATION ( #274, #291 ) ;
#466 = DIRECTION ( 'NONE',  ( -0.000000000000000000, -0.000000000000000000, 1.000000000000000000 ) ) ;
#467 = EDGE_CURVE ( 'NONE', #567, #129, #213, .T. ) ;
#468 = ORIENTED_EDGE ( 'NONE', *, *, #411, .T. ) ;
#469 = DIRECTION ( 'NONE',  ( 0.000000000000000000, -1.000000000000000000, -3.043374519257558987E-16 ) ) ;
#470 = FACE_OUTER_BOUND ( 'NONE', #28, .T. ) ;
#471 = ORIENTED_EDGE ( 'NONE', *, *, #617, .F. ) ;
#472 = AXIS2_PLACEMENT_3D ( 'NONE', #720, #508, #58 ) ;
#473 = PERSON_AND_ORGANIZATION_ROLE ( 'design_owner' ) ;
#474 = DIRECTION ( 'NONE',  ( -0.000000000000000000, -0.000000000000000000, 1.000000000000000000 ) ) ;
#475 = EDGE_LOOP ( 'NONE', ( #468, #614, #670, #463 ) ) ;
#476 = EDGE_CURVE ( 'NONE', #4, #408, #268, .T. ) ;
#477 = CARTESIAN_POINT ( 'NONE',  ( 0.000000000000000000, -9.002652013076957183E-16, 5.650000000000000355 ) ) ;
#478 = PERSON_AND_ORGANIZATION_ROLE ( 'design_supplier' ) ;
#479 = CARTESIAN_POINT ( 'NONE',  ( 0.000000000000000000, -9.002652013076957183E-16, 5.650000000000000355 ) ) ;
#480 = VERTEX_POINT ( 'NONE', #30 ) ;
#481 = DIRECTION ( 'NONE',  ( -0.000000000000000000, -0.000000000000000000, 1.000000000000000000 ) ) ;
#482 = EDGE_CURVE ( 'NONE', #645, #567, #433, .T. ) ;
#483 = APPROVAL_ROLE ( '' ) ;
#484 = LINE ( 'NONE', #93, #719 ) ;
#485 = CARTESIAN_POINT ( 'NONE',  ( -1.951563910473907981E-15, -1.154700538379252128, 5.650000000000000355 ) ) ;
#486 = CARTESIAN_POINT ( 'NONE',  ( 0.1580247838118443160, -1.063464886906852147, 5.566536875587615896 ) ) ;
#487 = AXIS2_PLACEMENT_3D ( 'NONE', #497, #109, #227 ) ;
#488 = DIRECTION ( 'NONE',  ( 0.000000000000000000, 0.000000000000000000, -1.000000000000000000 ) ) ;
#489 = AXIS2_PLACEMENT_3D ( 'NONE', #626, #622, #182 ) ;
#490 = ORIENTED_EDGE ( 'NONE', *, *, #61, .F. ) ;
#491 = DIRECTION ( 'NONE',  ( 0.000000000000000000, -1.000000000000000000, 0.000000000000000000 ) ) ;
#492 = CARTESIAN_POINT ( 'NONE',  ( 0.9999999999999997780, 0.5773502691896238437, 4.495000000000000995 ) ) ;
#493 = EDGE_CURVE ( 'NONE', #17, #245, #250, .T. ) ;
#494 = AXIS2_PLACEMENT_3D ( 'NONE', #477, #698, #377 ) ;
#495 = FACE_BOUND ( 'NONE', #14, .T. ) ;
#496 = PLANE ( 'NONE',  #343 ) ;
#497 = CARTESIAN_POINT ( 'NONE',  ( 0.000000000000000000, -9.002652013076957183E-16, 5.650000000000000355 ) ) ;
#498 = EDGE_LOOP ( 'NONE', ( #104, #507, #363, #306 ) ) ;
#499 = CARTESIAN_POINT ( 'NONE',  ( 0.4108596822587310959, -0.9174905902280100500, 5.495516201587642868 ) ) ;
#500 = FACE_OUTER_BOUND ( 'NONE', #273, .T. ) ;
#501 = AXIS2_PLACEMENT_3D ( 'NONE', #35, #150, #647 ) ;
#502 = PLANE ( 'NONE',  #639 ) ;
#503 = ORIENTED_EDGE ( 'NONE', *, *, #110, .F. ) ;
#504 = ADVANCED_FACE ( 'NONE', ( #36 ), #379, .T. ) ;
#505 = FACE_OUTER_BOUND ( 'NONE', #120, .T. ) ;
#506 = AXIS2_PLACEMENT_3D ( 'NONE', #202, #41, #95 ) ;
#507 = ORIENTED_EDGE ( 'NONE', *, *, #623, .T. ) ;
#508 = DIRECTION ( 'NONE',  ( -0.4999999999999999445, -0.8660254037844387076, 0.000000000000000000 ) ) ;
#509 = ORIENTED_EDGE ( 'NONE', *, *, #526, .T. ) ;
#510 = CARTESIAN_POINT ( 'NONE',  ( 6.322682138062729176E-18, 1.154700538379249242, 4.495000000000000995 ) ) ;
#511 = VECTOR ( 'NONE', #86, 1000.000000000000000 ) ;
#512 = CONICAL_SURFACE ( 'NONE', #9, 1.124999999999998002, 0.7853981633974463916 ) ;
#513 = PRODUCT_RELATED_PRODUCT_CATEGORY ( 'detail', '', ( #210 ) ) ;
#514 = ORIENTED_EDGE ( 'NONE', *, *, #359, .T. ) ;
#515 = EDGE_CURVE ( 'NONE', #535, #88, #705, .T. ) ;
#516 = ORIENTED_EDGE ( 'NONE', *, *, #623, .F. ) ;
#517 = CARTESIAN_POINT ( 'NONE',  ( 3.490243377569952610E-16, 2.849999999999994316, 5.650000000000001243 ) ) ;
#518 = MANIFOLD_SOLID_BREP ( 'Cut-Extrude3', #348 ) ;
#519 = APPROVAL ( #699, 'UNSPECIFIED' ) ;
#520 = CARTESIAN_POINT ( 'NONE',  ( -0.4108596822587315400, 0.9174905902280066083, 5.495516201587641092 ) ) ;
#521 = EDGE_LOOP ( 'NONE', ( #686, #137, #201, #248 ) ) ;
#522 = CARTESIAN_POINT ( 'NONE',  ( -2.327680899126968450E-16, -1.154700538379252572, 4.495000000000000995 ) ) ;
#523 = VECTOR ( 'NONE', #432, 1000.000000000000000 ) ;
#524 = ORIENTED_EDGE ( 'NONE', *, *, #61, .T. ) ;
#525 = CIRCLE ( 'NONE', #209, 1.499999999999997335 ) ;
#526 = EDGE_CURVE ( 'NONE', #649, #396, #484, .T. ) ;
#527 = VERTEX_POINT ( 'NONE', #596 ) ;
#528 = DIRECTION ( 'NONE',  ( 0.000000000000000000, 0.000000000000000000, 1.000000000000000000 ) ) ;
#529 = COORDINATED_UNIVERSAL_TIME_OFFSET ( 6, 0, .BEHIND. ) ;
#530 = EDGE_LOOP ( 'NONE', ( #148, #67, #697, #341, #314, #455 ) ) ;
#531 = DIRECTION ( 'NONE',  ( 6.982962677686266711E-15, -1.000000000000000000, -1.367249359976252819E-16 ) ) ;
#532 = CARTESIAN_POINT ( 'NONE',  ( -0.9999999999999995559, -0.5773502691896272854, 4.495000000000000995 ) ) ;
#533 = DIRECTION ( 'NONE',  ( 0.000000000000000000, -1.000000000000000000, 0.000000000000000000 ) ) ;
#534 = EDGE_CURVE ( 'NONE', #451, #690, #19, .T. ) ;
#535 = VERTEX_POINT ( 'NONE', #393 ) ;
#536 = DIRECTION ( 'NONE',  ( 1.000000000000000000, 0.000000000000000000, 0.000000000000000000 ) ) ;
#537 = AXIS2_PLACEMENT_3D ( 'NONE', #715, #390, #172 ) ;
#538 = APPLICATION_PROTOCOL_DEFINITION ( 'international standard', 'config_control_design', 1994, #68 ) ;
#539 = DIRECTION ( 'NONE',  ( 0.000000000000000000, -0.7071067811865462405, 0.7071067811865489050 ) ) ;
#540 = ORIENTED_EDGE ( 'NONE', *, *, #526, .F. ) ;
#541 = PERSON_AND_ORGANIZATION_ROLE ( 'classification_officer' ) ;
#542 = DIRECTION ( 'NONE',  ( 0.000000000000000000, -1.000000000000000000, 0.000000000000000000 ) ) ;
#543 = DIRECTION ( 'NONE',  ( 8.659560562354914369E-17, 0.7071067811865460184, 0.7071067811865489050 ) ) ;
#544 = LINE ( 'NONE', #321, #430 ) ;
#545 = DESIGN_CONTEXT ( 'detailed design', #226, 'design' ) ;
#546 = DIRECTION ( 'NONE',  ( 1.000000000000000000, 6.982962677686266711E-15, 1.112658106327673267E-30 ) ) ;
#547 = VECTOR ( 'NONE', #365, 1000.000000000000000 ) ;
#548 = EDGE_CURVE ( 'NONE', #396, #60, #222, .T. ) ;
#549 = CARTESIAN_POINT ( 'NONE',  ( 0.9999999999999997780, -0.5773502691896258421, 5.650000000000000355 ) ) ;
#550 = AXIS2_PLACEMENT_3D ( 'NONE', #370, #258, #43 ) ;
#551 = CARTESIAN_POINT ( 'NONE',  ( 0.000000000000000000, -1.499999999999999556, 5.649999999999999467 ) ) ;
#552 = DIRECTION ( 'NONE',  ( 0.7071067811865487940, 0.000000000000000000, 0.7071067811865463515 ) ) ;
#553 = VECTOR ( 'NONE', #637, 1000.000000000000000 ) ;
#554 = CARTESIAN_POINT ( 'NONE',  ( 0.000000000000000000, -9.002652013076957183E-16, 5.650000000000000355 ) ) ;
#555 = CARTESIAN_POINT ( 'NONE',  ( -0.9999999999999995559, -0.5773502691896261751, 5.650000000000000355 ) ) ;
#556 = FACE_OUTER_BOUND ( 'NONE', #90, .T. ) ;
#557 = CARTESIAN_POINT ( 'NONE',  ( -0.1571845235116795525, -1.063950011417341690, 5.559249473037191969 ) ) ;
#558 = ADVANCED_FACE ( 'NONE', ( #505 ), #286, .F. ) ;
#559 = ORIENTED_EDGE ( 'NONE', *, *, #110, .T. ) ;
#560 = DIRECTION ( 'NONE',  ( -0.000000000000000000, -1.593389736827780109E-16, 1.000000000000000000 ) ) ;
#561 = CIRCLE ( 'NONE', #99, 1.154700538379251018 ) ;
#562 = EDGE_CURVE ( 'NONE', #342, #328, #353, .T. ) ;
#563 = ORIENTED_EDGE ( 'NONE', *, *, #159, .T. ) ;
#564 = CARTESIAN_POINT ( 'NONE',  ( 0.000000000000000000, -9.002652013076957183E-16, 5.650000000000000355 ) ) ;
#565 = AXIS2_PLACEMENT_3D ( 'NONE', #149, #163, #84 ) ;
#566 = CIRCLE ( 'NONE', #115, 3.171922267359731151 ) ;
#567 = VERTEX_POINT ( 'NONE', #5 ) ;
#568 = ADVANCED_FACE ( 'NONE', ( #500 ), #220, .F. ) ;
#569 = PRODUCT_DEFINITION_FORMATION_WITH_SPECIFIED_SOURCE ( 'ANY', '', #210, .NOT_KNOWN. ) ;
#570 = ORIENTED_EDGE ( 'NONE', *, *, #159, .F. ) ;
#571 = ORIENTED_EDGE ( 'NONE', *, *, #71, .F. ) ;
#572 = ADVANCED_FACE ( 'NONE', ( #447 ), #133, .F. ) ;
#573 = AXIS2_PLACEMENT_3D ( 'NONE', #479, #267, #203 ) ;
#574 = ORIENTED_EDGE ( 'NONE', *, *, #119, .T. ) ;
#575 = CIRCLE ( 'NONE', #334, 1.499999999999999334 ) ;
#576 = ADVANCED_FACE ( 'NONE', ( #50 ), #444, .T. ) ;
#577 = LINE ( 'NONE', #532, #21 ) ;
#578 = SECURITY_CLASSIFICATION_LEVEL ( 'unclassified' ) ;
#579 = VERTEX_POINT ( 'NONE', #283 ) ;
#580 = COORDINATED_UNIVERSAL_TIME_OFFSET ( 6, 0, .BEHIND. ) ;
#581 = CARTESIAN_POINT ( 'NONE',  ( -0.9999999999999997780, 0.2034012310318544237, 5.495312263244135131 ) ) ;
#582 = EDGE_CURVE ( 'NONE', #579, #4, #668, .T. ) ;
#583 = ORIENTED_EDGE ( 'NONE', *, *, #266, .F. ) ;
#584 = APPROVAL_PERSON_ORGANIZATION ( #31, #425, #125 ) ;
#585 = AXIS2_PLACEMENT_3D ( 'NONE', #96, #546, #708 ) ;
#586 = CARTESIAN_POINT ( 'NONE',  ( 1.377727649040769677E-16, 1.124999999999997335, -4.000000000000000000 ) ) ;
#587 = APPROVAL_ROLE ( '' ) ;
#588 = DIRECTION ( 'NONE',  ( -0.000000000000000000, -1.593389736827780109E-16, 1.000000000000000000 ) ) ;
#589 = EDGE_LOOP ( 'NONE', ( #701, #460, #238, #570 ) ) ;
#590 = DIRECTION ( 'NONE',  ( -0.8660254037844387076, 0.4999999999999997780, 0.000000000000000000 ) ) ;
#591 = DIRECTION ( 'NONE',  ( 0.000000000000000000, -1.000000000000000000, -3.043374519257559480E-16 ) ) ;
#592 = ADVANCED_FACE ( 'NONE', ( #276 ), #221, .T. ) ;
#593 = CARTESIAN_POINT ( 'NONE',  ( 0.9999999999999997780, -9.002652014439412657E-16, 5.495299461620749781 ) ) ;
#594 = CARTESIAN_POINT ( 'NONE',  ( 6.322682138062729176E-18, 1.154700538379249242, 5.650000000000000355 ) ) ;
#595 = AXIS2_PLACEMENT_3D ( 'NONE', #615, #178, #59 ) ;
#596 = CARTESIAN_POINT ( 'NONE',  ( 6.322682138062729176E-18, 1.154700538379249242, 5.650000000000000355 ) ) ;
#597 = CARTESIAN_POINT ( 'NONE',  ( 1.836970198721028208E-16, 1.499999999999997335, 4.000000000000000888 ) ) ;
#598 = DIRECTION ( 'NONE',  ( -1.000000000000000000, 0.000000000000000000, -0.000000000000000000 ) ) ;
#599 = CARTESIAN_POINT ( 'NONE',  ( 0.000000000000000000, -6.847230891735408473E-16, -4.000000000000000000 ) ) ;
#600 = CC_DESIGN_PERSON_AND_ORGANIZATION_ASSIGNMENT ( #139, #473, ( #210 ) ) ;
#601 = FACE_OUTER_BOUND ( 'NONE', #366, .T. ) ;
#602 = ORIENTED_EDGE ( 'NONE', *, *, #315, .F. ) ;
#603 = CARTESIAN_POINT ( 'NONE',  ( 0.6727527331043334780, -0.7662865668234092320, 5.494872772280239737 ) ) ;
#604 = CARTESIAN_POINT ( 'NONE',  ( -0.3272472668956677988, -0.9657642407454696265, 5.494872772280242401 ) ) ;
#605 = CC_DESIGN_DATE_AND_TIME_ASSIGNMENT ( #628, #459, ( #369 ) ) ;
#606 = LINE ( 'NONE', #634, #166 ) ;
#607 = ORIENTED_EDGE ( 'NONE', *, *, #448, .T. ) ;
#608 = FACE_OUTER_BOUND ( 'NONE', #223, .T. ) ;
#609 = CARTESIAN_POINT ( 'NONE',  ( -1.951563910473907981E-15, -1.154700538379252128, 5.650000000000000355 ) ) ;
#610 = B_SPLINE_CURVE_WITH_KNOTS ( 'NONE', 3,
 ( #709, #47, #581, #376, #643, #151 ),
 .UNSPECIFIED., .F., .F.,
 ( 4, 2, 4 ),
 ( 0.0006269138418756205330, 0.001224952637099764943, 0.001822991432323909245 ),
 .UNSPECIFIED. ) ;
#611 = CARTESIAN_POINT ( 'NONE',  ( -0.6764706046374666659, -0.7641400526929424952, 5.511735735160801397 ) ) ;
#612 = AXIS2_PLACEMENT_3D ( 'NONE', #145, #313, #542 ) ;
#613 = AXIS2_PLACEMENT_3D ( 'NONE', #410, #357, #462 ) ;
#614 = ORIENTED_EDGE ( 'NONE', *, *, #51, .T. ) ;
#615 = CARTESIAN_POINT ( 'NONE',  ( 0.000000000000000000, -1.998871274622252619E-15, 4.247499999999999609 ) ) ;
#616 = VERTEX_POINT ( 'NONE', #439 ) ;
#617 = EDGE_CURVE ( 'NONE', #417, #114, #281, .T. ) ;
#618 = DIRECTION ( 'NONE',  ( 0.000000000000000000, -1.000000000000000000, -3.043374519257559973E-16 ) ) ;
#619 = DIRECTION ( 'NONE',  ( -0.4999999999999998890, 0.8660254037844387076, 0.000000000000000000 ) ) ;
#620 = ORIENTED_EDGE ( 'NONE', *, *, #171, .T. ) ;
#621 = AXIS2_PLACEMENT_3D ( 'NONE', #438, #101, #212 ) ;
#622 = DIRECTION ( 'NONE',  ( -0.000000000000000000, -1.593389736827780109E-16, 1.000000000000000000 ) ) ;
#623 = EDGE_CURVE ( 'NONE', #60, #451, #445, .T. ) ;
#624 = FACE_OUTER_BOUND ( 'NONE', #521, .T. ) ;
#625 = ORIENTED_EDGE ( 'NONE', *, *, #293, .F. ) ;
#626 = CARTESIAN_POINT ( 'NONE',  ( 0.000000000000000000, -6.847230891735408473E-16, -4.000000000000000000 ) ) ;
#627 = CARTESIAN_POINT ( 'NONE',  ( 0.000000000000000000, -9.002652013076957183E-16, 5.650000000000000355 ) ) ;
#628 = DATE_AND_TIME ( #354, #32 ) ;
#629 = CARTESIAN_POINT ( 'NONE',  ( -5.908307134218999458E-30, 3.911638122493692108E-16, 2.855167112299467291 ) ) ;
#630 = ADVANCED_FACE ( 'NONE', ( #556 ), #329, .T. ) ;
#631 = ORIENTED_EDGE ( 'NONE', *, *, #119, .F. ) ;
#632 = PERSON_AND_ORGANIZATION ( #274, #291 ) ;
#633 = DIRECTION ( 'NONE',  ( 1.000000000000000000, 0.000000000000000000, 0.000000000000000000 ) ) ;
#634 = CARTESIAN_POINT ( 'NONE',  ( -2.327680899126968450E-16, -1.154700538379252572, 4.495000000000000995 ) ) ;
#635 = AXIS2_PLACEMENT_3D ( 'NONE', #232, #103, #326 ) ;
#636 = EDGE_LOOP ( 'NONE', ( #55, #404, #524 ) ) ;
#637 = DIRECTION ( 'NONE',  ( -0.000000000000000000, -1.593389736827780109E-16, 1.000000000000000000 ) ) ;
#638 = DIRECTION ( 'NONE',  ( -0.000000000000000000, -0.000000000000000000, 1.000000000000000000 ) ) ;
#639 = AXIS2_PLACEMENT_3D ( 'NONE', #510, #619, #669 ) ;
#640 = APPROVAL_DATE_TIME ( #415, #519 ) ;
#641 = EDGE_LOOP ( 'NONE', ( #192, #136 ) ) ;
#642 = ADVANCED_FACE ( 'NONE', ( #718 ), #384, .T. ) ;
#643 = CARTESIAN_POINT ( 'NONE',  ( -0.9999999999999995559, -0.3984438525967722855, 5.560546791703574243 ) ) ;
#644 = CALENDAR_DATE ( 2026, 27, 3 ) ;
#645 = VERTEX_POINT ( 'NONE', #53 ) ;
#646 = CARTESIAN_POINT ( 'NONE',  ( 0.000000000000000000, -7.444752043045827215E-16, -3.624999999999999556 ) ) ;
#647 = DIRECTION ( 'NONE',  ( 1.000000000000000000, 0.000000000000000000, 0.000000000000000000 ) ) ;
#648 = DIRECTION ( 'NONE',  ( -0.000000000000000000, -1.593389736827780109E-16, 1.000000000000000000 ) ) ;
#649 = VERTEX_POINT ( 'NONE', #320 ) ;
#650 = VECTOR ( 'NONE', #252, 1000.000000000000000 ) ;
#651 = CARTESIAN_POINT ( 'NONE',  ( 1.154700538379251018, -9.002652013076957183E-16, 5.650000000000000355 ) ) ;
#652 = CARTESIAN_POINT ( 'NONE',  ( 0.000000000000000000, -6.847230891735408473E-16, -4.000000000000000000 ) ) ;
#653 = EDGE_CURVE ( 'NONE', #129, #527, #116, .T. ) ;
#654 = CARTESIAN_POINT ( 'NONE',  ( 0.9999999999999997780, 0.5773502691896240657, 5.650000000000000355 ) ) ;
#655 = FACE_OUTER_BOUND ( 'NONE', #204, .T. ) ;
#656 = VECTOR ( 'NONE', #218, 1000.000000000000000 ) ;
#657 = CC_DESIGN_PERSON_AND_ORGANIZATION_ASSIGNMENT ( #465, #688, ( #407 ) ) ;
#658 = PLANE ( 'NONE',  #565 ) ;
#659 = CARTESIAN_POINT ( 'NONE',  ( 0.000000000000000000, -2.222344185212348905E-15, 5.650000000000000355 ) ) ;
#660 = LINE ( 'NONE', #696, #57 ) ;
#661 = FACE_OUTER_BOUND ( 'NONE', #383, .T. ) ;
#662 = ADVANCED_FACE ( 'NONE', ( #225 ), #46, .F. ) ;
#663 = DIRECTION ( 'NONE',  ( -0.000000000000000000, -0.000000000000000000, 1.000000000000000000 ) ) ;
#664 = CC_DESIGN_APPROVAL ( #519, ( #569 ) ) ;
#665 = CARTESIAN_POINT ( 'NONE',  ( 0.000000000000000000, -1.959434878635764737E-15, 3.999999999999998224 ) ) ;
#666 = EDGE_LOOP ( 'NONE', ( #400, #420 ) ) ;
#667 = CARTESIAN_POINT ( 'NONE',  ( 0.1571845235116775819, 1.063950011417338803, 5.559249473037191080 ) ) ;
#668 = LINE ( 'NONE', #671, #394 ) ;
#669 = DIRECTION ( 'NONE',  ( -0.8660254037844387076, -0.4999999999999998890, 0.000000000000000000 ) ) ;
#670 = ORIENTED_EDGE ( 'NONE', *, *, #214, .F. ) ;
#671 = CARTESIAN_POINT ( 'NONE',  ( 1.836970198721027469E-16, 1.499999999999996003, 5.650000000000000355 ) ) ;
#672 = ORIENTED_EDGE ( 'NONE', *, *, #493, .T. ) ;
#673 = CARTESIAN_POINT ( 'NONE',  ( -1.951563910473907981E-15, -1.154700538379252128, 5.650000000000000355 ) ) ;
#674 = AXIS2_PLACEMENT_3D ( 'NONE', #280, #337, #62 ) ;
#675 = AXIS2_PLACEMENT_3D ( 'NONE', #522, #687, #15 ) ;
#676 = CARTESIAN_POINT ( 'NONE',  ( 0.000000000000000000, -1.959434878635765131E-15, 4.000000000000000888 ) ) ;
#677 = EDGE_CURVE ( 'NONE', #60, #451, #76, .T. ) ;
#678 = CYLINDRICAL_SURFACE ( 'NONE', #371, 2.849999999999996536 ) ;
#679 = DIRECTION ( 'NONE',  ( 1.000000000000000000, 6.860497997771531562E-15, 1.093144709917669245E-30 ) ) ;
#680 = ORIENTED_EDGE ( 'NONE', *, *, #423, .F. ) ;
#681 = LINE ( 'NONE', #684, #441 ) ;
#682 = ORIENTED_EDGE ( 'NONE', *, *, #27, .F. ) ;
#683 = ADVANCED_FACE ( 'NONE', ( #325 ), #382, .F. ) ;
#684 = CARTESIAN_POINT ( 'NONE',  ( 0.000000000000000000, -1.500000000000000222, 5.650000000000000355 ) ) ;
#685 = AXIS2_PLACEMENT_3D ( 'NONE', #260, #481, #536 ) ;
#686 = ORIENTED_EDGE ( 'NONE', *, *, #467, .T. ) ;
#687 = DIRECTION ( 'NONE',  ( 0.4999999999999998890, -0.8660254037844387076, 0.000000000000000000 ) ) ;
#688 = PERSON_AND_ORGANIZATION_ROLE ( 'creator' ) ;
#689 = DIRECTION ( 'NONE',  ( -0.000000000000000000, -0.000000000000000000, 1.000000000000000000 ) ) ;
#690 = VERTEX_POINT ( 'NONE', #49 ) ;
#691 = CARTESIAN_POINT ( 'NONE',  ( 0.9999999999999997780, 0.5773502691896238437, 4.495000000000000995 ) ) ;
#692 = AXIS2_PLACEMENT_3D ( 'NONE', #443, #598, #389 ) ;
#693 = ADVANCED_FACE ( 'NONE', ( #608, #275 ), #496, .F. ) ;
#694 = ORIENTED_EDGE ( 'NONE', *, *, #703, .F. ) ;
#695 = PERSON_AND_ORGANIZATION ( #274, #291 ) ;
#696 = CARTESIAN_POINT ( 'NONE',  ( 0.9999999999999997780, -0.5773502691896270633, 4.495000000000000995 ) ) ;
#697 = ORIENTED_EDGE ( 'NONE', *, *, #716, .T. ) ;
#698 = DIRECTION ( 'NONE',  ( 0.000000000000000000, 0.000000000000000000, 1.000000000000000000 ) ) ;
#699 = APPROVAL_STATUS ( 'not_yet_approved' ) ;
#700 = DIRECTION ( 'NONE',  ( 0.000000000000000000, -1.000000000000000000, 0.000000000000000000 ) ) ;
#701 = ORIENTED_EDGE ( 'NONE', *, *, #214, .T. ) ;
#702 = CC_DESIGN_PERSON_AND_ORGANIZATION_ASSIGNMENT ( #312, #541, ( #369 ) ) ;
#703 = EDGE_CURVE ( 'NONE', #616, #480, #108, .T. ) ;
#704 = CARTESIAN_POINT ( 'NONE',  ( -0.9999999999999995559, -0.5773502691896261751, 5.650000000000000355 ) ) ;
#705 = CIRCLE ( 'NONE', #208, 2.849999999999996980 ) ;
#706 = CIRCLE ( 'NONE', #269, 1.154700538379251018 ) ;
#707 = CARTESIAN_POINT ( 'NONE',  ( 0.9999999999999997780, -0.3984623138739127879, 5.560556022342144189 ) ) ;
#708 = DIRECTION ( 'NONE',  ( 6.982962677686266711E-15, -1.000000000000000000, -1.367249359976252819E-16 ) ) ;
#709 = CARTESIAN_POINT ( 'NONE',  ( -1.000000000000000000, 0.5773502691896238437, 5.650000000000000355 ) ) ;
#710 = ADVANCED_FACE ( 'NONE', ( #206 ), #375, .T. ) ;
#711 = DIRECTION ( 'NONE',  ( -0.000000000000000000, -1.593389736827780109E-16, 1.000000000000000000 ) ) ;
#712 = CARTESIAN_POINT ( 'NONE',  ( 0.8419752161881547403, 0.6685859206620250461, 5.566536875587615896 ) ) ;
#713 = CARTESIAN_POINT ( 'NONE',  ( 0.000000000000000000, -2.849999999999999645, 3.999999999999997335 ) ) ;
#714 = CARTESIAN_POINT ( 'NONE',  ( 1.990144363140585066E-14, -2.849999999999999201, 3.999999999999999112 ) ) ;
#715 = CARTESIAN_POINT ( 'NONE',  ( 0.000000000000000000, -6.847230891735408473E-16, -4.000000000000000000 ) ) ;
#716 = EDGE_CURVE ( 'NONE', #567, #616, #80, .T. ) ;
#717 = ORIENTED_EDGE ( 'NONE', *, *, #186, .F. ) ;
#718 = FACE_OUTER_BOUND ( 'NONE', #426, .T. ) ;
#719 = VECTOR ( 'NONE', #158, 1000.000000000000000 ) ;
#720 = CARTESIAN_POINT ( 'NONE',  ( -0.9999999999999995559, -0.5773502691896272854, 4.495000000000000995 ) ) ;
ENDSEC;
END-ISO-10303-21;
