ISO-10303-21;
HEADER;
/* Generated by software containing ST-Developer
 * from STEP Tools, Inc. (www.steptools.com) 
 */

FILE_DESCRIPTION(
/* description */ (''),
/* implementation_level */ '2;1');

FILE_NAME(
/* name */ 'cardboard v1.step',
/* time_stamp */ '2023-12-17T13:36:55+01:00',
/* author */ (''),
/* organization */ (''),
/* preprocessor_version */ 'ST-DEVELOPER v20',
/* originating_system */ 'Autodesk Translation Framework v12.14.0.127',

/* authorisation */ '');

FILE_SCHEMA (('AUTOMOTIVE_DESIGN { 1 0 10303 214 3 1 1 }'));
ENDSEC;

DATA;
#10=MECHANICAL_DESIGN_GEOMETRIC_PRESENTATION_REPRESENTATION('',(#13),#1349);
#11=SHAPE_REPRESENTATION_RELATIONSHIP('SRR','None',#1356,#12);
#12=ADVANCED_BREP_SHAPE_REPRESENTATION('',(#14),#1348);
#13=STYLED_ITEM('',(#1366),#14);
#14=MANIFOLD_SOLID_BREP('K\X\F6rper1',#785);
#15=FACE_BOUND('',#140,.T.);
#16=FACE_BOUND('',#141,.T.);
#17=FACE_BOUND('',#142,.T.);
#18=FACE_BOUND('',#143,.T.);
#19=FACE_BOUND('',#144,.T.);
#20=FACE_BOUND('',#145,.T.);
#21=FACE_BOUND('',#146,.T.);
#22=FACE_BOUND('',#147,.T.);
#23=FACE_BOUND('',#148,.T.);
#24=FACE_BOUND('',#149,.T.);
#25=FACE_BOUND('',#151,.T.);
#26=FACE_BOUND('',#155,.T.);
#27=FACE_BOUND('',#156,.T.);
#28=FACE_BOUND('',#157,.T.);
#29=FACE_BOUND('',#158,.T.);
#30=FACE_BOUND('',#159,.T.);
#31=FACE_BOUND('',#160,.T.);
#32=FACE_BOUND('',#161,.T.);
#33=FACE_BOUND('',#162,.T.);
#34=FACE_BOUND('',#163,.T.);
#35=FACE_BOUND('',#164,.T.);
#36=FACE_BOUND('',#168,.T.);
#37=FACE_BOUND('',#169,.T.);
#38=FACE_BOUND('',#170,.T.);
#39=FACE_BOUND('',#171,.T.);
#40=FACE_BOUND('',#172,.T.);
#41=FACE_BOUND('',#173,.T.);
#42=FACE_BOUND('',#174,.T.);
#43=FACE_BOUND('',#175,.T.);
#44=FACE_BOUND('',#176,.T.);
#45=FACE_BOUND('',#177,.T.);
#46=FACE_BOUND('',#178,.T.);
#47=FACE_BOUND('',#182,.T.);
#48=FACE_BOUND('',#184,.T.);
#49=FACE_BOUND('',#185,.T.);
#50=FACE_BOUND('',#186,.T.);
#51=FACE_BOUND('',#187,.T.);
#52=FACE_BOUND('',#188,.T.);
#53=FACE_BOUND('',#189,.T.);
#54=FACE_BOUND('',#190,.T.);
#55=FACE_BOUND('',#191,.T.);
#56=FACE_BOUND('',#192,.T.);
#57=FACE_BOUND('',#193,.T.);
#58=FACE_BOUND('',#194,.T.);
#59=PLANE('',#835);
#60=PLANE('',#836);
#61=PLANE('',#846);
#62=PLANE('',#847);
#63=PLANE('',#863);
#64=PLANE('',#867);
#65=PLANE('',#871);
#66=PLANE('',#874);
#67=PLANE('',#881);
#68=PLANE('',#886);
#69=PLANE('',#893);
#70=PLANE('',#894);
#71=FACE_OUTER_BOUND('',#111,.T.);
#72=FACE_OUTER_BOUND('',#112,.T.);
#73=FACE_OUTER_BOUND('',#113,.T.);
#74=FACE_OUTER_BOUND('',#114,.T.);
#75=FACE_OUTER_BOUND('',#115,.T.);
#76=FACE_OUTER_BOUND('',#116,.T.);
#77=FACE_OUTER_BOUND('',#117,.T.);
#78=FACE_OUTER_BOUND('',#118,.T.);
#79=FACE_OUTER_BOUND('',#119,.T.);
#80=FACE_OUTER_BOUND('',#120,.T.);
#81=FACE_OUTER_BOUND('',#121,.T.);
#82=FACE_OUTER_BOUND('',#122,.T.);
#83=FACE_OUTER_BOUND('',#123,.T.);
#84=FACE_OUTER_BOUND('',#124,.T.);
#85=FACE_OUTER_BOUND('',#125,.T.);
#86=FACE_OUTER_BOUND('',#126,.T.);
#87=FACE_OUTER_BOUND('',#127,.T.);
#88=FACE_OUTER_BOUND('',#128,.T.);
#89=FACE_OUTER_BOUND('',#129,.T.);
#90=FACE_OUTER_BOUND('',#130,.T.);
#91=FACE_OUTER_BOUND('',#131,.T.);
#92=FACE_OUTER_BOUND('',#132,.T.);
#93=FACE_OUTER_BOUND('',#133,.T.);
#94=FACE_OUTER_BOUND('',#134,.T.);
#95=FACE_OUTER_BOUND('',#135,.T.);
#96=FACE_OUTER_BOUND('',#136,.T.);
#97=FACE_OUTER_BOUND('',#137,.T.);
#98=FACE_OUTER_BOUND('',#138,.T.);
#99=FACE_OUTER_BOUND('',#139,.T.);
#100=FACE_OUTER_BOUND('',#150,.T.);
#101=FACE_OUTER_BOUND('',#152,.T.);
#102=FACE_OUTER_BOUND('',#153,.T.);
#103=FACE_OUTER_BOUND('',#154,.T.);
#104=FACE_OUTER_BOUND('',#165,.T.);
#105=FACE_OUTER_BOUND('',#166,.T.);
#106=FACE_OUTER_BOUND('',#167,.T.);
#107=FACE_OUTER_BOUND('',#179,.T.);
#108=FACE_OUTER_BOUND('',#180,.T.);
#109=FACE_OUTER_BOUND('',#181,.T.);
#110=FACE_OUTER_BOUND('',#183,.T.);
#111=EDGE_LOOP('',(#513,#514,#515,#516));
#112=EDGE_LOOP('',(#517,#518,#519,#520));
#113=EDGE_LOOP('',(#521,#522,#523,#524));
#114=EDGE_LOOP('',(#525,#526,#527,#528));
#115=EDGE_LOOP('',(#529,#530,#531,#532));
#116=EDGE_LOOP('',(#533,#534,#535,#536));
#117=EDGE_LOOP('',(#537,#538,#539,#540));
#118=EDGE_LOOP('',(#541,#542,#543,#544));
#119=EDGE_LOOP('',(#545,#546,#547,#548));
#120=EDGE_LOOP('',(#549,#550,#551,#552));
#121=EDGE_LOOP('',(#553,#554,#555,#556));
#122=EDGE_LOOP('',(#557,#558,#559,#560));
#123=EDGE_LOOP('',(#561,#562,#563,#564));
#124=EDGE_LOOP('',(#565,#566,#567,#568));
#125=EDGE_LOOP('',(#569,#570,#571,#572));
#126=EDGE_LOOP('',(#573,#574,#575,#576));
#127=EDGE_LOOP('',(#577,#578,#579,#580));
#128=EDGE_LOOP('',(#581,#582,#583,#584));
#129=EDGE_LOOP('',(#585,#586,#587,#588));
#130=EDGE_LOOP('',(#589,#590,#591,#592));
#131=EDGE_LOOP('',(#593,#594,#595,#596));
#132=EDGE_LOOP('',(#597,#598,#599,#600));
#133=EDGE_LOOP('',(#601,#602,#603,#604));
#134=EDGE_LOOP('',(#605,#606,#607,#608));
#135=EDGE_LOOP('',(#609,#610,#611,#612));
#136=EDGE_LOOP('',(#613,#614,#615,#616));
#137=EDGE_LOOP('',(#617,#618,#619,#620));
#138=EDGE_LOOP('',(#621,#622,#623,#624));
#139=EDGE_LOOP('',(#625));
#140=EDGE_LOOP('',(#626));
#141=EDGE_LOOP('',(#627));
#142=EDGE_LOOP('',(#628));
#143=EDGE_LOOP('',(#629));
#144=EDGE_LOOP('',(#630));
#145=EDGE_LOOP('',(#631));
#146=EDGE_LOOP('',(#632,#633,#634,#635));
#147=EDGE_LOOP('',(#636));
#148=EDGE_LOOP('',(#637));
#149=EDGE_LOOP('',(#638));
#150=EDGE_LOOP('',(#639));
#151=EDGE_LOOP('',(#640));
#152=EDGE_LOOP('',(#641,#642,#643,#644));
#153=EDGE_LOOP('',(#645,#646,#647,#648));
#154=EDGE_LOOP('',(#649));
#155=EDGE_LOOP('',(#650));
#156=EDGE_LOOP('',(#651));
#157=EDGE_LOOP('',(#652));
#158=EDGE_LOOP('',(#653));
#159=EDGE_LOOP('',(#654));
#160=EDGE_LOOP('',(#655));
#161=EDGE_LOOP('',(#656,#657,#658,#659));
#162=EDGE_LOOP('',(#660));
#163=EDGE_LOOP('',(#661));
#164=EDGE_LOOP('',(#662));
#165=EDGE_LOOP('',(#663,#664,#665,#666));
#166=EDGE_LOOP('',(#667,#668,#669,#670));
#167=EDGE_LOOP('',(#671));
#168=EDGE_LOOP('',(#672));
#169=EDGE_LOOP('',(#673));
#170=EDGE_LOOP('',(#674));
#171=EDGE_LOOP('',(#675));
#172=EDGE_LOOP('',(#676));
#173=EDGE_LOOP('',(#677));
#174=EDGE_LOOP('',(#678,#679,#680,#681));
#175=EDGE_LOOP('',(#682));
#176=EDGE_LOOP('',(#683));
#177=EDGE_LOOP('',(#684,#685,#686,#687));
#178=EDGE_LOOP('',(#688));
#179=EDGE_LOOP('',(#689,#690,#691,#692));
#180=EDGE_LOOP('',(#693,#694,#695,#696));
#181=EDGE_LOOP('',(#697));
#182=EDGE_LOOP('',(#698));
#183=EDGE_LOOP('',(#699));
#184=EDGE_LOOP('',(#700));
#185=EDGE_LOOP('',(#701));
#186=EDGE_LOOP('',(#702));
#187=EDGE_LOOP('',(#703));
#188=EDGE_LOOP('',(#704));
#189=EDGE_LOOP('',(#705));
#190=EDGE_LOOP('',(#706,#707,#708,#709));
#191=EDGE_LOOP('',(#710));
#192=EDGE_LOOP('',(#711));
#193=EDGE_LOOP('',(#712,#713,#714,#715));
#194=EDGE_LOOP('',(#716));
#195=LINE('',#1140,#241);
#196=LINE('',#1146,#242);
#197=LINE('',#1152,#243);
#198=LINE('',#1158,#244);
#199=LINE('',#1164,#245);
#200=LINE('',#1170,#246);
#201=LINE('',#1176,#247);
#202=LINE('',#1182,#248);
#203=LINE('',#1188,#249);
#204=LINE('',#1194,#250);
#205=LINE('',#1200,#251);
#206=LINE('',#1206,#252);
#207=LINE('',#1211,#253);
#208=LINE('',#1213,#254);
#209=LINE('',#1215,#255);
#210=LINE('',#1216,#256);
#211=LINE('',#1220,#257);
#212=LINE('',#1222,#258);
#213=LINE('',#1224,#259);
#214=LINE('',#1225,#260);
#215=LINE('',#1230,#261);
#216=LINE('',#1237,#262);
#217=LINE('',#1243,#263);
#218=LINE('',#1245,#264);
#219=LINE('',#1246,#265);
#220=LINE('',#1249,#266);
#221=LINE('',#1251,#267);
#222=LINE('',#1252,#268);
#223=LINE('',#1260,#269);
#224=LINE('',#1266,#270);
#225=LINE('',#1272,#271);
#226=LINE('',#1278,#272);
#227=LINE('',#1283,#273);
#228=LINE('',#1285,#274);
#229=LINE('',#1287,#275);
#230=LINE('',#1288,#276);
#231=LINE('',#1293,#277);
#232=LINE('',#1297,#278);
#233=LINE('',#1299,#279);
#234=LINE('',#1300,#280);
#235=LINE('',#1317,#281);
#236=LINE('',#1321,#282);
#237=LINE('',#1325,#283);
#238=LINE('',#1329,#284);
#239=LINE('',#1338,#285);
#240=LINE('',#1343,#286);
#241=VECTOR('',#901,3.);
#242=VECTOR('',#908,3.);
#243=VECTOR('',#915,3.);
#244=VECTOR('',#922,3.);
#245=VECTOR('',#929,3.);
#246=VECTOR('',#936,3.);
#247=VECTOR('',#943,3.00000000000001);
#248=VECTOR('',#950,3.00000000000001);
#249=VECTOR('',#957,2.99999999999999);
#250=VECTOR('',#964,2.99999999999999);
#251=VECTOR('',#971,3.00000000000001);
#252=VECTOR('',#978,3.00000000000001);
#253=VECTOR('',#983,10.);
#254=VECTOR('',#984,10.);
#255=VECTOR('',#985,10.);
#256=VECTOR('',#986,10.);
#257=VECTOR('',#989,10.);
#258=VECTOR('',#990,10.);
#259=VECTOR('',#991,10.);
#260=VECTOR('',#992,10.);
#261=VECTOR('',#997,10.);
#262=VECTOR('',#1006,10.);
#263=VECTOR('',#1013,10.);
#264=VECTOR('',#1016,10.);
#265=VECTOR('',#1017,10.);
#266=VECTOR('',#1020,10.);
#267=VECTOR('',#1021,10.);
#268=VECTOR('',#1022,10.);
#269=VECTOR('',#1033,3.00000000000001);
#270=VECTOR('',#1040,3.00000000000001);
#271=VECTOR('',#1047,3.);
#272=VECTOR('',#1054,3.);
#273=VECTOR('',#1059,10.);
#274=VECTOR('',#1060,10.);
#275=VECTOR('',#1061,10.);
#276=VECTOR('',#1062,10.);
#277=VECTOR('',#1067,10.);
#278=VECTOR('',#1072,10.);
#279=VECTOR('',#1073,10.);
#280=VECTOR('',#1074,10.);
#281=VECTOR('',#1097,27.);
#282=VECTOR('',#1102,99.5);
#283=VECTOR('',#1107,41.);
#284=VECTOR('',#1112,44.);
#285=VECTOR('',#1123,27.);
#286=VECTOR('',#1130,99.5);
#287=CIRCLE('',#800,3.);
#288=CIRCLE('',#801,3.);
#289=CIRCLE('',#803,3.);
#290=CIRCLE('',#804,3.);
#291=CIRCLE('',#806,3.);
#292=CIRCLE('',#807,3.);
#293=CIRCLE('',#809,3.);
#294=CIRCLE('',#810,3.);
#295=CIRCLE('',#812,3.);
#296=CIRCLE('',#813,3.);
#297=CIRCLE('',#815,3.);
#298=CIRCLE('',#816,3.);
#299=CIRCLE('',#818,3.00000000000001);
#300=CIRCLE('',#819,3.00000000000001);
#301=CIRCLE('',#821,3.00000000000001);
#302=CIRCLE('',#822,3.00000000000001);
#303=CIRCLE('',#824,2.99999999999999);
#304=CIRCLE('',#825,2.99999999999999);
#305=CIRCLE('',#827,2.99999999999999);
#306=CIRCLE('',#828,2.99999999999999);
#307=CIRCLE('',#830,3.00000000000001);
#308=CIRCLE('',#831,3.00000000000001);
#309=CIRCLE('',#833,3.00000000000001);
#310=CIRCLE('',#834,3.00000000000001);
#311=CIRCLE('',#838,3.);
#312=CIRCLE('',#839,3.);
#313=CIRCLE('',#841,3.);
#314=CIRCLE('',#842,3.);
#315=CIRCLE('',#844,3.);
#316=CIRCLE('',#845,3.);
#317=CIRCLE('',#849,3.);
#318=CIRCLE('',#850,3.);
#319=CIRCLE('',#852,3.00000000000001);
#320=CIRCLE('',#853,3.00000000000001);
#321=CIRCLE('',#855,3.00000000000001);
#322=CIRCLE('',#856,3.00000000000001);
#323=CIRCLE('',#858,3.);
#324=CIRCLE('',#859,3.);
#325=CIRCLE('',#861,3.);
#326=CIRCLE('',#862,3.);
#327=CIRCLE('',#865,6.);
#328=CIRCLE('',#866,6.);
#329=CIRCLE('',#869,6.);
#330=CIRCLE('',#870,6.);
#331=CIRCLE('',#872,99.5);
#332=CIRCLE('',#873,44.);
#333=CIRCLE('',#875,41.);
#334=CIRCLE('',#876,27.);
#335=CIRCLE('',#878,27.);
#336=CIRCLE('',#880,99.5);
#337=CIRCLE('',#883,41.);
#338=CIRCLE('',#885,44.);
#339=CIRCLE('',#887,99.5);
#340=CIRCLE('',#889,27.);
#341=CIRCLE('',#890,27.);
#342=CIRCLE('',#892,99.5);
#343=VERTEX_POINT('',#1137);
#344=VERTEX_POINT('',#1139);
#345=VERTEX_POINT('',#1143);
#346=VERTEX_POINT('',#1145);
#347=VERTEX_POINT('',#1149);
#348=VERTEX_POINT('',#1151);
#349=VERTEX_POINT('',#1155);
#350=VERTEX_POINT('',#1157);
#351=VERTEX_POINT('',#1161);
#352=VERTEX_POINT('',#1163);
#353=VERTEX_POINT('',#1167);
#354=VERTEX_POINT('',#1169);
#355=VERTEX_POINT('',#1173);
#356=VERTEX_POINT('',#1175);
#357=VERTEX_POINT('',#1179);
#358=VERTEX_POINT('',#1181);
#359=VERTEX_POINT('',#1185);
#360=VERTEX_POINT('',#1187);
#361=VERTEX_POINT('',#1191);
#362=VERTEX_POINT('',#1193);
#363=VERTEX_POINT('',#1197);
#364=VERTEX_POINT('',#1199);
#365=VERTEX_POINT('',#1203);
#366=VERTEX_POINT('',#1205);
#367=VERTEX_POINT('',#1209);
#368=VERTEX_POINT('',#1210);
#369=VERTEX_POINT('',#1212);
#370=VERTEX_POINT('',#1214);
#371=VERTEX_POINT('',#1218);
#372=VERTEX_POINT('',#1219);
#373=VERTEX_POINT('',#1221);
#374=VERTEX_POINT('',#1223);
#375=VERTEX_POINT('',#1227);
#376=VERTEX_POINT('',#1229);
#377=VERTEX_POINT('',#1233);
#378=VERTEX_POINT('',#1235);
#379=VERTEX_POINT('',#1239);
#380=VERTEX_POINT('',#1241);
#381=VERTEX_POINT('',#1248);
#382=VERTEX_POINT('',#1250);
#383=VERTEX_POINT('',#1257);
#384=VERTEX_POINT('',#1259);
#385=VERTEX_POINT('',#1263);
#386=VERTEX_POINT('',#1265);
#387=VERTEX_POINT('',#1269);
#388=VERTEX_POINT('',#1271);
#389=VERTEX_POINT('',#1275);
#390=VERTEX_POINT('',#1277);
#391=VERTEX_POINT('',#1281);
#392=VERTEX_POINT('',#1282);
#393=VERTEX_POINT('',#1284);
#394=VERTEX_POINT('',#1286);
#395=VERTEX_POINT('',#1290);
#396=VERTEX_POINT('',#1292);
#397=VERTEX_POINT('',#1296);
#398=VERTEX_POINT('',#1298);
#399=VERTEX_POINT('',#1305);
#400=VERTEX_POINT('',#1307);
#401=VERTEX_POINT('',#1310);
#402=VERTEX_POINT('',#1312);
#403=VERTEX_POINT('',#1315);
#404=VERTEX_POINT('',#1319);
#405=VERTEX_POINT('',#1324);
#406=VERTEX_POINT('',#1328);
#407=VERTEX_POINT('',#1332);
#408=VERTEX_POINT('',#1335);
#409=VERTEX_POINT('',#1337);
#410=VERTEX_POINT('',#1341);
#411=EDGE_CURVE('',#343,#343,#287,.T.);
#412=EDGE_CURVE('',#343,#344,#195,.T.);
#413=EDGE_CURVE('',#344,#344,#288,.T.);
#414=EDGE_CURVE('',#345,#345,#289,.T.);
#415=EDGE_CURVE('',#345,#346,#196,.T.);
#416=EDGE_CURVE('',#346,#346,#290,.T.);
#417=EDGE_CURVE('',#347,#347,#291,.T.);
#418=EDGE_CURVE('',#347,#348,#197,.T.);
#419=EDGE_CURVE('',#348,#348,#292,.T.);
#420=EDGE_CURVE('',#349,#349,#293,.T.);
#421=EDGE_CURVE('',#349,#350,#198,.T.);
#422=EDGE_CURVE('',#350,#350,#294,.T.);
#423=EDGE_CURVE('',#351,#351,#295,.T.);
#424=EDGE_CURVE('',#351,#352,#199,.T.);
#425=EDGE_CURVE('',#352,#352,#296,.T.);
#426=EDGE_CURVE('',#353,#353,#297,.T.);
#427=EDGE_CURVE('',#353,#354,#200,.T.);
#428=EDGE_CURVE('',#354,#354,#298,.T.);
#429=EDGE_CURVE('',#355,#355,#299,.T.);
#430=EDGE_CURVE('',#355,#356,#201,.T.);
#431=EDGE_CURVE('',#356,#356,#300,.T.);
#432=EDGE_CURVE('',#357,#357,#301,.T.);
#433=EDGE_CURVE('',#357,#358,#202,.T.);
#434=EDGE_CURVE('',#358,#358,#302,.T.);
#435=EDGE_CURVE('',#359,#359,#303,.T.);
#436=EDGE_CURVE('',#359,#360,#203,.T.);
#437=EDGE_CURVE('',#360,#360,#304,.T.);
#438=EDGE_CURVE('',#361,#361,#305,.T.);
#439=EDGE_CURVE('',#361,#362,#204,.T.);
#440=EDGE_CURVE('',#362,#362,#306,.T.);
#441=EDGE_CURVE('',#363,#363,#307,.T.);
#442=EDGE_CURVE('',#363,#364,#205,.T.);
#443=EDGE_CURVE('',#364,#364,#308,.T.);
#444=EDGE_CURVE('',#365,#365,#309,.T.);
#445=EDGE_CURVE('',#365,#366,#206,.T.);
#446=EDGE_CURVE('',#366,#366,#310,.T.);
#447=EDGE_CURVE('',#367,#368,#207,.T.);
#448=EDGE_CURVE('',#369,#367,#208,.T.);
#449=EDGE_CURVE('',#370,#369,#209,.T.);
#450=EDGE_CURVE('',#370,#368,#210,.T.);
#451=EDGE_CURVE('',#371,#372,#211,.T.);
#452=EDGE_CURVE('',#371,#373,#212,.T.);
#453=EDGE_CURVE('',#374,#373,#213,.T.);
#454=EDGE_CURVE('',#372,#374,#214,.T.);
#455=EDGE_CURVE('',#375,#367,#311,.T.);
#456=EDGE_CURVE('',#376,#375,#215,.T.);
#457=EDGE_CURVE('',#369,#376,#312,.T.);
#458=EDGE_CURVE('',#372,#377,#313,.T.);
#459=EDGE_CURVE('',#378,#374,#314,.T.);
#460=EDGE_CURVE('',#377,#378,#216,.T.);
#461=EDGE_CURVE('',#368,#379,#315,.T.);
#462=EDGE_CURVE('',#380,#370,#316,.T.);
#463=EDGE_CURVE('',#380,#379,#217,.T.);
#464=EDGE_CURVE('',#379,#375,#218,.T.);
#465=EDGE_CURVE('',#376,#380,#219,.T.);
#466=EDGE_CURVE('',#377,#381,#220,.T.);
#467=EDGE_CURVE('',#382,#378,#221,.T.);
#468=EDGE_CURVE('',#381,#382,#222,.T.);
#469=EDGE_CURVE('',#381,#371,#317,.T.);
#470=EDGE_CURVE('',#373,#382,#318,.T.);
#471=EDGE_CURVE('',#383,#383,#319,.T.);
#472=EDGE_CURVE('',#383,#384,#223,.T.);
#473=EDGE_CURVE('',#384,#384,#320,.T.);
#474=EDGE_CURVE('',#385,#385,#321,.T.);
#475=EDGE_CURVE('',#385,#386,#224,.T.);
#476=EDGE_CURVE('',#386,#386,#322,.T.);
#477=EDGE_CURVE('',#387,#387,#323,.T.);
#478=EDGE_CURVE('',#387,#388,#225,.T.);
#479=EDGE_CURVE('',#388,#388,#324,.T.);
#480=EDGE_CURVE('',#389,#389,#325,.T.);
#481=EDGE_CURVE('',#389,#390,#226,.T.);
#482=EDGE_CURVE('',#390,#390,#326,.T.);
#483=EDGE_CURVE('',#391,#392,#227,.T.);
#484=EDGE_CURVE('',#391,#393,#228,.T.);
#485=EDGE_CURVE('',#394,#393,#229,.T.);
#486=EDGE_CURVE('',#392,#394,#230,.T.);
#487=EDGE_CURVE('',#395,#391,#327,.T.);
#488=EDGE_CURVE('',#395,#396,#231,.T.);
#489=EDGE_CURVE('',#393,#396,#328,.T.);
#490=EDGE_CURVE('',#397,#395,#232,.T.);
#491=EDGE_CURVE('',#397,#398,#233,.T.);
#492=EDGE_CURVE('',#396,#398,#234,.T.);
#493=EDGE_CURVE('',#392,#397,#329,.T.);
#494=EDGE_CURVE('',#398,#394,#330,.T.);
#495=EDGE_CURVE('',#399,#399,#331,.T.);
#496=EDGE_CURVE('',#400,#400,#332,.T.);
#497=EDGE_CURVE('',#401,#401,#333,.T.);
#498=EDGE_CURVE('',#402,#402,#334,.T.);
#499=EDGE_CURVE('',#403,#403,#335,.T.);
#500=EDGE_CURVE('',#403,#402,#235,.T.);
#501=EDGE_CURVE('',#404,#404,#336,.T.);
#502=EDGE_CURVE('',#404,#399,#236,.T.);
#503=EDGE_CURVE('',#401,#405,#237,.T.);
#504=EDGE_CURVE('',#405,#405,#337,.T.);
#505=EDGE_CURVE('',#400,#406,#238,.T.);
#506=EDGE_CURVE('',#406,#406,#338,.T.);
#507=EDGE_CURVE('',#407,#407,#339,.T.);
#508=EDGE_CURVE('',#408,#408,#340,.T.);
#509=EDGE_CURVE('',#408,#409,#239,.T.);
#510=EDGE_CURVE('',#409,#409,#341,.T.);
#511=EDGE_CURVE('',#410,#410,#342,.T.);
#512=EDGE_CURVE('',#410,#407,#240,.T.);
#513=ORIENTED_EDGE('',*,*,#411,.F.);
#514=ORIENTED_EDGE('',*,*,#412,.T.);
#515=ORIENTED_EDGE('',*,*,#413,.F.);
#516=ORIENTED_EDGE('',*,*,#412,.F.);
#517=ORIENTED_EDGE('',*,*,#414,.F.);
#518=ORIENTED_EDGE('',*,*,#415,.T.);
#519=ORIENTED_EDGE('',*,*,#416,.F.);
#520=ORIENTED_EDGE('',*,*,#415,.F.);
#521=ORIENTED_EDGE('',*,*,#417,.F.);
#522=ORIENTED_EDGE('',*,*,#418,.T.);
#523=ORIENTED_EDGE('',*,*,#419,.F.);
#524=ORIENTED_EDGE('',*,*,#418,.F.);
#525=ORIENTED_EDGE('',*,*,#420,.F.);
#526=ORIENTED_EDGE('',*,*,#421,.T.);
#527=ORIENTED_EDGE('',*,*,#422,.F.);
#528=ORIENTED_EDGE('',*,*,#421,.F.);
#529=ORIENTED_EDGE('',*,*,#423,.F.);
#530=ORIENTED_EDGE('',*,*,#424,.T.);
#531=ORIENTED_EDGE('',*,*,#425,.F.);
#532=ORIENTED_EDGE('',*,*,#424,.F.);
#533=ORIENTED_EDGE('',*,*,#426,.F.);
#534=ORIENTED_EDGE('',*,*,#427,.T.);
#535=ORIENTED_EDGE('',*,*,#428,.F.);
#536=ORIENTED_EDGE('',*,*,#427,.F.);
#537=ORIENTED_EDGE('',*,*,#429,.F.);
#538=ORIENTED_EDGE('',*,*,#430,.T.);
#539=ORIENTED_EDGE('',*,*,#431,.F.);
#540=ORIENTED_EDGE('',*,*,#430,.F.);
#541=ORIENTED_EDGE('',*,*,#432,.F.);
#542=ORIENTED_EDGE('',*,*,#433,.T.);
#543=ORIENTED_EDGE('',*,*,#434,.F.);
#544=ORIENTED_EDGE('',*,*,#433,.F.);
#545=ORIENTED_EDGE('',*,*,#435,.F.);
#546=ORIENTED_EDGE('',*,*,#436,.T.);
#547=ORIENTED_EDGE('',*,*,#437,.F.);
#548=ORIENTED_EDGE('',*,*,#436,.F.);
#549=ORIENTED_EDGE('',*,*,#438,.F.);
#550=ORIENTED_EDGE('',*,*,#439,.T.);
#551=ORIENTED_EDGE('',*,*,#440,.F.);
#552=ORIENTED_EDGE('',*,*,#439,.F.);
#553=ORIENTED_EDGE('',*,*,#441,.F.);
#554=ORIENTED_EDGE('',*,*,#442,.T.);
#555=ORIENTED_EDGE('',*,*,#443,.F.);
#556=ORIENTED_EDGE('',*,*,#442,.F.);
#557=ORIENTED_EDGE('',*,*,#444,.F.);
#558=ORIENTED_EDGE('',*,*,#445,.T.);
#559=ORIENTED_EDGE('',*,*,#446,.F.);
#560=ORIENTED_EDGE('',*,*,#445,.F.);
#561=ORIENTED_EDGE('',*,*,#447,.F.);
#562=ORIENTED_EDGE('',*,*,#448,.F.);
#563=ORIENTED_EDGE('',*,*,#449,.F.);
#564=ORIENTED_EDGE('',*,*,#450,.T.);
#565=ORIENTED_EDGE('',*,*,#451,.F.);
#566=ORIENTED_EDGE('',*,*,#452,.T.);
#567=ORIENTED_EDGE('',*,*,#453,.F.);
#568=ORIENTED_EDGE('',*,*,#454,.F.);
#569=ORIENTED_EDGE('',*,*,#455,.F.);
#570=ORIENTED_EDGE('',*,*,#456,.F.);
#571=ORIENTED_EDGE('',*,*,#457,.F.);
#572=ORIENTED_EDGE('',*,*,#448,.T.);
#573=ORIENTED_EDGE('',*,*,#458,.F.);
#574=ORIENTED_EDGE('',*,*,#454,.T.);
#575=ORIENTED_EDGE('',*,*,#459,.F.);
#576=ORIENTED_EDGE('',*,*,#460,.F.);
#577=ORIENTED_EDGE('',*,*,#461,.F.);
#578=ORIENTED_EDGE('',*,*,#450,.F.);
#579=ORIENTED_EDGE('',*,*,#462,.F.);
#580=ORIENTED_EDGE('',*,*,#463,.T.);
#581=ORIENTED_EDGE('',*,*,#464,.F.);
#582=ORIENTED_EDGE('',*,*,#463,.F.);
#583=ORIENTED_EDGE('',*,*,#465,.F.);
#584=ORIENTED_EDGE('',*,*,#456,.T.);
#585=ORIENTED_EDGE('',*,*,#466,.F.);
#586=ORIENTED_EDGE('',*,*,#460,.T.);
#587=ORIENTED_EDGE('',*,*,#467,.F.);
#588=ORIENTED_EDGE('',*,*,#468,.F.);
#589=ORIENTED_EDGE('',*,*,#469,.F.);
#590=ORIENTED_EDGE('',*,*,#468,.T.);
#591=ORIENTED_EDGE('',*,*,#470,.F.);
#592=ORIENTED_EDGE('',*,*,#452,.F.);
#593=ORIENTED_EDGE('',*,*,#471,.F.);
#594=ORIENTED_EDGE('',*,*,#472,.T.);
#595=ORIENTED_EDGE('',*,*,#473,.F.);
#596=ORIENTED_EDGE('',*,*,#472,.F.);
#597=ORIENTED_EDGE('',*,*,#474,.F.);
#598=ORIENTED_EDGE('',*,*,#475,.T.);
#599=ORIENTED_EDGE('',*,*,#476,.F.);
#600=ORIENTED_EDGE('',*,*,#475,.F.);
#601=ORIENTED_EDGE('',*,*,#477,.F.);
#602=ORIENTED_EDGE('',*,*,#478,.T.);
#603=ORIENTED_EDGE('',*,*,#479,.F.);
#604=ORIENTED_EDGE('',*,*,#478,.F.);
#605=ORIENTED_EDGE('',*,*,#480,.F.);
#606=ORIENTED_EDGE('',*,*,#481,.T.);
#607=ORIENTED_EDGE('',*,*,#482,.F.);
#608=ORIENTED_EDGE('',*,*,#481,.F.);
#609=ORIENTED_EDGE('',*,*,#483,.F.);
#610=ORIENTED_EDGE('',*,*,#484,.T.);
#611=ORIENTED_EDGE('',*,*,#485,.F.);
#612=ORIENTED_EDGE('',*,*,#486,.F.);
#613=ORIENTED_EDGE('',*,*,#487,.F.);
#614=ORIENTED_EDGE('',*,*,#488,.T.);
#615=ORIENTED_EDGE('',*,*,#489,.F.);
#616=ORIENTED_EDGE('',*,*,#484,.F.);
#617=ORIENTED_EDGE('',*,*,#490,.F.);
#618=ORIENTED_EDGE('',*,*,#491,.T.);
#619=ORIENTED_EDGE('',*,*,#492,.F.);
#620=ORIENTED_EDGE('',*,*,#488,.F.);
#621=ORIENTED_EDGE('',*,*,#493,.F.);
#622=ORIENTED_EDGE('',*,*,#486,.T.);
#623=ORIENTED_EDGE('',*,*,#494,.F.);
#624=ORIENTED_EDGE('',*,*,#491,.F.);
#625=ORIENTED_EDGE('',*,*,#495,.F.);
#626=ORIENTED_EDGE('',*,*,#414,.T.);
#627=ORIENTED_EDGE('',*,*,#420,.T.);
#628=ORIENTED_EDGE('',*,*,#426,.T.);
#629=ORIENTED_EDGE('',*,*,#432,.T.);
#630=ORIENTED_EDGE('',*,*,#438,.T.);
#631=ORIENTED_EDGE('',*,*,#444,.T.);
#632=ORIENTED_EDGE('',*,*,#466,.T.);
#633=ORIENTED_EDGE('',*,*,#469,.T.);
#634=ORIENTED_EDGE('',*,*,#451,.T.);
#635=ORIENTED_EDGE('',*,*,#458,.T.);
#636=ORIENTED_EDGE('',*,*,#474,.T.);
#637=ORIENTED_EDGE('',*,*,#480,.T.);
#638=ORIENTED_EDGE('',*,*,#496,.T.);
#639=ORIENTED_EDGE('',*,*,#497,.T.);
#640=ORIENTED_EDGE('',*,*,#498,.F.);
#641=ORIENTED_EDGE('',*,*,#499,.F.);
#642=ORIENTED_EDGE('',*,*,#500,.T.);
#643=ORIENTED_EDGE('',*,*,#498,.T.);
#644=ORIENTED_EDGE('',*,*,#500,.F.);
#645=ORIENTED_EDGE('',*,*,#501,.F.);
#646=ORIENTED_EDGE('',*,*,#502,.T.);
#647=ORIENTED_EDGE('',*,*,#495,.T.);
#648=ORIENTED_EDGE('',*,*,#502,.F.);
#649=ORIENTED_EDGE('',*,*,#501,.T.);
#650=ORIENTED_EDGE('',*,*,#416,.T.);
#651=ORIENTED_EDGE('',*,*,#422,.T.);
#652=ORIENTED_EDGE('',*,*,#428,.T.);
#653=ORIENTED_EDGE('',*,*,#434,.T.);
#654=ORIENTED_EDGE('',*,*,#440,.T.);
#655=ORIENTED_EDGE('',*,*,#446,.T.);
#656=ORIENTED_EDGE('',*,*,#467,.T.);
#657=ORIENTED_EDGE('',*,*,#459,.T.);
#658=ORIENTED_EDGE('',*,*,#453,.T.);
#659=ORIENTED_EDGE('',*,*,#470,.T.);
#660=ORIENTED_EDGE('',*,*,#476,.T.);
#661=ORIENTED_EDGE('',*,*,#482,.T.);
#662=ORIENTED_EDGE('',*,*,#499,.T.);
#663=ORIENTED_EDGE('',*,*,#497,.F.);
#664=ORIENTED_EDGE('',*,*,#503,.T.);
#665=ORIENTED_EDGE('',*,*,#504,.F.);
#666=ORIENTED_EDGE('',*,*,#503,.F.);
#667=ORIENTED_EDGE('',*,*,#496,.F.);
#668=ORIENTED_EDGE('',*,*,#505,.T.);
#669=ORIENTED_EDGE('',*,*,#506,.F.);
#670=ORIENTED_EDGE('',*,*,#505,.F.);
#671=ORIENTED_EDGE('',*,*,#507,.T.);
#672=ORIENTED_EDGE('',*,*,#413,.T.);
#673=ORIENTED_EDGE('',*,*,#419,.T.);
#674=ORIENTED_EDGE('',*,*,#425,.T.);
#675=ORIENTED_EDGE('',*,*,#431,.T.);
#676=ORIENTED_EDGE('',*,*,#437,.T.);
#677=ORIENTED_EDGE('',*,*,#443,.T.);
#678=ORIENTED_EDGE('',*,*,#464,.T.);
#679=ORIENTED_EDGE('',*,*,#455,.T.);
#680=ORIENTED_EDGE('',*,*,#447,.T.);
#681=ORIENTED_EDGE('',*,*,#461,.T.);
#682=ORIENTED_EDGE('',*,*,#473,.T.);
#683=ORIENTED_EDGE('',*,*,#479,.T.);
#684=ORIENTED_EDGE('',*,*,#485,.T.);
#685=ORIENTED_EDGE('',*,*,#489,.T.);
#686=ORIENTED_EDGE('',*,*,#492,.T.);
#687=ORIENTED_EDGE('',*,*,#494,.T.);
#688=ORIENTED_EDGE('',*,*,#506,.T.);
#689=ORIENTED_EDGE('',*,*,#508,.F.);
#690=ORIENTED_EDGE('',*,*,#509,.T.);
#691=ORIENTED_EDGE('',*,*,#510,.F.);
#692=ORIENTED_EDGE('',*,*,#509,.F.);
#693=ORIENTED_EDGE('',*,*,#511,.F.);
#694=ORIENTED_EDGE('',*,*,#512,.T.);
#695=ORIENTED_EDGE('',*,*,#507,.F.);
#696=ORIENTED_EDGE('',*,*,#512,.F.);
#697=ORIENTED_EDGE('',*,*,#504,.T.);
#698=ORIENTED_EDGE('',*,*,#510,.T.);
#699=ORIENTED_EDGE('',*,*,#511,.T.);
#700=ORIENTED_EDGE('',*,*,#411,.T.);
#701=ORIENTED_EDGE('',*,*,#417,.T.);
#702=ORIENTED_EDGE('',*,*,#423,.T.);
#703=ORIENTED_EDGE('',*,*,#429,.T.);
#704=ORIENTED_EDGE('',*,*,#435,.T.);
#705=ORIENTED_EDGE('',*,*,#441,.T.);
#706=ORIENTED_EDGE('',*,*,#465,.T.);
#707=ORIENTED_EDGE('',*,*,#462,.T.);
#708=ORIENTED_EDGE('',*,*,#449,.T.);
#709=ORIENTED_EDGE('',*,*,#457,.T.);
#710=ORIENTED_EDGE('',*,*,#471,.T.);
#711=ORIENTED_EDGE('',*,*,#477,.T.);
#712=ORIENTED_EDGE('',*,*,#483,.T.);
#713=ORIENTED_EDGE('',*,*,#493,.T.);
#714=ORIENTED_EDGE('',*,*,#490,.T.);
#715=ORIENTED_EDGE('',*,*,#487,.T.);
#716=ORIENTED_EDGE('',*,*,#508,.T.);
#717=CYLINDRICAL_SURFACE('',#799,3.);
#718=CYLINDRICAL_SURFACE('',#802,3.);
#719=CYLINDRICAL_SURFACE('',#805,3.);
#720=CYLINDRICAL_SURFACE('',#808,3.);
#721=CYLINDRICAL_SURFACE('',#811,3.);
#722=CYLINDRICAL_SURFACE('',#814,3.);
#723=CYLINDRICAL_SURFACE('',#817,3.00000000000001);
#724=CYLINDRICAL_SURFACE('',#820,3.00000000000001);
#725=CYLINDRICAL_SURFACE('',#823,2.99999999999999);
#726=CYLINDRICAL_SURFACE('',#826,2.99999999999999);
#727=CYLINDRICAL_SURFACE('',#829,3.00000000000001);
#728=CYLINDRICAL_SURFACE('',#832,3.00000000000001);
#729=CYLINDRICAL_SURFACE('',#837,3.);
#730=CYLINDRICAL_SURFACE('',#840,3.);
#731=CYLINDRICAL_SURFACE('',#843,3.);
#732=CYLINDRICAL_SURFACE('',#848,3.);
#733=CYLINDRICAL_SURFACE('',#851,3.00000000000001);
#734=CYLINDRICAL_SURFACE('',#854,3.00000000000001);
#735=CYLINDRICAL_SURFACE('',#857,3.);
#736=CYLINDRICAL_SURFACE('',#860,3.);
#737=CYLINDRICAL_SURFACE('',#864,6.);
#738=CYLINDRICAL_SURFACE('',#868,6.);
#739=CYLINDRICAL_SURFACE('',#877,27.);
#740=CYLINDRICAL_SURFACE('',#879,99.5);
#741=CYLINDRICAL_SURFACE('',#882,41.);
#742=CYLINDRICAL_SURFACE('',#884,44.);
#743=CYLINDRICAL_SURFACE('',#888,27.);
#744=CYLINDRICAL_SURFACE('',#891,99.5);
#745=ADVANCED_FACE('',(#71),#717,.F.);
#746=ADVANCED_FACE('',(#72),#718,.F.);
#747=ADVANCED_FACE('',(#73),#719,.F.);
#748=ADVANCED_FACE('',(#74),#720,.F.);
#749=ADVANCED_FACE('',(#75),#721,.F.);
#750=ADVANCED_FACE('',(#76),#722,.F.);
#751=ADVANCED_FACE('',(#77),#723,.F.);
#752=ADVANCED_FACE('',(#78),#724,.F.);
#753=ADVANCED_FACE('',(#79),#725,.F.);
#754=ADVANCED_FACE('',(#80),#726,.F.);
#755=ADVANCED_FACE('',(#81),#727,.F.);
#756=ADVANCED_FACE('',(#82),#728,.F.);
#757=ADVANCED_FACE('',(#83),#59,.F.);
#758=ADVANCED_FACE('',(#84),#60,.F.);
#759=ADVANCED_FACE('',(#85),#729,.F.);
#760=ADVANCED_FACE('',(#86),#730,.F.);
#761=ADVANCED_FACE('',(#87),#731,.F.);
#762=ADVANCED_FACE('',(#88),#61,.F.);
#763=ADVANCED_FACE('',(#89),#62,.F.);
#764=ADVANCED_FACE('',(#90),#732,.F.);
#765=ADVANCED_FACE('',(#91),#733,.F.);
#766=ADVANCED_FACE('',(#92),#734,.F.);
#767=ADVANCED_FACE('',(#93),#735,.F.);
#768=ADVANCED_FACE('',(#94),#736,.F.);
#769=ADVANCED_FACE('',(#95),#63,.F.);
#770=ADVANCED_FACE('',(#96),#737,.F.);
#771=ADVANCED_FACE('',(#97),#64,.F.);
#772=ADVANCED_FACE('',(#98),#738,.F.);
#773=ADVANCED_FACE('',(#99,#15,#16,#17,#18,#19,#20,#21,#22,#23,#24),#65,
 .F.);
#774=ADVANCED_FACE('',(#100,#25),#66,.F.);
#775=ADVANCED_FACE('',(#101),#739,.F.);
#776=ADVANCED_FACE('',(#102),#740,.T.);
#777=ADVANCED_FACE('',(#103,#26,#27,#28,#29,#30,#31,#32,#33,#34,#35),#67,
 .T.);
#778=ADVANCED_FACE('',(#104),#741,.F.);
#779=ADVANCED_FACE('',(#105),#742,.T.);
#780=ADVANCED_FACE('',(#106,#36,#37,#38,#39,#40,#41,#42,#43,#44,#45,#46),
#68,.T.);
#781=ADVANCED_FACE('',(#107),#743,.F.);
#782=ADVANCED_FACE('',(#108),#744,.T.);
#783=ADVANCED_FACE('',(#109,#47),#69,.T.);
#784=ADVANCED_FACE('',(#110,#48,#49,#50,#51,#52,#53,#54,#55,#56,#57,#58),
#70,.F.);
#785=CLOSED_SHELL('',(#745,#746,#747,#748,#749,#750,#751,#752,#753,#754,
#755,#756,#757,#758,#759,#760,#761,#762,#763,#764,#765,#766,#767,#768,#769,
#770,#771,#772,#773,#774,#775,#776,#777,#778,#779,#780,#781,#782,#783,#784));
#786=DERIVED_UNIT_ELEMENT(#788,1.);
#787=DERIVED_UNIT_ELEMENT(#1351,-3.);
#788=(
MASS_UNIT()
NAMED_UNIT(*)
SI_UNIT(.KILO.,.GRAM.)
);
#789=DERIVED_UNIT((#786,#787));
#790=MEASURE_REPRESENTATION_ITEM('density measure',
POSITIVE_RATIO_MEASURE(7850.),#789);
#791=PROPERTY_DEFINITION_REPRESENTATION(#796,#793);
#792=PROPERTY_DEFINITION_REPRESENTATION(#797,#794);
#793=REPRESENTATION('material name',(#795),#1348);
#794=REPRESENTATION('density',(#790),#1348);
#795=DESCRIPTIVE_REPRESENTATION_ITEM('Stahl','Stahl');
#796=PROPERTY_DEFINITION('material property','material name',#1358);
#797=PROPERTY_DEFINITION('material property','density of part',#1358);
#798=AXIS2_PLACEMENT_3D('',#1135,#895,#896);
#799=AXIS2_PLACEMENT_3D('',#1136,#897,#898);
#800=AXIS2_PLACEMENT_3D('',#1138,#899,#900);
#801=AXIS2_PLACEMENT_3D('',#1141,#902,#903);
#802=AXIS2_PLACEMENT_3D('',#1142,#904,#905);
#803=AXIS2_PLACEMENT_3D('',#1144,#906,#907);
#804=AXIS2_PLACEMENT_3D('',#1147,#909,#910);
#805=AXIS2_PLACEMENT_3D('',#1148,#911,#912);
#806=AXIS2_PLACEMENT_3D('',#1150,#913,#914);
#807=AXIS2_PLACEMENT_3D('',#1153,#916,#917);
#808=AXIS2_PLACEMENT_3D('',#1154,#918,#919);
#809=AXIS2_PLACEMENT_3D('',#1156,#920,#921);
#810=AXIS2_PLACEMENT_3D('',#1159,#923,#924);
#811=AXIS2_PLACEMENT_3D('',#1160,#925,#926);
#812=AXIS2_PLACEMENT_3D('',#1162,#927,#928);
#813=AXIS2_PLACEMENT_3D('',#1165,#930,#931);
#814=AXIS2_PLACEMENT_3D('',#1166,#932,#933);
#815=AXIS2_PLACEMENT_3D('',#1168,#934,#935);
#816=AXIS2_PLACEMENT_3D('',#1171,#937,#938);
#817=AXIS2_PLACEMENT_3D('',#1172,#939,#940);
#818=AXIS2_PLACEMENT_3D('',#1174,#941,#942);
#819=AXIS2_PLACEMENT_3D('',#1177,#944,#945);
#820=AXIS2_PLACEMENT_3D('',#1178,#946,#947);
#821=AXIS2_PLACEMENT_3D('',#1180,#948,#949);
#822=AXIS2_PLACEMENT_3D('',#1183,#951,#952);
#823=AXIS2_PLACEMENT_3D('',#1184,#953,#954);
#824=AXIS2_PLACEMENT_3D('',#1186,#955,#956);
#825=AXIS2_PLACEMENT_3D('',#1189,#958,#959);
#826=AXIS2_PLACEMENT_3D('',#1190,#960,#961);
#827=AXIS2_PLACEMENT_3D('',#1192,#962,#963);
#828=AXIS2_PLACEMENT_3D('',#1195,#965,#966);
#829=AXIS2_PLACEMENT_3D('',#1196,#967,#968);
#830=AXIS2_PLACEMENT_3D('',#1198,#969,#970);
#831=AXIS2_PLACEMENT_3D('',#1201,#972,#973);
#832=AXIS2_PLACEMENT_3D('',#1202,#974,#975);
#833=AXIS2_PLACEMENT_3D('',#1204,#976,#977);
#834=AXIS2_PLACEMENT_3D('',#1207,#979,#980);
#835=AXIS2_PLACEMENT_3D('',#1208,#981,#982);
#836=AXIS2_PLACEMENT_3D('',#1217,#987,#988);
#837=AXIS2_PLACEMENT_3D('',#1226,#993,#994);
#838=AXIS2_PLACEMENT_3D('',#1228,#995,#996);
#839=AXIS2_PLACEMENT_3D('',#1231,#998,#999);
#840=AXIS2_PLACEMENT_3D('',#1232,#1000,#1001);
#841=AXIS2_PLACEMENT_3D('',#1234,#1002,#1003);
#842=AXIS2_PLACEMENT_3D('',#1236,#1004,#1005);
#843=AXIS2_PLACEMENT_3D('',#1238,#1007,#1008);
#844=AXIS2_PLACEMENT_3D('',#1240,#1009,#1010);
#845=AXIS2_PLACEMENT_3D('',#1242,#1011,#1012);
#846=AXIS2_PLACEMENT_3D('',#1244,#1014,#1015);
#847=AXIS2_PLACEMENT_3D('',#1247,#1018,#1019);
#848=AXIS2_PLACEMENT_3D('',#1253,#1023,#1024);
#849=AXIS2_PLACEMENT_3D('',#1254,#1025,#1026);
#850=AXIS2_PLACEMENT_3D('',#1255,#1027,#1028);
#851=AXIS2_PLACEMENT_3D('',#1256,#1029,#1030);
#852=AXIS2_PLACEMENT_3D('',#1258,#1031,#1032);
#853=AXIS2_PLACEMENT_3D('',#1261,#1034,#1035);
#854=AXIS2_PLACEMENT_3D('',#1262,#1036,#1037);
#855=AXIS2_PLACEMENT_3D('',#1264,#1038,#1039);
#856=AXIS2_PLACEMENT_3D('',#1267,#1041,#1042);
#857=AXIS2_PLACEMENT_3D('',#1268,#1043,#1044);
#858=AXIS2_PLACEMENT_3D('',#1270,#1045,#1046);
#859=AXIS2_PLACEMENT_3D('',#1273,#1048,#1049);
#860=AXIS2_PLACEMENT_3D('',#1274,#1050,#1051);
#861=AXIS2_PLACEMENT_3D('',#1276,#1052,#1053);
#862=AXIS2_PLACEMENT_3D('',#1279,#1055,#1056);
#863=AXIS2_PLACEMENT_3D('',#1280,#1057,#1058);
#864=AXIS2_PLACEMENT_3D('',#1289,#1063,#1064);
#865=AXIS2_PLACEMENT_3D('',#1291,#1065,#1066);
#866=AXIS2_PLACEMENT_3D('',#1294,#1068,#1069);
#867=AXIS2_PLACEMENT_3D('',#1295,#1070,#1071);
#868=AXIS2_PLACEMENT_3D('',#1301,#1075,#1076);
#869=AXIS2_PLACEMENT_3D('',#1302,#1077,#1078);
#870=AXIS2_PLACEMENT_3D('',#1303,#1079,#1080);
#871=AXIS2_PLACEMENT_3D('',#1304,#1081,#1082);
#872=AXIS2_PLACEMENT_3D('',#1306,#1083,#1084);
#873=AXIS2_PLACEMENT_3D('',#1308,#1085,#1086);
#874=AXIS2_PLACEMENT_3D('',#1309,#1087,#1088);
#875=AXIS2_PLACEMENT_3D('',#1311,#1089,#1090);
#876=AXIS2_PLACEMENT_3D('',#1313,#1091,#1092);
#877=AXIS2_PLACEMENT_3D('',#1314,#1093,#1094);
#878=AXIS2_PLACEMENT_3D('',#1316,#1095,#1096);
#879=AXIS2_PLACEMENT_3D('',#1318,#1098,#1099);
#880=AXIS2_PLACEMENT_3D('',#1320,#1100,#1101);
#881=AXIS2_PLACEMENT_3D('',#1322,#1103,#1104);
#882=AXIS2_PLACEMENT_3D('',#1323,#1105,#1106);
#883=AXIS2_PLACEMENT_3D('',#1326,#1108,#1109);
#884=AXIS2_PLACEMENT_3D('',#1327,#1110,#1111);
#885=AXIS2_PLACEMENT_3D('',#1330,#1113,#1114);
#886=AXIS2_PLACEMENT_3D('',#1331,#1115,#1116);
#887=AXIS2_PLACEMENT_3D('',#1333,#1117,#1118);
#888=AXIS2_PLACEMENT_3D('',#1334,#1119,#1120);
#889=AXIS2_PLACEMENT_3D('',#1336,#1121,#1122);
#890=AXIS2_PLACEMENT_3D('',#1339,#1124,#1125);
#891=AXIS2_PLACEMENT_3D('',#1340,#1126,#1127);
#892=AXIS2_PLACEMENT_3D('',#1342,#1128,#1129);
#893=AXIS2_PLACEMENT_3D('',#1344,#1131,#1132);
#894=AXIS2_PLACEMENT_3D('',#1345,#1133,#1134);
#895=DIRECTION('axis',(0.,0.,1.));
#896=DIRECTION('refdir',(1.,0.,0.));
#897=DIRECTION('center_axis',(0.,1.,0.));
#898=DIRECTION('ref_axis',(1.,0.,0.));
#899=DIRECTION('center_axis',(0.,1.,0.));
#900=DIRECTION('ref_axis',(1.,0.,0.));
#901=DIRECTION('',(0.,1.,0.));
#902=DIRECTION('center_axis',(0.,-1.,0.));
#903=DIRECTION('ref_axis',(1.,0.,0.));
#904=DIRECTION('center_axis',(0.,1.,0.));
#905=DIRECTION('ref_axis',(1.,0.,0.));
#906=DIRECTION('center_axis',(0.,1.,0.));
#907=DIRECTION('ref_axis',(1.,0.,0.));
#908=DIRECTION('',(0.,1.,0.));
#909=DIRECTION('center_axis',(0.,-1.,0.));
#910=DIRECTION('ref_axis',(1.,0.,0.));
#911=DIRECTION('center_axis',(0.,1.,0.));
#912=DIRECTION('ref_axis',(1.,0.,0.));
#913=DIRECTION('center_axis',(0.,1.,0.));
#914=DIRECTION('ref_axis',(1.,0.,0.));
#915=DIRECTION('',(0.,1.,0.));
#916=DIRECTION('center_axis',(0.,-1.,0.));
#917=DIRECTION('ref_axis',(1.,0.,0.));
#918=DIRECTION('center_axis',(0.,1.,0.));
#919=DIRECTION('ref_axis',(1.,0.,0.));
#920=DIRECTION('center_axis',(0.,1.,0.));
#921=DIRECTION('ref_axis',(1.,0.,0.));
#922=DIRECTION('',(0.,1.,0.));
#923=DIRECTION('center_axis',(0.,-1.,0.));
#924=DIRECTION('ref_axis',(1.,0.,0.));
#925=DIRECTION('center_axis',(0.,1.,0.));
#926=DIRECTION('ref_axis',(1.,0.,0.));
#927=DIRECTION('center_axis',(0.,1.,0.));
#928=DIRECTION('ref_axis',(1.,0.,0.));
#929=DIRECTION('',(0.,1.,0.));
#930=DIRECTION('center_axis',(0.,-1.,0.));
#931=DIRECTION('ref_axis',(1.,0.,0.));
#932=DIRECTION('center_axis',(0.,1.,0.));
#933=DIRECTION('ref_axis',(1.,0.,0.));
#934=DIRECTION('center_axis',(0.,1.,0.));
#935=DIRECTION('ref_axis',(1.,0.,0.));
#936=DIRECTION('',(0.,1.,0.));
#937=DIRECTION('center_axis',(0.,-1.,0.));
#938=DIRECTION('ref_axis',(1.,0.,0.));
#939=DIRECTION('center_axis',(0.,1.,0.));
#940=DIRECTION('ref_axis',(1.,0.,0.));
#941=DIRECTION('center_axis',(0.,1.,0.));
#942=DIRECTION('ref_axis',(1.,0.,0.));
#943=DIRECTION('',(0.,1.,0.));
#944=DIRECTION('center_axis',(0.,-1.,0.));
#945=DIRECTION('ref_axis',(1.,0.,0.));
#946=DIRECTION('center_axis',(0.,1.,0.));
#947=DIRECTION('ref_axis',(1.,0.,0.));
#948=DIRECTION('center_axis',(0.,1.,0.));
#949=DIRECTION('ref_axis',(1.,0.,0.));
#950=DIRECTION('',(0.,1.,0.));
#951=DIRECTION('center_axis',(0.,-1.,0.));
#952=DIRECTION('ref_axis',(1.,0.,0.));
#953=DIRECTION('center_axis',(0.,1.,0.));
#954=DIRECTION('ref_axis',(1.,0.,0.));
#955=DIRECTION('center_axis',(0.,1.,0.));
#956=DIRECTION('ref_axis',(1.,0.,0.));
#957=DIRECTION('',(0.,1.,0.));
#958=DIRECTION('center_axis',(0.,-1.,0.));
#959=DIRECTION('ref_axis',(1.,0.,0.));
#960=DIRECTION('center_axis',(0.,1.,0.));
#961=DIRECTION('ref_axis',(1.,0.,0.));
#962=DIRECTION('center_axis',(0.,1.,0.));
#963=DIRECTION('ref_axis',(1.,0.,0.));
#964=DIRECTION('',(0.,1.,0.));
#965=DIRECTION('center_axis',(0.,-1.,0.));
#966=DIRECTION('ref_axis',(1.,0.,0.));
#967=DIRECTION('center_axis',(0.,1.,0.));
#968=DIRECTION('ref_axis',(1.,0.,0.));
#969=DIRECTION('center_axis',(0.,1.,0.));
#970=DIRECTION('ref_axis',(1.,0.,0.));
#971=DIRECTION('',(0.,1.,0.));
#972=DIRECTION('center_axis',(0.,-1.,0.));
#973=DIRECTION('ref_axis',(1.,0.,0.));
#974=DIRECTION('center_axis',(0.,1.,0.));
#975=DIRECTION('ref_axis',(1.,0.,0.));
#976=DIRECTION('center_axis',(0.,1.,0.));
#977=DIRECTION('ref_axis',(1.,0.,0.));
#978=DIRECTION('',(0.,1.,0.));
#979=DIRECTION('center_axis',(0.,-1.,0.));
#980=DIRECTION('ref_axis',(1.,0.,0.));
#981=DIRECTION('center_axis',(0.,0.,1.));
#982=DIRECTION('ref_axis',(1.,0.,0.));
#983=DIRECTION('',(-1.,0.,0.));
#984=DIRECTION('',(0.,1.,0.));
#985=DIRECTION('',(1.,0.,0.));
#986=DIRECTION('',(0.,1.,0.));
#987=DIRECTION('center_axis',(0.,0.,1.));
#988=DIRECTION('ref_axis',(1.,0.,0.));
#989=DIRECTION('',(1.,0.,0.));
#990=DIRECTION('',(0.,1.,0.));
#991=DIRECTION('',(-1.,0.,0.));
#992=DIRECTION('',(0.,1.,0.));
#993=DIRECTION('center_axis',(0.,1.,0.));
#994=DIRECTION('ref_axis',(0.,0.,-1.));
#995=DIRECTION('center_axis',(0.,-1.,0.));
#996=DIRECTION('ref_axis',(0.,0.,-1.));
#997=DIRECTION('',(0.,1.,0.));
#998=DIRECTION('center_axis',(0.,1.,0.));
#999=DIRECTION('ref_axis',(0.,0.,-1.));
#1000=DIRECTION('center_axis',(0.,1.,0.));
#1001=DIRECTION('ref_axis',(0.,0.,-1.));
#1002=DIRECTION('center_axis',(0.,1.,0.));
#1003=DIRECTION('ref_axis',(0.,0.,-1.));
#1004=DIRECTION('center_axis',(0.,-1.,0.));
#1005=DIRECTION('ref_axis',(0.,0.,-1.));
#1006=DIRECTION('',(0.,1.,0.));
#1007=DIRECTION('center_axis',(0.,1.,0.));
#1008=DIRECTION('ref_axis',(0.,0.,1.));
#1009=DIRECTION('center_axis',(0.,-1.,0.));
#1010=DIRECTION('ref_axis',(0.,0.,1.));
#1011=DIRECTION('center_axis',(0.,1.,0.));
#1012=DIRECTION('ref_axis',(0.,0.,1.));
#1013=DIRECTION('',(0.,1.,0.));
#1014=DIRECTION('center_axis',(0.,0.,-1.));
#1015=DIRECTION('ref_axis',(-1.,0.,0.));
#1016=DIRECTION('',(1.,0.,0.));
#1017=DIRECTION('',(-1.,0.,0.));
#1018=DIRECTION('center_axis',(0.,0.,-1.));
#1019=DIRECTION('ref_axis',(-1.,0.,0.));
#1020=DIRECTION('',(-1.,0.,0.));
#1021=DIRECTION('',(1.,0.,0.));
#1022=DIRECTION('',(0.,1.,0.));
#1023=DIRECTION('center_axis',(0.,1.,0.));
#1024=DIRECTION('ref_axis',(0.,0.,1.));
#1025=DIRECTION('center_axis',(0.,1.,0.));
#1026=DIRECTION('ref_axis',(0.,0.,1.));
#1027=DIRECTION('center_axis',(0.,-1.,0.));
#1028=DIRECTION('ref_axis',(0.,0.,1.));
#1029=DIRECTION('center_axis',(0.,1.,0.));
#1030=DIRECTION('ref_axis',(1.,0.,0.));
#1031=DIRECTION('center_axis',(0.,1.,0.));
#1032=DIRECTION('ref_axis',(1.,0.,0.));
#1033=DIRECTION('',(0.,1.,0.));
#1034=DIRECTION('center_axis',(0.,-1.,0.));
#1035=DIRECTION('ref_axis',(1.,0.,0.));
#1036=DIRECTION('center_axis',(0.,1.,0.));
#1037=DIRECTION('ref_axis',(1.,0.,0.));
#1038=DIRECTION('center_axis',(0.,1.,0.));
#1039=DIRECTION('ref_axis',(1.,0.,0.));
#1040=DIRECTION('',(0.,1.,0.));
#1041=DIRECTION('center_axis',(0.,-1.,0.));
#1042=DIRECTION('ref_axis',(1.,0.,0.));
#1043=DIRECTION('center_axis',(0.,1.,0.));
#1044=DIRECTION('ref_axis',(1.,0.,0.));
#1045=DIRECTION('center_axis',(0.,1.,0.));
#1046=DIRECTION('ref_axis',(1.,0.,0.));
#1047=DIRECTION('',(0.,1.,0.));
#1048=DIRECTION('center_axis',(0.,-1.,0.));
#1049=DIRECTION('ref_axis',(1.,0.,0.));
#1050=DIRECTION('center_axis',(0.,1.,0.));
#1051=DIRECTION('ref_axis',(1.,0.,0.));
#1052=DIRECTION('center_axis',(0.,1.,0.));
#1053=DIRECTION('ref_axis',(1.,0.,0.));
#1054=DIRECTION('',(0.,1.,0.));
#1055=DIRECTION('center_axis',(0.,-1.,0.));
#1056=DIRECTION('ref_axis',(1.,0.,0.));
#1057=DIRECTION('center_axis',(-0.707106781186548,0.,-0.707106781186548));
#1058=DIRECTION('ref_axis',(-0.707106781186548,0.,0.707106781186548));
#1059=DIRECTION('',(-0.707106781186548,0.,0.707106781186548));
#1060=DIRECTION('',(0.,1.,0.));
#1061=DIRECTION('',(0.707106781186548,0.,-0.707106781186548));
#1062=DIRECTION('',(0.,1.,0.));
#1063=DIRECTION('center_axis',(0.,1.,0.));
#1064=DIRECTION('ref_axis',(-0.707106781186547,0.,-0.707106781186547));
#1065=DIRECTION('center_axis',(0.,1.,0.));
#1066=DIRECTION('ref_axis',(-0.707106781186547,0.,-0.707106781186547));
#1067=DIRECTION('',(0.,1.,0.));
#1068=DIRECTION('center_axis',(0.,-1.,0.));
#1069=DIRECTION('ref_axis',(-0.707106781186547,0.,-0.707106781186547));
#1070=DIRECTION('center_axis',(0.707106781186548,0.,0.707106781186548));
#1071=DIRECTION('ref_axis',(0.707106781186548,0.,-0.707106781186548));
#1072=DIRECTION('',(0.707106781186548,0.,-0.707106781186548));
#1073=DIRECTION('',(0.,1.,0.));
#1074=DIRECTION('',(-0.707106781186548,0.,0.707106781186548));
#1075=DIRECTION('center_axis',(0.,1.,0.));
#1076=DIRECTION('ref_axis',(0.707106781186547,0.,0.707106781186547));
#1077=DIRECTION('center_axis',(0.,1.,0.));
#1078=DIRECTION('ref_axis',(0.707106781186547,0.,0.707106781186547));
#1079=DIRECTION('center_axis',(0.,-1.,0.));
#1080=DIRECTION('ref_axis',(0.707106781186547,0.,0.707106781186547));
#1081=DIRECTION('center_axis',(0.,1.,0.));
#1082=DIRECTION('ref_axis',(-1.,0.,0.));
#1083=DIRECTION('center_axis',(0.,1.,0.));
#1084=DIRECTION('ref_axis',(-1.,0.,0.));
#1085=DIRECTION('center_axis',(0.,1.,0.));
#1086=DIRECTION('ref_axis',(1.,0.,0.));
#1087=DIRECTION('center_axis',(0.,1.,0.));
#1088=DIRECTION('ref_axis',(-1.,0.,0.));
#1089=DIRECTION('center_axis',(0.,-1.,0.));
#1090=DIRECTION('ref_axis',(1.,0.,0.));
#1091=DIRECTION('center_axis',(0.,-1.,0.));
#1092=DIRECTION('ref_axis',(-1.,0.,0.));
#1093=DIRECTION('center_axis',(0.,1.,0.));
#1094=DIRECTION('ref_axis',(-1.,0.,0.));
#1095=DIRECTION('center_axis',(0.,-1.,0.));
#1096=DIRECTION('ref_axis',(-1.,0.,0.));
#1097=DIRECTION('',(0.,-1.,0.));
#1098=DIRECTION('center_axis',(0.,1.,0.));
#1099=DIRECTION('ref_axis',(-1.,0.,0.));
#1100=DIRECTION('center_axis',(0.,1.,0.));
#1101=DIRECTION('ref_axis',(-1.,0.,0.));
#1102=DIRECTION('',(0.,-1.,0.));
#1103=DIRECTION('center_axis',(0.,1.,0.));
#1104=DIRECTION('ref_axis',(-1.,0.,0.));
#1105=DIRECTION('center_axis',(0.,1.,0.));
#1106=DIRECTION('ref_axis',(1.,0.,0.));
#1107=DIRECTION('',(0.,-1.,0.));
#1108=DIRECTION('center_axis',(0.,1.,0.));
#1109=DIRECTION('ref_axis',(1.,0.,0.));
#1110=DIRECTION('center_axis',(0.,1.,0.));
#1111=DIRECTION('ref_axis',(1.,0.,0.));
#1112=DIRECTION('',(0.,-1.,0.));
#1113=DIRECTION('center_axis',(0.,-1.,0.));
#1114=DIRECTION('ref_axis',(1.,0.,0.));
#1115=DIRECTION('center_axis',(0.,1.,0.));
#1116=DIRECTION('ref_axis',(1.,0.,0.));
#1117=DIRECTION('center_axis',(0.,1.,0.));
#1118=DIRECTION('ref_axis',(1.,0.,0.));
#1119=DIRECTION('center_axis',(0.,-1.,0.));
#1120=DIRECTION('ref_axis',(1.,0.,0.));
#1121=DIRECTION('center_axis',(0.,1.,0.));
#1122=DIRECTION('ref_axis',(1.,0.,0.));
#1123=DIRECTION('',(0.,1.,0.));
#1124=DIRECTION('center_axis',(0.,-1.,0.));
#1125=DIRECTION('ref_axis',(1.,0.,0.));
#1126=DIRECTION('center_axis',(0.,-1.,0.));
#1127=DIRECTION('ref_axis',(1.,0.,0.));
#1128=DIRECTION('center_axis',(0.,-1.,0.));
#1129=DIRECTION('ref_axis',(1.,0.,0.));
#1130=DIRECTION('',(0.,1.,0.));
#1131=DIRECTION('center_axis',(0.,1.,0.));
#1132=DIRECTION('ref_axis',(1.,0.,0.));
#1133=DIRECTION('center_axis',(0.,1.,0.));
#1134=DIRECTION('ref_axis',(1.,0.,0.));
#1135=CARTESIAN_POINT('',(0.,0.,0.));
#1136=CARTESIAN_POINT('Origin',(-30.0000004470348,-3.,90.0000013411045));
#1137=CARTESIAN_POINT('',(-33.0000004470348,-3.,90.0000013411045));
#1138=CARTESIAN_POINT('Origin',(-30.0000004470348,-3.,90.0000013411045));
#1139=CARTESIAN_POINT('',(-33.0000004470348,0.,90.0000013411045));
#1140=CARTESIAN_POINT('',(-33.0000004470348,-3.,90.0000013411045));
#1141=CARTESIAN_POINT('Origin',(-30.0000004470348,0.,90.0000013411045));
#1142=CARTESIAN_POINT('Origin',(-30.0000004470348,-3.,90.0000013411045));
#1143=CARTESIAN_POINT('',(-33.0000004470348,58.,90.0000013411045));
#1144=CARTESIAN_POINT('Origin',(-30.0000004470348,58.,90.0000013411045));
#1145=CARTESIAN_POINT('',(-33.0000004470348,61.,90.0000013411045));
#1146=CARTESIAN_POINT('',(-33.0000004470348,-3.,90.0000013411045));
#1147=CARTESIAN_POINT('Origin',(-30.0000004470348,61.,90.0000013411045));
#1148=CARTESIAN_POINT('Origin',(30.0000004470348,-3.,-90.0000013411045));
#1149=CARTESIAN_POINT('',(27.0000004470348,-3.,-90.0000013411045));
#1150=CARTESIAN_POINT('Origin',(30.0000004470348,-3.,-90.0000013411045));
#1151=CARTESIAN_POINT('',(27.0000004470348,0.,-90.0000013411045));
#1152=CARTESIAN_POINT('',(27.0000004470348,-3.,-90.0000013411045));
#1153=CARTESIAN_POINT('Origin',(30.0000004470348,0.,-90.0000013411045));
#1154=CARTESIAN_POINT('Origin',(30.0000004470348,-3.,-90.0000013411045));
#1155=CARTESIAN_POINT('',(27.0000004470348,58.,-90.0000013411045));
#1156=CARTESIAN_POINT('Origin',(30.0000004470348,58.,-90.0000013411045));
#1157=CARTESIAN_POINT('',(27.0000004470348,61.,-90.0000013411045));
#1158=CARTESIAN_POINT('',(27.0000004470348,-3.,-90.0000013411045));
#1159=CARTESIAN_POINT('Origin',(30.0000004470348,61.,-90.0000013411045));
#1160=CARTESIAN_POINT('Origin',(-30.0000004470348,-3.,-90.0000013411045));
#1161=CARTESIAN_POINT('',(-33.0000004470348,-3.,-90.0000013411045));
#1162=CARTESIAN_POINT('Origin',(-30.0000004470348,-3.,-90.0000013411045));
#1163=CARTESIAN_POINT('',(-33.0000004470348,0.,-90.0000013411045));
#1164=CARTESIAN_POINT('',(-33.0000004470348,-3.,-90.0000013411045));
#1165=CARTESIAN_POINT('Origin',(-30.0000004470348,0.,-90.0000013411045));
#1166=CARTESIAN_POINT('Origin',(-30.0000004470348,-3.,-90.0000013411045));
#1167=CARTESIAN_POINT('',(-33.0000004470348,58.,-90.0000013411045));
#1168=CARTESIAN_POINT('Origin',(-30.0000004470348,58.,-90.0000013411045));
#1169=CARTESIAN_POINT('',(-33.0000004470348,61.,-90.0000013411045));
#1170=CARTESIAN_POINT('',(-33.0000004470348,-3.,-90.0000013411045));
#1171=CARTESIAN_POINT('Origin',(-30.0000004470348,61.,-90.0000013411045));
#1172=CARTESIAN_POINT('Origin',(-90.0000013411045,-3.,30.0000004470348));
#1173=CARTESIAN_POINT('',(-93.0000013411045,-3.,30.0000004470348));
#1174=CARTESIAN_POINT('Origin',(-90.0000013411045,-3.,30.0000004470348));
#1175=CARTESIAN_POINT('',(-93.0000013411045,0.,30.0000004470348));
#1176=CARTESIAN_POINT('',(-93.0000013411045,-3.,30.0000004470348));
#1177=CARTESIAN_POINT('Origin',(-90.0000013411045,0.,30.0000004470348));
#1178=CARTESIAN_POINT('Origin',(-90.0000013411045,-3.,30.0000004470348));
#1179=CARTESIAN_POINT('',(-93.0000013411045,58.,30.0000004470348));
#1180=CARTESIAN_POINT('Origin',(-90.0000013411045,58.,30.0000004470348));
#1181=CARTESIAN_POINT('',(-93.0000013411045,61.,30.0000004470348));
#1182=CARTESIAN_POINT('',(-93.0000013411045,-3.,30.0000004470348));
#1183=CARTESIAN_POINT('Origin',(-90.0000013411045,61.,30.0000004470348));
#1184=CARTESIAN_POINT('Origin',(90.0000013411045,-3.,30.0000004470348));
#1185=CARTESIAN_POINT('',(87.0000013411045,-3.,30.0000004470348));
#1186=CARTESIAN_POINT('Origin',(90.0000013411045,-3.,30.0000004470348));
#1187=CARTESIAN_POINT('',(87.0000013411045,0.,30.0000004470348));
#1188=CARTESIAN_POINT('',(87.0000013411045,-3.,30.0000004470348));
#1189=CARTESIAN_POINT('Origin',(90.0000013411045,0.,30.0000004470348));
#1190=CARTESIAN_POINT('Origin',(90.0000013411045,-3.,30.0000004470348));
#1191=CARTESIAN_POINT('',(87.0000013411045,58.,30.0000004470348));
#1192=CARTESIAN_POINT('Origin',(90.0000013411045,58.,30.0000004470348));
#1193=CARTESIAN_POINT('',(87.0000013411045,61.,30.0000004470348));
#1194=CARTESIAN_POINT('',(87.0000013411045,-3.,30.0000004470348));
#1195=CARTESIAN_POINT('Origin',(90.0000013411045,61.,30.0000004470348));
#1196=CARTESIAN_POINT('Origin',(90.0000013411045,-3.,-30.0000004470348));
#1197=CARTESIAN_POINT('',(87.0000013411045,-3.,-30.0000004470348));
#1198=CARTESIAN_POINT('Origin',(90.0000013411045,-3.,-30.0000004470348));
#1199=CARTESIAN_POINT('',(87.0000013411045,0.,-30.0000004470348));
#1200=CARTESIAN_POINT('',(87.0000013411045,-3.,-30.0000004470348));
#1201=CARTESIAN_POINT('Origin',(90.0000013411045,0.,-30.0000004470348));
#1202=CARTESIAN_POINT('Origin',(90.0000013411045,-3.,-30.0000004470348));
#1203=CARTESIAN_POINT('',(87.0000013411045,58.,-30.0000004470348));
#1204=CARTESIAN_POINT('Origin',(90.0000013411045,58.,-30.0000004470348));
#1205=CARTESIAN_POINT('',(87.0000013411045,61.,-30.0000004470348));
#1206=CARTESIAN_POINT('',(87.0000013411045,-3.,-30.0000004470348));
#1207=CARTESIAN_POINT('Origin',(90.0000013411045,61.,-30.0000004470348));
#1208=CARTESIAN_POINT('Origin',(-4.00000005960464,-3.,-47.0000007450581));
#1209=CARTESIAN_POINT('',(4.00000005960464,0.,-47.0000007450581));
#1210=CARTESIAN_POINT('',(-4.00000005960464,0.,-47.0000007450581));
#1211=CARTESIAN_POINT('',(-2.00000002980232,0.,-47.0000007450581));
#1212=CARTESIAN_POINT('',(4.00000005960464,-3.,-47.0000007450581));
#1213=CARTESIAN_POINT('',(4.00000005960464,-3.,-47.0000007450581));
#1214=CARTESIAN_POINT('',(-4.00000005960464,-3.,-47.0000007450581));
#1215=CARTESIAN_POINT('',(-2.00000002980232,-3.,-47.0000007450581));
#1216=CARTESIAN_POINT('',(-4.00000005960464,-3.,-47.0000007450581));
#1217=CARTESIAN_POINT('Origin',(-4.00000005960464,-3.,-47.0000007450581));
#1218=CARTESIAN_POINT('',(-4.00000005960464,58.,-47.0000007450581));
#1219=CARTESIAN_POINT('',(4.00000005960464,58.,-47.0000007450581));
#1220=CARTESIAN_POINT('',(-2.00000002980232,58.,-47.0000007450581));
#1221=CARTESIAN_POINT('',(-4.00000005960464,61.,-47.0000007450581));
#1222=CARTESIAN_POINT('',(-4.00000005960464,-3.,-47.0000007450581));
#1223=CARTESIAN_POINT('',(4.00000005960464,61.,-47.0000007450581));
#1224=CARTESIAN_POINT('',(-2.00000002980232,61.,-47.0000007450581));
#1225=CARTESIAN_POINT('',(4.00000005960464,-3.,-47.0000007450581));
#1226=CARTESIAN_POINT('Origin',(4.00000005960464,-3.,-50.0000007450581));
#1227=CARTESIAN_POINT('',(4.00000005960464,0.,-53.0000007450581));
#1228=CARTESIAN_POINT('Origin',(4.00000005960464,0.,-50.0000007450581));
#1229=CARTESIAN_POINT('',(4.00000005960464,-3.,-53.0000007450581));
#1230=CARTESIAN_POINT('',(4.00000005960464,-3.,-53.0000007450581));
#1231=CARTESIAN_POINT('Origin',(4.00000005960464,-3.,-50.0000007450581));
#1232=CARTESIAN_POINT('Origin',(4.00000005960464,-3.,-50.0000007450581));
#1233=CARTESIAN_POINT('',(4.00000005960464,58.,-53.0000007450581));
#1234=CARTESIAN_POINT('Origin',(4.00000005960464,58.,-50.0000007450581));
#1235=CARTESIAN_POINT('',(4.00000005960464,61.,-53.0000007450581));
#1236=CARTESIAN_POINT('Origin',(4.00000005960464,61.,-50.0000007450581));
#1237=CARTESIAN_POINT('',(4.00000005960464,-3.,-53.0000007450581));
#1238=CARTESIAN_POINT('Origin',(-4.00000005960464,-3.,-50.0000007450581));
#1239=CARTESIAN_POINT('',(-4.00000005960465,0.,-53.0000007450581));
#1240=CARTESIAN_POINT('Origin',(-4.00000005960464,0.,-50.0000007450581));
#1241=CARTESIAN_POINT('',(-4.00000005960465,-3.,-53.0000007450581));
#1242=CARTESIAN_POINT('Origin',(-4.00000005960464,-3.,-50.0000007450581));
#1243=CARTESIAN_POINT('',(-4.00000005960465,-3.,-53.0000007450581));
#1244=CARTESIAN_POINT('Origin',(4.00000005960464,-3.,-53.0000007450581));
#1245=CARTESIAN_POINT('',(2.00000002980232,0.,-53.0000007450581));
#1246=CARTESIAN_POINT('',(2.00000002980232,-3.,-53.0000007450581));
#1247=CARTESIAN_POINT('Origin',(4.00000005960464,-3.,-53.0000007450581));
#1248=CARTESIAN_POINT('',(-4.00000005960465,58.,-53.0000007450581));
#1249=CARTESIAN_POINT('',(2.00000002980232,58.,-53.0000007450581));
#1250=CARTESIAN_POINT('',(-4.00000005960465,61.,-53.0000007450581));
#1251=CARTESIAN_POINT('',(2.00000002980232,61.,-53.0000007450581));
#1252=CARTESIAN_POINT('',(-4.00000005960465,-3.,-53.0000007450581));
#1253=CARTESIAN_POINT('Origin',(-4.00000005960464,-3.,-50.0000007450581));
#1254=CARTESIAN_POINT('Origin',(-4.00000005960464,58.,-50.0000007450581));
#1255=CARTESIAN_POINT('Origin',(-4.00000005960464,61.,-50.0000007450581));
#1256=CARTESIAN_POINT('Origin',(-90.0000013411045,-3.,-30.0000004470348));
#1257=CARTESIAN_POINT('',(-93.0000013411045,-3.,-30.0000004470348));
#1258=CARTESIAN_POINT('Origin',(-90.0000013411045,-3.,-30.0000004470348));
#1259=CARTESIAN_POINT('',(-93.0000013411045,0.,-30.0000004470348));
#1260=CARTESIAN_POINT('',(-93.0000013411045,-3.,-30.0000004470348));
#1261=CARTESIAN_POINT('Origin',(-90.0000013411045,0.,-30.0000004470348));
#1262=CARTESIAN_POINT('Origin',(-90.0000013411045,-3.,-30.0000004470348));
#1263=CARTESIAN_POINT('',(-93.0000013411045,58.,-30.0000004470348));
#1264=CARTESIAN_POINT('Origin',(-90.0000013411045,58.,-30.0000004470348));
#1265=CARTESIAN_POINT('',(-93.0000013411045,61.,-30.0000004470348));
#1266=CARTESIAN_POINT('',(-93.0000013411045,-3.,-30.0000004470348));
#1267=CARTESIAN_POINT('Origin',(-90.0000013411045,61.,-30.0000004470348));
#1268=CARTESIAN_POINT('Origin',(30.0000004470348,-3.,90.0000013411045));
#1269=CARTESIAN_POINT('',(27.0000004470348,-3.,90.0000013411045));
#1270=CARTESIAN_POINT('Origin',(30.0000004470348,-3.,90.0000013411045));
#1271=CARTESIAN_POINT('',(27.0000004470348,0.,90.0000013411045));
#1272=CARTESIAN_POINT('',(27.0000004470348,-3.,90.0000013411045));
#1273=CARTESIAN_POINT('Origin',(30.0000004470348,0.,90.0000013411045));
#1274=CARTESIAN_POINT('Origin',(30.0000004470348,-3.,90.0000013411045));
#1275=CARTESIAN_POINT('',(27.0000004470348,58.,90.0000013411045));
#1276=CARTESIAN_POINT('Origin',(30.0000004470348,58.,90.0000013411045));
#1277=CARTESIAN_POINT('',(27.0000004470348,61.,90.0000013411045));
#1278=CARTESIAN_POINT('',(27.0000004470348,-3.,90.0000013411045));
#1279=CARTESIAN_POINT('Origin',(30.0000004470348,61.,90.0000013411045));
#1280=CARTESIAN_POINT('Origin',(-46.2426413129681,-3.,27.7573597897179));
#1281=CARTESIAN_POINT('',(-46.2426413129681,-3.,27.7573597897179));
#1282=CARTESIAN_POINT('',(-64.242641581189,-3.,45.7573600579388));
#1283=CARTESIAN_POINT('',(-27.7426410372966,-3.,9.25735951404639));
#1284=CARTESIAN_POINT('',(-46.2426413129681,0.,27.7573597897179));
#1285=CARTESIAN_POINT('',(-46.2426413129681,-3.,27.7573597897179));
#1286=CARTESIAN_POINT('',(-64.242641581189,0.,45.7573600579388));
#1287=CARTESIAN_POINT('',(-27.7426410372966,0.,9.25735951404639));
#1288=CARTESIAN_POINT('',(-64.242641581189,-3.,45.7573600579388));
#1289=CARTESIAN_POINT('Origin',(-42.0000006258488,-3.,32.0000004768372));
#1290=CARTESIAN_POINT('',(-37.7573599387295,-3.,36.2426411639564));
#1291=CARTESIAN_POINT('Origin',(-42.0000006258488,-3.,32.0000004768372));
#1292=CARTESIAN_POINT('',(-37.7573599387295,0.,36.2426411639564));
#1293=CARTESIAN_POINT('',(-37.7573599387295,-3.,36.2426411639564));
#1294=CARTESIAN_POINT('Origin',(-42.0000006258488,0.,32.0000004768372));
#1295=CARTESIAN_POINT('Origin',(-55.7573602069504,-3.,54.2426414321773));
#1296=CARTESIAN_POINT('',(-55.7573602069504,-3.,54.2426414321773));
#1297=CARTESIAN_POINT('',(-28.2573597971685,-3.,26.7426410223954));
#1298=CARTESIAN_POINT('',(-55.7573602069504,0.,54.2426414321773));
#1299=CARTESIAN_POINT('',(-55.7573602069504,-3.,54.2426414321773));
#1300=CARTESIAN_POINT('',(-28.2573597971685,0.,26.7426410223954));
#1301=CARTESIAN_POINT('Origin',(-60.0000008940697,-3.,50.0000007450581));
#1302=CARTESIAN_POINT('Origin',(-60.0000008940697,-3.,50.0000007450581));
#1303=CARTESIAN_POINT('Origin',(-60.0000008940697,0.,50.0000007450581));
#1304=CARTESIAN_POINT('Origin',(0.,58.,0.));
#1305=CARTESIAN_POINT('',(99.5,58.,-1.21852356515162E-14));
#1306=CARTESIAN_POINT('Origin',(0.,58.,0.));
#1307=CARTESIAN_POINT('',(-44.,58.,5.38844591624836E-15));
#1308=CARTESIAN_POINT('Origin',(0.,58.,0.));
#1309=CARTESIAN_POINT('Origin',(0.,58.,0.));
#1310=CARTESIAN_POINT('',(-41.,58.,5.02105187650415E-15));
#1311=CARTESIAN_POINT('Origin',(0.,58.,0.));
#1312=CARTESIAN_POINT('',(27.,58.,-3.30654635769785E-15));
#1313=CARTESIAN_POINT('Origin',(0.,58.,0.));
#1314=CARTESIAN_POINT('Origin',(0.,58.,0.));
#1315=CARTESIAN_POINT('',(27.,61.,-3.30654635769785E-15));
#1316=CARTESIAN_POINT('Origin',(0.,61.,0.));
#1317=CARTESIAN_POINT('',(27.,58.,-3.30654635769785E-15));
#1318=CARTESIAN_POINT('Origin',(0.,58.,0.));
#1319=CARTESIAN_POINT('',(99.5,61.,-1.21852356515162E-14));
#1320=CARTESIAN_POINT('Origin',(0.,61.,0.));
#1321=CARTESIAN_POINT('',(99.5,58.,-1.21852356515162E-14));
#1322=CARTESIAN_POINT('Origin',(0.,61.,0.));
#1323=CARTESIAN_POINT('Origin',(0.,0.,0.));
#1324=CARTESIAN_POINT('',(-41.,0.,5.02105187650415E-15));
#1325=CARTESIAN_POINT('',(-41.,0.,5.02105187650415E-15));
#1326=CARTESIAN_POINT('Origin',(0.,0.,0.));
#1327=CARTESIAN_POINT('Origin',(0.,0.,0.));
#1328=CARTESIAN_POINT('',(-44.,0.,5.38844591624836E-15));
#1329=CARTESIAN_POINT('',(-44.,0.,5.38844591624836E-15));
#1330=CARTESIAN_POINT('Origin',(0.,0.,0.));
#1331=CARTESIAN_POINT('Origin',(0.,0.,0.));
#1332=CARTESIAN_POINT('',(-99.5,0.,1.21852356515162E-14));
#1333=CARTESIAN_POINT('Origin',(0.,0.,0.));
#1334=CARTESIAN_POINT('Origin',(0.,0.,0.));
#1335=CARTESIAN_POINT('',(-27.,-3.,3.30654635769785E-15));
#1336=CARTESIAN_POINT('Origin',(0.,-3.,0.));
#1337=CARTESIAN_POINT('',(-27.,0.,3.30654635769785E-15));
#1338=CARTESIAN_POINT('',(-27.,0.,-3.30654635769785E-15));
#1339=CARTESIAN_POINT('Origin',(0.,0.,0.));
#1340=CARTESIAN_POINT('Origin',(0.,0.,0.));
#1341=CARTESIAN_POINT('',(-99.5,-3.,1.21852356515162E-14));
#1342=CARTESIAN_POINT('Origin',(0.,-3.,0.));
#1343=CARTESIAN_POINT('',(-99.5,0.,-1.21852356515162E-14));
#1344=CARTESIAN_POINT('Origin',(0.,0.,0.));
#1345=CARTESIAN_POINT('Origin',(0.,-3.,0.));
#1346=UNCERTAINTY_MEASURE_WITH_UNIT(LENGTH_MEASURE(0.01),#1350,
'DISTANCE_ACCURACY_VALUE',
'Maximum model space distance between geometric entities at asserted c
onnectivities');
#1347=UNCERTAINTY_MEASURE_WITH_UNIT(LENGTH_MEASURE(0.01),#1350,
'DISTANCE_ACCURACY_VALUE',
'Maximum model space distance between geometric entities at asserted c
onnectivities');
#1348=(
GEOMETRIC_REPRESENTATION_CONTEXT(3)
GLOBAL_UNCERTAINTY_ASSIGNED_CONTEXT((#1346))
GLOBAL_UNIT_ASSIGNED_CONTEXT((#1350,#1352,#1353))
REPRESENTATION_CONTEXT('','3D')
);
#1349=(
GEOMETRIC_REPRESENTATION_CONTEXT(3)
GLOBAL_UNCERTAINTY_ASSIGNED_CONTEXT((#1347))
GLOBAL_UNIT_ASSIGNED_CONTEXT((#1350,#1352,#1353))
REPRESENTATION_CONTEXT('','3D')
);
#1350=(
LENGTH_UNIT()
NAMED_UNIT(*)
SI_UNIT(.MILLI.,.METRE.)
);
#1351=(
LENGTH_UNIT()
NAMED_UNIT(*)
SI_UNIT($,.METRE.)
);
#1352=(
NAMED_UNIT(*)
PLANE_ANGLE_UNIT()
SI_UNIT($,.RADIAN.)
);
#1353=(
NAMED_UNIT(*)
SI_UNIT($,.STERADIAN.)
SOLID_ANGLE_UNIT()
);
#1354=SHAPE_DEFINITION_REPRESENTATION(#1355,#1356);
#1355=PRODUCT_DEFINITION_SHAPE('',$,#1358);
#1356=SHAPE_REPRESENTATION('',(#798),#1348);
#1357=PRODUCT_DEFINITION_CONTEXT('part definition',#1362,'design');
#1358=PRODUCT_DEFINITION('cardboard','cardboard v1',#1359,#1357);
#1359=PRODUCT_DEFINITION_FORMATION('',$,#1364);
#1360=PRODUCT_RELATED_PRODUCT_CATEGORY('cardboard v1','cardboard v1',(#1364));
#1361=APPLICATION_PROTOCOL_DEFINITION('international standard',
'automotive_design',2009,#1362);
#1362=APPLICATION_CONTEXT(
'Core Data for Automotive Mechanical Design Process');
#1363=PRODUCT_CONTEXT('part definition',#1362,'mechanical');
#1364=PRODUCT('cardboard','cardboard v1',$,(#1363));
#1365=PRESENTATION_STYLE_ASSIGNMENT((#1367));
#1366=PRESENTATION_STYLE_ASSIGNMENT((#1368));
#1367=SURFACE_STYLE_USAGE(.BOTH.,#1369);
#1368=SURFACE_STYLE_USAGE(.BOTH.,#1370);
#1369=SURFACE_SIDE_STYLE('',(#1371));
#1370=SURFACE_SIDE_STYLE('',(#1372));
#1371=SURFACE_STYLE_FILL_AREA(#1373);
#1372=SURFACE_STYLE_FILL_AREA(#1374);
#1373=FILL_AREA_STYLE('Stahl - satiniert',(#1375));
#1374=FILL_AREA_STYLE('MDF Board',(#1376));
#1375=FILL_AREA_STYLE_COLOUR('Stahl - satiniert',#1377);
#1376=FILL_AREA_STYLE_COLOUR('MDF Board',#1378);
#1377=COLOUR_RGB('Stahl - satiniert',0.627450980392157,0.627450980392157,
0.627450980392157);
#1378=COLOUR_RGB('MDF Board',0.,0.,0.);
ENDSEC;
END-ISO-10303-21;
