ISO-10303-21;
HEADER;
/* Generated by software containing ST-Developer
 * from STEP Tools, Inc. (www.steptools.com) 
 */

FILE_DESCRIPTION(
/* description */ (''),
/* implementation_level */ '2;1');

FILE_NAME(
/* name */ 'CarriagePivotMount.stp',
/* time_stamp */ '2026-04-28T22:10:19-04:00',
/* author */ ('gaoet'),
/* organization */ (''),
/* preprocessor_version */ 'ST-DEVELOPER v20.1',
/* originating_system */ 'Autodesk Inventor 2026',
/* authorisation */ '');

FILE_SCHEMA (('AUTOMOTIVE_DESIGN { 1 0 10303 214 3 1 1 }'));
ENDSEC;

DATA;
#10=MECHANICAL_DESIGN_GEOMETRIC_PRESENTATION_REPRESENTATION('',(#13),#1309);
#11=SHAPE_REPRESENTATION_RELATIONSHIP('SRR','None',#1320,#12);
#12=ADVANCED_BREP_SHAPE_REPRESENTATION('',(#14),#1308);
#13=STYLED_ITEM('',(#1329),#14);
#14=MANIFOLD_SOLID_BREP('Solid1',#775);
#15=FACE_BOUND('',#117,.T.);
#16=FACE_BOUND('',#121,.T.);
#17=FACE_BOUND('',#123,.T.);
#18=FACE_BOUND('',#127,.T.);
#19=FACE_BOUND('',#128,.T.);
#20=FACE_BOUND('',#129,.T.);
#21=FACE_BOUND('',#130,.T.);
#22=FACE_BOUND('',#133,.T.);
#23=FACE_BOUND('',#137,.T.);
#24=FACE_BOUND('',#145,.T.);
#25=FACE_BOUND('',#146,.T.);
#26=FACE_BOUND('',#147,.T.);
#27=FACE_BOUND('',#148,.T.);
#28=PLANE('',#806);
#29=PLANE('',#811);
#30=PLANE('',#812);
#31=PLANE('',#813);
#32=PLANE('',#816);
#33=PLANE('',#817);
#34=PLANE('',#819);
#35=PLANE('',#820);
#36=PLANE('',#821);
#37=PLANE('',#822);
#38=PLANE('',#823);
#39=PLANE('',#826);
#40=PLANE('',#828);
#41=PLANE('',#829);
#42=PLANE('',#833);
#43=PLANE('',#840);
#44=PLANE('',#841);
#45=PLANE('',#842);
#46=PLANE('',#843);
#47=PLANE('',#844);
#48=PLANE('',#852);
#49=PLANE('',#853);
#50=PLANE('',#856);
#51=PLANE('',#865);
#52=PLANE('',#866);
#53=PLANE('',#867);
#54=FACE_OUTER_BOUND('',#95,.T.);
#55=FACE_OUTER_BOUND('',#96,.T.);
#56=FACE_OUTER_BOUND('',#97,.T.);
#57=FACE_OUTER_BOUND('',#98,.T.);
#58=FACE_OUTER_BOUND('',#99,.T.);
#59=FACE_OUTER_BOUND('',#100,.T.);
#60=FACE_OUTER_BOUND('',#101,.T.);
#61=FACE_OUTER_BOUND('',#102,.T.);
#62=FACE_OUTER_BOUND('',#103,.T.);
#63=FACE_OUTER_BOUND('',#104,.T.);
#64=FACE_OUTER_BOUND('',#105,.T.);
#65=FACE_OUTER_BOUND('',#106,.T.);
#66=FACE_OUTER_BOUND('',#107,.T.);
#67=FACE_OUTER_BOUND('',#108,.T.);
#68=FACE_OUTER_BOUND('',#109,.T.);
#69=FACE_OUTER_BOUND('',#110,.T.);
#70=FACE_OUTER_BOUND('',#111,.T.);
#71=FACE_OUTER_BOUND('',#112,.T.);
#72=FACE_OUTER_BOUND('',#113,.T.);
#73=FACE_OUTER_BOUND('',#114,.T.);
#74=FACE_OUTER_BOUND('',#115,.T.);
#75=FACE_OUTER_BOUND('',#116,.T.);
#76=FACE_OUTER_BOUND('',#118,.T.);
#77=FACE_OUTER_BOUND('',#119,.T.);
#78=FACE_OUTER_BOUND('',#120,.T.);
#79=FACE_OUTER_BOUND('',#122,.T.);
#80=FACE_OUTER_BOUND('',#124,.T.);
#81=FACE_OUTER_BOUND('',#125,.T.);
#82=FACE_OUTER_BOUND('',#126,.T.);
#83=FACE_OUTER_BOUND('',#131,.T.);
#84=FACE_OUTER_BOUND('',#132,.T.);
#85=FACE_OUTER_BOUND('',#134,.T.);
#86=FACE_OUTER_BOUND('',#135,.T.);
#87=FACE_OUTER_BOUND('',#136,.T.);
#88=FACE_OUTER_BOUND('',#138,.T.);
#89=FACE_OUTER_BOUND('',#139,.T.);
#90=FACE_OUTER_BOUND('',#140,.T.);
#91=FACE_OUTER_BOUND('',#141,.T.);
#92=FACE_OUTER_BOUND('',#142,.T.);
#93=FACE_OUTER_BOUND('',#143,.T.);
#94=FACE_OUTER_BOUND('',#144,.T.);
#95=EDGE_LOOP('',(#507,#508,#509,#510));
#96=EDGE_LOOP('',(#511,#512,#513,#514));
#97=EDGE_LOOP('',(#515,#516,#517,#518));
#98=EDGE_LOOP('',(#519,#520,#521,#522,#523,#524,#525,#526));
#99=EDGE_LOOP('',(#527,#528,#529,#530));
#100=EDGE_LOOP('',(#531,#532,#533,#534,#535,#536,#537,#538,#539));
#101=EDGE_LOOP('',(#540,#541,#542,#543,#544,#545));
#102=EDGE_LOOP('',(#546,#547,#548,#549));
#103=EDGE_LOOP('',(#550,#551,#552,#553));
#104=EDGE_LOOP('',(#554,#555,#556,#557,#558,#559));
#105=EDGE_LOOP('',(#560,#561,#562,#563,#564,#565,#566,#567,#568,#569,#570));
#106=EDGE_LOOP('',(#571,#572,#573,#574));
#107=EDGE_LOOP('',(#575,#576,#577,#578));
#108=EDGE_LOOP('',(#579,#580,#581,#582));
#109=EDGE_LOOP('',(#583,#584,#585,#586));
#110=EDGE_LOOP('',(#587,#588,#589,#590));
#111=EDGE_LOOP('',(#591,#592,#593,#594));
#112=EDGE_LOOP('',(#595,#596,#597,#598,#599,#600));
#113=EDGE_LOOP('',(#601,#602,#603,#604));
#114=EDGE_LOOP('',(#605,#606,#607,#608));
#115=EDGE_LOOP('',(#609,#610,#611,#612));
#116=EDGE_LOOP('',(#613,#614,#615,#616,#617,#618));
#117=EDGE_LOOP('',(#619));
#118=EDGE_LOOP('',(#620,#621,#622,#623));
#119=EDGE_LOOP('',(#624,#625,#626,#627));
#120=EDGE_LOOP('',(#628));
#121=EDGE_LOOP('',(#629));
#122=EDGE_LOOP('',(#630,#631));
#123=EDGE_LOOP('',(#632));
#124=EDGE_LOOP('',(#633,#634,#635,#636,#637,#638,#639,#640,#641,#642));
#125=EDGE_LOOP('',(#643,#644,#645,#646,#647,#648));
#126=EDGE_LOOP('',(#649,#650,#651,#652,#653,#654,#655,#656));
#127=EDGE_LOOP('',(#657));
#128=EDGE_LOOP('',(#658));
#129=EDGE_LOOP('',(#659));
#130=EDGE_LOOP('',(#660));
#131=EDGE_LOOP('',(#661,#662,#663,#664));
#132=EDGE_LOOP('',(#665));
#133=EDGE_LOOP('',(#666,#667));
#134=EDGE_LOOP('',(#668,#669,#670,#671));
#135=EDGE_LOOP('',(#672,#673,#674,#675));
#136=EDGE_LOOP('',(#676,#677,#678,#679,#680,#681,#682,#683));
#137=EDGE_LOOP('',(#684));
#138=EDGE_LOOP('',(#685,#686,#687,#688));
#139=EDGE_LOOP('',(#689,#690,#691,#692));
#140=EDGE_LOOP('',(#693,#694,#695,#696));
#141=EDGE_LOOP('',(#697,#698,#699,#700));
#142=EDGE_LOOP('',(#701,#702,#703,#704,#705,#706));
#143=EDGE_LOOP('',(#707,#708,#709,#710));
#144=EDGE_LOOP('',(#711,#712,#713,#714));
#145=EDGE_LOOP('',(#715));
#146=EDGE_LOOP('',(#716));
#147=EDGE_LOOP('',(#717));
#148=EDGE_LOOP('',(#718));
#149=LINE('',#1094,#225);
#150=LINE('',#1097,#226);
#151=LINE('',#1102,#227);
#152=LINE('',#1109,#228);
#153=LINE('',#1112,#229);
#154=LINE('',#1114,#230);
#155=LINE('',#1118,#231);
#156=LINE('',#1121,#232);
#157=LINE('',#1125,#233);
#158=LINE('',#1128,#234);
#159=LINE('',#1130,#235);
#160=LINE('',#1132,#236);
#161=LINE('',#1133,#237);
#162=LINE('',#1134,#238);
#163=LINE('',#1137,#239);
#164=LINE('',#1139,#240);
#165=LINE('',#1140,#241);
#166=LINE('',#1144,#242);
#167=LINE('',#1148,#243);
#168=LINE('',#1149,#244);
#169=LINE('',#1153,#245);
#170=LINE('',#1155,#246);
#171=LINE('',#1157,#247);
#172=LINE('',#1159,#248);
#173=LINE('',#1161,#249);
#174=LINE('',#1163,#250);
#175=LINE('',#1165,#251);
#176=LINE('',#1167,#252);
#177=LINE('',#1169,#253);
#178=LINE('',#1172,#254);
#179=LINE('',#1175,#255);
#180=LINE('',#1177,#256);
#181=LINE('',#1178,#257);
#182=LINE('',#1181,#258);
#183=LINE('',#1182,#259);
#184=LINE('',#1185,#260);
#185=LINE('',#1186,#261);
#186=LINE('',#1189,#262);
#187=LINE('',#1190,#263);
#188=LINE('',#1193,#264);
#189=LINE('',#1194,#265);
#190=LINE('',#1199,#266);
#191=LINE('',#1200,#267);
#192=LINE('',#1203,#268);
#193=LINE('',#1205,#269);
#194=LINE('',#1207,#270);
#195=LINE('',#1210,#271);
#196=LINE('',#1212,#272);
#197=LINE('',#1216,#273);
#198=LINE('',#1218,#274);
#199=LINE('',#1220,#275);
#200=LINE('',#1221,#276);
#201=LINE('',#1226,#277);
#202=LINE('',#1232,#278);
#203=LINE('',#1237,#279);
#204=LINE('',#1243,#280);
#205=LINE('',#1245,#281);
#206=LINE('',#1246,#282);
#207=LINE('',#1248,#283);
#208=LINE('',#1249,#284);
#209=LINE('',#1252,#285);
#210=LINE('',#1254,#286);
#211=LINE('',#1255,#287);
#212=LINE('',#1258,#288);
#213=LINE('',#1259,#289);
#214=LINE('',#1272,#290);
#215=LINE('',#1277,#291);
#216=LINE('',#1278,#292);
#217=LINE('',#1282,#293);
#218=LINE('',#1286,#294);
#219=LINE('',#1290,#295);
#220=LINE('',#1294,#296);
#221=LINE('',#1298,#297);
#222=LINE('',#1301,#298);
#223=LINE('',#1302,#299);
#224=LINE('',#1304,#300);
#225=VECTOR('',#874,0.078740157480315);
#226=VECTOR('',#877,0.078740157480315);
#227=VECTOR('',#882,0.393700787401575);
#228=VECTOR('',#889,0.393700787401575);
#229=VECTOR('',#892,0.393700787401575);
#230=VECTOR('',#895,0.393700787401575);
#231=VECTOR('',#898,0.393700787401575);
#232=VECTOR('',#901,0.393700787401575);
#233=VECTOR('',#906,0.078740157480315);
#234=VECTOR('',#909,0.393700787401575);
#235=VECTOR('',#910,0.393700787401575);
#236=VECTOR('',#911,0.393700787401575);
#237=VECTOR('',#912,0.393700787401575);
#238=VECTOR('',#913,0.393700787401575);
#239=VECTOR('',#916,0.393700787401575);
#240=VECTOR('',#917,0.393700787401575);
#241=VECTOR('',#918,0.393700787401575);
#242=VECTOR('',#923,0.393700787401575);
#243=VECTOR('',#928,0.393700787401575);
#244=VECTOR('',#929,0.393700787401575);
#245=VECTOR('',#932,0.393700787401575);
#246=VECTOR('',#933,0.393700787401575);
#247=VECTOR('',#934,0.393700787401575);
#248=VECTOR('',#935,0.393700787401575);
#249=VECTOR('',#936,0.393700787401575);
#250=VECTOR('',#937,0.393700787401575);
#251=VECTOR('',#938,0.393700787401575);
#252=VECTOR('',#939,0.393700787401575);
#253=VECTOR('',#940,0.393700787401575);
#254=VECTOR('',#943,0.393700787401575);
#255=VECTOR('',#946,0.393700787401575);
#256=VECTOR('',#947,0.393700787401575);
#257=VECTOR('',#948,0.393700787401575);
#258=VECTOR('',#951,0.393700787401575);
#259=VECTOR('',#952,0.393700787401575);
#260=VECTOR('',#955,0.393700787401575);
#261=VECTOR('',#956,0.393700787401575);
#262=VECTOR('',#959,0.393700787401575);
#263=VECTOR('',#960,0.393700787401575);
#264=VECTOR('',#963,0.393700787401575);
#265=VECTOR('',#964,0.393700787401575);
#266=VECTOR('',#969,0.393700787401575);
#267=VECTOR('',#970,0.393700787401575);
#268=VECTOR('',#973,0.393700787401575);
#269=VECTOR('',#974,0.393700787401575);
#270=VECTOR('',#975,0.393700787401575);
#271=VECTOR('',#978,0.393700787401575);
#272=VECTOR('',#981,0.393700787401575);
#273=VECTOR('',#984,0.393700787401575);
#274=VECTOR('',#985,0.393700787401575);
#275=VECTOR('',#986,0.393700787401575);
#276=VECTOR('',#987,0.393700787401575);
#277=VECTOR('',#996,0.393700787401575);
#278=VECTOR('',#1003,0.078740157480315);
#279=VECTOR('',#1008,0.15748031496063);
#280=VECTOR('',#1017,0.393700787401575);
#281=VECTOR('',#1018,0.393700787401575);
#282=VECTOR('',#1019,0.393700787401575);
#283=VECTOR('',#1020,0.393700787401575);
#284=VECTOR('',#1021,0.393700787401575);
#285=VECTOR('',#1024,0.393700787401575);
#286=VECTOR('',#1025,0.393700787401575);
#287=VECTOR('',#1026,0.393700787401575);
#288=VECTOR('',#1029,0.393700787401575);
#289=VECTOR('',#1030,0.393700787401575);
#290=VECTOR('',#1043,0.46875);
#291=VECTOR('',#1050,0.393700787401575);
#292=VECTOR('',#1051,0.393700787401575);
#293=VECTOR('',#1058,0.393700787401575);
#294=VECTOR('',#1063,0.0590551181102362);
#295=VECTOR('',#1068,0.0590551181102362);
#296=VECTOR('',#1073,0.0590551181102362);
#297=VECTOR('',#1078,0.0590551181102362);
#298=VECTOR('',#1081,0.393700787401575);
#299=VECTOR('',#1082,0.393700787401575);
#300=VECTOR('',#1085,0.393700787401575);
#301=CIRCLE('',#798,0.078740157480315);
#302=CIRCLE('',#799,0.078740157480315);
#303=CIRCLE('',#801,0.078740157480315);
#304=CIRCLE('',#802,0.078740157480315);
#305=CIRCLE('',#804,0.078740157480315);
#306=CIRCLE('',#805,0.078740157480315);
#307=CIRCLE('',#807,0.078740157480315);
#308=CIRCLE('',#808,0.492125984251968);
#309=CIRCLE('',#810,0.078740157480315);
#310=CIRCLE('',#815,0.492125984251968);
#311=CIRCLE('',#818,0.0393700787401575);
#312=CIRCLE('',#825,0.0393700787401575);
#313=CIRCLE('',#827,0.492125984251968);
#314=CIRCLE('',#831,0.240157480314961);
#315=CIRCLE('',#832,0.240157480314961);
#316=CIRCLE('',#834,0.078740157480315);
#317=CIRCLE('',#836,0.078740157480315);
#318=CIRCLE('',#838,0.15748031496063);
#319=CIRCLE('',#839,0.15748031496063);
#320=CIRCLE('',#845,0.0590551181102362);
#321=CIRCLE('',#846,0.0590551181102362);
#322=CIRCLE('',#847,0.0590551181102362);
#323=CIRCLE('',#848,0.0590551181102362);
#324=CIRCLE('',#850,0.46875);
#325=CIRCLE('',#851,0.46875);
#326=CIRCLE('',#855,0.492125984251968);
#327=CIRCLE('',#858,0.0590551181102362);
#328=CIRCLE('',#860,0.0590551181102362);
#329=CIRCLE('',#862,0.0590551181102362);
#330=CIRCLE('',#864,0.0590551181102362);
#331=VERTEX_POINT('',#1090);
#332=VERTEX_POINT('',#1091);
#333=VERTEX_POINT('',#1093);
#334=VERTEX_POINT('',#1095);
#335=VERTEX_POINT('',#1099);
#336=VERTEX_POINT('',#1101);
#337=VERTEX_POINT('',#1105);
#338=VERTEX_POINT('',#1106);
#339=VERTEX_POINT('',#1108);
#340=VERTEX_POINT('',#1110);
#341=VERTEX_POINT('',#1115);
#342=VERTEX_POINT('',#1117);
#343=VERTEX_POINT('',#1119);
#344=VERTEX_POINT('',#1123);
#345=VERTEX_POINT('',#1127);
#346=VERTEX_POINT('',#1129);
#347=VERTEX_POINT('',#1131);
#348=VERTEX_POINT('',#1136);
#349=VERTEX_POINT('',#1138);
#350=VERTEX_POINT('',#1143);
#351=VERTEX_POINT('',#1147);
#352=VERTEX_POINT('',#1151);
#353=VERTEX_POINT('',#1152);
#354=VERTEX_POINT('',#1154);
#355=VERTEX_POINT('',#1156);
#356=VERTEX_POINT('',#1158);
#357=VERTEX_POINT('',#1160);
#358=VERTEX_POINT('',#1162);
#359=VERTEX_POINT('',#1164);
#360=VERTEX_POINT('',#1166);
#361=VERTEX_POINT('',#1168);
#362=VERTEX_POINT('',#1170);
#363=VERTEX_POINT('',#1174);
#364=VERTEX_POINT('',#1176);
#365=VERTEX_POINT('',#1180);
#366=VERTEX_POINT('',#1184);
#367=VERTEX_POINT('',#1188);
#368=VERTEX_POINT('',#1192);
#369=VERTEX_POINT('',#1196);
#370=VERTEX_POINT('',#1197);
#371=VERTEX_POINT('',#1202);
#372=VERTEX_POINT('',#1204);
#373=VERTEX_POINT('',#1206);
#374=VERTEX_POINT('',#1208);
#375=VERTEX_POINT('',#1214);
#376=VERTEX_POINT('',#1215);
#377=VERTEX_POINT('',#1217);
#378=VERTEX_POINT('',#1219);
#379=VERTEX_POINT('',#1227);
#380=VERTEX_POINT('',#1230);
#381=VERTEX_POINT('',#1234);
#382=VERTEX_POINT('',#1236);
#383=VERTEX_POINT('',#1242);
#384=VERTEX_POINT('',#1244);
#385=VERTEX_POINT('',#1247);
#386=VERTEX_POINT('',#1251);
#387=VERTEX_POINT('',#1253);
#388=VERTEX_POINT('',#1257);
#389=VERTEX_POINT('',#1260);
#390=VERTEX_POINT('',#1262);
#391=VERTEX_POINT('',#1264);
#392=VERTEX_POINT('',#1266);
#393=VERTEX_POINT('',#1269);
#394=VERTEX_POINT('',#1271);
#395=VERTEX_POINT('',#1276);
#396=VERTEX_POINT('',#1284);
#397=VERTEX_POINT('',#1288);
#398=VERTEX_POINT('',#1292);
#399=VERTEX_POINT('',#1296);
#400=VERTEX_POINT('',#1300);
#401=EDGE_CURVE('',#331,#332,#301,.T.);
#402=EDGE_CURVE('',#331,#333,#149,.T.);
#403=EDGE_CURVE('',#334,#333,#302,.F.);
#404=EDGE_CURVE('',#334,#332,#150,.T.);
#405=EDGE_CURVE('',#331,#335,#303,.F.);
#406=EDGE_CURVE('',#335,#336,#151,.T.);
#407=EDGE_CURVE('',#336,#333,#304,.T.);
#408=EDGE_CURVE('',#337,#338,#305,.T.);
#409=EDGE_CURVE('',#337,#339,#152,.T.);
#410=EDGE_CURVE('',#339,#340,#306,.T.);
#411=EDGE_CURVE('',#340,#338,#153,.T.);
#412=EDGE_CURVE('',#332,#337,#154,.T.);
#413=EDGE_CURVE('',#341,#338,#307,.F.);
#414=EDGE_CURVE('',#342,#341,#155,.T.);
#415=EDGE_CURVE('',#343,#342,#308,.T.);
#416=EDGE_CURVE('',#335,#343,#156,.T.);
#417=EDGE_CURVE('',#340,#344,#309,.T.);
#418=EDGE_CURVE('',#344,#341,#157,.T.);
#419=EDGE_CURVE('',#336,#345,#158,.T.);
#420=EDGE_CURVE('',#345,#346,#159,.T.);
#421=EDGE_CURVE('',#347,#346,#160,.T.);
#422=EDGE_CURVE('',#347,#344,#161,.T.);
#423=EDGE_CURVE('',#339,#334,#162,.T.);
#424=EDGE_CURVE('',#348,#343,#163,.T.);
#425=EDGE_CURVE('',#349,#348,#164,.T.);
#426=EDGE_CURVE('',#345,#349,#165,.T.);
#427=EDGE_CURVE('',#342,#350,#166,.T.);
#428=EDGE_CURVE('',#348,#350,#310,.T.);
#429=EDGE_CURVE('',#347,#351,#167,.T.);
#430=EDGE_CURVE('',#350,#351,#168,.T.);
#431=EDGE_CURVE('',#352,#353,#169,.T.);
#432=EDGE_CURVE('',#354,#352,#170,.T.);
#433=EDGE_CURVE('',#355,#354,#171,.T.);
#434=EDGE_CURVE('',#356,#355,#172,.T.);
#435=EDGE_CURVE('',#357,#356,#173,.T.);
#436=EDGE_CURVE('',#358,#357,#174,.T.);
#437=EDGE_CURVE('',#359,#358,#175,.T.);
#438=EDGE_CURVE('',#360,#359,#176,.T.);
#439=EDGE_CURVE('',#361,#360,#177,.T.);
#440=EDGE_CURVE('',#362,#361,#311,.T.);
#441=EDGE_CURVE('',#353,#362,#178,.T.);
#442=EDGE_CURVE('',#357,#363,#179,.T.);
#443=EDGE_CURVE('',#363,#364,#180,.T.);
#444=EDGE_CURVE('',#358,#364,#181,.T.);
#445=EDGE_CURVE('',#356,#365,#182,.T.);
#446=EDGE_CURVE('',#365,#363,#183,.T.);
#447=EDGE_CURVE('',#355,#366,#184,.T.);
#448=EDGE_CURVE('',#366,#365,#185,.T.);
#449=EDGE_CURVE('',#354,#367,#186,.T.);
#450=EDGE_CURVE('',#367,#366,#187,.T.);
#451=EDGE_CURVE('',#352,#368,#188,.T.);
#452=EDGE_CURVE('',#368,#367,#189,.T.);
#453=EDGE_CURVE('',#369,#370,#312,.T.);
#454=EDGE_CURVE('',#362,#370,#190,.T.);
#455=EDGE_CURVE('',#361,#369,#191,.T.);
#456=EDGE_CURVE('',#369,#371,#192,.T.);
#457=EDGE_CURVE('',#371,#372,#193,.T.);
#458=EDGE_CURVE('',#372,#373,#194,.T.);
#459=EDGE_CURVE('',#373,#374,#313,.T.);
#460=EDGE_CURVE('',#374,#370,#195,.T.);
#461=EDGE_CURVE('',#371,#360,#196,.T.);
#462=EDGE_CURVE('',#375,#376,#197,.T.);
#463=EDGE_CURVE('',#377,#376,#198,.T.);
#464=EDGE_CURVE('',#378,#377,#199,.T.);
#465=EDGE_CURVE('',#375,#378,#200,.T.);
#466=EDGE_CURVE('',#375,#376,#314,.T.);
#467=EDGE_CURVE('',#377,#378,#315,.T.);
#468=EDGE_CURVE('',#364,#368,#201,.T.);
#469=EDGE_CURVE('',#379,#379,#316,.T.);
#470=EDGE_CURVE('',#380,#380,#317,.T.);
#471=EDGE_CURVE('',#380,#379,#202,.T.);
#472=EDGE_CURVE('',#381,#381,#318,.T.);
#473=EDGE_CURVE('',#381,#382,#203,.T.);
#474=EDGE_CURVE('',#382,#382,#319,.T.);
#475=EDGE_CURVE('',#359,#383,#204,.T.);
#476=EDGE_CURVE('',#383,#384,#205,.T.);
#477=EDGE_CURVE('',#346,#384,#206,.T.);
#478=EDGE_CURVE('',#385,#349,#207,.T.);
#479=EDGE_CURVE('',#372,#385,#208,.T.);
#480=EDGE_CURVE('',#374,#386,#209,.T.);
#481=EDGE_CURVE('',#387,#386,#210,.T.);
#482=EDGE_CURVE('',#353,#387,#211,.T.);
#483=EDGE_CURVE('',#388,#353,#212,.T.);
#484=EDGE_CURVE('',#383,#388,#213,.T.);
#485=EDGE_CURVE('',#389,#389,#320,.T.);
#486=EDGE_CURVE('',#390,#390,#321,.T.);
#487=EDGE_CURVE('',#391,#391,#322,.T.);
#488=EDGE_CURVE('',#392,#392,#323,.T.);
#489=EDGE_CURVE('',#393,#393,#324,.T.);
#490=EDGE_CURVE('',#393,#394,#214,.T.);
#491=EDGE_CURVE('',#394,#394,#325,.T.);
#492=EDGE_CURVE('',#395,#385,#215,.T.);
#493=EDGE_CURVE('',#373,#395,#216,.T.);
#494=EDGE_CURVE('',#386,#395,#326,.T.);
#495=EDGE_CURVE('',#351,#387,#217,.T.);
#496=EDGE_CURVE('',#396,#396,#327,.T.);
#497=EDGE_CURVE('',#396,#392,#218,.T.);
#498=EDGE_CURVE('',#397,#397,#328,.T.);
#499=EDGE_CURVE('',#397,#391,#219,.T.);
#500=EDGE_CURVE('',#398,#398,#329,.T.);
#501=EDGE_CURVE('',#398,#390,#220,.T.);
#502=EDGE_CURVE('',#399,#399,#330,.T.);
#503=EDGE_CURVE('',#399,#389,#221,.T.);
#504=EDGE_CURVE('',#400,#347,#222,.T.);
#505=EDGE_CURVE('',#388,#400,#223,.T.);
#506=EDGE_CURVE('',#384,#400,#224,.T.);
#507=ORIENTED_EDGE('',*,*,#401,.F.);
#508=ORIENTED_EDGE('',*,*,#402,.T.);
#509=ORIENTED_EDGE('',*,*,#403,.F.);
#510=ORIENTED_EDGE('',*,*,#404,.T.);
#511=ORIENTED_EDGE('',*,*,#402,.F.);
#512=ORIENTED_EDGE('',*,*,#405,.T.);
#513=ORIENTED_EDGE('',*,*,#406,.T.);
#514=ORIENTED_EDGE('',*,*,#407,.T.);
#515=ORIENTED_EDGE('',*,*,#408,.F.);
#516=ORIENTED_EDGE('',*,*,#409,.T.);
#517=ORIENTED_EDGE('',*,*,#410,.T.);
#518=ORIENTED_EDGE('',*,*,#411,.T.);
#519=ORIENTED_EDGE('',*,*,#401,.T.);
#520=ORIENTED_EDGE('',*,*,#412,.T.);
#521=ORIENTED_EDGE('',*,*,#408,.T.);
#522=ORIENTED_EDGE('',*,*,#413,.F.);
#523=ORIENTED_EDGE('',*,*,#414,.F.);
#524=ORIENTED_EDGE('',*,*,#415,.F.);
#525=ORIENTED_EDGE('',*,*,#416,.F.);
#526=ORIENTED_EDGE('',*,*,#405,.F.);
#527=ORIENTED_EDGE('',*,*,#411,.F.);
#528=ORIENTED_EDGE('',*,*,#417,.T.);
#529=ORIENTED_EDGE('',*,*,#418,.T.);
#530=ORIENTED_EDGE('',*,*,#413,.T.);
#531=ORIENTED_EDGE('',*,*,#403,.T.);
#532=ORIENTED_EDGE('',*,*,#407,.F.);
#533=ORIENTED_EDGE('',*,*,#419,.T.);
#534=ORIENTED_EDGE('',*,*,#420,.T.);
#535=ORIENTED_EDGE('',*,*,#421,.F.);
#536=ORIENTED_EDGE('',*,*,#422,.T.);
#537=ORIENTED_EDGE('',*,*,#417,.F.);
#538=ORIENTED_EDGE('',*,*,#410,.F.);
#539=ORIENTED_EDGE('',*,*,#423,.T.);
#540=ORIENTED_EDGE('',*,*,#406,.F.);
#541=ORIENTED_EDGE('',*,*,#416,.T.);
#542=ORIENTED_EDGE('',*,*,#424,.F.);
#543=ORIENTED_EDGE('',*,*,#425,.F.);
#544=ORIENTED_EDGE('',*,*,#426,.F.);
#545=ORIENTED_EDGE('',*,*,#419,.F.);
#546=ORIENTED_EDGE('',*,*,#404,.F.);
#547=ORIENTED_EDGE('',*,*,#423,.F.);
#548=ORIENTED_EDGE('',*,*,#409,.F.);
#549=ORIENTED_EDGE('',*,*,#412,.F.);
#550=ORIENTED_EDGE('',*,*,#415,.T.);
#551=ORIENTED_EDGE('',*,*,#427,.T.);
#552=ORIENTED_EDGE('',*,*,#428,.F.);
#553=ORIENTED_EDGE('',*,*,#424,.T.);
#554=ORIENTED_EDGE('',*,*,#418,.F.);
#555=ORIENTED_EDGE('',*,*,#422,.F.);
#556=ORIENTED_EDGE('',*,*,#429,.T.);
#557=ORIENTED_EDGE('',*,*,#430,.F.);
#558=ORIENTED_EDGE('',*,*,#427,.F.);
#559=ORIENTED_EDGE('',*,*,#414,.T.);
#560=ORIENTED_EDGE('',*,*,#431,.F.);
#561=ORIENTED_EDGE('',*,*,#432,.F.);
#562=ORIENTED_EDGE('',*,*,#433,.F.);
#563=ORIENTED_EDGE('',*,*,#434,.F.);
#564=ORIENTED_EDGE('',*,*,#435,.F.);
#565=ORIENTED_EDGE('',*,*,#436,.F.);
#566=ORIENTED_EDGE('',*,*,#437,.F.);
#567=ORIENTED_EDGE('',*,*,#438,.F.);
#568=ORIENTED_EDGE('',*,*,#439,.F.);
#569=ORIENTED_EDGE('',*,*,#440,.F.);
#570=ORIENTED_EDGE('',*,*,#441,.F.);
#571=ORIENTED_EDGE('',*,*,#436,.T.);
#572=ORIENTED_EDGE('',*,*,#442,.T.);
#573=ORIENTED_EDGE('',*,*,#443,.T.);
#574=ORIENTED_EDGE('',*,*,#444,.F.);
#575=ORIENTED_EDGE('',*,*,#435,.T.);
#576=ORIENTED_EDGE('',*,*,#445,.T.);
#577=ORIENTED_EDGE('',*,*,#446,.T.);
#578=ORIENTED_EDGE('',*,*,#442,.F.);
#579=ORIENTED_EDGE('',*,*,#434,.T.);
#580=ORIENTED_EDGE('',*,*,#447,.T.);
#581=ORIENTED_EDGE('',*,*,#448,.T.);
#582=ORIENTED_EDGE('',*,*,#445,.F.);
#583=ORIENTED_EDGE('',*,*,#433,.T.);
#584=ORIENTED_EDGE('',*,*,#449,.T.);
#585=ORIENTED_EDGE('',*,*,#450,.T.);
#586=ORIENTED_EDGE('',*,*,#447,.F.);
#587=ORIENTED_EDGE('',*,*,#432,.T.);
#588=ORIENTED_EDGE('',*,*,#451,.T.);
#589=ORIENTED_EDGE('',*,*,#452,.T.);
#590=ORIENTED_EDGE('',*,*,#449,.F.);
#591=ORIENTED_EDGE('',*,*,#453,.T.);
#592=ORIENTED_EDGE('',*,*,#454,.F.);
#593=ORIENTED_EDGE('',*,*,#440,.T.);
#594=ORIENTED_EDGE('',*,*,#455,.T.);
#595=ORIENTED_EDGE('',*,*,#453,.F.);
#596=ORIENTED_EDGE('',*,*,#456,.T.);
#597=ORIENTED_EDGE('',*,*,#457,.T.);
#598=ORIENTED_EDGE('',*,*,#458,.T.);
#599=ORIENTED_EDGE('',*,*,#459,.T.);
#600=ORIENTED_EDGE('',*,*,#460,.T.);
#601=ORIENTED_EDGE('',*,*,#455,.F.);
#602=ORIENTED_EDGE('',*,*,#439,.T.);
#603=ORIENTED_EDGE('',*,*,#461,.F.);
#604=ORIENTED_EDGE('',*,*,#456,.F.);
#605=ORIENTED_EDGE('',*,*,#462,.T.);
#606=ORIENTED_EDGE('',*,*,#463,.F.);
#607=ORIENTED_EDGE('',*,*,#464,.F.);
#608=ORIENTED_EDGE('',*,*,#465,.F.);
#609=ORIENTED_EDGE('',*,*,#463,.T.);
#610=ORIENTED_EDGE('',*,*,#466,.F.);
#611=ORIENTED_EDGE('',*,*,#465,.T.);
#612=ORIENTED_EDGE('',*,*,#467,.F.);
#613=ORIENTED_EDGE('',*,*,#448,.F.);
#614=ORIENTED_EDGE('',*,*,#450,.F.);
#615=ORIENTED_EDGE('',*,*,#452,.F.);
#616=ORIENTED_EDGE('',*,*,#468,.F.);
#617=ORIENTED_EDGE('',*,*,#443,.F.);
#618=ORIENTED_EDGE('',*,*,#446,.F.);
#619=ORIENTED_EDGE('',*,*,#469,.F.);
#620=ORIENTED_EDGE('',*,*,#470,.F.);
#621=ORIENTED_EDGE('',*,*,#471,.T.);
#622=ORIENTED_EDGE('',*,*,#469,.T.);
#623=ORIENTED_EDGE('',*,*,#471,.F.);
#624=ORIENTED_EDGE('',*,*,#472,.F.);
#625=ORIENTED_EDGE('',*,*,#473,.T.);
#626=ORIENTED_EDGE('',*,*,#474,.F.);
#627=ORIENTED_EDGE('',*,*,#473,.F.);
#628=ORIENTED_EDGE('',*,*,#472,.T.);
#629=ORIENTED_EDGE('',*,*,#470,.T.);
#630=ORIENTED_EDGE('',*,*,#464,.T.);
#631=ORIENTED_EDGE('',*,*,#467,.T.);
#632=ORIENTED_EDGE('',*,*,#474,.T.);
#633=ORIENTED_EDGE('',*,*,#475,.T.);
#634=ORIENTED_EDGE('',*,*,#476,.T.);
#635=ORIENTED_EDGE('',*,*,#477,.F.);
#636=ORIENTED_EDGE('',*,*,#420,.F.);
#637=ORIENTED_EDGE('',*,*,#426,.T.);
#638=ORIENTED_EDGE('',*,*,#478,.F.);
#639=ORIENTED_EDGE('',*,*,#479,.F.);
#640=ORIENTED_EDGE('',*,*,#457,.F.);
#641=ORIENTED_EDGE('',*,*,#461,.T.);
#642=ORIENTED_EDGE('',*,*,#438,.T.);
#643=ORIENTED_EDGE('',*,*,#454,.T.);
#644=ORIENTED_EDGE('',*,*,#460,.F.);
#645=ORIENTED_EDGE('',*,*,#480,.T.);
#646=ORIENTED_EDGE('',*,*,#481,.F.);
#647=ORIENTED_EDGE('',*,*,#482,.F.);
#648=ORIENTED_EDGE('',*,*,#441,.T.);
#649=ORIENTED_EDGE('',*,*,#444,.T.);
#650=ORIENTED_EDGE('',*,*,#468,.T.);
#651=ORIENTED_EDGE('',*,*,#451,.F.);
#652=ORIENTED_EDGE('',*,*,#431,.T.);
#653=ORIENTED_EDGE('',*,*,#483,.F.);
#654=ORIENTED_EDGE('',*,*,#484,.F.);
#655=ORIENTED_EDGE('',*,*,#475,.F.);
#656=ORIENTED_EDGE('',*,*,#437,.T.);
#657=ORIENTED_EDGE('',*,*,#485,.T.);
#658=ORIENTED_EDGE('',*,*,#486,.T.);
#659=ORIENTED_EDGE('',*,*,#487,.T.);
#660=ORIENTED_EDGE('',*,*,#488,.T.);
#661=ORIENTED_EDGE('',*,*,#489,.F.);
#662=ORIENTED_EDGE('',*,*,#490,.T.);
#663=ORIENTED_EDGE('',*,*,#491,.F.);
#664=ORIENTED_EDGE('',*,*,#490,.F.);
#665=ORIENTED_EDGE('',*,*,#489,.T.);
#666=ORIENTED_EDGE('',*,*,#466,.T.);
#667=ORIENTED_EDGE('',*,*,#462,.F.);
#668=ORIENTED_EDGE('',*,*,#479,.T.);
#669=ORIENTED_EDGE('',*,*,#492,.F.);
#670=ORIENTED_EDGE('',*,*,#493,.F.);
#671=ORIENTED_EDGE('',*,*,#458,.F.);
#672=ORIENTED_EDGE('',*,*,#493,.T.);
#673=ORIENTED_EDGE('',*,*,#494,.F.);
#674=ORIENTED_EDGE('',*,*,#480,.F.);
#675=ORIENTED_EDGE('',*,*,#459,.F.);
#676=ORIENTED_EDGE('',*,*,#428,.T.);
#677=ORIENTED_EDGE('',*,*,#430,.T.);
#678=ORIENTED_EDGE('',*,*,#495,.T.);
#679=ORIENTED_EDGE('',*,*,#481,.T.);
#680=ORIENTED_EDGE('',*,*,#494,.T.);
#681=ORIENTED_EDGE('',*,*,#492,.T.);
#682=ORIENTED_EDGE('',*,*,#478,.T.);
#683=ORIENTED_EDGE('',*,*,#425,.T.);
#684=ORIENTED_EDGE('',*,*,#491,.T.);
#685=ORIENTED_EDGE('',*,*,#496,.F.);
#686=ORIENTED_EDGE('',*,*,#497,.T.);
#687=ORIENTED_EDGE('',*,*,#488,.F.);
#688=ORIENTED_EDGE('',*,*,#497,.F.);
#689=ORIENTED_EDGE('',*,*,#498,.F.);
#690=ORIENTED_EDGE('',*,*,#499,.T.);
#691=ORIENTED_EDGE('',*,*,#487,.F.);
#692=ORIENTED_EDGE('',*,*,#499,.F.);
#693=ORIENTED_EDGE('',*,*,#500,.F.);
#694=ORIENTED_EDGE('',*,*,#501,.T.);
#695=ORIENTED_EDGE('',*,*,#486,.F.);
#696=ORIENTED_EDGE('',*,*,#501,.F.);
#697=ORIENTED_EDGE('',*,*,#502,.F.);
#698=ORIENTED_EDGE('',*,*,#503,.T.);
#699=ORIENTED_EDGE('',*,*,#485,.F.);
#700=ORIENTED_EDGE('',*,*,#503,.F.);
#701=ORIENTED_EDGE('',*,*,#483,.T.);
#702=ORIENTED_EDGE('',*,*,#482,.T.);
#703=ORIENTED_EDGE('',*,*,#495,.F.);
#704=ORIENTED_EDGE('',*,*,#429,.F.);
#705=ORIENTED_EDGE('',*,*,#504,.F.);
#706=ORIENTED_EDGE('',*,*,#505,.F.);
#707=ORIENTED_EDGE('',*,*,#484,.T.);
#708=ORIENTED_EDGE('',*,*,#505,.T.);
#709=ORIENTED_EDGE('',*,*,#506,.F.);
#710=ORIENTED_EDGE('',*,*,#476,.F.);
#711=ORIENTED_EDGE('',*,*,#421,.T.);
#712=ORIENTED_EDGE('',*,*,#477,.T.);
#713=ORIENTED_EDGE('',*,*,#506,.T.);
#714=ORIENTED_EDGE('',*,*,#504,.T.);
#715=ORIENTED_EDGE('',*,*,#496,.T.);
#716=ORIENTED_EDGE('',*,*,#498,.T.);
#717=ORIENTED_EDGE('',*,*,#500,.T.);
#718=ORIENTED_EDGE('',*,*,#502,.T.);
#719=CYLINDRICAL_SURFACE('',#797,0.078740157480315);
#720=CYLINDRICAL_SURFACE('',#800,0.078740157480315);
#721=CYLINDRICAL_SURFACE('',#803,0.078740157480315);
#722=CYLINDRICAL_SURFACE('',#809,0.078740157480315);
#723=CYLINDRICAL_SURFACE('',#814,0.492125984251968);
#724=CYLINDRICAL_SURFACE('',#824,0.0393700787401575);
#725=CYLINDRICAL_SURFACE('',#830,0.240157480314961);
#726=CYLINDRICAL_SURFACE('',#835,0.078740157480315);
#727=CYLINDRICAL_SURFACE('',#837,0.15748031496063);
#728=CYLINDRICAL_SURFACE('',#849,0.46875);
#729=CYLINDRICAL_SURFACE('',#854,0.492125984251968);
#730=CYLINDRICAL_SURFACE('',#857,0.0590551181102362);
#731=CYLINDRICAL_SURFACE('',#859,0.0590551181102362);
#732=CYLINDRICAL_SURFACE('',#861,0.0590551181102362);
#733=CYLINDRICAL_SURFACE('',#863,0.0590551181102362);
#734=ADVANCED_FACE('',(#54),#719,.F.);
#735=ADVANCED_FACE('',(#55),#720,.T.);
#736=ADVANCED_FACE('',(#56),#721,.F.);
#737=ADVANCED_FACE('',(#57),#28,.F.);
#738=ADVANCED_FACE('',(#58),#722,.T.);
#739=ADVANCED_FACE('',(#59),#29,.T.);
#740=ADVANCED_FACE('',(#60),#30,.T.);
#741=ADVANCED_FACE('',(#61),#31,.T.);
#742=ADVANCED_FACE('',(#62),#723,.T.);
#743=ADVANCED_FACE('',(#63),#32,.T.);
#744=ADVANCED_FACE('',(#64),#33,.T.);
#745=ADVANCED_FACE('',(#65),#34,.F.);
#746=ADVANCED_FACE('',(#66),#35,.F.);
#747=ADVANCED_FACE('',(#67),#36,.F.);
#748=ADVANCED_FACE('',(#68),#37,.F.);
#749=ADVANCED_FACE('',(#69),#38,.F.);
#750=ADVANCED_FACE('',(#70),#724,.T.);
#751=ADVANCED_FACE('',(#71),#39,.T.);
#752=ADVANCED_FACE('',(#72),#40,.T.);
#753=ADVANCED_FACE('',(#73),#41,.F.);
#754=ADVANCED_FACE('',(#74),#725,.T.);
#755=ADVANCED_FACE('',(#75,#15),#42,.T.);
#756=ADVANCED_FACE('',(#76),#726,.F.);
#757=ADVANCED_FACE('',(#77),#727,.T.);
#758=ADVANCED_FACE('',(#78,#16),#43,.T.);
#759=ADVANCED_FACE('',(#79,#17),#44,.T.);
#760=ADVANCED_FACE('',(#80),#45,.T.);
#761=ADVANCED_FACE('',(#81),#46,.T.);
#762=ADVANCED_FACE('',(#82,#18,#19,#20,#21),#47,.F.);
#763=ADVANCED_FACE('',(#83),#728,.T.);
#764=ADVANCED_FACE('',(#84,#22),#48,.T.);
#765=ADVANCED_FACE('',(#85),#49,.T.);
#766=ADVANCED_FACE('',(#86),#729,.T.);
#767=ADVANCED_FACE('',(#87,#23),#50,.T.);
#768=ADVANCED_FACE('',(#88),#730,.F.);
#769=ADVANCED_FACE('',(#89),#731,.F.);
#770=ADVANCED_FACE('',(#90),#732,.F.);
#771=ADVANCED_FACE('',(#91),#733,.F.);
#772=ADVANCED_FACE('',(#92),#51,.T.);
#773=ADVANCED_FACE('',(#93),#52,.T.);
#774=ADVANCED_FACE('',(#94,#24,#25,#26,#27),#53,.T.);
#775=CLOSED_SHELL('',(#734,#735,#736,#737,#738,#739,#740,#741,#742,#743,
#744,#745,#746,#747,#748,#749,#750,#751,#752,#753,#754,#755,#756,#757,#758,
#759,#760,#761,#762,#763,#764,#765,#766,#767,#768,#769,#770,#771,#772,#773,
#774));
#776=DERIVED_UNIT_ELEMENT(#778,1.);
#777=DERIVED_UNIT_ELEMENT(#1314,-3.);
#778=(
CONVERSION_BASED_UNIT('gram',#780)
MASS_UNIT()
NAMED_UNIT(#1311)
);
#779=(
MASS_UNIT()
NAMED_UNIT(*)
SI_UNIT(.KILO.,.GRAM.)
);
#780=MASS_MEASURE_WITH_UNIT(MASS_MEASURE(0.001),#779);
#781=DERIVED_UNIT((#776,#777));
#782=MEASURE_REPRESENTATION_ITEM('density measure',
POSITIVE_RATIO_MEASURE(1.06),#781);
#783=PROPERTY_DEFINITION_REPRESENTATION(#788,#785);
#784=PROPERTY_DEFINITION_REPRESENTATION(#789,#786);
#785=REPRESENTATION('material name',(#787),#1308);
#786=REPRESENTATION('density',(#782),#1308);
#787=DESCRIPTIVE_REPRESENTATION_ITEM('ABS Plastic','ABS Plastic');
#788=PROPERTY_DEFINITION('material property','material name',#1322);
#789=PROPERTY_DEFINITION('material property','density of part',#1322);
#790=DATE_TIME_ROLE('creation_date');
#791=APPLIED_DATE_AND_TIME_ASSIGNMENT(#792,#790,(#1322));
#792=DATE_AND_TIME(#793,#794);
#793=CALENDAR_DATE(2026,23,3);
#794=LOCAL_TIME(0,0,0.,#795);
#795=COORDINATED_UNIVERSAL_TIME_OFFSET(0,0,.BEHIND.);
#796=AXIS2_PLACEMENT_3D('',#1088,#868,#869);
#797=AXIS2_PLACEMENT_3D('',#1089,#870,#871);
#798=AXIS2_PLACEMENT_3D('',#1092,#872,#873);
#799=AXIS2_PLACEMENT_3D('',#1096,#875,#876);
#800=AXIS2_PLACEMENT_3D('',#1098,#878,#879);
#801=AXIS2_PLACEMENT_3D('',#1100,#880,#881);
#802=AXIS2_PLACEMENT_3D('',#1103,#883,#884);
#803=AXIS2_PLACEMENT_3D('',#1104,#885,#886);
#804=AXIS2_PLACEMENT_3D('',#1107,#887,#888);
#805=AXIS2_PLACEMENT_3D('',#1111,#890,#891);
#806=AXIS2_PLACEMENT_3D('',#1113,#893,#894);
#807=AXIS2_PLACEMENT_3D('',#1116,#896,#897);
#808=AXIS2_PLACEMENT_3D('',#1120,#899,#900);
#809=AXIS2_PLACEMENT_3D('',#1122,#902,#903);
#810=AXIS2_PLACEMENT_3D('',#1124,#904,#905);
#811=AXIS2_PLACEMENT_3D('',#1126,#907,#908);
#812=AXIS2_PLACEMENT_3D('',#1135,#914,#915);
#813=AXIS2_PLACEMENT_3D('',#1141,#919,#920);
#814=AXIS2_PLACEMENT_3D('',#1142,#921,#922);
#815=AXIS2_PLACEMENT_3D('',#1145,#924,#925);
#816=AXIS2_PLACEMENT_3D('',#1146,#926,#927);
#817=AXIS2_PLACEMENT_3D('',#1150,#930,#931);
#818=AXIS2_PLACEMENT_3D('',#1171,#941,#942);
#819=AXIS2_PLACEMENT_3D('',#1173,#944,#945);
#820=AXIS2_PLACEMENT_3D('',#1179,#949,#950);
#821=AXIS2_PLACEMENT_3D('',#1183,#953,#954);
#822=AXIS2_PLACEMENT_3D('',#1187,#957,#958);
#823=AXIS2_PLACEMENT_3D('',#1191,#961,#962);
#824=AXIS2_PLACEMENT_3D('',#1195,#965,#966);
#825=AXIS2_PLACEMENT_3D('',#1198,#967,#968);
#826=AXIS2_PLACEMENT_3D('',#1201,#971,#972);
#827=AXIS2_PLACEMENT_3D('',#1209,#976,#977);
#828=AXIS2_PLACEMENT_3D('',#1211,#979,#980);
#829=AXIS2_PLACEMENT_3D('',#1213,#982,#983);
#830=AXIS2_PLACEMENT_3D('',#1222,#988,#989);
#831=AXIS2_PLACEMENT_3D('',#1223,#990,#991);
#832=AXIS2_PLACEMENT_3D('',#1224,#992,#993);
#833=AXIS2_PLACEMENT_3D('',#1225,#994,#995);
#834=AXIS2_PLACEMENT_3D('',#1228,#997,#998);
#835=AXIS2_PLACEMENT_3D('',#1229,#999,#1000);
#836=AXIS2_PLACEMENT_3D('',#1231,#1001,#1002);
#837=AXIS2_PLACEMENT_3D('',#1233,#1004,#1005);
#838=AXIS2_PLACEMENT_3D('',#1235,#1006,#1007);
#839=AXIS2_PLACEMENT_3D('',#1238,#1009,#1010);
#840=AXIS2_PLACEMENT_3D('',#1239,#1011,#1012);
#841=AXIS2_PLACEMENT_3D('',#1240,#1013,#1014);
#842=AXIS2_PLACEMENT_3D('',#1241,#1015,#1016);
#843=AXIS2_PLACEMENT_3D('',#1250,#1022,#1023);
#844=AXIS2_PLACEMENT_3D('',#1256,#1027,#1028);
#845=AXIS2_PLACEMENT_3D('',#1261,#1031,#1032);
#846=AXIS2_PLACEMENT_3D('',#1263,#1033,#1034);
#847=AXIS2_PLACEMENT_3D('',#1265,#1035,#1036);
#848=AXIS2_PLACEMENT_3D('',#1267,#1037,#1038);
#849=AXIS2_PLACEMENT_3D('',#1268,#1039,#1040);
#850=AXIS2_PLACEMENT_3D('',#1270,#1041,#1042);
#851=AXIS2_PLACEMENT_3D('',#1273,#1044,#1045);
#852=AXIS2_PLACEMENT_3D('',#1274,#1046,#1047);
#853=AXIS2_PLACEMENT_3D('',#1275,#1048,#1049);
#854=AXIS2_PLACEMENT_3D('',#1279,#1052,#1053);
#855=AXIS2_PLACEMENT_3D('',#1280,#1054,#1055);
#856=AXIS2_PLACEMENT_3D('',#1281,#1056,#1057);
#857=AXIS2_PLACEMENT_3D('',#1283,#1059,#1060);
#858=AXIS2_PLACEMENT_3D('',#1285,#1061,#1062);
#859=AXIS2_PLACEMENT_3D('',#1287,#1064,#1065);
#860=AXIS2_PLACEMENT_3D('',#1289,#1066,#1067);
#861=AXIS2_PLACEMENT_3D('',#1291,#1069,#1070);
#862=AXIS2_PLACEMENT_3D('',#1293,#1071,#1072);
#863=AXIS2_PLACEMENT_3D('',#1295,#1074,#1075);
#864=AXIS2_PLACEMENT_3D('',#1297,#1076,#1077);
#865=AXIS2_PLACEMENT_3D('',#1299,#1079,#1080);
#866=AXIS2_PLACEMENT_3D('',#1303,#1083,#1084);
#867=AXIS2_PLACEMENT_3D('',#1305,#1086,#1087);
#868=DIRECTION('axis',(0.,0.,1.));
#869=DIRECTION('refdir',(1.,0.,0.));
#870=DIRECTION('center_axis',(1.,5.98809768404644E-16,3.32406196126647E-31));
#871=DIRECTION('ref_axis',(0.,-5.55111512312578E-16,1.));
#872=DIRECTION('center_axis',(-1.,-1.77635683940025E-16,-7.88860905221012E-32));
#873=DIRECTION('ref_axis',(0.,-5.55111512312578E-16,1.));
#874=DIRECTION('',(-1.,-5.98809768404644E-16,-3.32406196126647E-31));
#875=DIRECTION('center_axis',(-1.,-2.06553120860494E-16,0.));
#876=DIRECTION('ref_axis',(0.,-5.55111512312578E-16,1.));
#877=DIRECTION('',(1.,5.98809768404644E-16,3.32406196126647E-31));
#878=DIRECTION('center_axis',(1.,1.77635683940025E-16,-4.95855426138921E-32));
#879=DIRECTION('ref_axis',(0.,-0.707106781186547,0.707106781186547));
#880=DIRECTION('center_axis',(1.,1.77635683940025E-16,7.88860905221012E-32));
#881=DIRECTION('ref_axis',(0.,-0.707106781186547,0.707106781186547));
#882=DIRECTION('',(-1.,-1.77635683940025E-16,4.95855426138921E-32));
#883=DIRECTION('center_axis',(1.,2.06553120860494E-16,0.));
#884=DIRECTION('ref_axis',(0.,-0.707106781186547,0.707106781186547));
#885=DIRECTION('center_axis',(-1.,-3.61129236941832E-16,-8.23406315799827E-18));
#886=DIRECTION('ref_axis',(3.09519844991724E-16,-0.442577856444624,-0.896730082569377));
#887=DIRECTION('center_axis',(-1.,-1.77635683940025E-16,-7.88860905221012E-32));
#888=DIRECTION('ref_axis',(3.09519844991724E-16,-0.442577856444624,-0.896730082569377));
#889=DIRECTION('',(-1.,-3.61129236941832E-16,-1.54074395550979E-32));
#890=DIRECTION('center_axis',(-1.,-2.06553120860494E-16,0.));
#891=DIRECTION('ref_axis',(3.09519844991724E-16,-0.442577856444624,-0.896730082569377));
#892=DIRECTION('',(1.,3.61129236941832E-16,8.23406315799827E-18));
#893=DIRECTION('center_axis',(1.,1.77635683940025E-16,7.88860905221012E-32));
#894=DIRECTION('ref_axis',(1.77635683940025E-16,-1.,-3.5527136788005E-16));
#895=DIRECTION('',(1.77635683940025E-16,-1.,-3.5527136788005E-16));
#896=DIRECTION('center_axis',(1.,1.77635683940025E-16,7.88860905221012E-32));
#897=DIRECTION('ref_axis',(-2.77555756156289E-16,0.976282758945266,0.216499363939527));
#898=DIRECTION('',(1.74594206495116E-16,-0.982878004140561,-0.184257507246429));
#899=DIRECTION('center_axis',(1.,1.77635683940025E-16,7.88860905221012E-32));
#900=DIRECTION('ref_axis',(0.,0.,-1.));
#901=DIRECTION('',(1.77635683940025E-16,-1.,-3.5527136788005E-16));
#902=DIRECTION('center_axis',(1.,3.61129236941832E-16,8.23406315799827E-18));
#903=DIRECTION('ref_axis',(-2.77555756156289E-16,0.976282758945266,0.216499363939527));
#904=DIRECTION('center_axis',(1.,2.06553120860494E-16,0.));
#905=DIRECTION('ref_axis',(-2.77555756156289E-16,0.976282758945266,0.216499363939527));
#906=DIRECTION('',(1.,3.61129236941832E-16,8.23406315799827E-18));
#907=DIRECTION('center_axis',(-1.,-2.06553120860494E-16,0.));
#908=DIRECTION('ref_axis',(0.,0.,1.));
#909=DIRECTION('',(-2.06553120860494E-16,1.,3.5527136788005E-16));
#910=DIRECTION('',(-3.33556408127278E-31,1.61486985400023E-15,-1.));
#911=DIRECTION('',(-2.06553120860494E-16,1.,0.));
#912=DIRECTION('',(-2.03016519180367E-16,0.982878004140561,0.184257507246429));
#913=DIRECTION('',(-2.06553120860494E-16,1.,3.5527136788005E-16));
#914=DIRECTION('center_axis',(1.12694415031573E-31,-3.5527136788005E-16,
1.));
#915=DIRECTION('ref_axis',(2.06553120860494E-16,-1.,-3.5527136788005E-16));
#916=DIRECTION('',(-1.,0.,0.));
#917=DIRECTION('',(2.06553120860494E-16,-1.,-3.5527136788005E-16));
#918=DIRECTION('',(1.,3.1720657846433E-16,0.));
#919=DIRECTION('center_axis',(1.12694415031573E-31,-3.5527136788005E-16,
1.));
#920=DIRECTION('ref_axis',(1.,0.,-1.12694415031573E-31));
#921=DIRECTION('center_axis',(1.,3.1720657846433E-16,0.));
#922=DIRECTION('ref_axis',(0.,0.,-1.));
#923=DIRECTION('',(1.,3.1720657846433E-16,0.));
#924=DIRECTION('center_axis',(1.,2.06553120860494E-16,0.));
#925=DIRECTION('ref_axis',(0.,0.,-1.));
#926=DIRECTION('center_axis',(5.84476934300062E-17,-0.184257507246429,0.982878004140561));
#927=DIRECTION('ref_axis',(2.03016519180367E-16,-0.982878004140561,-0.184257507246429));
#928=DIRECTION('',(1.,0.,0.));
#929=DIRECTION('',(2.03016519180367E-16,-0.982878004140561,-0.184257507246429));
#930=DIRECTION('center_axis',(-1.,-2.06553120860494E-16,0.));
#931=DIRECTION('ref_axis',(0.,0.,1.));
#932=DIRECTION('',(2.06553120860494E-16,-1.,0.));
#933=DIRECTION('',(-1.03276560430247E-16,0.499999999999999,0.866025403784439));
#934=DIRECTION('',(1.03276560430247E-16,-0.5,0.866025403784439));
#935=DIRECTION('',(2.06553120860494E-16,-1.,0.));
#936=DIRECTION('',(1.03276560430247E-16,-0.499999999999999,-0.866025403784439));
#937=DIRECTION('',(-1.03276560430247E-16,0.500000000000001,-0.866025403784438));
#938=DIRECTION('',(2.06553120860494E-16,-1.,0.));
#939=DIRECTION('',(0.,0.,1.));
#940=DIRECTION('',(-2.06553120860494E-16,1.,-6.084470756474E-16));
#941=DIRECTION('center_axis',(-1.,-2.06553120860494E-16,0.));
#942=DIRECTION('ref_axis',(-1.05060592991743E-16,0.508637161007607,0.860980974494862));
#943=DIRECTION('',(-1.77838307283423E-16,0.860980974494862,-0.508637161007607));
#944=DIRECTION('center_axis',(0.,0.866025403784438,0.500000000000001));
#945=DIRECTION('ref_axis',(1.03276560430247E-16,-0.500000000000001,0.866025403784438));
#946=DIRECTION('',(1.,0.,0.));
#947=DIRECTION('',(1.03276560430247E-16,-0.500000000000001,0.866025403784438));
#948=DIRECTION('',(1.,0.,0.));
#949=DIRECTION('center_axis',(0.,0.866025403784439,-0.499999999999999));
#950=DIRECTION('ref_axis',(-1.03276560430247E-16,0.499999999999999,0.866025403784439));
#951=DIRECTION('',(1.,1.50030138462859E-16,0.));
#952=DIRECTION('',(-1.03276560430247E-16,0.499999999999999,0.866025403784439));
#953=DIRECTION('center_axis',(0.,0.,-1.));
#954=DIRECTION('ref_axis',(-2.06553120860494E-16,1.,0.));
#955=DIRECTION('',(1.,0.,0.));
#956=DIRECTION('',(-2.06553120860494E-16,1.,0.));
#957=DIRECTION('center_axis',(0.,-0.866025403784439,-0.5));
#958=DIRECTION('ref_axis',(-1.03276560430247E-16,0.5,-0.866025403784439));
#959=DIRECTION('',(1.,0.,0.));
#960=DIRECTION('',(-1.03276560430247E-16,0.5,-0.866025403784439));
#961=DIRECTION('center_axis',(0.,-0.866025403784439,0.499999999999999));
#962=DIRECTION('ref_axis',(1.03276560430247E-16,-0.499999999999999,-0.866025403784439));
#963=DIRECTION('',(1.,0.,0.));
#964=DIRECTION('',(1.03276560430247E-16,-0.499999999999999,-0.866025403784439));
#965=DIRECTION('center_axis',(-1.,-3.1720657846433E-16,5.78824009914516E-32));
#966=DIRECTION('ref_axis',(0.,-0.964619348368791,0.263646567875573));
#967=DIRECTION('center_axis',(1.,2.06553120860494E-16,0.));
#968=DIRECTION('ref_axis',(0.,-0.964619348368791,0.263646567875573));
#969=DIRECTION('',(-1.,0.,0.));
#970=DIRECTION('',(-1.,-3.1720657846433E-16,5.78824009914516E-32));
#971=DIRECTION('center_axis',(-1.,-2.06553120860494E-16,0.));
#972=DIRECTION('ref_axis',(0.,0.,1.));
#973=DIRECTION('',(-2.06553120860494E-16,1.,-6.08251372251626E-16));
#974=DIRECTION('',(1.14660015293752E-31,-5.55111512312578E-16,-1.));
#975=DIRECTION('',(2.06553120860494E-16,-1.,0.));
#976=DIRECTION('center_axis',(-1.,-2.06553120860494E-16,0.));
#977=DIRECTION('ref_axis',(0.,0.,-1.));
#978=DIRECTION('',(1.77838307283423E-16,-0.860980974494862,0.508637161007607));
#979=DIRECTION('center_axis',(-1.35058935646721E-31,6.08251372251626E-16,
1.));
#980=DIRECTION('ref_axis',(-2.06553120860494E-16,1.,-6.08251372251626E-16));
#981=DIRECTION('',(1.,2.22044604925031E-16,-1.35102390529918E-31));
#982=DIRECTION('center_axis',(2.80359349652817E-16,-1.,-7.40148683083438E-17));
#983=DIRECTION('ref_axis',(1.52880020391669E-32,-7.40148683083438E-17,1.));
#984=DIRECTION('',(1.52880020391669E-32,-7.40148683083438E-17,1.));
#985=DIRECTION('',(-1.,-2.10269512239613E-16,0.));
#986=DIRECTION('',(1.52880020391669E-32,-7.40148683083438E-17,1.));
#987=DIRECTION('',(1.,2.10269512239613E-16,0.));
#988=DIRECTION('center_axis',(1.,2.10269512239613E-16,0.));
#989=DIRECTION('ref_axis',(2.10269512239613E-16,-1.,1.83697019872103E-16));
#990=DIRECTION('center_axis',(-1.,-2.06553120860494E-16,0.));
#991=DIRECTION('ref_axis',(0.,0.,-1.));
#992=DIRECTION('center_axis',(1.,2.06553120860494E-16,0.));
#993=DIRECTION('ref_axis',(0.,0.,-1.));
#994=DIRECTION('center_axis',(-1.,-2.06553120860494E-16,0.));
#995=DIRECTION('ref_axis',(0.,0.,1.));
#996=DIRECTION('',(2.06553120860494E-16,-1.,0.));
#997=DIRECTION('center_axis',(-1.,-2.06553120860494E-16,0.));
#998=DIRECTION('ref_axis',(0.,0.,-1.));
#999=DIRECTION('center_axis',(1.,2.06553120860494E-16,0.));
#1000=DIRECTION('ref_axis',(0.,0.,-1.));
#1001=DIRECTION('center_axis',(-1.,-2.06553120860494E-16,0.));
#1002=DIRECTION('ref_axis',(0.,0.,-1.));
#1003=DIRECTION('',(-1.,-2.06553120860494E-16,0.));
#1004=DIRECTION('center_axis',(1.,2.22044604925031E-16,0.));
#1005=DIRECTION('ref_axis',(0.,0.,-1.));
#1006=DIRECTION('center_axis',(1.,2.06553120860494E-16,0.));
#1007=DIRECTION('ref_axis',(0.,0.,-1.));
#1008=DIRECTION('',(-1.,-2.22044604925031E-16,0.));
#1009=DIRECTION('center_axis',(-1.,-2.06553120860494E-16,0.));
#1010=DIRECTION('ref_axis',(0.,0.,-1.));
#1011=DIRECTION('center_axis',(1.,2.06553120860494E-16,0.));
#1012=DIRECTION('ref_axis',(0.,0.,-1.));
#1013=DIRECTION('center_axis',(1.,2.06553120860494E-16,0.));
#1014=DIRECTION('ref_axis',(0.,0.,-1.));
#1015=DIRECTION('center_axis',(-2.22044604925031E-16,1.,0.));
#1016=DIRECTION('ref_axis',(-1.,-2.22044604925031E-16,0.));
#1017=DIRECTION('',(-1.,-2.22044604925031E-16,0.));
#1018=DIRECTION('',(0.,0.,1.));
#1019=DIRECTION('',(-1.,-2.22044604925031E-16,0.));
#1020=DIRECTION('',(5.24160069914293E-31,-2.53765262771464E-15,1.));
#1021=DIRECTION('',(1.,3.1720657846433E-16,0.));
#1022=DIRECTION('center_axis',(1.61343053523034E-16,-0.508637161007607,
-0.860980974494862));
#1023=DIRECTION('ref_axis',(-1.77838307283423E-16,0.860980974494862,-0.508637161007607));
#1024=DIRECTION('',(1.,3.1720657846433E-16,0.));
#1025=DIRECTION('',(-1.77838307283423E-16,0.860980974494862,-0.508637161007607));
#1026=DIRECTION('',(1.,0.,0.));
#1027=DIRECTION('center_axis',(0.,0.,1.));
#1028=DIRECTION('ref_axis',(1.,0.,0.));
#1029=DIRECTION('',(1.,0.,0.));
#1030=DIRECTION('',(3.09829681290741E-16,-1.,0.));
#1031=DIRECTION('center_axis',(0.,0.,1.));
#1032=DIRECTION('ref_axis',(1.,0.,0.));
#1033=DIRECTION('center_axis',(0.,0.,1.));
#1034=DIRECTION('ref_axis',(1.,0.,0.));
#1035=DIRECTION('center_axis',(0.,0.,1.));
#1036=DIRECTION('ref_axis',(1.,0.,0.));
#1037=DIRECTION('center_axis',(0.,0.,1.));
#1038=DIRECTION('ref_axis',(1.,0.,0.));
#1039=DIRECTION('center_axis',(1.,0.,0.));
#1040=DIRECTION('ref_axis',(0.,0.,-1.));
#1041=DIRECTION('center_axis',(1.,2.06553120860494E-16,0.));
#1042=DIRECTION('ref_axis',(0.,0.,-1.));
#1043=DIRECTION('',(-1.,0.,0.));
#1044=DIRECTION('center_axis',(-1.,-2.06553120860494E-16,0.));
#1045=DIRECTION('ref_axis',(0.,0.,-1.));
#1046=DIRECTION('center_axis',(1.,2.06553120860494E-16,0.));
#1047=DIRECTION('ref_axis',(0.,0.,-1.));
#1048=DIRECTION('center_axis',(0.,0.,-1.));
#1049=DIRECTION('ref_axis',(-2.06553120860494E-16,1.,0.));
#1050=DIRECTION('',(-2.06553120860494E-16,1.,0.));
#1051=DIRECTION('',(1.,3.1720657846433E-16,0.));
#1052=DIRECTION('center_axis',(1.,3.1720657846433E-16,0.));
#1053=DIRECTION('ref_axis',(0.,0.,-1.));
#1054=DIRECTION('center_axis',(1.,2.06553120860494E-16,0.));
#1055=DIRECTION('ref_axis',(0.,0.,-1.));
#1056=DIRECTION('center_axis',(1.,2.06553120860494E-16,0.));
#1057=DIRECTION('ref_axis',(0.,0.,-1.));
#1058=DIRECTION('',(2.62080034957147E-31,-1.26882631385732E-15,-1.));
#1059=DIRECTION('center_axis',(0.,0.,1.));
#1060=DIRECTION('ref_axis',(1.,0.,0.));
#1061=DIRECTION('center_axis',(0.,0.,-1.));
#1062=DIRECTION('ref_axis',(1.,0.,0.));
#1063=DIRECTION('',(0.,0.,-1.));
#1064=DIRECTION('center_axis',(0.,0.,1.));
#1065=DIRECTION('ref_axis',(1.,0.,0.));
#1066=DIRECTION('center_axis',(0.,0.,-1.));
#1067=DIRECTION('ref_axis',(1.,0.,0.));
#1068=DIRECTION('',(0.,0.,-1.));
#1069=DIRECTION('center_axis',(0.,0.,1.));
#1070=DIRECTION('ref_axis',(1.,0.,0.));
#1071=DIRECTION('center_axis',(0.,0.,-1.));
#1072=DIRECTION('ref_axis',(1.,0.,0.));
#1073=DIRECTION('',(0.,0.,-1.));
#1074=DIRECTION('center_axis',(0.,0.,1.));
#1075=DIRECTION('ref_axis',(1.,0.,0.));
#1076=DIRECTION('center_axis',(0.,0.,-1.));
#1077=DIRECTION('ref_axis',(1.,0.,0.));
#1078=DIRECTION('',(0.,0.,-1.));
#1079=DIRECTION('center_axis',(0.,-1.,0.));
#1080=DIRECTION('ref_axis',(1.,0.,0.));
#1081=DIRECTION('',(1.,0.,0.));
#1082=DIRECTION('',(0.,0.,1.));
#1083=DIRECTION('center_axis',(-1.,-3.09829681290741E-16,0.));
#1084=DIRECTION('ref_axis',(3.09829681290741E-16,-1.,0.));
#1085=DIRECTION('',(3.09829681290741E-16,-1.,0.));
#1086=DIRECTION('center_axis',(0.,0.,1.));
#1087=DIRECTION('ref_axis',(1.,0.,0.));
#1088=CARTESIAN_POINT('',(0.,0.,0.));
#1089=CARTESIAN_POINT('Origin',(0.285433070866142,0.365822864427251,0.334645669291339));
#1090=CARTESIAN_POINT('',(0.413385826771653,0.438816944024649,0.305118110236221));
#1091=CARTESIAN_POINT('',(0.413385826771653,0.365822864427251,0.255905511811024));
#1092=CARTESIAN_POINT('Origin',(0.413385826771653,0.365822864427251,0.334645669291339));
#1093=CARTESIAN_POINT('',(0.383858267716535,0.438816944024649,0.305118110236221));
#1094=CARTESIAN_POINT('',(0.285433070866142,0.438816944024649,0.30511811023622));
#1095=CARTESIAN_POINT('',(0.383858267716535,0.365822864427251,0.255905511811024));
#1096=CARTESIAN_POINT('Origin',(0.383858267716535,0.365822864427251,0.334645669291339));
#1097=CARTESIAN_POINT('',(0.285433070866142,0.365822864427251,0.255905511811024));
#1098=CARTESIAN_POINT('Origin',(0.285433070866142,0.511811023622047,0.275590551181102));
#1099=CARTESIAN_POINT('',(0.413385826771653,0.511811023622047,0.354330708661417));
#1100=CARTESIAN_POINT('Origin',(0.413385826771653,0.511811023622047,0.275590551181102));
#1101=CARTESIAN_POINT('',(0.383858267716535,0.511811023622047,0.354330708661417));
#1102=CARTESIAN_POINT('',(0.285433070866142,0.511811023622047,0.354330708661417));
#1103=CARTESIAN_POINT('Origin',(0.383858267716535,0.511811023622047,0.275590551181102));
#1104=CARTESIAN_POINT('Origin',(0.177165354330709,0.244977067091858,0.334645669291338));
#1105=CARTESIAN_POINT('',(0.413385826771653,0.244977067091858,0.255905511811024));
#1106=CARTESIAN_POINT('',(0.413385826771654,0.182477401303989,0.286751993545688));
#1107=CARTESIAN_POINT('Origin',(0.413385826771654,0.244977067091858,0.334645669291338));
#1108=CARTESIAN_POINT('',(0.383858267716535,0.244977067091858,0.255905511811024));
#1109=CARTESIAN_POINT('',(0.177165354330709,0.244977067091858,0.255905511811024));
#1110=CARTESIAN_POINT('',(0.383858267716535,0.182477401303989,0.286751993545688));
#1111=CARTESIAN_POINT('Origin',(0.383858267716535,0.244977067091858,0.334645669291338));
#1112=CARTESIAN_POINT('',(0.177165354330709,0.182477401303989,0.286751993545688));
#1113=CARTESIAN_POINT('Origin',(0.413385826771653,0.433070866141732,0.354330708661417));
#1114=CARTESIAN_POINT('',(0.413385826771653,0.196850393700787,0.255905511811024));
#1115=CARTESIAN_POINT('',(0.413385826771654,0.105469270378607,0.316250286630003));
#1116=CARTESIAN_POINT('Origin',(0.413385826771654,0.119977735516121,0.238858317800037));
#1117=CARTESIAN_POINT('',(0.413385826771653,0.263652801551955,0.345904529596733));
#1118=CARTESIAN_POINT('',(0.413385826771653,0.346248893661703,0.36138859778864));
#1119=CARTESIAN_POINT('',(0.413385826771653,0.354330708661418,0.354330708661417));
#1120=CARTESIAN_POINT('Origin',(0.413385826771653,0.354330708661418,-0.137795275590551));
#1121=CARTESIAN_POINT('',(0.413385826771653,0.639763779527559,0.354330708661417));
#1122=CARTESIAN_POINT('Origin',(0.177165354330709,0.119977735516121,0.238858317800037));
#1123=CARTESIAN_POINT('',(0.383858267716535,0.105469270378607,0.316250286630003));
#1124=CARTESIAN_POINT('Origin',(0.383858267716535,0.119977735516121,0.238858317800037));
#1125=CARTESIAN_POINT('',(0.177165354330709,0.105469270378607,0.316250286630003));
#1126=CARTESIAN_POINT('Origin',(0.383858267716535,1.74838271594513E-16,
0.246062992125984));
#1127=CARTESIAN_POINT('',(0.383858267716535,0.846456692913386,0.354330708661417));
#1128=CARTESIAN_POINT('',(0.383858267716535,0.354330708661418,0.354330708661417));
#1129=CARTESIAN_POINT('',(0.383858267716535,0.846456692913386,0.137795275590551));
#1130=CARTESIAN_POINT('',(0.383858267716535,0.846456692913386,0.354330708661417));
#1131=CARTESIAN_POINT('',(0.383858267716535,-0.846456692913386,0.137795275590551));
#1132=CARTESIAN_POINT('',(0.383858267716535,2.1448183317699E-16,0.137795275590551));
#1133=CARTESIAN_POINT('',(0.383858267716535,-0.846456692913386,0.137795275590551));
#1134=CARTESIAN_POINT('',(0.383858267716535,0.15748031496063,0.255905511811024));
#1135=CARTESIAN_POINT('Origin',(0.393700787401574,0.846456692913386,0.354330708661417));
#1136=CARTESIAN_POINT('',(0.531496062992126,0.354330708661418,0.354330708661417));
#1137=CARTESIAN_POINT('',(0.393700787401574,0.354330708661418,0.354330708661417));
#1138=CARTESIAN_POINT('',(0.531496062992126,0.846456692913386,0.354330708661417));
#1139=CARTESIAN_POINT('',(0.531496062992126,0.846456692913386,0.354330708661417));
#1140=CARTESIAN_POINT('',(0.393700787401574,0.846456692913386,0.354330708661417));
#1141=CARTESIAN_POINT('Origin',(0.295275590551181,0.31496062992126,0.255905511811024));
#1142=CARTESIAN_POINT('Origin',(0.393700787401574,0.354330708661418,-0.137795275590551));
#1143=CARTESIAN_POINT('',(0.531496062992126,0.263652801551955,0.345904529596733));
#1144=CARTESIAN_POINT('',(0.393700787401575,0.263652801551955,0.345904529596733));
#1145=CARTESIAN_POINT('Origin',(0.531496062992126,0.354330708661418,-0.137795275590551));
#1146=CARTESIAN_POINT('Origin',(0.393700787401575,0.263652801551955,0.345904529596733));
#1147=CARTESIAN_POINT('',(0.531496062992126,-0.846456692913386,0.137795275590551));
#1148=CARTESIAN_POINT('',(-0.393700787401574,-0.846456692913386,0.137795275590551));
#1149=CARTESIAN_POINT('',(0.531496062992126,0.263652801551955,0.345904529596733));
#1150=CARTESIAN_POINT('Origin',(0.393700787401575,8.74191357972564E-17,
-0.19706655461604));
#1151=CARTESIAN_POINT('',(0.393700787401575,0.271365020372357,0.));
#1152=CARTESIAN_POINT('',(0.393700787401575,-0.846456692913386,0.));
#1153=CARTESIAN_POINT('',(0.393700787401575,-0.846456692913386,0.));
#1154=CARTESIAN_POINT('',(0.393700787401575,0.191808880917094,-0.137795275590551));
#1155=CARTESIAN_POINT('',(0.393700787401575,0.194778232192372,-0.132652208316251));
#1156=CARTESIAN_POINT('',(0.393700787401575,0.273069794789256,-0.278543307086614));
#1157=CARTESIAN_POINT('',(0.393700787401575,0.180665379140175,-0.118494164338693));
#1158=CARTESIAN_POINT('',(0.393700787401574,0.435591622533579,-0.278543307086614));
#1159=CARTESIAN_POINT('',(0.393700787401575,0.136534897394628,-0.278543307086614));
#1160=CARTESIAN_POINT('',(0.393700787401574,0.516852536405741,-0.137795275590551));
#1161=CARTESIAN_POINT('',(0.393700787401574,0.398782904081225,-0.342297877607589));
#1162=CARTESIAN_POINT('',(0.393700787401574,0.437296396950477,0.));
#1163=CARTESIAN_POINT('',(0.393700787401574,0.465078577692741,-0.048120148590661));
#1164=CARTESIAN_POINT('',(0.393700787401574,0.846456692913386,0.));
#1165=CARTESIAN_POINT('',(0.393700787401574,0.437296396950477,0.));
#1166=CARTESIAN_POINT('',(0.393700787401574,0.846456692913386,-0.320866141732284));
#1167=CARTESIAN_POINT('',(0.393700787401574,0.846456692913386,-0.0985332773080202));
#1168=CARTESIAN_POINT('',(0.393700787401575,-0.159274084787674,-0.320866141732283));
#1169=CARTESIAN_POINT('',(0.393700787401574,0.846456692913386,-0.320866141732284));
#1170=CARTESIAN_POINT('',(0.393700787401575,-0.179299169866713,-0.394133109232081));
#1171=CARTESIAN_POINT('Origin',(0.393700787401575,-0.159274084787674,-0.360236220472441));
#1172=CARTESIAN_POINT('',(0.393700787401575,-0.489572123003733,-0.21083480335064));
#1173=CARTESIAN_POINT('Origin',(0.393700787401574,0.516852536405741,-0.137795275590551));
#1174=CARTESIAN_POINT('',(0.539370078740157,0.516852536405741,-0.137795275590551));
#1175=CARTESIAN_POINT('',(0.393700787401574,0.516852536405741,-0.137795275590551));
#1176=CARTESIAN_POINT('',(0.539370078740157,0.437296396950478,0.));
#1177=CARTESIAN_POINT('',(0.539370078740157,0.435591622533579,0.00295275590551175));
#1178=CARTESIAN_POINT('',(0.393700787401574,0.437296396950478,0.));
#1179=CARTESIAN_POINT('Origin',(0.393700787401574,0.43559162253358,-0.278543307086614));
#1180=CARTESIAN_POINT('',(0.539370078740157,0.43559162253358,-0.278543307086614));
#1181=CARTESIAN_POINT('',(0.383858267716535,0.435591622533579,-0.278543307086614));
#1182=CARTESIAN_POINT('',(0.539370078740157,0.516852536405741,-0.137795275590551));
#1183=CARTESIAN_POINT('Origin',(0.393700787401575,0.273069794789256,-0.278543307086614));
#1184=CARTESIAN_POINT('',(0.539370078740157,0.273069794789256,-0.278543307086614));
#1185=CARTESIAN_POINT('',(0.393700787401575,0.273069794789256,-0.278543307086614));
#1186=CARTESIAN_POINT('',(0.539370078740157,0.43559162253358,-0.278543307086614));
#1187=CARTESIAN_POINT('Origin',(0.393700787401575,0.191808880917094,-0.137795275590551));
#1188=CARTESIAN_POINT('',(0.539370078740157,0.191808880917094,-0.137795275590551));
#1189=CARTESIAN_POINT('',(0.393700787401575,0.191808880917094,-0.137795275590551));
#1190=CARTESIAN_POINT('',(0.539370078740157,0.273069794789256,-0.278543307086614));
#1191=CARTESIAN_POINT('Origin',(0.393700787401575,0.271365020372357,0.));
#1192=CARTESIAN_POINT('',(0.539370078740157,0.271365020372357,0.));
#1193=CARTESIAN_POINT('',(0.393700787401575,0.271365020372357,-3.41480999208033E-19));
#1194=CARTESIAN_POINT('',(0.539370078740157,0.191808880917094,-0.137795275590551));
#1195=CARTESIAN_POINT('Origin',(0.393700787401575,-0.159274084787674,-0.360236220472441));
#1196=CARTESIAN_POINT('',(0.196850393700787,-0.159274084787674,-0.320866141732283));
#1197=CARTESIAN_POINT('',(0.196850393700787,-0.179299169866713,-0.394133109232081));
#1198=CARTESIAN_POINT('Origin',(0.196850393700787,-0.159274084787674,-0.360236220472441));
#1199=CARTESIAN_POINT('',(0.383858267716535,-0.179299169866713,-0.394133109232081));
#1200=CARTESIAN_POINT('',(0.393700787401575,-0.159274084787673,-0.320866141732283));
#1201=CARTESIAN_POINT('Origin',(0.196850393700787,0.271568481984092,-0.475393700787401));
#1202=CARTESIAN_POINT('',(0.196850393700787,0.846456692913386,-0.320866141732284));
#1203=CARTESIAN_POINT('',(0.196850393700787,-0.303319728945203,-0.320866141732283));
#1204=CARTESIAN_POINT('',(0.196850393700787,0.846456692913386,-0.62992125984252));
#1205=CARTESIAN_POINT('',(0.196850393700787,0.846456692913386,0.));
#1206=CARTESIAN_POINT('',(0.196850393700787,0.354330708661418,-0.62992125984252));
#1207=CARTESIAN_POINT('',(0.196850393700787,0.846456692913386,-0.62992125984252));
#1208=CARTESIAN_POINT('',(0.196850393700787,0.104017145173422,-0.561506385086054));
#1209=CARTESIAN_POINT('Origin',(0.196850393700787,0.354330708661418,-0.137795275590551));
#1210=CARTESIAN_POINT('',(0.196850393700787,0.104017145173422,-0.561506385086054));
#1211=CARTESIAN_POINT('Origin',(0.393700787401575,-0.303319728945203,-0.320866141732283));
#1212=CARTESIAN_POINT('',(0.388779527559055,0.846456692913386,-0.320866141732284));
#1213=CARTESIAN_POINT('Origin',(0.759055118110236,0.543747436426928,-0.285433070866142));
#1214=CARTESIAN_POINT('',(0.551181102362205,0.543747436426928,-0.285433070866142));
#1215=CARTESIAN_POINT('',(0.551181102362205,0.543747436426928,0.00984251968503938));
#1216=CARTESIAN_POINT('',(0.551181102362205,0.543747436426928,-0.211614173228346));
#1217=CARTESIAN_POINT('',(0.759055118110236,0.543747436426928,0.00984251968503938));
#1218=CARTESIAN_POINT('',(0.551181102362204,0.543747436426928,0.00984251968503938));
#1219=CARTESIAN_POINT('',(0.759055118110236,0.543747436426928,-0.285433070866142));
#1220=CARTESIAN_POINT('',(0.759055118110236,0.543747436426928,-0.211614173228346));
#1221=CARTESIAN_POINT('',(0.551181102362204,0.543747436426928,-0.285433070866142));
#1222=CARTESIAN_POINT('Origin',(0.551181102362205,0.354330708661418,-0.137795275590551));
#1223=CARTESIAN_POINT('Origin',(0.551181102362205,0.354330708661418,-0.137795275590551));
#1224=CARTESIAN_POINT('Origin',(0.759055118110236,0.354330708661418,-0.137795275590551));
#1225=CARTESIAN_POINT('Origin',(0.539370078740157,0.354330708661418,-0.139271653543307));
#1226=CARTESIAN_POINT('',(0.539370078740158,-0.846456692913386,0.));
#1227=CARTESIAN_POINT('',(0.539370078740157,0.354330708661418,-0.0590551181102362));
#1228=CARTESIAN_POINT('Origin',(0.539370078740157,0.354330708661418,-0.137795275590551));
#1229=CARTESIAN_POINT('Origin',(-1.42235958076146,0.354330708661417,-0.137795275590551));
#1230=CARTESIAN_POINT('',(0.955905511811023,0.354330708661418,-0.0590551181102362));
#1231=CARTESIAN_POINT('Origin',(0.955905511811023,0.354330708661418,-0.137795275590551));
#1232=CARTESIAN_POINT('',(-1.42235958076146,0.354330708661417,-0.0590551181102362));
#1233=CARTESIAN_POINT('Origin',(0.759055118110236,0.354330708661418,-0.137795275590551));
#1234=CARTESIAN_POINT('',(0.955905511811023,0.354330708661418,0.0196850393700787));
#1235=CARTESIAN_POINT('Origin',(0.955905511811023,0.354330708661418,-0.137795275590551));
#1236=CARTESIAN_POINT('',(0.759055118110236,0.354330708661418,0.0196850393700787));
#1237=CARTESIAN_POINT('',(0.759055118110236,0.354330708661418,0.0196850393700787));
#1238=CARTESIAN_POINT('Origin',(0.759055118110236,0.354330708661418,-0.137795275590551));
#1239=CARTESIAN_POINT('Origin',(0.955905511811023,0.354330708661418,-0.137795275590551));
#1240=CARTESIAN_POINT('Origin',(0.759055118110236,0.354330708661418,-0.137795275590551));
#1241=CARTESIAN_POINT('Origin',(0.393700787401574,0.846456692913386,0.));
#1242=CARTESIAN_POINT('',(-0.393700787401575,0.846456692913386,0.));
#1243=CARTESIAN_POINT('',(0.393700787401574,0.846456692913386,0.));
#1244=CARTESIAN_POINT('',(-0.393700787401575,0.846456692913386,0.137795275590551));
#1245=CARTESIAN_POINT('',(-0.393700787401575,0.846456692913386,0.));
#1246=CARTESIAN_POINT('',(0.393700787401574,0.846456692913386,0.137795275590551));
#1247=CARTESIAN_POINT('',(0.531496062992126,0.846456692913386,-0.62992125984252));
#1248=CARTESIAN_POINT('',(0.531496062992126,0.846456692913386,-0.137795275590551));
#1249=CARTESIAN_POINT('',(0.393700787401574,0.846456692913386,-0.62992125984252));
#1250=CARTESIAN_POINT('Origin',(0.393700787401575,-0.846456692913386,0.));
#1251=CARTESIAN_POINT('',(0.531496062992126,0.104017145173422,-0.561506385086054));
#1252=CARTESIAN_POINT('',(0.393700787401575,0.104017145173422,-0.561506385086054));
#1253=CARTESIAN_POINT('',(0.531496062992126,-0.846456692913386,0.));
#1254=CARTESIAN_POINT('',(0.531496062992126,-0.846456692913386,0.));
#1255=CARTESIAN_POINT('',(-0.393700787401574,-0.846456692913386,0.));
#1256=CARTESIAN_POINT('Origin',(-4.37095678986282E-17,1.74838271594513E-16,
0.));
#1257=CARTESIAN_POINT('',(-0.393700787401574,-0.846456692913386,0.));
#1258=CARTESIAN_POINT('',(-0.393700787401574,-0.846456692913386,0.));
#1259=CARTESIAN_POINT('',(-0.393700787401575,0.846456692913386,0.));
#1260=CARTESIAN_POINT('',(-0.354330708661417,0.31496062992126,0.));
#1261=CARTESIAN_POINT('Origin',(-0.295275590551181,0.31496062992126,0.));
#1262=CARTESIAN_POINT('',(0.236220472440945,0.31496062992126,0.));
#1263=CARTESIAN_POINT('Origin',(0.295275590551181,0.31496062992126,0.));
#1264=CARTESIAN_POINT('',(0.236220472440945,-0.31496062992126,0.));
#1265=CARTESIAN_POINT('Origin',(0.295275590551181,-0.31496062992126,0.));
#1266=CARTESIAN_POINT('',(-0.354330708661417,-0.31496062992126,0.));
#1267=CARTESIAN_POINT('Origin',(-0.295275590551181,-0.31496062992126,0.));
#1268=CARTESIAN_POINT('Origin',(0.531496062992126,0.354330708661418,-0.137795275590551));
#1269=CARTESIAN_POINT('',(0.551181102362205,0.354330708661418,0.330954724409449));
#1270=CARTESIAN_POINT('Origin',(0.551181102362205,0.354330708661418,-0.137795275590551));
#1271=CARTESIAN_POINT('',(0.531496062992126,0.354330708661418,0.330954724409449));
#1272=CARTESIAN_POINT('',(0.531496062992126,0.354330708661418,0.330954724409449));
#1273=CARTESIAN_POINT('Origin',(0.531496062992126,0.354330708661418,-0.137795275590551));
#1274=CARTESIAN_POINT('Origin',(0.551181102362205,0.354330708661418,-0.137795275590551));
#1275=CARTESIAN_POINT('Origin',(0.393700787401574,0.354330708661418,-0.62992125984252));
#1276=CARTESIAN_POINT('',(0.531496062992126,0.354330708661418,-0.62992125984252));
#1277=CARTESIAN_POINT('',(0.531496062992126,0.354330708661418,-0.62992125984252));
#1278=CARTESIAN_POINT('',(0.393700787401574,0.354330708661418,-0.62992125984252));
#1279=CARTESIAN_POINT('Origin',(0.393700787401574,0.354330708661418,-0.137795275590551));
#1280=CARTESIAN_POINT('Origin',(0.531496062992126,0.354330708661418,-0.137795275590551));
#1281=CARTESIAN_POINT('Origin',(0.531496062992126,3.93386111087654E-16,
-0.137795275590551));
#1282=CARTESIAN_POINT('',(0.531496062992126,-0.846456692913386,0.137795275590551));
#1283=CARTESIAN_POINT('Origin',(-0.295275590551181,-0.31496062992126,-1.7343544272615));
#1284=CARTESIAN_POINT('',(-0.354330708661417,-0.31496062992126,0.137795275590551));
#1285=CARTESIAN_POINT('Origin',(-0.295275590551181,-0.31496062992126,0.137795275590551));
#1286=CARTESIAN_POINT('',(-0.354330708661417,-0.31496062992126,-1.7343544272615));
#1287=CARTESIAN_POINT('Origin',(0.295275590551181,-0.31496062992126,-1.7343544272615));
#1288=CARTESIAN_POINT('',(0.236220472440945,-0.31496062992126,0.137795275590551));
#1289=CARTESIAN_POINT('Origin',(0.295275590551181,-0.31496062992126,0.137795275590551));
#1290=CARTESIAN_POINT('',(0.236220472440945,-0.31496062992126,-1.7343544272615));
#1291=CARTESIAN_POINT('Origin',(0.295275590551181,0.31496062992126,-1.7343544272615));
#1292=CARTESIAN_POINT('',(0.236220472440945,0.31496062992126,0.137795275590551));
#1293=CARTESIAN_POINT('Origin',(0.295275590551181,0.31496062992126,0.137795275590551));
#1294=CARTESIAN_POINT('',(0.236220472440945,0.31496062992126,-1.7343544272615));
#1295=CARTESIAN_POINT('Origin',(-0.295275590551181,0.31496062992126,-1.7343544272615));
#1296=CARTESIAN_POINT('',(-0.354330708661417,0.31496062992126,0.137795275590551));
#1297=CARTESIAN_POINT('Origin',(-0.295275590551181,0.31496062992126,0.137795275590551));
#1298=CARTESIAN_POINT('',(-0.354330708661417,0.31496062992126,-1.7343544272615));
#1299=CARTESIAN_POINT('Origin',(-0.393700787401574,-0.846456692913386,0.));
#1300=CARTESIAN_POINT('',(-0.393700787401574,-0.846456692913386,0.137795275590551));
#1301=CARTESIAN_POINT('',(-0.393700787401574,-0.846456692913386,0.137795275590551));
#1302=CARTESIAN_POINT('',(-0.393700787401574,-0.846456692913386,0.));
#1303=CARTESIAN_POINT('Origin',(-0.393700787401575,0.846456692913386,0.));
#1304=CARTESIAN_POINT('',(-0.393700787401575,0.846456692913386,0.137795275590551));
#1305=CARTESIAN_POINT('Origin',(-8.74191357972564E-17,1.74838271594513E-16,
0.137795275590551));
#1306=UNCERTAINTY_MEASURE_WITH_UNIT(LENGTH_MEASURE(0.000393700787401575),
#1312,'DISTANCE_ACCURACY_VALUE',
'Maximum model space distance between geometric entities at asserted c
onnectivities');
#1307=UNCERTAINTY_MEASURE_WITH_UNIT(LENGTH_MEASURE(0.000393700787401575),
#1312,'DISTANCE_ACCURACY_VALUE',
'Maximum model space distance between geometric entities at asserted c
onnectivities');
#1308=(
GEOMETRIC_REPRESENTATION_CONTEXT(3)
GLOBAL_UNCERTAINTY_ASSIGNED_CONTEXT((#1306))
GLOBAL_UNIT_ASSIGNED_CONTEXT((#1312,#1316,#1317))
REPRESENTATION_CONTEXT('','3D')
);
#1309=(
GEOMETRIC_REPRESENTATION_CONTEXT(3)
GLOBAL_UNCERTAINTY_ASSIGNED_CONTEXT((#1307))
GLOBAL_UNIT_ASSIGNED_CONTEXT((#1312,#1316,#1317))
REPRESENTATION_CONTEXT('','3D')
);
#1310=DIMENSIONAL_EXPONENTS(1.,0.,0.,0.,0.,0.,0.);
#1311=DIMENSIONAL_EXPONENTS(0.,1.,0.,0.,0.,0.,0.);
#1312=(
CONVERSION_BASED_UNIT('inch',#1315)
LENGTH_UNIT()
NAMED_UNIT(#1310)
);
#1313=(
LENGTH_UNIT()
NAMED_UNIT(*)
SI_UNIT(.MILLI.,.METRE.)
);
#1314=(
LENGTH_UNIT()
NAMED_UNIT(*)
SI_UNIT(.CENTI.,.METRE.)
);
#1315=LENGTH_MEASURE_WITH_UNIT(LENGTH_MEASURE(25.4),#1313);
#1316=(
NAMED_UNIT(*)
PLANE_ANGLE_UNIT()
SI_UNIT($,.RADIAN.)
);
#1317=(
NAMED_UNIT(*)
SI_UNIT($,.STERADIAN.)
SOLID_ANGLE_UNIT()
);
#1318=SHAPE_DEFINITION_REPRESENTATION(#1319,#1320);
#1319=PRODUCT_DEFINITION_SHAPE('',$,#1322);
#1320=SHAPE_REPRESENTATION('',(#796),#1308);
#1321=PRODUCT_DEFINITION_CONTEXT('part definition',#1326,'design');
#1322=PRODUCT_DEFINITION('CarriagePivotMount','CarriagePivotMount',#1323,
#1321);
#1323=PRODUCT_DEFINITION_FORMATION('',$,#1328);
#1324=PRODUCT_RELATED_PRODUCT_CATEGORY('CarriagePivotMount',
'CarriagePivotMount',(#1328));
#1325=APPLICATION_PROTOCOL_DEFINITION('international standard',
'automotive_design',2009,#1326);
#1326=APPLICATION_CONTEXT(
'Core Data for Automotive Mechanical Design Process');
#1327=PRODUCT_CONTEXT('part definition',#1326,'mechanical');
#1328=PRODUCT('CarriagePivotMount','CarriagePivotMount',$,(#1327));
#1329=PRESENTATION_STYLE_ASSIGNMENT((#1330));
#1330=SURFACE_STYLE_USAGE(.BOTH.,#1333);
#1331=SURFACE_STYLE_RENDERING_WITH_PROPERTIES($,#1337,(#1332));
#1332=SURFACE_STYLE_TRANSPARENT(0.);
#1333=SURFACE_SIDE_STYLE('',(#1334,#1331));
#1334=SURFACE_STYLE_FILL_AREA(#1335);
#1335=FILL_AREA_STYLE('',(#1336));
#1336=FILL_AREA_STYLE_COLOUR('',#1337);
#1337=COLOUR_RGB('',0.92156862745098,0.92156862745098,0.92156862745098);
ENDSEC;
END-ISO-10303-21;
