ISO-10303-21;
HEADER;
/* Generated by software containing ST-Developer
 * from STEP Tools, Inc. (www.steptools.com) 
 */

FILE_DESCRIPTION(
/* description */ (''),
/* implementation_level */ '2;1');

FILE_NAME(
/* name */ 'CarriagePivotMount_MIR.stp',
/* time_stamp */ '2026-04-28T22:10:06-04:00',
/* author */ ('gaoet'),
/* organization */ (''),
/* preprocessor_version */ 'ST-DEVELOPER v20.1',
/* originating_system */ 'Autodesk Inventor 2026',
/* authorisation */ '');

FILE_SCHEMA (('AUTOMOTIVE_DESIGN { 1 0 10303 214 3 1 1 }'));
ENDSEC;

DATA;
#10=MECHANICAL_DESIGN_GEOMETRIC_PRESENTATION_REPRESENTATION('',(#733,#734,
#735,#736,#737,#738,#739,#740,#741,#742,#743,#744,#745,#746,#747,#748,#749,
#750,#751,#752,#753,#754,#755,#756,#757,#758,#759,#760,#761,#762,#763,#764,
#765,#766,#767,#768,#769,#770,#771,#772,#773,#774),#1350);
#11=SHAPE_REPRESENTATION_RELATIONSHIP('SRR','None',#1361,#12);
#12=ADVANCED_BREP_SHAPE_REPRESENTATION('',(#13),#1349);
#13=MANIFOLD_SOLID_BREP('Solid1',#816);
#14=FACE_BOUND('',#116,.T.);
#15=FACE_BOUND('',#120,.T.);
#16=FACE_BOUND('',#122,.T.);
#17=FACE_BOUND('',#126,.T.);
#18=FACE_BOUND('',#127,.T.);
#19=FACE_BOUND('',#128,.T.);
#20=FACE_BOUND('',#129,.T.);
#21=FACE_BOUND('',#132,.T.);
#22=FACE_BOUND('',#136,.T.);
#23=FACE_BOUND('',#144,.T.);
#24=FACE_BOUND('',#145,.T.);
#25=FACE_BOUND('',#146,.T.);
#26=FACE_BOUND('',#147,.T.);
#27=PLANE('',#847);
#28=PLANE('',#852);
#29=PLANE('',#853);
#30=PLANE('',#854);
#31=PLANE('',#857);
#32=PLANE('',#858);
#33=PLANE('',#860);
#34=PLANE('',#861);
#35=PLANE('',#862);
#36=PLANE('',#863);
#37=PLANE('',#864);
#38=PLANE('',#867);
#39=PLANE('',#869);
#40=PLANE('',#870);
#41=PLANE('',#874);
#42=PLANE('',#881);
#43=PLANE('',#882);
#44=PLANE('',#883);
#45=PLANE('',#884);
#46=PLANE('',#885);
#47=PLANE('',#893);
#48=PLANE('',#894);
#49=PLANE('',#897);
#50=PLANE('',#906);
#51=PLANE('',#907);
#52=PLANE('',#908);
#53=FACE_OUTER_BOUND('',#94,.T.);
#54=FACE_OUTER_BOUND('',#95,.T.);
#55=FACE_OUTER_BOUND('',#96,.T.);
#56=FACE_OUTER_BOUND('',#97,.T.);
#57=FACE_OUTER_BOUND('',#98,.T.);
#58=FACE_OUTER_BOUND('',#99,.T.);
#59=FACE_OUTER_BOUND('',#100,.T.);
#60=FACE_OUTER_BOUND('',#101,.T.);
#61=FACE_OUTER_BOUND('',#102,.T.);
#62=FACE_OUTER_BOUND('',#103,.T.);
#63=FACE_OUTER_BOUND('',#104,.T.);
#64=FACE_OUTER_BOUND('',#105,.T.);
#65=FACE_OUTER_BOUND('',#106,.T.);
#66=FACE_OUTER_BOUND('',#107,.T.);
#67=FACE_OUTER_BOUND('',#108,.T.);
#68=FACE_OUTER_BOUND('',#109,.T.);
#69=FACE_OUTER_BOUND('',#110,.T.);
#70=FACE_OUTER_BOUND('',#111,.T.);
#71=FACE_OUTER_BOUND('',#112,.T.);
#72=FACE_OUTER_BOUND('',#113,.T.);
#73=FACE_OUTER_BOUND('',#114,.T.);
#74=FACE_OUTER_BOUND('',#115,.T.);
#75=FACE_OUTER_BOUND('',#117,.T.);
#76=FACE_OUTER_BOUND('',#118,.T.);
#77=FACE_OUTER_BOUND('',#119,.T.);
#78=FACE_OUTER_BOUND('',#121,.T.);
#79=FACE_OUTER_BOUND('',#123,.T.);
#80=FACE_OUTER_BOUND('',#124,.T.);
#81=FACE_OUTER_BOUND('',#125,.T.);
#82=FACE_OUTER_BOUND('',#130,.T.);
#83=FACE_OUTER_BOUND('',#131,.T.);
#84=FACE_OUTER_BOUND('',#133,.T.);
#85=FACE_OUTER_BOUND('',#134,.T.);
#86=FACE_OUTER_BOUND('',#135,.T.);
#87=FACE_OUTER_BOUND('',#137,.T.);
#88=FACE_OUTER_BOUND('',#138,.T.);
#89=FACE_OUTER_BOUND('',#139,.T.);
#90=FACE_OUTER_BOUND('',#140,.T.);
#91=FACE_OUTER_BOUND('',#141,.T.);
#92=FACE_OUTER_BOUND('',#142,.T.);
#93=FACE_OUTER_BOUND('',#143,.T.);
#94=EDGE_LOOP('',(#506,#507,#508,#509));
#95=EDGE_LOOP('',(#510,#511,#512,#513));
#96=EDGE_LOOP('',(#514,#515,#516,#517));
#97=EDGE_LOOP('',(#518,#519,#520,#521,#522,#523,#524,#525));
#98=EDGE_LOOP('',(#526,#527,#528,#529));
#99=EDGE_LOOP('',(#530,#531,#532,#533,#534,#535,#536,#537,#538));
#100=EDGE_LOOP('',(#539,#540,#541,#542,#543,#544));
#101=EDGE_LOOP('',(#545,#546,#547,#548));
#102=EDGE_LOOP('',(#549,#550,#551,#552));
#103=EDGE_LOOP('',(#553,#554,#555,#556,#557,#558));
#104=EDGE_LOOP('',(#559,#560,#561,#562,#563,#564,#565,#566,#567,#568,#569));
#105=EDGE_LOOP('',(#570,#571,#572,#573));
#106=EDGE_LOOP('',(#574,#575,#576,#577));
#107=EDGE_LOOP('',(#578,#579,#580,#581));
#108=EDGE_LOOP('',(#582,#583,#584,#585));
#109=EDGE_LOOP('',(#586,#587,#588,#589));
#110=EDGE_LOOP('',(#590,#591,#592,#593));
#111=EDGE_LOOP('',(#594,#595,#596,#597,#598,#599));
#112=EDGE_LOOP('',(#600,#601,#602,#603));
#113=EDGE_LOOP('',(#604,#605,#606,#607));
#114=EDGE_LOOP('',(#608,#609,#610,#611));
#115=EDGE_LOOP('',(#612,#613,#614,#615,#616,#617));
#116=EDGE_LOOP('',(#618));
#117=EDGE_LOOP('',(#619,#620,#621,#622));
#118=EDGE_LOOP('',(#623,#624,#625,#626));
#119=EDGE_LOOP('',(#627));
#120=EDGE_LOOP('',(#628));
#121=EDGE_LOOP('',(#629,#630));
#122=EDGE_LOOP('',(#631));
#123=EDGE_LOOP('',(#632,#633,#634,#635,#636,#637,#638,#639,#640,#641));
#124=EDGE_LOOP('',(#642,#643,#644,#645,#646,#647));
#125=EDGE_LOOP('',(#648,#649,#650,#651,#652,#653,#654,#655));
#126=EDGE_LOOP('',(#656));
#127=EDGE_LOOP('',(#657));
#128=EDGE_LOOP('',(#658));
#129=EDGE_LOOP('',(#659));
#130=EDGE_LOOP('',(#660,#661,#662,#663));
#131=EDGE_LOOP('',(#664));
#132=EDGE_LOOP('',(#665,#666));
#133=EDGE_LOOP('',(#667,#668,#669,#670));
#134=EDGE_LOOP('',(#671,#672,#673,#674));
#135=EDGE_LOOP('',(#675,#676,#677,#678,#679,#680,#681,#682));
#136=EDGE_LOOP('',(#683));
#137=EDGE_LOOP('',(#684,#685,#686,#687));
#138=EDGE_LOOP('',(#688,#689,#690,#691));
#139=EDGE_LOOP('',(#692,#693,#694,#695));
#140=EDGE_LOOP('',(#696,#697,#698,#699));
#141=EDGE_LOOP('',(#700,#701,#702,#703,#704,#705));
#142=EDGE_LOOP('',(#706,#707,#708,#709));
#143=EDGE_LOOP('',(#710,#711,#712,#713));
#144=EDGE_LOOP('',(#714));
#145=EDGE_LOOP('',(#715));
#146=EDGE_LOOP('',(#716));
#147=EDGE_LOOP('',(#717));
#148=LINE('',#1135,#224);
#149=LINE('',#1138,#225);
#150=LINE('',#1143,#226);
#151=LINE('',#1150,#227);
#152=LINE('',#1153,#228);
#153=LINE('',#1156,#229);
#154=LINE('',#1160,#230);
#155=LINE('',#1162,#231);
#156=LINE('',#1165,#232);
#157=LINE('',#1168,#233);
#158=LINE('',#1170,#234);
#159=LINE('',#1172,#235);
#160=LINE('',#1174,#236);
#161=LINE('',#1175,#237);
#162=LINE('',#1178,#238);
#163=LINE('',#1180,#239);
#164=LINE('',#1181,#240);
#165=LINE('',#1186,#241);
#166=LINE('',#1189,#242);
#167=LINE('',#1190,#243);
#168=LINE('',#1194,#244);
#169=LINE('',#1196,#245);
#170=LINE('',#1200,#246);
#171=LINE('',#1202,#247);
#172=LINE('',#1204,#248);
#173=LINE('',#1206,#249);
#174=LINE('',#1208,#250);
#175=LINE('',#1210,#251);
#176=LINE('',#1212,#252);
#177=LINE('',#1213,#253);
#178=LINE('',#1216,#254);
#179=LINE('',#1218,#255);
#180=LINE('',#1219,#256);
#181=LINE('',#1222,#257);
#182=LINE('',#1223,#258);
#183=LINE('',#1226,#259);
#184=LINE('',#1227,#260);
#185=LINE('',#1230,#261);
#186=LINE('',#1231,#262);
#187=LINE('',#1234,#263);
#188=LINE('',#1235,#264);
#189=LINE('',#1240,#265);
#190=LINE('',#1241,#266);
#191=LINE('',#1244,#267);
#192=LINE('',#1248,#268);
#193=LINE('',#1250,#269);
#194=LINE('',#1251,#270);
#195=LINE('',#1253,#271);
#196=LINE('',#1257,#272);
#197=LINE('',#1259,#273);
#198=LINE('',#1261,#274);
#199=LINE('',#1262,#275);
#200=LINE('',#1267,#276);
#201=LINE('',#1273,#277);
#202=LINE('',#1278,#278);
#203=LINE('',#1284,#279);
#204=LINE('',#1286,#280);
#205=LINE('',#1287,#281);
#206=LINE('',#1289,#282);
#207=LINE('',#1290,#283);
#208=LINE('',#1293,#284);
#209=LINE('',#1295,#285);
#210=LINE('',#1296,#286);
#211=LINE('',#1299,#287);
#212=LINE('',#1300,#288);
#213=LINE('',#1313,#289);
#214=LINE('',#1318,#290);
#215=LINE('',#1319,#291);
#216=LINE('',#1323,#292);
#217=LINE('',#1327,#293);
#218=LINE('',#1331,#294);
#219=LINE('',#1335,#295);
#220=LINE('',#1339,#296);
#221=LINE('',#1342,#297);
#222=LINE('',#1343,#298);
#223=LINE('',#1345,#299);
#224=VECTOR('',#915,0.078740157480315);
#225=VECTOR('',#918,0.078740157480315);
#226=VECTOR('',#923,0.393700787401575);
#227=VECTOR('',#930,0.393700787401575);
#228=VECTOR('',#933,0.393700787401575);
#229=VECTOR('',#936,0.393700787401575);
#230=VECTOR('',#939,0.393700787401575);
#231=VECTOR('',#942,0.393700787401575);
#232=VECTOR('',#945,0.078740157480315);
#233=VECTOR('',#950,0.393700787401575);
#234=VECTOR('',#951,0.393700787401575);
#235=VECTOR('',#952,0.393700787401575);
#236=VECTOR('',#953,0.393700787401575);
#237=VECTOR('',#954,0.393700787401575);
#238=VECTOR('',#957,0.393700787401575);
#239=VECTOR('',#958,0.393700787401575);
#240=VECTOR('',#959,0.393700787401575);
#241=VECTOR('',#966,0.393700787401575);
#242=VECTOR('',#969,0.393700787401575);
#243=VECTOR('',#970,0.393700787401575);
#244=VECTOR('',#973,0.393700787401575);
#245=VECTOR('',#974,0.393700787401575);
#246=VECTOR('',#977,0.393700787401575);
#247=VECTOR('',#978,0.393700787401575);
#248=VECTOR('',#979,0.393700787401575);
#249=VECTOR('',#980,0.393700787401575);
#250=VECTOR('',#981,0.393700787401575);
#251=VECTOR('',#982,0.393700787401575);
#252=VECTOR('',#983,0.393700787401575);
#253=VECTOR('',#984,0.393700787401575);
#254=VECTOR('',#987,0.393700787401575);
#255=VECTOR('',#988,0.393700787401575);
#256=VECTOR('',#989,0.393700787401575);
#257=VECTOR('',#992,0.393700787401575);
#258=VECTOR('',#993,0.393700787401575);
#259=VECTOR('',#996,0.393700787401575);
#260=VECTOR('',#997,0.393700787401575);
#261=VECTOR('',#1000,0.393700787401575);
#262=VECTOR('',#1001,0.393700787401575);
#263=VECTOR('',#1004,0.393700787401575);
#264=VECTOR('',#1005,0.393700787401575);
#265=VECTOR('',#1010,0.393700787401575);
#266=VECTOR('',#1011,0.393700787401575);
#267=VECTOR('',#1014,0.393700787401575);
#268=VECTOR('',#1017,0.393700787401575);
#269=VECTOR('',#1018,0.393700787401575);
#270=VECTOR('',#1019,0.393700787401575);
#271=VECTOR('',#1022,0.393700787401575);
#272=VECTOR('',#1025,0.393700787401575);
#273=VECTOR('',#1026,0.393700787401575);
#274=VECTOR('',#1027,0.393700787401575);
#275=VECTOR('',#1028,0.393700787401575);
#276=VECTOR('',#1037,0.393700787401575);
#277=VECTOR('',#1044,0.078740157480315);
#278=VECTOR('',#1049,0.15748031496063);
#279=VECTOR('',#1058,0.393700787401575);
#280=VECTOR('',#1059,0.393700787401575);
#281=VECTOR('',#1060,0.393700787401575);
#282=VECTOR('',#1061,0.393700787401575);
#283=VECTOR('',#1062,0.393700787401575);
#284=VECTOR('',#1065,0.393700787401575);
#285=VECTOR('',#1066,0.393700787401575);
#286=VECTOR('',#1067,0.393700787401575);
#287=VECTOR('',#1070,0.393700787401575);
#288=VECTOR('',#1071,0.393700787401575);
#289=VECTOR('',#1084,0.46875);
#290=VECTOR('',#1091,0.393700787401575);
#291=VECTOR('',#1092,0.393700787401575);
#292=VECTOR('',#1099,0.393700787401575);
#293=VECTOR('',#1104,0.0590551181102362);
#294=VECTOR('',#1109,0.0590551181102362);
#295=VECTOR('',#1114,0.0590551181102362);
#296=VECTOR('',#1119,0.0590551181102362);
#297=VECTOR('',#1122,0.393700787401575);
#298=VECTOR('',#1123,0.393700787401575);
#299=VECTOR('',#1126,0.393700787401575);
#300=CIRCLE('',#839,0.078740157480315);
#301=CIRCLE('',#840,0.078740157480315);
#302=CIRCLE('',#842,0.078740157480315);
#303=CIRCLE('',#843,0.078740157480315);
#304=CIRCLE('',#845,0.078740157480315);
#305=CIRCLE('',#846,0.078740157480315);
#306=CIRCLE('',#848,0.492125984251968);
#307=CIRCLE('',#849,0.078740157480315);
#308=CIRCLE('',#851,0.078740157480315);
#309=CIRCLE('',#856,0.492125984251968);
#310=CIRCLE('',#859,0.0393700787401575);
#311=CIRCLE('',#866,0.0393700787401575);
#312=CIRCLE('',#868,0.492125984251968);
#313=CIRCLE('',#872,0.240157480314961);
#314=CIRCLE('',#873,0.240157480314961);
#315=CIRCLE('',#875,0.078740157480315);
#316=CIRCLE('',#877,0.078740157480315);
#317=CIRCLE('',#879,0.15748031496063);
#318=CIRCLE('',#880,0.15748031496063);
#319=CIRCLE('',#886,0.0590551181102362);
#320=CIRCLE('',#887,0.0590551181102362);
#321=CIRCLE('',#888,0.0590551181102362);
#322=CIRCLE('',#889,0.0590551181102362);
#323=CIRCLE('',#891,0.46875);
#324=CIRCLE('',#892,0.46875);
#325=CIRCLE('',#896,0.492125984251968);
#326=CIRCLE('',#899,0.0590551181102362);
#327=CIRCLE('',#901,0.0590551181102362);
#328=CIRCLE('',#903,0.0590551181102362);
#329=CIRCLE('',#905,0.0590551181102362);
#330=VERTEX_POINT('',#1131);
#331=VERTEX_POINT('',#1132);
#332=VERTEX_POINT('',#1134);
#333=VERTEX_POINT('',#1136);
#334=VERTEX_POINT('',#1140);
#335=VERTEX_POINT('',#1142);
#336=VERTEX_POINT('',#1146);
#337=VERTEX_POINT('',#1147);
#338=VERTEX_POINT('',#1149);
#339=VERTEX_POINT('',#1151);
#340=VERTEX_POINT('',#1155);
#341=VERTEX_POINT('',#1157);
#342=VERTEX_POINT('',#1159);
#343=VERTEX_POINT('',#1164);
#344=VERTEX_POINT('',#1169);
#345=VERTEX_POINT('',#1171);
#346=VERTEX_POINT('',#1173);
#347=VERTEX_POINT('',#1177);
#348=VERTEX_POINT('',#1179);
#349=VERTEX_POINT('',#1184);
#350=VERTEX_POINT('',#1188);
#351=VERTEX_POINT('',#1192);
#352=VERTEX_POINT('',#1193);
#353=VERTEX_POINT('',#1195);
#354=VERTEX_POINT('',#1197);
#355=VERTEX_POINT('',#1199);
#356=VERTEX_POINT('',#1201);
#357=VERTEX_POINT('',#1203);
#358=VERTEX_POINT('',#1205);
#359=VERTEX_POINT('',#1207);
#360=VERTEX_POINT('',#1209);
#361=VERTEX_POINT('',#1211);
#362=VERTEX_POINT('',#1215);
#363=VERTEX_POINT('',#1217);
#364=VERTEX_POINT('',#1221);
#365=VERTEX_POINT('',#1225);
#366=VERTEX_POINT('',#1229);
#367=VERTEX_POINT('',#1233);
#368=VERTEX_POINT('',#1237);
#369=VERTEX_POINT('',#1238);
#370=VERTEX_POINT('',#1243);
#371=VERTEX_POINT('',#1245);
#372=VERTEX_POINT('',#1247);
#373=VERTEX_POINT('',#1249);
#374=VERTEX_POINT('',#1255);
#375=VERTEX_POINT('',#1256);
#376=VERTEX_POINT('',#1258);
#377=VERTEX_POINT('',#1260);
#378=VERTEX_POINT('',#1268);
#379=VERTEX_POINT('',#1271);
#380=VERTEX_POINT('',#1275);
#381=VERTEX_POINT('',#1277);
#382=VERTEX_POINT('',#1283);
#383=VERTEX_POINT('',#1285);
#384=VERTEX_POINT('',#1288);
#385=VERTEX_POINT('',#1292);
#386=VERTEX_POINT('',#1294);
#387=VERTEX_POINT('',#1298);
#388=VERTEX_POINT('',#1301);
#389=VERTEX_POINT('',#1303);
#390=VERTEX_POINT('',#1305);
#391=VERTEX_POINT('',#1307);
#392=VERTEX_POINT('',#1310);
#393=VERTEX_POINT('',#1312);
#394=VERTEX_POINT('',#1317);
#395=VERTEX_POINT('',#1325);
#396=VERTEX_POINT('',#1329);
#397=VERTEX_POINT('',#1333);
#398=VERTEX_POINT('',#1337);
#399=VERTEX_POINT('',#1341);
#400=EDGE_CURVE('',#330,#331,#300,.T.);
#401=EDGE_CURVE('',#332,#331,#148,.T.);
#402=EDGE_CURVE('',#332,#333,#301,.F.);
#403=EDGE_CURVE('',#330,#333,#149,.T.);
#404=EDGE_CURVE('',#334,#333,#302,.T.);
#405=EDGE_CURVE('',#335,#334,#150,.T.);
#406=EDGE_CURVE('',#330,#335,#303,.F.);
#407=EDGE_CURVE('',#336,#337,#304,.T.);
#408=EDGE_CURVE('',#338,#337,#151,.T.);
#409=EDGE_CURVE('',#339,#338,#305,.T.);
#410=EDGE_CURVE('',#336,#339,#152,.T.);
#411=EDGE_CURVE('',#335,#340,#153,.T.);
#412=EDGE_CURVE('',#340,#341,#306,.T.);
#413=EDGE_CURVE('',#341,#342,#154,.T.);
#414=EDGE_CURVE('',#342,#337,#307,.F.);
#415=EDGE_CURVE('',#331,#336,#155,.T.);
#416=EDGE_CURVE('',#343,#342,#156,.T.);
#417=EDGE_CURVE('',#338,#343,#308,.T.);
#418=EDGE_CURVE('',#339,#332,#157,.T.);
#419=EDGE_CURVE('',#344,#343,#158,.T.);
#420=EDGE_CURVE('',#344,#345,#159,.T.);
#421=EDGE_CURVE('',#346,#345,#160,.T.);
#422=EDGE_CURVE('',#334,#346,#161,.T.);
#423=EDGE_CURVE('',#346,#347,#162,.T.);
#424=EDGE_CURVE('',#347,#348,#163,.T.);
#425=EDGE_CURVE('',#348,#340,#164,.T.);
#426=EDGE_CURVE('',#348,#349,#309,.T.);
#427=EDGE_CURVE('',#341,#349,#165,.T.);
#428=EDGE_CURVE('',#349,#350,#166,.T.);
#429=EDGE_CURVE('',#344,#350,#167,.T.);
#430=EDGE_CURVE('',#351,#352,#168,.T.);
#431=EDGE_CURVE('',#352,#353,#169,.T.);
#432=EDGE_CURVE('',#353,#354,#310,.T.);
#433=EDGE_CURVE('',#354,#355,#170,.T.);
#434=EDGE_CURVE('',#355,#356,#171,.T.);
#435=EDGE_CURVE('',#356,#357,#172,.T.);
#436=EDGE_CURVE('',#357,#358,#173,.T.);
#437=EDGE_CURVE('',#358,#359,#174,.T.);
#438=EDGE_CURVE('',#359,#360,#175,.T.);
#439=EDGE_CURVE('',#360,#361,#176,.T.);
#440=EDGE_CURVE('',#361,#351,#177,.T.);
#441=EDGE_CURVE('',#357,#362,#178,.T.);
#442=EDGE_CURVE('',#363,#362,#179,.T.);
#443=EDGE_CURVE('',#358,#363,#180,.T.);
#444=EDGE_CURVE('',#364,#363,#181,.T.);
#445=EDGE_CURVE('',#359,#364,#182,.T.);
#446=EDGE_CURVE('',#365,#364,#183,.T.);
#447=EDGE_CURVE('',#360,#365,#184,.T.);
#448=EDGE_CURVE('',#366,#365,#185,.T.);
#449=EDGE_CURVE('',#361,#366,#186,.T.);
#450=EDGE_CURVE('',#367,#366,#187,.T.);
#451=EDGE_CURVE('',#351,#367,#188,.T.);
#452=EDGE_CURVE('',#368,#369,#311,.T.);
#453=EDGE_CURVE('',#354,#368,#189,.T.);
#454=EDGE_CURVE('',#353,#369,#190,.T.);
#455=EDGE_CURVE('',#370,#369,#191,.T.);
#456=EDGE_CURVE('',#371,#370,#312,.T.);
#457=EDGE_CURVE('',#372,#371,#192,.T.);
#458=EDGE_CURVE('',#373,#372,#193,.T.);
#459=EDGE_CURVE('',#368,#373,#194,.T.);
#460=EDGE_CURVE('',#373,#355,#195,.T.);
#461=EDGE_CURVE('',#374,#375,#196,.T.);
#462=EDGE_CURVE('',#374,#376,#197,.T.);
#463=EDGE_CURVE('',#376,#377,#198,.T.);
#464=EDGE_CURVE('',#377,#375,#199,.T.);
#465=EDGE_CURVE('',#377,#376,#313,.T.);
#466=EDGE_CURVE('',#374,#375,#314,.T.);
#467=EDGE_CURVE('',#362,#367,#200,.T.);
#468=EDGE_CURVE('',#378,#378,#315,.T.);
#469=EDGE_CURVE('',#379,#379,#316,.T.);
#470=EDGE_CURVE('',#379,#378,#201,.T.);
#471=EDGE_CURVE('',#380,#380,#317,.T.);
#472=EDGE_CURVE('',#380,#381,#202,.T.);
#473=EDGE_CURVE('',#381,#381,#318,.T.);
#474=EDGE_CURVE('',#356,#382,#203,.T.);
#475=EDGE_CURVE('',#372,#383,#204,.T.);
#476=EDGE_CURVE('',#383,#347,#205,.T.);
#477=EDGE_CURVE('',#345,#384,#206,.T.);
#478=EDGE_CURVE('',#382,#384,#207,.T.);
#479=EDGE_CURVE('',#352,#385,#208,.T.);
#480=EDGE_CURVE('',#385,#386,#209,.T.);
#481=EDGE_CURVE('',#370,#386,#210,.T.);
#482=EDGE_CURVE('',#382,#387,#211,.T.);
#483=EDGE_CURVE('',#387,#352,#212,.T.);
#484=EDGE_CURVE('',#388,#388,#319,.T.);
#485=EDGE_CURVE('',#389,#389,#320,.T.);
#486=EDGE_CURVE('',#390,#390,#321,.T.);
#487=EDGE_CURVE('',#391,#391,#322,.T.);
#488=EDGE_CURVE('',#392,#392,#323,.T.);
#489=EDGE_CURVE('',#392,#393,#213,.T.);
#490=EDGE_CURVE('',#393,#393,#324,.T.);
#491=EDGE_CURVE('',#371,#394,#214,.T.);
#492=EDGE_CURVE('',#394,#383,#215,.T.);
#493=EDGE_CURVE('',#386,#394,#325,.T.);
#494=EDGE_CURVE('',#350,#385,#216,.T.);
#495=EDGE_CURVE('',#395,#395,#326,.T.);
#496=EDGE_CURVE('',#395,#391,#217,.T.);
#497=EDGE_CURVE('',#396,#396,#327,.T.);
#498=EDGE_CURVE('',#396,#390,#218,.T.);
#499=EDGE_CURVE('',#397,#397,#328,.T.);
#500=EDGE_CURVE('',#397,#389,#219,.T.);
#501=EDGE_CURVE('',#398,#398,#329,.T.);
#502=EDGE_CURVE('',#398,#388,#220,.T.);
#503=EDGE_CURVE('',#387,#399,#221,.T.);
#504=EDGE_CURVE('',#399,#344,#222,.T.);
#505=EDGE_CURVE('',#384,#399,#223,.T.);
#506=ORIENTED_EDGE('',*,*,#400,.T.);
#507=ORIENTED_EDGE('',*,*,#401,.F.);
#508=ORIENTED_EDGE('',*,*,#402,.T.);
#509=ORIENTED_EDGE('',*,*,#403,.F.);
#510=ORIENTED_EDGE('',*,*,#403,.T.);
#511=ORIENTED_EDGE('',*,*,#404,.F.);
#512=ORIENTED_EDGE('',*,*,#405,.F.);
#513=ORIENTED_EDGE('',*,*,#406,.F.);
#514=ORIENTED_EDGE('',*,*,#407,.T.);
#515=ORIENTED_EDGE('',*,*,#408,.F.);
#516=ORIENTED_EDGE('',*,*,#409,.F.);
#517=ORIENTED_EDGE('',*,*,#410,.F.);
#518=ORIENTED_EDGE('',*,*,#400,.F.);
#519=ORIENTED_EDGE('',*,*,#406,.T.);
#520=ORIENTED_EDGE('',*,*,#411,.T.);
#521=ORIENTED_EDGE('',*,*,#412,.T.);
#522=ORIENTED_EDGE('',*,*,#413,.T.);
#523=ORIENTED_EDGE('',*,*,#414,.T.);
#524=ORIENTED_EDGE('',*,*,#407,.F.);
#525=ORIENTED_EDGE('',*,*,#415,.F.);
#526=ORIENTED_EDGE('',*,*,#408,.T.);
#527=ORIENTED_EDGE('',*,*,#414,.F.);
#528=ORIENTED_EDGE('',*,*,#416,.F.);
#529=ORIENTED_EDGE('',*,*,#417,.F.);
#530=ORIENTED_EDGE('',*,*,#402,.F.);
#531=ORIENTED_EDGE('',*,*,#418,.F.);
#532=ORIENTED_EDGE('',*,*,#409,.T.);
#533=ORIENTED_EDGE('',*,*,#417,.T.);
#534=ORIENTED_EDGE('',*,*,#419,.F.);
#535=ORIENTED_EDGE('',*,*,#420,.T.);
#536=ORIENTED_EDGE('',*,*,#421,.F.);
#537=ORIENTED_EDGE('',*,*,#422,.F.);
#538=ORIENTED_EDGE('',*,*,#404,.T.);
#539=ORIENTED_EDGE('',*,*,#405,.T.);
#540=ORIENTED_EDGE('',*,*,#422,.T.);
#541=ORIENTED_EDGE('',*,*,#423,.T.);
#542=ORIENTED_EDGE('',*,*,#424,.T.);
#543=ORIENTED_EDGE('',*,*,#425,.T.);
#544=ORIENTED_EDGE('',*,*,#411,.F.);
#545=ORIENTED_EDGE('',*,*,#401,.T.);
#546=ORIENTED_EDGE('',*,*,#415,.T.);
#547=ORIENTED_EDGE('',*,*,#410,.T.);
#548=ORIENTED_EDGE('',*,*,#418,.T.);
#549=ORIENTED_EDGE('',*,*,#412,.F.);
#550=ORIENTED_EDGE('',*,*,#425,.F.);
#551=ORIENTED_EDGE('',*,*,#426,.T.);
#552=ORIENTED_EDGE('',*,*,#427,.F.);
#553=ORIENTED_EDGE('',*,*,#416,.T.);
#554=ORIENTED_EDGE('',*,*,#413,.F.);
#555=ORIENTED_EDGE('',*,*,#427,.T.);
#556=ORIENTED_EDGE('',*,*,#428,.T.);
#557=ORIENTED_EDGE('',*,*,#429,.F.);
#558=ORIENTED_EDGE('',*,*,#419,.T.);
#559=ORIENTED_EDGE('',*,*,#430,.T.);
#560=ORIENTED_EDGE('',*,*,#431,.T.);
#561=ORIENTED_EDGE('',*,*,#432,.T.);
#562=ORIENTED_EDGE('',*,*,#433,.T.);
#563=ORIENTED_EDGE('',*,*,#434,.T.);
#564=ORIENTED_EDGE('',*,*,#435,.T.);
#565=ORIENTED_EDGE('',*,*,#436,.T.);
#566=ORIENTED_EDGE('',*,*,#437,.T.);
#567=ORIENTED_EDGE('',*,*,#438,.T.);
#568=ORIENTED_EDGE('',*,*,#439,.T.);
#569=ORIENTED_EDGE('',*,*,#440,.T.);
#570=ORIENTED_EDGE('',*,*,#436,.F.);
#571=ORIENTED_EDGE('',*,*,#441,.T.);
#572=ORIENTED_EDGE('',*,*,#442,.F.);
#573=ORIENTED_EDGE('',*,*,#443,.F.);
#574=ORIENTED_EDGE('',*,*,#437,.F.);
#575=ORIENTED_EDGE('',*,*,#443,.T.);
#576=ORIENTED_EDGE('',*,*,#444,.F.);
#577=ORIENTED_EDGE('',*,*,#445,.F.);
#578=ORIENTED_EDGE('',*,*,#438,.F.);
#579=ORIENTED_EDGE('',*,*,#445,.T.);
#580=ORIENTED_EDGE('',*,*,#446,.F.);
#581=ORIENTED_EDGE('',*,*,#447,.F.);
#582=ORIENTED_EDGE('',*,*,#439,.F.);
#583=ORIENTED_EDGE('',*,*,#447,.T.);
#584=ORIENTED_EDGE('',*,*,#448,.F.);
#585=ORIENTED_EDGE('',*,*,#449,.F.);
#586=ORIENTED_EDGE('',*,*,#440,.F.);
#587=ORIENTED_EDGE('',*,*,#449,.T.);
#588=ORIENTED_EDGE('',*,*,#450,.F.);
#589=ORIENTED_EDGE('',*,*,#451,.F.);
#590=ORIENTED_EDGE('',*,*,#452,.F.);
#591=ORIENTED_EDGE('',*,*,#453,.F.);
#592=ORIENTED_EDGE('',*,*,#432,.F.);
#593=ORIENTED_EDGE('',*,*,#454,.T.);
#594=ORIENTED_EDGE('',*,*,#452,.T.);
#595=ORIENTED_EDGE('',*,*,#455,.F.);
#596=ORIENTED_EDGE('',*,*,#456,.F.);
#597=ORIENTED_EDGE('',*,*,#457,.F.);
#598=ORIENTED_EDGE('',*,*,#458,.F.);
#599=ORIENTED_EDGE('',*,*,#459,.F.);
#600=ORIENTED_EDGE('',*,*,#453,.T.);
#601=ORIENTED_EDGE('',*,*,#459,.T.);
#602=ORIENTED_EDGE('',*,*,#460,.T.);
#603=ORIENTED_EDGE('',*,*,#433,.F.);
#604=ORIENTED_EDGE('',*,*,#461,.F.);
#605=ORIENTED_EDGE('',*,*,#462,.T.);
#606=ORIENTED_EDGE('',*,*,#463,.T.);
#607=ORIENTED_EDGE('',*,*,#464,.T.);
#608=ORIENTED_EDGE('',*,*,#464,.F.);
#609=ORIENTED_EDGE('',*,*,#465,.T.);
#610=ORIENTED_EDGE('',*,*,#462,.F.);
#611=ORIENTED_EDGE('',*,*,#466,.T.);
#612=ORIENTED_EDGE('',*,*,#446,.T.);
#613=ORIENTED_EDGE('',*,*,#444,.T.);
#614=ORIENTED_EDGE('',*,*,#442,.T.);
#615=ORIENTED_EDGE('',*,*,#467,.T.);
#616=ORIENTED_EDGE('',*,*,#450,.T.);
#617=ORIENTED_EDGE('',*,*,#448,.T.);
#618=ORIENTED_EDGE('',*,*,#468,.T.);
#619=ORIENTED_EDGE('',*,*,#469,.T.);
#620=ORIENTED_EDGE('',*,*,#470,.T.);
#621=ORIENTED_EDGE('',*,*,#468,.F.);
#622=ORIENTED_EDGE('',*,*,#470,.F.);
#623=ORIENTED_EDGE('',*,*,#471,.T.);
#624=ORIENTED_EDGE('',*,*,#472,.T.);
#625=ORIENTED_EDGE('',*,*,#473,.T.);
#626=ORIENTED_EDGE('',*,*,#472,.F.);
#627=ORIENTED_EDGE('',*,*,#471,.F.);
#628=ORIENTED_EDGE('',*,*,#469,.F.);
#629=ORIENTED_EDGE('',*,*,#463,.F.);
#630=ORIENTED_EDGE('',*,*,#465,.F.);
#631=ORIENTED_EDGE('',*,*,#473,.F.);
#632=ORIENTED_EDGE('',*,*,#474,.F.);
#633=ORIENTED_EDGE('',*,*,#434,.F.);
#634=ORIENTED_EDGE('',*,*,#460,.F.);
#635=ORIENTED_EDGE('',*,*,#458,.T.);
#636=ORIENTED_EDGE('',*,*,#475,.T.);
#637=ORIENTED_EDGE('',*,*,#476,.T.);
#638=ORIENTED_EDGE('',*,*,#423,.F.);
#639=ORIENTED_EDGE('',*,*,#421,.T.);
#640=ORIENTED_EDGE('',*,*,#477,.T.);
#641=ORIENTED_EDGE('',*,*,#478,.F.);
#642=ORIENTED_EDGE('',*,*,#454,.F.);
#643=ORIENTED_EDGE('',*,*,#431,.F.);
#644=ORIENTED_EDGE('',*,*,#479,.T.);
#645=ORIENTED_EDGE('',*,*,#480,.T.);
#646=ORIENTED_EDGE('',*,*,#481,.F.);
#647=ORIENTED_EDGE('',*,*,#455,.T.);
#648=ORIENTED_EDGE('',*,*,#441,.F.);
#649=ORIENTED_EDGE('',*,*,#435,.F.);
#650=ORIENTED_EDGE('',*,*,#474,.T.);
#651=ORIENTED_EDGE('',*,*,#482,.T.);
#652=ORIENTED_EDGE('',*,*,#483,.T.);
#653=ORIENTED_EDGE('',*,*,#430,.F.);
#654=ORIENTED_EDGE('',*,*,#451,.T.);
#655=ORIENTED_EDGE('',*,*,#467,.F.);
#656=ORIENTED_EDGE('',*,*,#484,.F.);
#657=ORIENTED_EDGE('',*,*,#485,.F.);
#658=ORIENTED_EDGE('',*,*,#486,.F.);
#659=ORIENTED_EDGE('',*,*,#487,.F.);
#660=ORIENTED_EDGE('',*,*,#488,.T.);
#661=ORIENTED_EDGE('',*,*,#489,.T.);
#662=ORIENTED_EDGE('',*,*,#490,.T.);
#663=ORIENTED_EDGE('',*,*,#489,.F.);
#664=ORIENTED_EDGE('',*,*,#488,.F.);
#665=ORIENTED_EDGE('',*,*,#466,.F.);
#666=ORIENTED_EDGE('',*,*,#461,.T.);
#667=ORIENTED_EDGE('',*,*,#475,.F.);
#668=ORIENTED_EDGE('',*,*,#457,.T.);
#669=ORIENTED_EDGE('',*,*,#491,.T.);
#670=ORIENTED_EDGE('',*,*,#492,.T.);
#671=ORIENTED_EDGE('',*,*,#491,.F.);
#672=ORIENTED_EDGE('',*,*,#456,.T.);
#673=ORIENTED_EDGE('',*,*,#481,.T.);
#674=ORIENTED_EDGE('',*,*,#493,.T.);
#675=ORIENTED_EDGE('',*,*,#426,.F.);
#676=ORIENTED_EDGE('',*,*,#424,.F.);
#677=ORIENTED_EDGE('',*,*,#476,.F.);
#678=ORIENTED_EDGE('',*,*,#492,.F.);
#679=ORIENTED_EDGE('',*,*,#493,.F.);
#680=ORIENTED_EDGE('',*,*,#480,.F.);
#681=ORIENTED_EDGE('',*,*,#494,.F.);
#682=ORIENTED_EDGE('',*,*,#428,.F.);
#683=ORIENTED_EDGE('',*,*,#490,.F.);
#684=ORIENTED_EDGE('',*,*,#495,.T.);
#685=ORIENTED_EDGE('',*,*,#496,.T.);
#686=ORIENTED_EDGE('',*,*,#487,.T.);
#687=ORIENTED_EDGE('',*,*,#496,.F.);
#688=ORIENTED_EDGE('',*,*,#497,.T.);
#689=ORIENTED_EDGE('',*,*,#498,.T.);
#690=ORIENTED_EDGE('',*,*,#486,.T.);
#691=ORIENTED_EDGE('',*,*,#498,.F.);
#692=ORIENTED_EDGE('',*,*,#499,.T.);
#693=ORIENTED_EDGE('',*,*,#500,.T.);
#694=ORIENTED_EDGE('',*,*,#485,.T.);
#695=ORIENTED_EDGE('',*,*,#500,.F.);
#696=ORIENTED_EDGE('',*,*,#501,.T.);
#697=ORIENTED_EDGE('',*,*,#502,.T.);
#698=ORIENTED_EDGE('',*,*,#484,.T.);
#699=ORIENTED_EDGE('',*,*,#502,.F.);
#700=ORIENTED_EDGE('',*,*,#483,.F.);
#701=ORIENTED_EDGE('',*,*,#503,.T.);
#702=ORIENTED_EDGE('',*,*,#504,.T.);
#703=ORIENTED_EDGE('',*,*,#429,.T.);
#704=ORIENTED_EDGE('',*,*,#494,.T.);
#705=ORIENTED_EDGE('',*,*,#479,.F.);
#706=ORIENTED_EDGE('',*,*,#482,.F.);
#707=ORIENTED_EDGE('',*,*,#478,.T.);
#708=ORIENTED_EDGE('',*,*,#505,.T.);
#709=ORIENTED_EDGE('',*,*,#503,.F.);
#710=ORIENTED_EDGE('',*,*,#420,.F.);
#711=ORIENTED_EDGE('',*,*,#504,.F.);
#712=ORIENTED_EDGE('',*,*,#505,.F.);
#713=ORIENTED_EDGE('',*,*,#477,.F.);
#714=ORIENTED_EDGE('',*,*,#495,.F.);
#715=ORIENTED_EDGE('',*,*,#497,.F.);
#716=ORIENTED_EDGE('',*,*,#499,.F.);
#717=ORIENTED_EDGE('',*,*,#501,.F.);
#718=CYLINDRICAL_SURFACE('',#838,0.078740157480315);
#719=CYLINDRICAL_SURFACE('',#841,0.078740157480315);
#720=CYLINDRICAL_SURFACE('',#844,0.078740157480315);
#721=CYLINDRICAL_SURFACE('',#850,0.078740157480315);
#722=CYLINDRICAL_SURFACE('',#855,0.492125984251968);
#723=CYLINDRICAL_SURFACE('',#865,0.0393700787401575);
#724=CYLINDRICAL_SURFACE('',#871,0.240157480314961);
#725=CYLINDRICAL_SURFACE('',#876,0.078740157480315);
#726=CYLINDRICAL_SURFACE('',#878,0.15748031496063);
#727=CYLINDRICAL_SURFACE('',#890,0.46875);
#728=CYLINDRICAL_SURFACE('',#895,0.492125984251968);
#729=CYLINDRICAL_SURFACE('',#898,0.0590551181102362);
#730=CYLINDRICAL_SURFACE('',#900,0.0590551181102362);
#731=CYLINDRICAL_SURFACE('',#902,0.0590551181102362);
#732=CYLINDRICAL_SURFACE('',#904,0.0590551181102362);
#733=STYLED_ITEM('',(#1370),#775);
#734=STYLED_ITEM('',(#1370),#776);
#735=STYLED_ITEM('',(#1370),#777);
#736=STYLED_ITEM('',(#1370),#778);
#737=STYLED_ITEM('',(#1370),#779);
#738=STYLED_ITEM('',(#1370),#780);
#739=STYLED_ITEM('',(#1370),#781);
#740=STYLED_ITEM('',(#1370),#782);
#741=STYLED_ITEM('',(#1370),#783);
#742=STYLED_ITEM('',(#1370),#784);
#743=STYLED_ITEM('',(#1370),#785);
#744=STYLED_ITEM('',(#1370),#786);
#745=STYLED_ITEM('',(#1370),#787);
#746=STYLED_ITEM('',(#1370),#788);
#747=STYLED_ITEM('',(#1370),#789);
#748=STYLED_ITEM('',(#1370),#790);
#749=STYLED_ITEM('',(#1370),#791);
#750=STYLED_ITEM('',(#1370),#792);
#751=STYLED_ITEM('',(#1370),#793);
#752=STYLED_ITEM('',(#1370),#794);
#753=STYLED_ITEM('',(#1370),#795);
#754=STYLED_ITEM('',(#1370),#796);
#755=STYLED_ITEM('',(#1370),#797);
#756=STYLED_ITEM('',(#1370),#798);
#757=STYLED_ITEM('',(#1370),#799);
#758=STYLED_ITEM('',(#1370),#800);
#759=STYLED_ITEM('',(#1370),#801);
#760=STYLED_ITEM('',(#1370),#802);
#761=STYLED_ITEM('',(#1370),#803);
#762=STYLED_ITEM('',(#1370),#804);
#763=STYLED_ITEM('',(#1370),#805);
#764=STYLED_ITEM('',(#1370),#806);
#765=STYLED_ITEM('',(#1370),#807);
#766=STYLED_ITEM('',(#1370),#808);
#767=STYLED_ITEM('',(#1370),#809);
#768=STYLED_ITEM('',(#1370),#810);
#769=STYLED_ITEM('',(#1370),#811);
#770=STYLED_ITEM('',(#1370),#812);
#771=STYLED_ITEM('',(#1370),#813);
#772=STYLED_ITEM('',(#1370),#814);
#773=STYLED_ITEM('',(#1370),#815);
#774=STYLED_ITEM('',(#1370),#13);
#775=ADVANCED_FACE('',(#53),#718,.F.);
#776=ADVANCED_FACE('',(#54),#719,.T.);
#777=ADVANCED_FACE('',(#55),#720,.F.);
#778=ADVANCED_FACE('',(#56),#27,.T.);
#779=ADVANCED_FACE('',(#57),#721,.T.);
#780=ADVANCED_FACE('',(#58),#28,.F.);
#781=ADVANCED_FACE('',(#59),#29,.F.);
#782=ADVANCED_FACE('',(#60),#30,.F.);
#783=ADVANCED_FACE('',(#61),#722,.T.);
#784=ADVANCED_FACE('',(#62),#31,.F.);
#785=ADVANCED_FACE('',(#63),#32,.F.);
#786=ADVANCED_FACE('',(#64),#33,.T.);
#787=ADVANCED_FACE('',(#65),#34,.T.);
#788=ADVANCED_FACE('',(#66),#35,.T.);
#789=ADVANCED_FACE('',(#67),#36,.T.);
#790=ADVANCED_FACE('',(#68),#37,.T.);
#791=ADVANCED_FACE('',(#69),#723,.T.);
#792=ADVANCED_FACE('',(#70),#38,.F.);
#793=ADVANCED_FACE('',(#71),#39,.F.);
#794=ADVANCED_FACE('',(#72),#40,.T.);
#795=ADVANCED_FACE('',(#73),#724,.T.);
#796=ADVANCED_FACE('',(#74,#14),#41,.F.);
#797=ADVANCED_FACE('',(#75),#725,.F.);
#798=ADVANCED_FACE('',(#76),#726,.T.);
#799=ADVANCED_FACE('',(#77,#15),#42,.F.);
#800=ADVANCED_FACE('',(#78,#16),#43,.F.);
#801=ADVANCED_FACE('',(#79),#44,.F.);
#802=ADVANCED_FACE('',(#80),#45,.F.);
#803=ADVANCED_FACE('',(#81,#17,#18,#19,#20),#46,.T.);
#804=ADVANCED_FACE('',(#82),#727,.T.);
#805=ADVANCED_FACE('',(#83,#21),#47,.F.);
#806=ADVANCED_FACE('',(#84),#48,.F.);
#807=ADVANCED_FACE('',(#85),#728,.T.);
#808=ADVANCED_FACE('',(#86,#22),#49,.F.);
#809=ADVANCED_FACE('',(#87),#729,.F.);
#810=ADVANCED_FACE('',(#88),#730,.F.);
#811=ADVANCED_FACE('',(#89),#731,.F.);
#812=ADVANCED_FACE('',(#90),#732,.F.);
#813=ADVANCED_FACE('',(#91),#50,.F.);
#814=ADVANCED_FACE('',(#92),#51,.F.);
#815=ADVANCED_FACE('',(#93,#23,#24,#25,#26),#52,.F.);
#816=CLOSED_SHELL('',(#775,#776,#777,#778,#779,#780,#781,#782,#783,#784,
#785,#786,#787,#788,#789,#790,#791,#792,#793,#794,#795,#796,#797,#798,#799,
#800,#801,#802,#803,#804,#805,#806,#807,#808,#809,#810,#811,#812,#813,#814,
#815));
#817=DERIVED_UNIT_ELEMENT(#819,1.);
#818=DERIVED_UNIT_ELEMENT(#1355,-3.);
#819=(
CONVERSION_BASED_UNIT('gram',#821)
MASS_UNIT()
NAMED_UNIT(#1352)
);
#820=(
MASS_UNIT()
NAMED_UNIT(*)
SI_UNIT(.KILO.,.GRAM.)
);
#821=MASS_MEASURE_WITH_UNIT(MASS_MEASURE(0.001),#820);
#822=DERIVED_UNIT((#817,#818));
#823=MEASURE_REPRESENTATION_ITEM('density measure',
POSITIVE_RATIO_MEASURE(1.06),#822);
#824=PROPERTY_DEFINITION_REPRESENTATION(#829,#826);
#825=PROPERTY_DEFINITION_REPRESENTATION(#830,#827);
#826=REPRESENTATION('material name',(#828),#1349);
#827=REPRESENTATION('density',(#823),#1349);
#828=DESCRIPTIVE_REPRESENTATION_ITEM('ABS Plastic','ABS Plastic');
#829=PROPERTY_DEFINITION('material property','material name',#1363);
#830=PROPERTY_DEFINITION('material property','density of part',#1363);
#831=DATE_TIME_ROLE('creation_date');
#832=APPLIED_DATE_AND_TIME_ASSIGNMENT(#833,#831,(#1363));
#833=DATE_AND_TIME(#834,#835);
#834=CALENDAR_DATE(2026,23,3);
#835=LOCAL_TIME(0,0,0.,#836);
#836=COORDINATED_UNIVERSAL_TIME_OFFSET(0,0,.BEHIND.);
#837=AXIS2_PLACEMENT_3D('',#1129,#909,#910);
#838=AXIS2_PLACEMENT_3D('',#1130,#911,#912);
#839=AXIS2_PLACEMENT_3D('',#1133,#913,#914);
#840=AXIS2_PLACEMENT_3D('',#1137,#916,#917);
#841=AXIS2_PLACEMENT_3D('',#1139,#919,#920);
#842=AXIS2_PLACEMENT_3D('',#1141,#921,#922);
#843=AXIS2_PLACEMENT_3D('',#1144,#924,#925);
#844=AXIS2_PLACEMENT_3D('',#1145,#926,#927);
#845=AXIS2_PLACEMENT_3D('',#1148,#928,#929);
#846=AXIS2_PLACEMENT_3D('',#1152,#931,#932);
#847=AXIS2_PLACEMENT_3D('',#1154,#934,#935);
#848=AXIS2_PLACEMENT_3D('',#1158,#937,#938);
#849=AXIS2_PLACEMENT_3D('',#1161,#940,#941);
#850=AXIS2_PLACEMENT_3D('',#1163,#943,#944);
#851=AXIS2_PLACEMENT_3D('',#1166,#946,#947);
#852=AXIS2_PLACEMENT_3D('',#1167,#948,#949);
#853=AXIS2_PLACEMENT_3D('',#1176,#955,#956);
#854=AXIS2_PLACEMENT_3D('',#1182,#960,#961);
#855=AXIS2_PLACEMENT_3D('',#1183,#962,#963);
#856=AXIS2_PLACEMENT_3D('',#1185,#964,#965);
#857=AXIS2_PLACEMENT_3D('',#1187,#967,#968);
#858=AXIS2_PLACEMENT_3D('',#1191,#971,#972);
#859=AXIS2_PLACEMENT_3D('',#1198,#975,#976);
#860=AXIS2_PLACEMENT_3D('',#1214,#985,#986);
#861=AXIS2_PLACEMENT_3D('',#1220,#990,#991);
#862=AXIS2_PLACEMENT_3D('',#1224,#994,#995);
#863=AXIS2_PLACEMENT_3D('',#1228,#998,#999);
#864=AXIS2_PLACEMENT_3D('',#1232,#1002,#1003);
#865=AXIS2_PLACEMENT_3D('',#1236,#1006,#1007);
#866=AXIS2_PLACEMENT_3D('',#1239,#1008,#1009);
#867=AXIS2_PLACEMENT_3D('',#1242,#1012,#1013);
#868=AXIS2_PLACEMENT_3D('',#1246,#1015,#1016);
#869=AXIS2_PLACEMENT_3D('',#1252,#1020,#1021);
#870=AXIS2_PLACEMENT_3D('',#1254,#1023,#1024);
#871=AXIS2_PLACEMENT_3D('',#1263,#1029,#1030);
#872=AXIS2_PLACEMENT_3D('',#1264,#1031,#1032);
#873=AXIS2_PLACEMENT_3D('',#1265,#1033,#1034);
#874=AXIS2_PLACEMENT_3D('',#1266,#1035,#1036);
#875=AXIS2_PLACEMENT_3D('',#1269,#1038,#1039);
#876=AXIS2_PLACEMENT_3D('',#1270,#1040,#1041);
#877=AXIS2_PLACEMENT_3D('',#1272,#1042,#1043);
#878=AXIS2_PLACEMENT_3D('',#1274,#1045,#1046);
#879=AXIS2_PLACEMENT_3D('',#1276,#1047,#1048);
#880=AXIS2_PLACEMENT_3D('',#1279,#1050,#1051);
#881=AXIS2_PLACEMENT_3D('',#1280,#1052,#1053);
#882=AXIS2_PLACEMENT_3D('',#1281,#1054,#1055);
#883=AXIS2_PLACEMENT_3D('',#1282,#1056,#1057);
#884=AXIS2_PLACEMENT_3D('',#1291,#1063,#1064);
#885=AXIS2_PLACEMENT_3D('',#1297,#1068,#1069);
#886=AXIS2_PLACEMENT_3D('',#1302,#1072,#1073);
#887=AXIS2_PLACEMENT_3D('',#1304,#1074,#1075);
#888=AXIS2_PLACEMENT_3D('',#1306,#1076,#1077);
#889=AXIS2_PLACEMENT_3D('',#1308,#1078,#1079);
#890=AXIS2_PLACEMENT_3D('',#1309,#1080,#1081);
#891=AXIS2_PLACEMENT_3D('',#1311,#1082,#1083);
#892=AXIS2_PLACEMENT_3D('',#1314,#1085,#1086);
#893=AXIS2_PLACEMENT_3D('',#1315,#1087,#1088);
#894=AXIS2_PLACEMENT_3D('',#1316,#1089,#1090);
#895=AXIS2_PLACEMENT_3D('',#1320,#1093,#1094);
#896=AXIS2_PLACEMENT_3D('',#1321,#1095,#1096);
#897=AXIS2_PLACEMENT_3D('',#1322,#1097,#1098);
#898=AXIS2_PLACEMENT_3D('',#1324,#1100,#1101);
#899=AXIS2_PLACEMENT_3D('',#1326,#1102,#1103);
#900=AXIS2_PLACEMENT_3D('',#1328,#1105,#1106);
#901=AXIS2_PLACEMENT_3D('',#1330,#1107,#1108);
#902=AXIS2_PLACEMENT_3D('',#1332,#1110,#1111);
#903=AXIS2_PLACEMENT_3D('',#1334,#1112,#1113);
#904=AXIS2_PLACEMENT_3D('',#1336,#1115,#1116);
#905=AXIS2_PLACEMENT_3D('',#1338,#1117,#1118);
#906=AXIS2_PLACEMENT_3D('',#1340,#1120,#1121);
#907=AXIS2_PLACEMENT_3D('',#1344,#1124,#1125);
#908=AXIS2_PLACEMENT_3D('',#1346,#1127,#1128);
#909=DIRECTION('axis',(0.,0.,1.));
#910=DIRECTION('refdir',(1.,0.,0.));
#911=DIRECTION('center_axis',(-1.,-5.98809768404644E-16,3.32406196126647E-31));
#912=DIRECTION('ref_axis',(0.,-5.55111512312578E-16,-1.));
#913=DIRECTION('center_axis',(1.,1.77635683940025E-16,-7.88860905221012E-32));
#914=DIRECTION('ref_axis',(0.,-5.55111512312578E-16,-1.));
#915=DIRECTION('',(1.,5.98809768404644E-16,-3.32406196126647E-31));
#916=DIRECTION('center_axis',(1.,2.06553120860494E-16,0.));
#917=DIRECTION('ref_axis',(0.,-5.55111512312578E-16,-1.));
#918=DIRECTION('',(-1.,-5.98809768404644E-16,3.32406196126647E-31));
#919=DIRECTION('center_axis',(-1.,-1.77635683940025E-16,-4.95855426138921E-32));
#920=DIRECTION('ref_axis',(0.,-0.707106781186547,-0.707106781186547));
#921=DIRECTION('center_axis',(-1.,-2.06553120860494E-16,0.));
#922=DIRECTION('ref_axis',(0.,-0.707106781186547,-0.707106781186547));
#923=DIRECTION('',(-1.,-1.77635683940025E-16,-4.95855426138921E-32));
#924=DIRECTION('center_axis',(-1.,-1.77635683940025E-16,7.88860905221012E-32));
#925=DIRECTION('ref_axis',(0.,-0.707106781186547,-0.707106781186547));
#926=DIRECTION('center_axis',(1.,3.61129236941832E-16,-8.23406315799827E-18));
#927=DIRECTION('ref_axis',(3.09519844991724E-16,-0.442577856444624,0.896730082569377));
#928=DIRECTION('center_axis',(1.,1.77635683940025E-16,-7.88860905221012E-32));
#929=DIRECTION('ref_axis',(3.09519844991724E-16,-0.442577856444624,0.896730082569377));
#930=DIRECTION('',(1.,3.61129236941832E-16,-8.23406315799827E-18));
#931=DIRECTION('center_axis',(1.,2.06553120860494E-16,0.));
#932=DIRECTION('ref_axis',(3.09519844991724E-16,-0.442577856444624,0.896730082569377));
#933=DIRECTION('',(-1.,-3.61129236941832E-16,1.54074395550979E-32));
#934=DIRECTION('center_axis',(-1.,-1.77635683940025E-16,7.88860905221012E-32));
#935=DIRECTION('ref_axis',(1.77635683940025E-16,-1.,3.5527136788005E-16));
#936=DIRECTION('',(1.77635683940025E-16,-1.,3.5527136788005E-16));
#937=DIRECTION('center_axis',(-1.,-1.77635683940025E-16,7.88860905221012E-32));
#938=DIRECTION('ref_axis',(0.,0.,1.));
#939=DIRECTION('',(1.74594206495116E-16,-0.982878004140561,0.184257507246429));
#940=DIRECTION('center_axis',(-1.,-1.77635683940025E-16,7.88860905221012E-32));
#941=DIRECTION('ref_axis',(-2.77555756156289E-16,0.976282758945266,-0.216499363939527));
#942=DIRECTION('',(1.77635683940025E-16,-1.,3.5527136788005E-16));
#943=DIRECTION('center_axis',(-1.,-3.61129236941832E-16,8.23406315799827E-18));
#944=DIRECTION('ref_axis',(-2.77555756156289E-16,0.976282758945266,-0.216499363939527));
#945=DIRECTION('',(1.,3.61129236941832E-16,-8.23406315799827E-18));
#946=DIRECTION('center_axis',(-1.,-2.06553120860494E-16,0.));
#947=DIRECTION('ref_axis',(-2.77555756156289E-16,0.976282758945266,-0.216499363939527));
#948=DIRECTION('center_axis',(1.,2.06553120860494E-16,0.));
#949=DIRECTION('ref_axis',(0.,0.,-1.));
#950=DIRECTION('',(-2.06553120860494E-16,1.,-3.5527136788005E-16));
#951=DIRECTION('',(-2.03016519180367E-16,0.982878004140561,-0.184257507246429));
#952=DIRECTION('',(-2.06553120860494E-16,1.,0.));
#953=DIRECTION('',(-3.33556408127278E-31,1.61486985400023E-15,1.));
#954=DIRECTION('',(-2.06553120860494E-16,1.,-3.5527136788005E-16));
#955=DIRECTION('center_axis',(-1.12694415031573E-31,3.5527136788005E-16,
1.));
#956=DIRECTION('ref_axis',(2.06553120860494E-16,-1.,3.5527136788005E-16));
#957=DIRECTION('',(1.,3.1720657846433E-16,0.));
#958=DIRECTION('',(2.06553120860494E-16,-1.,3.5527136788005E-16));
#959=DIRECTION('',(-1.,0.,0.));
#960=DIRECTION('center_axis',(-1.12694415031573E-31,3.5527136788005E-16,
1.));
#961=DIRECTION('ref_axis',(1.,0.,1.12694415031573E-31));
#962=DIRECTION('center_axis',(-1.,-3.1720657846433E-16,0.));
#963=DIRECTION('ref_axis',(0.,0.,1.));
#964=DIRECTION('center_axis',(-1.,-2.06553120860494E-16,0.));
#965=DIRECTION('ref_axis',(0.,0.,1.));
#966=DIRECTION('',(1.,3.1720657846433E-16,0.));
#967=DIRECTION('center_axis',(-5.84476934300062E-17,0.184257507246429,0.982878004140561));
#968=DIRECTION('ref_axis',(2.03016519180367E-16,-0.982878004140561,0.184257507246429));
#969=DIRECTION('',(2.03016519180367E-16,-0.982878004140561,0.184257507246429));
#970=DIRECTION('',(1.,0.,0.));
#971=DIRECTION('center_axis',(1.,2.06553120860494E-16,0.));
#972=DIRECTION('ref_axis',(0.,0.,-1.));
#973=DIRECTION('',(2.06553120860494E-16,-1.,0.));
#974=DIRECTION('',(-1.77838307283423E-16,0.860980974494862,0.508637161007607));
#975=DIRECTION('center_axis',(1.,2.06553120860494E-16,0.));
#976=DIRECTION('ref_axis',(-1.05060592991743E-16,0.508637161007607,-0.860980974494862));
#977=DIRECTION('',(-2.06553120860494E-16,1.,6.084470756474E-16));
#978=DIRECTION('',(0.,0.,-1.));
#979=DIRECTION('',(2.06553120860494E-16,-1.,0.));
#980=DIRECTION('',(-1.03276560430247E-16,0.500000000000001,0.866025403784438));
#981=DIRECTION('',(1.03276560430247E-16,-0.499999999999999,0.866025403784439));
#982=DIRECTION('',(2.06553120860494E-16,-1.,0.));
#983=DIRECTION('',(1.03276560430247E-16,-0.5,-0.866025403784439));
#984=DIRECTION('',(-1.03276560430247E-16,0.499999999999999,-0.866025403784439));
#985=DIRECTION('center_axis',(0.,-0.866025403784438,0.500000000000001));
#986=DIRECTION('ref_axis',(1.03276560430247E-16,-0.500000000000001,-0.866025403784438));
#987=DIRECTION('',(1.,0.,0.));
#988=DIRECTION('',(1.03276560430247E-16,-0.500000000000001,-0.866025403784438));
#989=DIRECTION('',(1.,0.,0.));
#990=DIRECTION('center_axis',(0.,-0.866025403784439,-0.499999999999999));
#991=DIRECTION('ref_axis',(-1.03276560430247E-16,0.499999999999999,-0.866025403784439));
#992=DIRECTION('',(-1.03276560430247E-16,0.499999999999999,-0.866025403784439));
#993=DIRECTION('',(1.,1.50030138462859E-16,0.));
#994=DIRECTION('center_axis',(0.,0.,-1.));
#995=DIRECTION('ref_axis',(-2.06553120860494E-16,1.,0.));
#996=DIRECTION('',(-2.06553120860494E-16,1.,0.));
#997=DIRECTION('',(1.,0.,0.));
#998=DIRECTION('center_axis',(0.,0.866025403784439,-0.5));
#999=DIRECTION('ref_axis',(-1.03276560430247E-16,0.5,0.866025403784439));
#1000=DIRECTION('',(-1.03276560430247E-16,0.5,0.866025403784439));
#1001=DIRECTION('',(1.,0.,0.));
#1002=DIRECTION('center_axis',(0.,0.866025403784439,0.499999999999999));
#1003=DIRECTION('ref_axis',(1.03276560430247E-16,-0.499999999999999,0.866025403784439));
#1004=DIRECTION('',(1.03276560430247E-16,-0.499999999999999,0.866025403784439));
#1005=DIRECTION('',(1.,0.,0.));
#1006=DIRECTION('center_axis',(1.,3.1720657846433E-16,5.78824009914516E-32));
#1007=DIRECTION('ref_axis',(0.,-0.964619348368791,-0.263646567875573));
#1008=DIRECTION('center_axis',(-1.,-2.06553120860494E-16,0.));
#1009=DIRECTION('ref_axis',(0.,-0.964619348368791,-0.263646567875573));
#1010=DIRECTION('',(-1.,-3.1720657846433E-16,-5.78824009914516E-32));
#1011=DIRECTION('',(-1.,0.,0.));
#1012=DIRECTION('center_axis',(1.,2.06553120860494E-16,0.));
#1013=DIRECTION('ref_axis',(0.,0.,-1.));
#1014=DIRECTION('',(1.77838307283423E-16,-0.860980974494862,-0.508637161007607));
#1015=DIRECTION('center_axis',(1.,2.06553120860494E-16,0.));
#1016=DIRECTION('ref_axis',(0.,0.,1.));
#1017=DIRECTION('',(2.06553120860494E-16,-1.,0.));
#1018=DIRECTION('',(1.14660015293752E-31,-5.55111512312578E-16,1.));
#1019=DIRECTION('',(-2.06553120860494E-16,1.,6.08251372251626E-16));
#1020=DIRECTION('center_axis',(1.35058935646721E-31,-6.08251372251626E-16,
1.));
#1021=DIRECTION('ref_axis',(-2.06553120860494E-16,1.,6.08251372251626E-16));
#1022=DIRECTION('',(1.,2.22044604925031E-16,1.35102390529918E-31));
#1023=DIRECTION('center_axis',(-2.80359349652817E-16,1.,-7.40148683083438E-17));
#1024=DIRECTION('ref_axis',(1.52880020391669E-32,-7.40148683083438E-17,
-1.));
#1025=DIRECTION('',(1.52880020391669E-32,-7.40148683083438E-17,-1.));
#1026=DIRECTION('',(1.,2.10269512239613E-16,0.));
#1027=DIRECTION('',(1.52880020391669E-32,-7.40148683083438E-17,-1.));
#1028=DIRECTION('',(-1.,-2.10269512239613E-16,0.));
#1029=DIRECTION('center_axis',(-1.,-2.10269512239613E-16,0.));
#1030=DIRECTION('ref_axis',(2.10269512239613E-16,-1.,-1.83697019872103E-16));
#1031=DIRECTION('center_axis',(-1.,-2.06553120860494E-16,0.));
#1032=DIRECTION('ref_axis',(0.,0.,1.));
#1033=DIRECTION('center_axis',(1.,2.06553120860494E-16,0.));
#1034=DIRECTION('ref_axis',(0.,0.,1.));
#1035=DIRECTION('center_axis',(1.,2.06553120860494E-16,0.));
#1036=DIRECTION('ref_axis',(0.,0.,-1.));
#1037=DIRECTION('',(2.06553120860494E-16,-1.,0.));
#1038=DIRECTION('center_axis',(1.,2.06553120860494E-16,0.));
#1039=DIRECTION('ref_axis',(0.,0.,1.));
#1040=DIRECTION('center_axis',(-1.,-2.06553120860494E-16,0.));
#1041=DIRECTION('ref_axis',(0.,0.,1.));
#1042=DIRECTION('center_axis',(1.,2.06553120860494E-16,0.));
#1043=DIRECTION('ref_axis',(0.,0.,1.));
#1044=DIRECTION('',(-1.,-2.06553120860494E-16,0.));
#1045=DIRECTION('center_axis',(-1.,-2.22044604925031E-16,0.));
#1046=DIRECTION('ref_axis',(0.,0.,1.));
#1047=DIRECTION('center_axis',(-1.,-2.06553120860494E-16,0.));
#1048=DIRECTION('ref_axis',(0.,0.,1.));
#1049=DIRECTION('',(-1.,-2.22044604925031E-16,0.));
#1050=DIRECTION('center_axis',(1.,2.06553120860494E-16,0.));
#1051=DIRECTION('ref_axis',(0.,0.,1.));
#1052=DIRECTION('center_axis',(-1.,-2.06553120860494E-16,0.));
#1053=DIRECTION('ref_axis',(0.,0.,1.));
#1054=DIRECTION('center_axis',(-1.,-2.06553120860494E-16,0.));
#1055=DIRECTION('ref_axis',(0.,0.,1.));
#1056=DIRECTION('center_axis',(2.22044604925031E-16,-1.,0.));
#1057=DIRECTION('ref_axis',(-1.,-2.22044604925031E-16,0.));
#1058=DIRECTION('',(-1.,-2.22044604925031E-16,0.));
#1059=DIRECTION('',(1.,3.1720657846433E-16,0.));
#1060=DIRECTION('',(5.24160069914293E-31,-2.53765262771464E-15,-1.));
#1061=DIRECTION('',(-1.,-2.22044604925031E-16,0.));
#1062=DIRECTION('',(0.,0.,-1.));
#1063=DIRECTION('center_axis',(-1.61343053523034E-16,0.508637161007607,
-0.860980974494862));
#1064=DIRECTION('ref_axis',(-1.77838307283423E-16,0.860980974494862,0.508637161007607));
#1065=DIRECTION('',(1.,0.,0.));
#1066=DIRECTION('',(-1.77838307283423E-16,0.860980974494862,0.508637161007607));
#1067=DIRECTION('',(1.,3.1720657846433E-16,0.));
#1068=DIRECTION('center_axis',(0.,0.,1.));
#1069=DIRECTION('ref_axis',(1.,0.,0.));
#1070=DIRECTION('',(3.09829681290741E-16,-1.,0.));
#1071=DIRECTION('',(1.,0.,0.));
#1072=DIRECTION('center_axis',(0.,0.,1.));
#1073=DIRECTION('ref_axis',(1.,0.,0.));
#1074=DIRECTION('center_axis',(0.,0.,1.));
#1075=DIRECTION('ref_axis',(1.,0.,0.));
#1076=DIRECTION('center_axis',(0.,0.,1.));
#1077=DIRECTION('ref_axis',(1.,0.,0.));
#1078=DIRECTION('center_axis',(0.,0.,1.));
#1079=DIRECTION('ref_axis',(1.,0.,0.));
#1080=DIRECTION('center_axis',(-1.,0.,0.));
#1081=DIRECTION('ref_axis',(0.,0.,1.));
#1082=DIRECTION('center_axis',(-1.,-2.06553120860494E-16,0.));
#1083=DIRECTION('ref_axis',(0.,0.,1.));
#1084=DIRECTION('',(-1.,0.,0.));
#1085=DIRECTION('center_axis',(1.,2.06553120860494E-16,0.));
#1086=DIRECTION('ref_axis',(0.,0.,1.));
#1087=DIRECTION('center_axis',(-1.,-2.06553120860494E-16,0.));
#1088=DIRECTION('ref_axis',(0.,0.,1.));
#1089=DIRECTION('center_axis',(0.,0.,-1.));
#1090=DIRECTION('ref_axis',(-2.06553120860494E-16,1.,0.));
#1091=DIRECTION('',(1.,3.1720657846433E-16,0.));
#1092=DIRECTION('',(-2.06553120860494E-16,1.,0.));
#1093=DIRECTION('center_axis',(-1.,-3.1720657846433E-16,0.));
#1094=DIRECTION('ref_axis',(0.,0.,1.));
#1095=DIRECTION('center_axis',(-1.,-2.06553120860494E-16,0.));
#1096=DIRECTION('ref_axis',(0.,0.,1.));
#1097=DIRECTION('center_axis',(-1.,-2.06553120860494E-16,0.));
#1098=DIRECTION('ref_axis',(0.,0.,1.));
#1099=DIRECTION('',(2.62080034957147E-31,-1.26882631385732E-15,1.));
#1100=DIRECTION('center_axis',(0.,0.,1.));
#1101=DIRECTION('ref_axis',(1.,0.,0.));
#1102=DIRECTION('center_axis',(0.,0.,-1.));
#1103=DIRECTION('ref_axis',(1.,0.,0.));
#1104=DIRECTION('',(0.,0.,1.));
#1105=DIRECTION('center_axis',(0.,0.,1.));
#1106=DIRECTION('ref_axis',(1.,0.,0.));
#1107=DIRECTION('center_axis',(0.,0.,-1.));
#1108=DIRECTION('ref_axis',(1.,0.,0.));
#1109=DIRECTION('',(0.,0.,1.));
#1110=DIRECTION('center_axis',(0.,0.,1.));
#1111=DIRECTION('ref_axis',(1.,0.,0.));
#1112=DIRECTION('center_axis',(0.,0.,-1.));
#1113=DIRECTION('ref_axis',(1.,0.,0.));
#1114=DIRECTION('',(0.,0.,1.));
#1115=DIRECTION('center_axis',(0.,0.,1.));
#1116=DIRECTION('ref_axis',(1.,0.,0.));
#1117=DIRECTION('center_axis',(0.,0.,-1.));
#1118=DIRECTION('ref_axis',(1.,0.,0.));
#1119=DIRECTION('',(0.,0.,1.));
#1120=DIRECTION('center_axis',(0.,1.,0.));
#1121=DIRECTION('ref_axis',(1.,0.,0.));
#1122=DIRECTION('',(0.,0.,-1.));
#1123=DIRECTION('',(1.,0.,0.));
#1124=DIRECTION('center_axis',(1.,3.09829681290741E-16,0.));
#1125=DIRECTION('ref_axis',(3.09829681290741E-16,-1.,0.));
#1126=DIRECTION('',(3.09829681290741E-16,-1.,0.));
#1127=DIRECTION('center_axis',(0.,0.,1.));
#1128=DIRECTION('ref_axis',(1.,0.,0.));
#1129=CARTESIAN_POINT('',(0.,0.,0.));
#1130=CARTESIAN_POINT('Origin',(0.285433070866142,0.365822864427251,-0.334645669291339));
#1131=CARTESIAN_POINT('',(0.413385826771653,0.438816944024649,-0.305118110236221));
#1132=CARTESIAN_POINT('',(0.413385826771653,0.365822864427251,-0.255905511811024));
#1133=CARTESIAN_POINT('Origin',(0.413385826771653,0.365822864427251,-0.334645669291339));
#1134=CARTESIAN_POINT('',(0.383858267716535,0.365822864427251,-0.255905511811024));
#1135=CARTESIAN_POINT('',(0.285433070866142,0.365822864427251,-0.255905511811024));
#1136=CARTESIAN_POINT('',(0.383858267716535,0.438816944024649,-0.305118110236221));
#1137=CARTESIAN_POINT('Origin',(0.383858267716535,0.365822864427251,-0.334645669291339));
#1138=CARTESIAN_POINT('',(0.285433070866142,0.438816944024649,-0.30511811023622));
#1139=CARTESIAN_POINT('Origin',(0.285433070866142,0.511811023622047,-0.275590551181102));
#1140=CARTESIAN_POINT('',(0.383858267716535,0.511811023622047,-0.354330708661417));
#1141=CARTESIAN_POINT('Origin',(0.383858267716535,0.511811023622047,-0.275590551181102));
#1142=CARTESIAN_POINT('',(0.413385826771653,0.511811023622047,-0.354330708661417));
#1143=CARTESIAN_POINT('',(0.285433070866142,0.511811023622047,-0.354330708661417));
#1144=CARTESIAN_POINT('Origin',(0.413385826771653,0.511811023622047,-0.275590551181102));
#1145=CARTESIAN_POINT('Origin',(0.177165354330709,0.244977067091858,-0.334645669291338));
#1146=CARTESIAN_POINT('',(0.413385826771653,0.244977067091858,-0.255905511811024));
#1147=CARTESIAN_POINT('',(0.413385826771654,0.182477401303989,-0.286751993545688));
#1148=CARTESIAN_POINT('Origin',(0.413385826771654,0.244977067091858,-0.334645669291338));
#1149=CARTESIAN_POINT('',(0.383858267716535,0.182477401303989,-0.286751993545688));
#1150=CARTESIAN_POINT('',(0.177165354330709,0.182477401303989,-0.286751993545688));
#1151=CARTESIAN_POINT('',(0.383858267716535,0.244977067091858,-0.255905511811024));
#1152=CARTESIAN_POINT('Origin',(0.383858267716535,0.244977067091858,-0.334645669291338));
#1153=CARTESIAN_POINT('',(0.177165354330709,0.244977067091858,-0.255905511811024));
#1154=CARTESIAN_POINT('Origin',(0.413385826771653,0.433070866141732,-0.354330708661417));
#1155=CARTESIAN_POINT('',(0.413385826771653,0.354330708661418,-0.354330708661417));
#1156=CARTESIAN_POINT('',(0.413385826771653,0.639763779527559,-0.354330708661417));
#1157=CARTESIAN_POINT('',(0.413385826771653,0.263652801551955,-0.345904529596733));
#1158=CARTESIAN_POINT('Origin',(0.413385826771653,0.354330708661418,0.137795275590551));
#1159=CARTESIAN_POINT('',(0.413385826771654,0.105469270378607,-0.316250286630003));
#1160=CARTESIAN_POINT('',(0.413385826771653,0.346248893661703,-0.36138859778864));
#1161=CARTESIAN_POINT('Origin',(0.413385826771654,0.119977735516121,-0.238858317800037));
#1162=CARTESIAN_POINT('',(0.413385826771653,0.196850393700787,-0.255905511811024));
#1163=CARTESIAN_POINT('Origin',(0.177165354330709,0.119977735516121,-0.238858317800037));
#1164=CARTESIAN_POINT('',(0.383858267716535,0.105469270378607,-0.316250286630003));
#1165=CARTESIAN_POINT('',(0.177165354330709,0.105469270378607,-0.316250286630003));
#1166=CARTESIAN_POINT('Origin',(0.383858267716535,0.119977735516121,-0.238858317800037));
#1167=CARTESIAN_POINT('Origin',(0.383858267716535,1.74838271594513E-16,
-0.246062992125984));
#1168=CARTESIAN_POINT('',(0.383858267716535,0.15748031496063,-0.255905511811024));
#1169=CARTESIAN_POINT('',(0.383858267716535,-0.846456692913386,-0.137795275590551));
#1170=CARTESIAN_POINT('',(0.383858267716535,-0.846456692913386,-0.137795275590551));
#1171=CARTESIAN_POINT('',(0.383858267716535,0.846456692913386,-0.137795275590551));
#1172=CARTESIAN_POINT('',(0.383858267716535,2.1448183317699E-16,-0.137795275590551));
#1173=CARTESIAN_POINT('',(0.383858267716535,0.846456692913386,-0.354330708661417));
#1174=CARTESIAN_POINT('',(0.383858267716535,0.846456692913386,-0.354330708661417));
#1175=CARTESIAN_POINT('',(0.383858267716535,0.354330708661418,-0.354330708661417));
#1176=CARTESIAN_POINT('Origin',(0.393700787401574,0.846456692913386,-0.354330708661417));
#1177=CARTESIAN_POINT('',(0.531496062992126,0.846456692913386,-0.354330708661417));
#1178=CARTESIAN_POINT('',(0.393700787401574,0.846456692913386,-0.354330708661417));
#1179=CARTESIAN_POINT('',(0.531496062992126,0.354330708661418,-0.354330708661417));
#1180=CARTESIAN_POINT('',(0.531496062992126,0.846456692913386,-0.354330708661417));
#1181=CARTESIAN_POINT('',(0.393700787401574,0.354330708661418,-0.354330708661417));
#1182=CARTESIAN_POINT('Origin',(0.295275590551181,0.31496062992126,-0.255905511811024));
#1183=CARTESIAN_POINT('Origin',(0.393700787401574,0.354330708661418,0.137795275590551));
#1184=CARTESIAN_POINT('',(0.531496062992126,0.263652801551955,-0.345904529596733));
#1185=CARTESIAN_POINT('Origin',(0.531496062992126,0.354330708661418,0.137795275590551));
#1186=CARTESIAN_POINT('',(0.393700787401575,0.263652801551955,-0.345904529596733));
#1187=CARTESIAN_POINT('Origin',(0.393700787401575,0.263652801551955,-0.345904529596733));
#1188=CARTESIAN_POINT('',(0.531496062992126,-0.846456692913386,-0.137795275590551));
#1189=CARTESIAN_POINT('',(0.531496062992126,0.263652801551955,-0.345904529596733));
#1190=CARTESIAN_POINT('',(-0.393700787401574,-0.846456692913386,-0.137795275590551));
#1191=CARTESIAN_POINT('Origin',(0.393700787401575,8.74191357972564E-17,
0.19706655461604));
#1192=CARTESIAN_POINT('',(0.393700787401575,0.271365020372357,0.));
#1193=CARTESIAN_POINT('',(0.393700787401575,-0.846456692913386,0.));
#1194=CARTESIAN_POINT('',(0.393700787401575,-0.846456692913386,0.));
#1195=CARTESIAN_POINT('',(0.393700787401575,-0.179299169866713,0.394133109232081));
#1196=CARTESIAN_POINT('',(0.393700787401575,-0.489572123003733,0.21083480335064));
#1197=CARTESIAN_POINT('',(0.393700787401575,-0.159274084787674,0.320866141732283));
#1198=CARTESIAN_POINT('Origin',(0.393700787401575,-0.159274084787674,0.360236220472441));
#1199=CARTESIAN_POINT('',(0.393700787401574,0.846456692913386,0.320866141732284));
#1200=CARTESIAN_POINT('',(0.393700787401574,0.846456692913386,0.320866141732284));
#1201=CARTESIAN_POINT('',(0.393700787401574,0.846456692913386,0.));
#1202=CARTESIAN_POINT('',(0.393700787401574,0.846456692913386,0.0985332773080202));
#1203=CARTESIAN_POINT('',(0.393700787401574,0.437296396950477,0.));
#1204=CARTESIAN_POINT('',(0.393700787401574,0.437296396950477,0.));
#1205=CARTESIAN_POINT('',(0.393700787401574,0.516852536405741,0.137795275590551));
#1206=CARTESIAN_POINT('',(0.393700787401574,0.465078577692741,0.048120148590661));
#1207=CARTESIAN_POINT('',(0.393700787401574,0.435591622533579,0.278543307086614));
#1208=CARTESIAN_POINT('',(0.393700787401574,0.398782904081225,0.342297877607589));
#1209=CARTESIAN_POINT('',(0.393700787401575,0.273069794789256,0.278543307086614));
#1210=CARTESIAN_POINT('',(0.393700787401575,0.136534897394628,0.278543307086614));
#1211=CARTESIAN_POINT('',(0.393700787401575,0.191808880917094,0.137795275590551));
#1212=CARTESIAN_POINT('',(0.393700787401575,0.180665379140175,0.118494164338693));
#1213=CARTESIAN_POINT('',(0.393700787401575,0.194778232192372,0.132652208316251));
#1214=CARTESIAN_POINT('Origin',(0.393700787401574,0.516852536405741,0.137795275590551));
#1215=CARTESIAN_POINT('',(0.539370078740157,0.437296396950478,0.));
#1216=CARTESIAN_POINT('',(0.393700787401574,0.437296396950478,0.));
#1217=CARTESIAN_POINT('',(0.539370078740157,0.516852536405741,0.137795275590551));
#1218=CARTESIAN_POINT('',(0.539370078740157,0.435591622533579,-0.00295275590551175));
#1219=CARTESIAN_POINT('',(0.393700787401574,0.516852536405741,0.137795275590551));
#1220=CARTESIAN_POINT('Origin',(0.393700787401574,0.43559162253358,0.278543307086614));
#1221=CARTESIAN_POINT('',(0.539370078740157,0.43559162253358,0.278543307086614));
#1222=CARTESIAN_POINT('',(0.539370078740157,0.516852536405741,0.137795275590551));
#1223=CARTESIAN_POINT('',(0.383858267716535,0.435591622533579,0.278543307086614));
#1224=CARTESIAN_POINT('Origin',(0.393700787401575,0.273069794789256,0.278543307086614));
#1225=CARTESIAN_POINT('',(0.539370078740157,0.273069794789256,0.278543307086614));
#1226=CARTESIAN_POINT('',(0.539370078740157,0.43559162253358,0.278543307086614));
#1227=CARTESIAN_POINT('',(0.393700787401575,0.273069794789256,0.278543307086614));
#1228=CARTESIAN_POINT('Origin',(0.393700787401575,0.191808880917094,0.137795275590551));
#1229=CARTESIAN_POINT('',(0.539370078740157,0.191808880917094,0.137795275590551));
#1230=CARTESIAN_POINT('',(0.539370078740157,0.273069794789256,0.278543307086614));
#1231=CARTESIAN_POINT('',(0.393700787401575,0.191808880917094,0.137795275590551));
#1232=CARTESIAN_POINT('Origin',(0.393700787401575,0.271365020372357,0.));
#1233=CARTESIAN_POINT('',(0.539370078740157,0.271365020372357,0.));
#1234=CARTESIAN_POINT('',(0.539370078740157,0.191808880917094,0.137795275590551));
#1235=CARTESIAN_POINT('',(0.393700787401575,0.271365020372357,3.41480999208033E-19));
#1236=CARTESIAN_POINT('Origin',(0.393700787401575,-0.159274084787674,0.360236220472441));
#1237=CARTESIAN_POINT('',(0.196850393700787,-0.159274084787674,0.320866141732283));
#1238=CARTESIAN_POINT('',(0.196850393700787,-0.179299169866713,0.394133109232081));
#1239=CARTESIAN_POINT('Origin',(0.196850393700787,-0.159274084787674,0.360236220472441));
#1240=CARTESIAN_POINT('',(0.393700787401575,-0.159274084787673,0.320866141732283));
#1241=CARTESIAN_POINT('',(0.383858267716535,-0.179299169866713,0.394133109232081));
#1242=CARTESIAN_POINT('Origin',(0.196850393700787,0.271568481984092,0.475393700787401));
#1243=CARTESIAN_POINT('',(0.196850393700787,0.104017145173422,0.561506385086054));
#1244=CARTESIAN_POINT('',(0.196850393700787,0.104017145173422,0.561506385086054));
#1245=CARTESIAN_POINT('',(0.196850393700787,0.354330708661418,0.62992125984252));
#1246=CARTESIAN_POINT('Origin',(0.196850393700787,0.354330708661418,0.137795275590551));
#1247=CARTESIAN_POINT('',(0.196850393700787,0.846456692913386,0.62992125984252));
#1248=CARTESIAN_POINT('',(0.196850393700787,0.846456692913386,0.62992125984252));
#1249=CARTESIAN_POINT('',(0.196850393700787,0.846456692913386,0.320866141732284));
#1250=CARTESIAN_POINT('',(0.196850393700787,0.846456692913386,0.));
#1251=CARTESIAN_POINT('',(0.196850393700787,-0.303319728945203,0.320866141732283));
#1252=CARTESIAN_POINT('Origin',(0.393700787401575,-0.303319728945203,0.320866141732283));
#1253=CARTESIAN_POINT('',(0.388779527559055,0.846456692913386,0.320866141732284));
#1254=CARTESIAN_POINT('Origin',(0.759055118110236,0.543747436426928,0.285433070866142));
#1255=CARTESIAN_POINT('',(0.551181102362205,0.543747436426928,0.285433070866142));
#1256=CARTESIAN_POINT('',(0.551181102362205,0.543747436426928,-0.00984251968503938));
#1257=CARTESIAN_POINT('',(0.551181102362205,0.543747436426928,0.211614173228346));
#1258=CARTESIAN_POINT('',(0.759055118110236,0.543747436426928,0.285433070866142));
#1259=CARTESIAN_POINT('',(0.551181102362204,0.543747436426928,0.285433070866142));
#1260=CARTESIAN_POINT('',(0.759055118110236,0.543747436426928,-0.00984251968503938));
#1261=CARTESIAN_POINT('',(0.759055118110236,0.543747436426928,0.211614173228346));
#1262=CARTESIAN_POINT('',(0.551181102362204,0.543747436426928,-0.00984251968503938));
#1263=CARTESIAN_POINT('Origin',(0.551181102362205,0.354330708661418,0.137795275590551));
#1264=CARTESIAN_POINT('Origin',(0.759055118110236,0.354330708661418,0.137795275590551));
#1265=CARTESIAN_POINT('Origin',(0.551181102362205,0.354330708661418,0.137795275590551));
#1266=CARTESIAN_POINT('Origin',(0.539370078740157,0.354330708661418,0.139271653543307));
#1267=CARTESIAN_POINT('',(0.539370078740158,-0.846456692913386,0.));
#1268=CARTESIAN_POINT('',(0.539370078740157,0.354330708661418,0.0590551181102362));
#1269=CARTESIAN_POINT('Origin',(0.539370078740157,0.354330708661418,0.137795275590551));
#1270=CARTESIAN_POINT('Origin',(-1.42235958076146,0.354330708661417,0.137795275590551));
#1271=CARTESIAN_POINT('',(0.955905511811023,0.354330708661418,0.0590551181102362));
#1272=CARTESIAN_POINT('Origin',(0.955905511811023,0.354330708661418,0.137795275590551));
#1273=CARTESIAN_POINT('',(-1.42235958076146,0.354330708661417,0.0590551181102362));
#1274=CARTESIAN_POINT('Origin',(0.759055118110236,0.354330708661418,0.137795275590551));
#1275=CARTESIAN_POINT('',(0.955905511811023,0.354330708661418,-0.0196850393700787));
#1276=CARTESIAN_POINT('Origin',(0.955905511811023,0.354330708661418,0.137795275590551));
#1277=CARTESIAN_POINT('',(0.759055118110236,0.354330708661418,-0.0196850393700787));
#1278=CARTESIAN_POINT('',(0.759055118110236,0.354330708661418,-0.0196850393700787));
#1279=CARTESIAN_POINT('Origin',(0.759055118110236,0.354330708661418,0.137795275590551));
#1280=CARTESIAN_POINT('Origin',(0.955905511811023,0.354330708661418,0.137795275590551));
#1281=CARTESIAN_POINT('Origin',(0.759055118110236,0.354330708661418,0.137795275590551));
#1282=CARTESIAN_POINT('Origin',(0.393700787401574,0.846456692913386,0.));
#1283=CARTESIAN_POINT('',(-0.393700787401575,0.846456692913386,0.));
#1284=CARTESIAN_POINT('',(0.393700787401574,0.846456692913386,0.));
#1285=CARTESIAN_POINT('',(0.531496062992126,0.846456692913386,0.62992125984252));
#1286=CARTESIAN_POINT('',(0.393700787401574,0.846456692913386,0.62992125984252));
#1287=CARTESIAN_POINT('',(0.531496062992126,0.846456692913386,0.137795275590551));
#1288=CARTESIAN_POINT('',(-0.393700787401575,0.846456692913386,-0.137795275590551));
#1289=CARTESIAN_POINT('',(0.393700787401574,0.846456692913386,-0.137795275590551));
#1290=CARTESIAN_POINT('',(-0.393700787401575,0.846456692913386,0.));
#1291=CARTESIAN_POINT('Origin',(0.393700787401575,-0.846456692913386,0.));
#1292=CARTESIAN_POINT('',(0.531496062992126,-0.846456692913386,0.));
#1293=CARTESIAN_POINT('',(-0.393700787401574,-0.846456692913386,0.));
#1294=CARTESIAN_POINT('',(0.531496062992126,0.104017145173422,0.561506385086054));
#1295=CARTESIAN_POINT('',(0.531496062992126,-0.846456692913386,0.));
#1296=CARTESIAN_POINT('',(0.393700787401575,0.104017145173422,0.561506385086054));
#1297=CARTESIAN_POINT('Origin',(-4.37095678986282E-17,1.74838271594513E-16,
0.));
#1298=CARTESIAN_POINT('',(-0.393700787401574,-0.846456692913386,0.));
#1299=CARTESIAN_POINT('',(-0.393700787401575,0.846456692913386,0.));
#1300=CARTESIAN_POINT('',(-0.393700787401574,-0.846456692913386,0.));
#1301=CARTESIAN_POINT('',(-0.354330708661417,0.31496062992126,0.));
#1302=CARTESIAN_POINT('Origin',(-0.295275590551181,0.31496062992126,0.));
#1303=CARTESIAN_POINT('',(0.236220472440945,0.31496062992126,0.));
#1304=CARTESIAN_POINT('Origin',(0.295275590551181,0.31496062992126,0.));
#1305=CARTESIAN_POINT('',(0.236220472440945,-0.31496062992126,0.));
#1306=CARTESIAN_POINT('Origin',(0.295275590551181,-0.31496062992126,0.));
#1307=CARTESIAN_POINT('',(-0.354330708661417,-0.31496062992126,0.));
#1308=CARTESIAN_POINT('Origin',(-0.295275590551181,-0.31496062992126,0.));
#1309=CARTESIAN_POINT('Origin',(0.531496062992126,0.354330708661418,0.137795275590551));
#1310=CARTESIAN_POINT('',(0.551181102362205,0.354330708661418,-0.330954724409449));
#1311=CARTESIAN_POINT('Origin',(0.551181102362205,0.354330708661418,0.137795275590551));
#1312=CARTESIAN_POINT('',(0.531496062992126,0.354330708661418,-0.330954724409449));
#1313=CARTESIAN_POINT('',(0.531496062992126,0.354330708661418,-0.330954724409449));
#1314=CARTESIAN_POINT('Origin',(0.531496062992126,0.354330708661418,0.137795275590551));
#1315=CARTESIAN_POINT('Origin',(0.551181102362205,0.354330708661418,0.137795275590551));
#1316=CARTESIAN_POINT('Origin',(0.393700787401574,0.354330708661418,0.62992125984252));
#1317=CARTESIAN_POINT('',(0.531496062992126,0.354330708661418,0.62992125984252));
#1318=CARTESIAN_POINT('',(0.393700787401574,0.354330708661418,0.62992125984252));
#1319=CARTESIAN_POINT('',(0.531496062992126,0.354330708661418,0.62992125984252));
#1320=CARTESIAN_POINT('Origin',(0.393700787401574,0.354330708661418,0.137795275590551));
#1321=CARTESIAN_POINT('Origin',(0.531496062992126,0.354330708661418,0.137795275590551));
#1322=CARTESIAN_POINT('Origin',(0.531496062992126,3.93386111087654E-16,
0.137795275590551));
#1323=CARTESIAN_POINT('',(0.531496062992126,-0.846456692913386,-0.137795275590551));
#1324=CARTESIAN_POINT('Origin',(-0.295275590551181,-0.31496062992126,1.7343544272615));
#1325=CARTESIAN_POINT('',(-0.354330708661417,-0.31496062992126,-0.137795275590551));
#1326=CARTESIAN_POINT('Origin',(-0.295275590551181,-0.31496062992126,-0.137795275590551));
#1327=CARTESIAN_POINT('',(-0.354330708661417,-0.31496062992126,1.7343544272615));
#1328=CARTESIAN_POINT('Origin',(0.295275590551181,-0.31496062992126,1.7343544272615));
#1329=CARTESIAN_POINT('',(0.236220472440945,-0.31496062992126,-0.137795275590551));
#1330=CARTESIAN_POINT('Origin',(0.295275590551181,-0.31496062992126,-0.137795275590551));
#1331=CARTESIAN_POINT('',(0.236220472440945,-0.31496062992126,1.7343544272615));
#1332=CARTESIAN_POINT('Origin',(0.295275590551181,0.31496062992126,1.7343544272615));
#1333=CARTESIAN_POINT('',(0.236220472440945,0.31496062992126,-0.137795275590551));
#1334=CARTESIAN_POINT('Origin',(0.295275590551181,0.31496062992126,-0.137795275590551));
#1335=CARTESIAN_POINT('',(0.236220472440945,0.31496062992126,1.7343544272615));
#1336=CARTESIAN_POINT('Origin',(-0.295275590551181,0.31496062992126,1.7343544272615));
#1337=CARTESIAN_POINT('',(-0.354330708661417,0.31496062992126,-0.137795275590551));
#1338=CARTESIAN_POINT('Origin',(-0.295275590551181,0.31496062992126,-0.137795275590551));
#1339=CARTESIAN_POINT('',(-0.354330708661417,0.31496062992126,1.7343544272615));
#1340=CARTESIAN_POINT('Origin',(-0.393700787401574,-0.846456692913386,0.));
#1341=CARTESIAN_POINT('',(-0.393700787401574,-0.846456692913386,-0.137795275590551));
#1342=CARTESIAN_POINT('',(-0.393700787401574,-0.846456692913386,0.));
#1343=CARTESIAN_POINT('',(-0.393700787401574,-0.846456692913386,-0.137795275590551));
#1344=CARTESIAN_POINT('Origin',(-0.393700787401575,0.846456692913386,0.));
#1345=CARTESIAN_POINT('',(-0.393700787401575,0.846456692913386,-0.137795275590551));
#1346=CARTESIAN_POINT('Origin',(-8.74191357972564E-17,1.74838271594513E-16,
-0.137795275590551));
#1347=UNCERTAINTY_MEASURE_WITH_UNIT(LENGTH_MEASURE(0.000393700787401575),
#1353,'DISTANCE_ACCURACY_VALUE',
'Maximum model space distance between geometric entities at asserted c
onnectivities');
#1348=UNCERTAINTY_MEASURE_WITH_UNIT(LENGTH_MEASURE(0.000393700787401575),
#1353,'DISTANCE_ACCURACY_VALUE',
'Maximum model space distance between geometric entities at asserted c
onnectivities');
#1349=(
GEOMETRIC_REPRESENTATION_CONTEXT(3)
GLOBAL_UNCERTAINTY_ASSIGNED_CONTEXT((#1347))
GLOBAL_UNIT_ASSIGNED_CONTEXT((#1353,#1357,#1358))
REPRESENTATION_CONTEXT('','3D')
);
#1350=(
GEOMETRIC_REPRESENTATION_CONTEXT(3)
GLOBAL_UNCERTAINTY_ASSIGNED_CONTEXT((#1348))
GLOBAL_UNIT_ASSIGNED_CONTEXT((#1353,#1357,#1358))
REPRESENTATION_CONTEXT('','3D')
);
#1351=DIMENSIONAL_EXPONENTS(1.,0.,0.,0.,0.,0.,0.);
#1352=DIMENSIONAL_EXPONENTS(0.,1.,0.,0.,0.,0.,0.);
#1353=(
CONVERSION_BASED_UNIT('inch',#1356)
LENGTH_UNIT()
NAMED_UNIT(#1351)
);
#1354=(
LENGTH_UNIT()
NAMED_UNIT(*)
SI_UNIT(.MILLI.,.METRE.)
);
#1355=(
LENGTH_UNIT()
NAMED_UNIT(*)
SI_UNIT(.CENTI.,.METRE.)
);
#1356=LENGTH_MEASURE_WITH_UNIT(LENGTH_MEASURE(25.4),#1354);
#1357=(
NAMED_UNIT(*)
PLANE_ANGLE_UNIT()
SI_UNIT($,.RADIAN.)
);
#1358=(
NAMED_UNIT(*)
SI_UNIT($,.STERADIAN.)
SOLID_ANGLE_UNIT()
);
#1359=SHAPE_DEFINITION_REPRESENTATION(#1360,#1361);
#1360=PRODUCT_DEFINITION_SHAPE('',$,#1363);
#1361=SHAPE_REPRESENTATION('',(#837),#1349);
#1362=PRODUCT_DEFINITION_CONTEXT('part definition',#1367,'design');
#1363=PRODUCT_DEFINITION('CarriagePivotMount_MIR',
'CarriagePivotMount_MIR',#1364,#1362);
#1364=PRODUCT_DEFINITION_FORMATION('',$,#1369);
#1365=PRODUCT_RELATED_PRODUCT_CATEGORY('CarriagePivotMount_MIR',
'CarriagePivotMount_MIR',(#1369));
#1366=APPLICATION_PROTOCOL_DEFINITION('international standard',
'automotive_design',2009,#1367);
#1367=APPLICATION_CONTEXT(
'Core Data for Automotive Mechanical Design Process');
#1368=PRODUCT_CONTEXT('part definition',#1367,'mechanical');
#1369=PRODUCT('CarriagePivotMount_MIR','CarriagePivotMount_MIR',$,(#1368));
#1370=PRESENTATION_STYLE_ASSIGNMENT((#1371));
#1371=SURFACE_STYLE_USAGE(.BOTH.,#1374);
#1372=SURFACE_STYLE_RENDERING_WITH_PROPERTIES($,#1378,(#1373));
#1373=SURFACE_STYLE_TRANSPARENT(0.);
#1374=SURFACE_SIDE_STYLE('',(#1375,#1372));
#1375=SURFACE_STYLE_FILL_AREA(#1376);
#1376=FILL_AREA_STYLE('',(#1377));
#1377=FILL_AREA_STYLE_COLOUR('',#1378);
#1378=COLOUR_RGB('',0.92156862745098,0.92156862745098,0.92156862745098);
ENDSEC;
END-ISO-10303-21;
